<?xml version="1.0" standalone="no"?>
<!DOCTYPE svg PUBLIC "-//W3C//DTD SVG 1.1//EN" "http://www.w3.org/Graphics/SVG/1.1/DTD/svg11.dtd" >
<svg xmlns="http://www.w3.org/2000/svg" width="100%" height="100%">

<defs>
<font id="FuturaNewDemi-Obl" horiz-adv-x="568" >
  <font-face 
    font-family="FuturaNewDemi"
    font-weight="500"
    font-style="italic"
    font-stretch="normal"
    units-per-em="1000"
    panose-1="2 11 7 2 2 2 4 9 3 3"
    ascent="800"
    descent="-200"
    x-height="433"
    cap-height="667"
    bbox="-316 -270 1162 980"
    underline-thickness="50"
    underline-position="-50"
    slope="-12"
    stemh="112"
    stemv="128"
    unicode-range="U+0020-FB02"
  />
<missing-glyph horiz-adv-x="233" 
 />
    <glyph glyph-name="uniF460" unicode="&#x410;`" horiz-adv-x="672" 
d="M533 0l-42 140h-269l-76 -140h-144l373 667h98l197 -667h-137zM276 246h190l-64 240zM401 728l-49 50l157 142l81 -70z" />
    <glyph glyph-name="uniF461" unicode="&#x415;`" horiz-adv-x="496" 
d="M528 667l-14 -112h-240l-18 -149h230l-14 -112h-230l-22 -182h240l-14 -112h-240h-130l82 667h370zM313 728l-49 50l157 142l81 -70z" />
    <glyph glyph-name="uniF462" unicode="&#x418;`" horiz-adv-x="736" 
d="M156 667h130l-54 -440l424 440h88l-82 -667h-130l54 443l-422 -443h-90zM435 728l-49 50l157 142l81 -70z" />
    <glyph glyph-name="uniF463" unicode="&#x41e;`" horiz-adv-x="806" 
d="M484 682c95 0 178 -35 231 -86c50 -48 88 -123 88 -222c0 -106 -40 -211 -107 -280c-53 -55 -143 -109 -278 -109c-131 0 -206 53 -245 93c-55 56 -88 137 -88 221c0 110 46 213 115 278c70 66 174 105 284 105zM425 103c67 0 124 27 164 66c48 47 79 120 79 195
c0 60 -22 109 -53 141c-29 30 -79 58 -152 58c-72 0 -128 -28 -166 -64c-51 -48 -77 -118 -77 -190c0 -71 27 -118 53 -145c36 -38 90 -61 152 -61zM468 728l-49 50l157 142l81 -70z" />
    <glyph glyph-name="uniF464" unicode="&#x423;`" horiz-adv-x="606" 
d="M84 667h140l132 -327l180 327h150l-391 -667h-142l122 200zM368 728l-49 50l157 142l81 -70z" />
    <glyph glyph-name="uniF465" unicode="&#x42b;`" horiz-adv-x="800" 
d="M676 667h130l-82 -667h-130zM76 0l82 667h130l-32 -261h90c85 0 137 -28 166 -55c29 -28 50 -69 50 -128c0 -71 -27 -126 -62 -160c-59 -58 -135 -63 -197 -63h-98h-129zM242 294l-22 -182h76c50 0 76 9 92 19c25 16 40 44 40 75c0 38 -19 59 -34 69
c-21 14 -59 19 -86 19h-66zM465 728l-49 50l157 142l81 -70z" />
    <glyph glyph-name="uniF466" unicode="&#x42d;`" horiz-adv-x="614" 
d="M47 24l19 152c51 -58 115 -73 169 -73c67 0 121 18 156 46c9 7 59 49 76 130h-299l14 112h297c-1 56 -25 100 -52 126c-24 23 -66 47 -133 47c-71 0 -138 -28 -190 -75l19 152c76 34 139 41 183 41c104 0 186 -35 234 -88c63 -69 71 -165 71 -216
c0 -152 -64 -249 -114 -300c-65 -65 -146 -93 -266 -93c-98 0 -156 25 -184 39zM372 728l-49 50l157 142l81 -70z" />
    <glyph glyph-name="uniF467" unicode="&#x42e;`" horiz-adv-x="1019" 
d="M256 409h86c23 93 75 159 127 199c54 42 133 74 232 74c124 0 196 -51 234 -90c64 -66 81 -146 81 -214c0 -107 -35 -215 -107 -290c-75 -78 -166 -103 -259 -103c-76 0 -170 16 -242 93c-45 48 -82 123 -79 219h-87l-36 -297h-130l82 667h130zM648 103
c65 0 119 25 157 61c45 43 76 115 76 200c0 46 -10 104 -57 150c-38 36 -83 49 -130 49c-78 0 -131 -32 -163 -64c-43 -43 -76 -112 -76 -190c0 -77 30 -126 61 -155c29 -28 72 -51 132 -51zM574 728l-49 50l157 142l81 -70z" />
    <glyph glyph-name="uniF468" unicode="&#x42f;`" 
d="M574 667l-82 -667h-130l32 258h-16l-202 -258h-164l231 270c-32 8 -66 27 -89 53c-20 23 -38 58 -38 112c0 63 23 126 69 169c61 57 140 63 196 63h193zM431 561h-40c-34 0 -77 -1 -107 -30c-19 -18 -32 -50 -32 -81c0 -37 18 -57 31 -67c28 -22 73 -23 93 -23h30z
M349 728l-49 50l157 142l81 -70z" />
    <glyph glyph-name="uniF469" unicode="&#x401;`" horiz-adv-x="496" 
d="M528 667l-14 -112h-240l-18 -149h230l-14 -112h-230l-22 -182h240l-14 -112h-370l82 667h370zM299 741l-35 37l134 142l61 -54zM143 815c0 15 5 33 20 48c13 13 29 20 50 20c10 0 25 -2 37 -14c8 -8 15 -21 15 -38c0 -14 -4 -33 -21 -50c-15 -14 -31 -19 -46 -19
c-12 0 -28 4 -40 16c-9 9 -15 21 -15 37zM454 814c0 20 7 36 20 49c16 16 34 20 48 20c18 0 31 -7 38 -14c11 -10 16 -23 16 -39c0 -14 -4 -33 -21 -49c-13 -12 -28 -19 -46 -19c-16 0 -28 4 -40 16c-10 10 -15 19 -15 36z" />
    <glyph glyph-name="uniF46A" unicode="&#x430;`" horiz-adv-x="572" 
d="M438 377l7 56h122l-53 -433h-122l7 56c-22 -29 -47 -44 -55 -49c-26 -15 -51 -21 -81 -21c-52 0 -101 14 -142 55c-42 42 -58 95 -58 153c0 78 26 142 67 185c35 36 91 68 171 68c31 0 58 -6 86 -21c24 -13 39 -29 51 -49zM318 339c-31 0 -60 -9 -85 -31
c-28 -26 -43 -64 -43 -100c0 -38 14 -68 33 -86c18 -17 44 -28 80 -28c24 0 57 5 86 31s43 67 43 104c0 31 -12 58 -30 77c-14 15 -40 33 -84 33zM440 700l81 -56l-166 -134l-51 40z" />
    <glyph glyph-name="uniF46B" unicode="&#x435;`" horiz-adv-x="526" 
d="M393 141l105 -25c-22 -45 -57 -81 -92 -101c-43 -24 -91 -29 -130 -29c-58 0 -115 11 -161 60c-24 25 -52 69 -52 140c0 75 27 150 75 197c55 55 120 64 173 64c52 0 106 -10 148 -50c47 -45 56 -104 56 -157c0 -18 0 -31 -2 -44h-324c-5 -40 7 -69 25 -87
c22 -23 49 -27 71 -27c15 0 43 1 66 14c18 11 33 29 42 45zM203 274h205c-1 25 -12 49 -27 63c-17 16 -43 24 -68 24c-33 0 -57 -13 -74 -28c-15 -14 -29 -35 -36 -59zM417 700l81 -56l-166 -134l-51 40z" />
    <glyph glyph-name="uniF46C" unicode="&#x438;`" horiz-adv-x="560" 
d="M111 433h122l-33 -267l233 267h122l-53 -433h-122l33 267l-233 -267h-122zM434 700l81 -56l-166 -134l-51 40z" />
    <glyph glyph-name="uniF46D" unicode="&#x43e;`" horiz-adv-x="572" 
d="M336 447c85 0 138 -29 171 -62c28 -29 56 -76 56 -144c0 -55 -17 -124 -77 -182c-57 -54 -122 -73 -199 -73c-62 0 -120 13 -167 60c-32 31 -57 79 -57 147c0 71 31 138 75 181c35 34 97 73 198 73zM299 94c33 0 69 12 95 38c25 25 41 63 41 97c0 27 -11 60 -32 80
c-20 19 -50 30 -79 30c-34 0 -68 -13 -92 -35c-30 -28 -43 -69 -43 -103c0 -26 11 -57 30 -76c20 -20 52 -31 80 -31zM440 700l81 -56l-166 -134l-51 40z" />
    <glyph glyph-name="uniF46E" unicode="&#x443;`" horiz-adv-x="538" 
d="M21 -229l195 294l-161 368h138l104 -246l150 246h142l-430 -662h-138zM423 700l81 -56l-166 -134l-51 40z" />
    <glyph glyph-name="uniF46F" unicode="&#x44b;`" horiz-adv-x="650" 
d="M523 433h122l-53 -433h-122zM112 433h121l-19 -154h78c23 0 80 -2 117 -37c28 -27 33 -62 33 -87c0 -55 -21 -91 -41 -110c-42 -41 -107 -45 -161 -45h-64h-118zM192 96h56c13 0 35 1 49 11c8 6 18 18 18 37c0 18 -9 27 -16 31c-10 6 -29 8 -40 8h-57zM479 700l81 -56
l-166 -134l-51 40z" />
    <glyph glyph-name="uniF470" unicode="&#x44d;`" horiz-adv-x="436" 
d="M35 11l15 116c25 -24 60 -42 118 -42c26 0 56 4 81 22c6 4 33 26 41 68h-179l11 88h179c-4 28 -18 51 -35 64c-20 16 -49 24 -77 24c-34 0 -76 -9 -114 -37l13 106c51 20 91 27 127 27c58 0 123 -21 162 -62c42 -44 50 -101 50 -143c0 -102 -40 -163 -74 -196
c-58 -56 -123 -61 -176 -61c-48 0 -92 5 -142 26zM372 700l81 -56l-166 -134l-51 40z" />
    <glyph glyph-name="uniF471" unicode="&#x44e;`" horiz-adv-x="753" 
d="M213 270h56c15 53 45 95 79 122c45 36 109 55 171 55c78 0 135 -29 169 -63c21 -21 56 -66 56 -144c0 -55 -17 -125 -77 -183c-57 -56 -119 -71 -199 -71c-54 0 -111 11 -156 57c-27 27 -50 70 -55 123h-57l-20 -166h-122l53 433h122zM482 94c38 0 70 14 93 37
c25 25 41 62 41 100c0 34 -14 61 -32 78c-20 19 -50 30 -79 30c-27 0 -58 -9 -85 -35c-24 -23 -42 -60 -42 -100c0 -35 13 -62 29 -79c10 -10 33 -31 75 -31zM530 700l81 -56l-166 -134l-51 40z" />
    <glyph glyph-name="uniF472" unicode="&#x44f;`" horiz-adv-x="460" 
d="M20 0l148 162c-24 6 -47 19 -61 34c-22 23 -28 51 -28 79c0 53 21 88 41 108c48 49 119 50 174 50h161l-53 -433h-122l19 152h-8l-125 -152h-146zM309 240l12 97h-53c-15 0 -35 -4 -46 -13c-8 -6 -18 -19 -18 -40c0 -12 3 -23 15 -32s31 -12 45 -12h45zM384 700l81 -56
l-166 -134l-51 40z" />
    <glyph glyph-name="uniF473" unicode="&#x451;`" horiz-adv-x="526" 
d="M393 141l105 -25c-22 -45 -57 -81 -92 -101c-43 -24 -91 -29 -130 -29c-58 0 -115 11 -161 60c-24 25 -52 69 -52 140c0 75 27 150 75 197c55 55 120 64 173 64c52 0 106 -10 148 -50c47 -45 56 -104 56 -157c0 -18 0 -31 -2 -44h-324c-5 -40 7 -69 25 -87
c22 -23 49 -27 71 -27c15 0 43 1 66 14c18 11 33 29 42 45zM203 274h205c-1 25 -12 49 -27 63c-17 16 -43 24 -68 24c-33 0 -57 -13 -74 -28c-15 -14 -29 -35 -36 -59zM342 700l67 -51l-153 -134l-40 35zM96 590c0 15 5 33 20 48c11 11 27 20 50 20c15 0 28 -5 39 -17
s13 -25 13 -37c0 -20 -5 -34 -18 -47s-29 -21 -50 -21c-16 0 -28 4 -38 14c-9 9 -16 22 -16 40zM402 590c0 20 7 35 20 48c14 14 33 20 49 20s29 -5 40 -17c9 -10 13 -23 13 -37c0 -16 -5 -33 -19 -47c-14 -15 -33 -21 -50 -21c-15 0 -29 5 -38 14c-8 7 -15 20 -15 40z" />
    <glyph glyph-name="fi" unicode="fi" horiz-adv-x="523" 
d="M334 329h-112l-40 -329h-122l40 329h-46l13 104h46l14 108c5 38 14 98 56 142c46 49 109 58 159 58c83 0 128 -27 152 -50c45 -42 49 -96 42 -153l-3 -26h-122l3 19c6 36 2 66 -19 83c-14 12 -38 17 -55 17c-26 0 -47 -9 -61 -22c-21 -20 -26 -47 -30 -74l-14 -102h112z
M401 433h122l-53 -433h-122z" />
    <glyph glyph-name="fl" unicode="fl" horiz-adv-x="524" 
d="M334 329h-112l-40 -329h-122l40 329h-46l13 104h46l14 108c6 48 14 97 54 140c45 49 106 60 161 60c73 0 120 -22 148 -48c44 -40 49 -92 49 -125c0 -27 -4 -52 -11 -105l-58 -463h-122l60 489c4 36 7 53 7 68c0 19 -3 42 -24 58c-14 11 -34 16 -55 16
c-19 0 -40 -4 -58 -21c-25 -24 -28 -59 -32 -90l-11 -87h112z" />
    <glyph glyph-name=".notdef" horiz-adv-x="233" 
 />
    <glyph glyph-name="space" unicode=" " horiz-adv-x="233" 
 />
    <glyph glyph-name="exclam" unicode="!" horiz-adv-x="253" 
d="M214 203h-124l57 464h124zM56 54c0 23 10 47 26 63s38 26 63 26c22 0 39 -9 50 -20c16 -16 19 -36 19 -50c0 -26 -9 -47 -25 -62c-18 -18 -39 -24 -62 -24c-20 0 -37 5 -52 20c-14 14 -19 31 -19 47z" />
    <glyph glyph-name="quotedbl" unicode="&#x22;" horiz-adv-x="388" 
d="M254 667l-56 -268h-84l10 268h130zM428 667l-56 -268h-84l10 268h130z" />
    <glyph glyph-name="numbersign" unicode="#" horiz-adv-x="586" 
d="M403 0h-122l53 186h-94l-53 -186h-122l53 186h-102l30 104h102l28 101h-102l30 104h102l49 172h122l-49 -172h94l49 172h122l-49 -172h102l-30 -104h-102l-28 -101h102l-30 -104h-102zM364 290l28 101h-94l-28 -101h94z" />
    <glyph glyph-name="dollar" unicode="$" 
d="M338 765h82l-12 -100c34 -4 61 -15 81 -26c23 -13 46 -31 63 -49l-76 -84c-12 13 -28 27 -43 36c-18 11 -37 18 -60 18c-36 0 -56 -13 -65 -20c-15 -13 -26 -32 -26 -55c0 -22 9 -36 25 -47c13 -10 45 -25 59 -31l36 -16c26 -12 66 -33 89 -58c34 -37 39 -80 39 -112
c0 -73 -26 -126 -66 -163c-25 -23 -70 -54 -138 -56l-15 -112h-82l15 110c-30 4 -67 14 -105 39c-37 25 -61 54 -76 80l84 77c13 -20 34 -46 55 -61s50 -27 83 -27c28 0 58 6 79 23c16 12 33 36 33 71c0 20 -8 39 -25 54c-9 8 -24 17 -64 36l-34 16c-25 12 -55 27 -80 53
c-30 31 -39 63 -39 102c0 76 31 122 56 147c26 26 66 48 115 55z" />
    <glyph glyph-name="percent" unicode="%" horiz-adv-x="777" 
d="M269 675c53 0 92 -17 119 -43c24 -22 44 -57 44 -109c0 -41 -15 -83 -43 -114c-41 -44 -93 -50 -133 -50c-43 0 -87 8 -122 43c-26 26 -41 62 -41 104c0 43 17 88 47 119c28 29 69 50 129 50zM256 431c31 0 53 12 66 25c16 16 26 41 26 69c0 29 -11 47 -21 57
c-19 19 -45 21 -59 21c-24 0 -44 -5 -63 -24c-14 -14 -27 -35 -27 -69c0 -17 4 -40 22 -58c13 -13 32 -21 56 -21zM164 3l482 686l49 -30l-481 -687zM602 306c60 0 98 -22 119 -43c24 -24 44 -61 44 -109c0 -43 -15 -84 -43 -114c-41 -44 -92 -50 -133 -50
c-43 0 -87 8 -122 43c-26 26 -41 62 -41 104c0 43 17 88 47 119c28 29 69 50 129 50zM589 62c31 0 53 12 66 25c16 16 26 41 26 69c0 29 -11 47 -21 57c-19 19 -45 21 -59 21c-24 0 -44 -5 -63 -24c-14 -14 -27 -35 -27 -69c0 -17 4 -40 22 -58c13 -13 32 -21 56 -21z" />
    <glyph glyph-name="ampersand" unicode="&#x26;" horiz-adv-x="712" 
d="M610 313l67 -75c-41 -46 -68 -69 -89 -85l116 -153h-161l-56 75c-24 -23 -58 -48 -90 -63c-55 -25 -116 -27 -133 -27c-45 0 -99 7 -142 51c-27 27 -48 67 -48 124c0 71 31 118 59 145c32 31 69 47 109 64l17 7c-42 48 -51 93 -51 125c0 64 28 107 53 131
c38 37 86 50 138 50c40 0 92 -9 132 -47c32 -31 43 -68 43 -108c0 -39 -9 -73 -35 -103c-20 -23 -46 -39 -69 -51l-36 -19l91 -122c22 17 45 38 85 81zM424 157l-105 141c-28 -10 -60 -29 -80 -49c-26 -26 -33 -54 -33 -75c0 -22 9 -40 21 -52c14 -14 37 -23 67 -23
c25 0 53 9 72 18c22 10 43 26 58 40zM353 463l24 -36l33 21c13 8 28 21 39 35c12 16 17 32 17 50c0 21 -9 33 -15 39c-11 11 -29 16 -45 16c-28 0 -45 -10 -56 -21c-9 -9 -18 -24 -18 -46c0 -25 11 -43 21 -58z" />
    <glyph glyph-name="quotesingle" unicode="'" horiz-adv-x="214" 
d="M254 667l-56 -268h-84l10 268h130z" />
    <glyph glyph-name="parenleft" unicode="(" horiz-adv-x="339" 
d="M258 -127l-103 -53c-20 48 -34 94 -44 142c-15 75 -17 141 -17 169c0 184 53 337 92 428c17 38 47 104 94 181l91 -53c-35 -64 -68 -135 -90 -195c-59 -161 -66 -285 -66 -352c0 -75 7 -126 12 -151c7 -39 19 -82 31 -116z" />
    <glyph glyph-name="parenright" unicode=")" horiz-adv-x="332" 
d="M146 687l103 53c26 -64 39 -117 43 -137c18 -86 19 -170 19 -186c0 -106 -20 -245 -68 -374c-29 -77 -70 -158 -111 -223l-90 53c36 66 67 138 91 212c52 161 58 276 58 337c0 57 -4 102 -13 149c-7 40 -17 76 -32 116z" />
    <glyph glyph-name="asterisk" unicode="*" horiz-adv-x="573" 
d="M228 657l100 -45l7 117h88l-23 -116l112 44l18 -82l-116 -28l63 -88l-76 -53l-50 97l-74 -97l-63 53l85 87l-110 27z" />
    <glyph glyph-name="plus" unicode="+" horiz-adv-x="487" 
d="M68 283v112h156v156h122v-156h156v-112h-156v-156h-122v156h-156z" />
    <glyph glyph-name="comma" unicode="," horiz-adv-x="328" 
d="M-12 -131l139 269l110 -13l-173 -265z" />
    <glyph glyph-name="hyphen" unicode="-" horiz-adv-x="360" 
d="M71 174l14 112h260l-14 -112h-260z" />
    <glyph glyph-name="period" unicode="." horiz-adv-x="254" 
d="M56 54c0 23 10 47 26 63s38 26 63 26c22 0 39 -9 50 -20c16 -16 19 -36 19 -50c0 -26 -9 -47 -25 -62c-18 -18 -39 -24 -62 -24c-20 0 -37 5 -52 20c-14 14 -19 31 -19 47z" />
    <glyph glyph-name="slash" unicode="/" horiz-adv-x="653" 
d="M-30 -170l636 929l87 -40l-635 -929z" />
    <glyph glyph-name="zero" unicode="0" 
d="M287 -15c-62 0 -108 12 -152 56c-70 69 -78 168 -78 228c0 132 47 264 127 340c53 50 117 73 176 73c60 0 112 -23 148 -59c66 -65 75 -161 75 -218c0 -122 -34 -261 -121 -350c-55 -56 -104 -70 -175 -70zM355 570c-37 0 -62 -14 -84 -36c-55 -56 -82 -178 -82 -265
c0 -45 8 -113 43 -147c15 -15 36 -25 63 -25c31 0 56 13 77 34c47 49 79 170 79 262c0 54 -9 126 -41 157c-18 18 -36 20 -55 20z" />
    <glyph glyph-name="one" unicode="1" 
d="M228 0l68 555h-96l14 112h226l-82 -667h-130z" />
    <glyph glyph-name="two" unicode="2" 
d="M18 0l221 223c31 31 107 110 131 139c24 28 54 68 54 119c0 31 -12 53 -28 67c-15 13 -40 22 -67 22c-33 0 -58 -13 -73 -28c-19 -19 -33 -54 -36 -83h-134c6 65 34 116 63 148c54 60 123 75 189 75c56 0 118 -11 166 -60c36 -37 51 -80 51 -129c0 -53 -15 -96 -44 -138
c-15 -21 -41 -54 -108 -118l-130 -125h241l-14 -112h-482z" />
    <glyph glyph-name="three" unicode="3" 
d="M234 493h-122c7 42 27 93 61 128c46 48 106 61 159 61c84 0 134 -30 159 -56c29 -29 47 -72 47 -121c0 -40 -13 -72 -30 -96c-22 -31 -49 -46 -66 -53c18 -7 40 -21 59 -48c18 -26 25 -52 25 -86c0 -70 -25 -128 -60 -166c-56 -62 -126 -71 -189 -71
c-53 0 -116 8 -166 56c-36 35 -62 90 -65 151h130c2 -27 14 -55 33 -72c23 -20 53 -23 71 -23c28 0 59 5 85 32c18 19 31 49 31 87c0 34 -13 57 -32 71c-23 18 -53 20 -73 20h-11l11 94h18c22 0 52 3 75 25c18 18 28 46 28 73c0 30 -13 49 -25 60c-18 17 -41 21 -60 21
c-35 0 -55 -13 -66 -25c-14 -14 -24 -39 -27 -62z" />
    <glyph glyph-name="four" unicode="4" 
d="M551 667l-54 -437h78l-13 -104h-78l-15 -126h-122l15 126h-326l8 58l390 483h117zM203 230h172l31 258z" />
    <glyph glyph-name="five" unicode="5" 
d="M554 667l-14 -112h-222l-37 -105c13 2 29 4 47 4c66 0 118 -24 150 -57c27 -28 54 -76 54 -150c0 -77 -26 -139 -64 -181c-61 -68 -141 -81 -207 -81c-45 0 -91 7 -137 27c-45 20 -79 49 -89 58l56 112c19 -24 41 -44 67 -59c32 -19 61 -26 95 -26c60 0 94 24 109 39
c23 23 39 59 39 98c0 38 -14 74 -38 95c-23 20 -63 31 -101 31c-40 0 -84 -9 -138 -43l122 350h308z" />
    <glyph glyph-name="six" unicode="6" 
d="M388 685l101 -57l-176 -196c8 1 18 1 28 1c50 0 121 -11 172 -64c28 -30 53 -76 53 -135c0 -74 -33 -148 -80 -189c-62 -55 -143 -60 -191 -60c-63 0 -126 9 -182 65c-40 40 -59 85 -59 146c0 51 10 95 37 140c21 36 53 70 83 105zM302 89c42 0 72 13 98 41
c23 25 33 54 33 91c0 29 -7 59 -33 84s-57 30 -82 30c-51 0 -81 -21 -96 -37c-21 -22 -37 -57 -37 -99c0 -34 11 -59 32 -80c22 -21 49 -30 85 -30z" />
    <glyph glyph-name="seven" unicode="7" 
d="M56 29l371 526h-310l14 112h514l-486 -687z" />
    <glyph glyph-name="eight" unicode="8" 
d="M438 348c20 -6 47 -19 69 -48s30 -59 30 -94c0 -66 -24 -121 -59 -156c-54 -55 -129 -65 -184 -65c-57 0 -124 9 -175 61c-26 27 -48 66 -48 121s22 105 53 135c24 23 56 39 88 46c-21 12 -43 31 -57 52c-18 26 -23 54 -23 81c0 66 26 113 56 142s81 59 167 59
c42 0 97 -7 142 -45c39 -32 57 -75 57 -127c0 -45 -14 -79 -33 -104c-18 -24 -46 -46 -83 -58zM334 402c29 0 55 9 72 24c20 19 30 52 30 79c0 36 -17 55 -28 64c-19 16 -44 19 -60 19c-27 0 -49 -7 -69 -27c-14 -14 -30 -39 -30 -77c0 -23 7 -44 24 -60
c18 -17 38 -22 61 -22zM296 87c20 0 53 2 79 28c20 20 33 53 33 87c0 29 -10 54 -32 71c-17 13 -41 22 -66 22c-34 0 -61 -14 -78 -33c-18 -19 -30 -48 -30 -82s13 -55 25 -67c21 -22 46 -26 69 -26z" />
    <glyph glyph-name="nine" unicode="9" 
d="M254 -18l-100 56l170 193c-11 -2 -22 -3 -33 -3c-54 0 -110 22 -149 60c-28 27 -59 73 -59 145c0 63 24 129 72 176c55 55 126 73 196 73c95 0 152 -34 185 -67c30 -30 57 -77 57 -144c0 -53 -16 -95 -38 -134c-26 -45 -60 -84 -95 -124zM342 578c-34 0 -63 -12 -87 -36
c-33 -33 -40 -71 -40 -101c0 -36 14 -61 31 -78c19 -18 49 -31 87 -31c36 0 69 14 93 37c18 18 37 48 37 96c0 26 -5 55 -31 80c-24 22 -58 33 -90 33z" />
    <glyph glyph-name="colon" unicode=":" horiz-adv-x="253" 
d="M56 53c0 23 10 47 26 63s38 26 63 26c22 0 39 -9 50 -20c16 -16 19 -36 19 -50c0 -26 -9 -47 -25 -62c-18 -18 -39 -24 -62 -24c-20 0 -37 5 -52 20c-14 14 -19 31 -19 47zM92 358c0 23 10 47 26 63s38 26 63 26c22 0 39 -9 50 -20c16 -16 19 -36 19 -50
c0 -26 -9 -47 -25 -62c-18 -18 -39 -24 -62 -24c-20 0 -37 5 -52 20c-14 14 -19 31 -19 47z" />
    <glyph glyph-name="semicolon" unicode=";" horiz-adv-x="328" 
d="M-12 -131l139 269l110 -13l-173 -265zM127 358c0 23 10 47 26 63s38 26 63 26c22 0 39 -9 50 -20c16 -16 19 -36 19 -50c0 -26 -9 -47 -25 -62c-18 -18 -39 -24 -62 -24c-20 0 -37 5 -52 20c-14 14 -19 31 -19 47z" />
    <glyph glyph-name="less" unicode="&#x3c;" horiz-adv-x="461" 
d="M196 334l306 -150v-120l-434 218v104l434 218v-120z" />
    <glyph glyph-name="equal" unicode="=" horiz-adv-x="466" 
d="M58 372v106h434v-106h-434zM58 200v106h434v-106h-434z" />
    <glyph glyph-name="greater" unicode="&#x3e;" horiz-adv-x="461" 
d="M347 334l-306 150v120l434 -218v-104l-434 -218v120z" />
    <glyph glyph-name="question" unicode="?" horiz-adv-x="491" 
d="M308 203h-124l24 196c14 -3 24 -4 40 -4c31 0 68 4 97 30c21 18 35 47 35 80c0 25 -11 43 -22 53c-10 9 -27 16 -49 16c-27 0 -46 -11 -56 -23c-11 -13 -19 -39 -21 -60h-130c6 47 28 101 58 133c29 31 78 58 155 58c75 0 120 -25 146 -50c39 -38 49 -85 49 -123
c0 -64 -22 -110 -52 -141c-27 -28 -73 -57 -137 -60zM150 52c0 23 10 47 26 63s38 26 63 26c22 0 39 -9 50 -20c16 -16 19 -36 19 -50c0 -26 -9 -47 -25 -62c-18 -18 -39 -24 -62 -24c-20 0 -37 5 -52 20c-14 14 -19 31 -19 47z" />
    <glyph glyph-name="at" unicode="@" horiz-adv-x="739" 
d="M525 450l13 42h84l-65 -203c-7 -21 -9 -32 -9 -41c0 -6 0 -13 6 -19c4 -4 10 -8 23 -8c18 0 34 9 49 24c36 38 53 111 53 158c0 77 -40 124 -68 148c-38 32 -86 52 -149 52c-75 0 -154 -25 -216 -89c-51 -52 -92 -138 -92 -221c0 -68 27 -129 64 -167
c52 -52 120 -63 187 -63c76 0 137 16 183 33l9 -76c-77 -25 -144 -32 -203 -32c-81 0 -174 15 -245 88c-40 41 -76 106 -76 204c0 119 50 220 117 287c58 58 148 111 273 111c81 0 153 -23 210 -77c54 -51 80 -114 80 -195c0 -70 -21 -156 -74 -207
c-23 -22 -62 -46 -117 -46c-19 0 -41 4 -57 20c-8 8 -16 21 -18 36c-6 -8 -23 -30 -50 -46c-23 -13 -44 -18 -71 -18c-39 0 -69 12 -93 36c-25 24 -38 55 -38 97c0 61 25 123 70 169c35 37 75 56 124 56c32 0 74 -11 96 -53zM388 230c27 0 47 9 66 29c20 22 37 63 37 96
c0 23 -9 37 -16 44c-9 9 -23 16 -43 16c-19 0 -41 -7 -62 -27c-25 -25 -41 -64 -41 -95c0 -25 9 -41 19 -50c12 -11 25 -13 40 -13z" />
    <glyph glyph-name="A" unicode="A" horiz-adv-x="672" 
d="M533 0l-42 140h-269l-76 -140h-144l373 667h98l197 -667h-137zM276 246h190l-64 240z" />
    <glyph glyph-name="B" unicode="B" horiz-adv-x="571" 
d="M158 667h165c56 0 117 -5 162 -49c35 -34 43 -74 43 -114c0 -38 -7 -67 -28 -97c-18 -27 -40 -42 -65 -51c28 -9 58 -26 79 -49c27 -30 36 -62 36 -99c0 -71 -28 -117 -54 -144c-41 -43 -98 -64 -200 -64h-220zM275 561l-21 -171h28c38 0 72 4 97 30c14 15 25 38 25 63
c0 30 -13 49 -29 61c-22 16 -50 17 -68 17h-32zM242 290l-23 -184h56c47 0 91 3 117 28c15 14 26 39 26 68c0 25 -9 46 -22 59c-25 24 -73 29 -106 29h-48z" />
    <glyph glyph-name="C" unicode="C" horiz-adv-x="607" 
d="M585 176l-19 -152c-27 -14 -80 -39 -165 -39c-121 0 -192 48 -227 82c-66 63 -89 144 -89 224c0 126 46 227 107 289c87 87 195 102 274 102c43 0 104 -4 176 -41l-18 -150c-56 65 -128 73 -170 73c-84 0 -135 -35 -167 -69c-44 -47 -67 -118 -67 -185
c0 -73 28 -120 56 -150c38 -40 87 -58 144 -58c101 0 148 51 165 74z" />
    <glyph glyph-name="D" unicode="D" horiz-adv-x="673" 
d="M158 667h174c51 0 172 -5 255 -85c47 -45 83 -119 83 -218c0 -156 -67 -233 -98 -263c-75 -74 -176 -101 -316 -101h-52h-128zM274 555l-54 -443h44c88 0 161 17 211 72c42 46 61 115 61 177c0 37 -8 97 -58 142c-54 48 -129 52 -164 52h-40z" />
    <glyph glyph-name="E" unicode="E" horiz-adv-x="496" 
d="M528 667l-14 -112h-240l-18 -149h230l-14 -112h-230l-22 -182h240l-14 -112h-240h-130l82 667h370z" />
    <glyph glyph-name="F" unicode="F" horiz-adv-x="466" 
d="M512 667l-14 -112h-224l-18 -149h210l-14 -112h-210l-36 -294h-130l82 667h354z" />
    <glyph glyph-name="G" unicode="G" horiz-adv-x="766" 
d="M446 245l14 112h306c-7 -76 -31 -198 -113 -280c-74 -74 -163 -92 -243 -92c-77 0 -163 18 -234 87c-47 45 -91 117 -91 229c0 120 50 217 113 278c54 52 140 103 272 103c53 0 116 -9 177 -47c37 -23 73 -58 100 -104l-117 -67c-18 33 -42 56 -67 71
c-32 20 -68 29 -108 29c-77 0 -130 -32 -163 -65c-46 -46 -73 -119 -73 -191c0 -79 34 -126 58 -150c45 -45 100 -55 143 -55c38 0 91 6 136 45c30 26 51 64 62 97h-172z" />
    <glyph glyph-name="H" unicode="H" horiz-adv-x="694" 
d="M288 667l-32 -258h282l32 258h130l-82 -667h-130l36 297h-282l-36 -297h-130l82 667h130z" />
    <glyph glyph-name="I" unicode="I" horiz-adv-x="282" 
d="M158 667h130l-82 -667h-130z" />
    <glyph glyph-name="J" unicode="J" horiz-adv-x="390" 
d="M266 667h130l-55 -447c-10 -78 -19 -142 -69 -188c-44 -41 -95 -47 -136 -47c-21 0 -63 2 -99 20c-18 9 -40 25 -57 42l90 95c18 -32 45 -36 62 -36s34 5 48 19c23 23 27 67 33 112z" />
    <glyph glyph-name="K" unicode="K" horiz-adv-x="617" 
d="M288 667l-34 -266l273 266h151l-319 -311l253 -356h-156l-192 289l-25 -24l-33 -265h-130l82 667h130z" />
    <glyph glyph-name="L" unicode="L" horiz-adv-x="426" 
d="M158 667h130l-68 -555h206l-14 -112h-205h-131z" />
    <glyph glyph-name="M" unicode="M" horiz-adv-x="870" 
d="M42 0l207 667h94l124 -424l238 424h94l29 -667h-130l-10 411l-232 -411h-40l-122 411l-118 -411h-134z" />
    <glyph glyph-name="N" unicode="N" horiz-adv-x="778" 
d="M206 0h-130l82 667h92l349 -445l55 445h130l-82 -667h-92l-349 447z" />
    <glyph glyph-name="O" unicode="O" horiz-adv-x="806" 
d="M484 682c95 0 178 -35 231 -86c50 -48 88 -123 88 -222c0 -106 -40 -211 -107 -280c-53 -55 -143 -109 -278 -109c-131 0 -206 53 -245 93c-55 56 -88 137 -88 221c0 110 46 213 115 278c70 66 174 105 284 105zM425 103c67 0 124 27 164 66c48 47 79 120 79 195
c0 60 -22 109 -53 141c-29 30 -79 58 -152 58c-72 0 -128 -28 -166 -64c-51 -48 -77 -118 -77 -190c0 -71 27 -118 53 -145c36 -38 90 -61 152 -61z" />
    <glyph glyph-name="P" unicode="P" horiz-adv-x="535" 
d="M158 667h180c36 0 124 -3 179 -54c29 -27 54 -71 54 -142c0 -72 -25 -130 -63 -166c-53 -50 -128 -58 -183 -58h-89l-30 -247h-130zM274 555l-24 -196h55c31 0 70 2 100 28c27 24 32 55 32 79c0 20 -4 51 -36 71c-21 13 -56 18 -81 18h-46z" />
    <glyph glyph-name="Q" unicode="Q" horiz-adv-x="806" 
d="M651 -26l-48 59c-39 -24 -97 -48 -193 -48c-92 0 -171 24 -235 88c-40 40 -90 111 -90 225c0 104 39 209 109 279c88 89 196 105 278 105c132 0 207 -52 246 -91c49 -50 85 -127 85 -226c0 -59 -14 -117 -35 -161c-23 -48 -53 -83 -85 -108l94 -109zM537 268l67 -79
c50 52 64 116 64 167c0 66 -25 121 -63 156c-33 30 -83 52 -143 52c-66 0 -126 -25 -169 -69c-47 -47 -73 -114 -73 -181c0 -61 21 -112 53 -147c35 -38 90 -64 153 -64c40 0 72 10 99 24l-119 130z" />
    <glyph glyph-name="R" unicode="R" horiz-adv-x="576" 
d="M158 667h193c51 0 117 -7 166 -58c23 -24 47 -64 47 -128c0 -63 -23 -113 -55 -144c-30 -29 -79 -51 -123 -58l170 -279h-156l-145 268h-16l-33 -268h-130zM275 561l-25 -201h46c35 0 79 10 104 35c12 12 29 36 29 76c0 19 -4 45 -27 65c-16 14 -43 25 -86 25h-41z" />
    <glyph glyph-name="S" unicode="S" horiz-adv-x="534" 
d="M546 604l-79 -89c-18 27 -52 57 -107 57c-36 0 -58 -11 -71 -23c-16 -14 -26 -33 -26 -56c0 -22 9 -38 28 -51c13 -9 30 -16 63 -30l45 -19c26 -11 57 -28 83 -56c30 -32 41 -63 41 -107c0 -73 -28 -141 -71 -182c-55 -53 -127 -63 -182 -63c-51 0 -94 10 -137 38
c-34 22 -64 56 -85 88l95 81c10 -19 29 -46 47 -61c26 -22 54 -28 84 -28c26 0 61 4 87 33c14 15 25 37 25 69c0 24 -8 43 -30 61s-42 22 -68 33l-38 16c-42 18 -66 34 -81 49c-35 34 -41 75 -41 110c0 52 15 102 57 144c54 54 122 64 181 64c43 0 117 -7 180 -78z" />
    <glyph glyph-name="T" unicode="T" horiz-adv-x="442" 
d="M504 555h-150l-68 -555h-130l68 555h-150l14 112h430z" />
    <glyph glyph-name="U" unicode="U" horiz-adv-x="686" 
d="M156 667h130l-45 -369c-2 -20 -7 -61 -7 -74c0 -39 15 -72 34 -90c23 -21 59 -31 91 -31c38 0 71 11 94 28c48 36 54 94 62 159l47 377h130l-48 -391c-10 -78 -20 -161 -79 -221c-63 -64 -150 -70 -207 -70c-62 0 -142 10 -198 67c-44 45 -55 100 -55 154
c0 27 6 91 9 113z" />
    <glyph glyph-name="V" unicode="V" horiz-adv-x="644" 
d="M84 667h140l123 -448l233 448h144l-366 -667h-74z" />
    <glyph glyph-name="W" unicode="W" horiz-adv-x="978" 
d="M537 423l-209 -423h-92l-152 667h136l93 -454l220 454h72l97 -454l216 454h140l-335 -667h-92z" />
    <glyph glyph-name="X" unicode="X" horiz-adv-x="634" 
d="M8 0l279 352l-160 315h150l91 -207l149 207h156l-244 -315l185 -352h-150l-116 244l-184 -244h-156z" />
    <glyph glyph-name="Y" unicode="Y" horiz-adv-x="590" 
d="M227 0l37 305l-184 362h148l114 -232l172 232h160l-280 -362l-37 -305h-130z" />
    <glyph glyph-name="Z" unicode="Z" horiz-adv-x="584" 
d="M644 667l-392 -555h308l-14 -112h-524l392 555h-273l14 112h489z" />
    <glyph glyph-name="bracketleft" unicode="[" horiz-adv-x="349" 
d="M378 625h-94l-85 -701h94l-13 -104h-210l111 909h210z" />
    <glyph glyph-name="backslash" unicode="\" horiz-adv-x="673" 
d="M655 -170l-87 -40l-402 929l87 40z" />
    <glyph glyph-name="bracketright" unicode="]" horiz-adv-x="350" 
d="M43 -76h94l86 701h-94l13 104h210l-112 -909h-210z" />
    <glyph glyph-name="asciicircum" unicode="^" horiz-adv-x="500" 
d="M292 577l-115 -241h-127l162 331h160l162 -331h-127z" />
    <glyph glyph-name="underscore" unicode="_" horiz-adv-x="500" 
d="M0 -158v104h500v-104h-500z" />
    <glyph glyph-name="grave" unicode="`" horiz-adv-x="500" 
d="M307 510l-134 134l95 56l100 -150z" />
    <glyph glyph-name="a" unicode="a" horiz-adv-x="572" 
d="M438 377l7 56h122l-53 -433h-122l7 56c-22 -29 -47 -44 -55 -49c-26 -15 -51 -21 -81 -21c-52 0 -101 14 -142 55c-42 42 -58 95 -58 153c0 78 26 142 67 185c35 36 91 68 171 68c31 0 58 -6 86 -21c24 -13 39 -29 51 -49zM318 339c-31 0 -60 -9 -85 -31
c-28 -26 -43 -64 -43 -100c0 -38 14 -68 33 -86c18 -17 44 -28 80 -28c24 0 57 5 86 31s43 67 43 104c0 31 -12 58 -30 77c-14 15 -40 33 -84 33z" />
    <glyph glyph-name="b" unicode="b" horiz-adv-x="572" 
d="M270 729l-44 -352c13 19 30 35 54 48c30 17 57 22 91 22c44 0 91 -8 133 -48c51 -48 59 -109 59 -152c0 -79 -27 -151 -75 -199c-49 -49 -104 -62 -165 -62c-30 0 -63 3 -92 21c-14 9 -32 24 -44 49l-7 -56h-122l90 729h122zM326 339c-42 0 -71 -12 -95 -37
c-25 -26 -37 -57 -37 -95s12 -64 30 -82s48 -31 83 -31c31 0 67 12 90 35c27 26 39 69 39 106c0 30 -10 55 -30 74c-23 22 -50 30 -80 30z" />
    <glyph glyph-name="c" unicode="c" horiz-adv-x="420" 
d="M438 421l-15 -120c-18 17 -50 38 -103 38c-28 0 -62 -6 -90 -34c-27 -26 -40 -66 -40 -99c0 -31 11 -60 30 -79c19 -20 49 -33 82 -33c26 0 67 8 100 38l-14 -119c-40 -23 -85 -27 -114 -27c-62 0 -120 22 -158 61c-31 32 -54 79 -54 146c0 76 27 138 70 182
c52 53 113 72 186 72c38 0 76 -5 120 -26z" />
    <glyph glyph-name="d" unicode="d" horiz-adv-x="570" 
d="M438 377l44 352h122l-90 -729h-122l7 56c-1 -2 -24 -33 -54 -50c-24 -13 -57 -20 -88 -20c-53 0 -97 15 -134 52c-30 30 -60 80 -60 161c0 79 29 144 68 183c37 38 99 65 159 65c31 0 67 -9 90 -20c12 -6 37 -20 58 -50zM316 339c-35 0 -64 -10 -87 -33
c-26 -25 -39 -60 -39 -96c0 -39 14 -70 34 -88c16 -15 42 -28 79 -28s69 14 90 35c22 22 40 62 40 100c0 34 -12 60 -32 79c-25 23 -55 31 -85 31z" />
    <glyph glyph-name="e" unicode="e" horiz-adv-x="526" 
d="M393 141l105 -25c-22 -45 -57 -81 -92 -101c-43 -24 -91 -29 -130 -29c-58 0 -115 11 -161 60c-24 25 -52 69 -52 140c0 75 27 150 75 197c55 55 120 64 173 64c52 0 106 -10 148 -50c47 -45 56 -104 56 -157c0 -18 0 -31 -2 -44h-324c-5 -40 7 -69 25 -87
c22 -23 49 -27 71 -27c15 0 43 1 66 14c18 11 33 29 42 45zM203 274h205c-1 25 -12 49 -27 63c-17 16 -43 24 -68 24c-33 0 -57 -13 -74 -28c-15 -14 -29 -35 -36 -59z" />
    <glyph glyph-name="f" unicode="f" horiz-adv-x="290" 
d="M334 329h-112l-40 -329h-122l40 329h-46l13 104h46l14 107c6 47 14 111 57 155c20 21 57 46 114 46c25 0 59 -5 86 -15l-14 -111c-10 7 -28 18 -50 18c-17 0 -31 -6 -41 -15c-16 -15 -26 -45 -34 -105l-10 -80h112z" />
    <glyph glyph-name="g" unicode="g" horiz-adv-x="564" 
d="M430 377l7 56h122l-51 -413c-6 -51 -14 -134 -66 -187c-32 -33 -91 -63 -186 -63c-52 0 -116 9 -162 58c-28 29 -48 74 -53 121h128c2 -18 11 -40 25 -53c11 -11 32 -22 66 -22c38 0 66 12 84 29c27 26 35 65 39 94l8 61c-5 -7 -24 -33 -54 -51c-25 -15 -52 -21 -81 -21
c-53 0 -102 13 -142 53c-32 32 -57 83 -57 155c0 82 32 150 78 193c30 29 80 60 154 60c39 0 69 -8 91 -21c15 -9 35 -24 50 -49zM312 339c-43 0 -71 -16 -87 -31c-29 -26 -42 -67 -42 -104c0 -40 18 -66 32 -80c23 -23 51 -30 76 -30c49 0 78 18 93 32c26 25 42 66 42 105
c0 40 -18 66 -33 80c-18 16 -46 28 -81 28z" />
    <glyph glyph-name="h" unicode="h" horiz-adv-x="536" 
d="M58 0l90 729h122l-44 -352c12 19 29 36 53 50c25 14 50 20 84 20c58 0 94 -18 116 -40c28 -29 34 -65 34 -95c0 -24 -4 -44 -8 -74l-29 -238h-122l25 201c1 9 6 53 6 69c0 30 -11 47 -20 55c-12 11 -30 18 -52 18c-39 0 -61 -18 -69 -26c-23 -23 -33 -64 -37 -96
l-27 -221h-122z" />
    <glyph glyph-name="i" unicode="i" horiz-adv-x="238" 
d="M111 433h122l-53 -433h-122zM121 607c0 19 7 40 24 57c20 21 42 25 58 25c19 0 35 -7 46 -18c12 -12 19 -29 19 -47c0 -15 -5 -37 -24 -56c-18 -18 -39 -25 -58 -25s-34 7 -46 18c-12 12 -19 26 -19 46z" />
    <glyph glyph-name="j" unicode="j" horiz-adv-x="238" 
d="M111 433h122l-81 -662h-122zM121 607c0 19 7 40 24 57c20 21 42 25 58 25c19 0 35 -7 46 -18c12 -12 19 -29 19 -47c0 -15 -5 -37 -24 -56c-18 -18 -39 -25 -58 -25s-34 7 -46 18c-12 12 -19 26 -19 46z" />
    <glyph glyph-name="k" unicode="k" horiz-adv-x="503" 
d="M148 729h122l-55 -446l180 150h149l-231 -192l187 -241h-146l-127 178l-28 -22l-19 -156h-122z" />
    <glyph glyph-name="l" unicode="l" horiz-adv-x="236" 
d="M148 729h122l-90 -729h-122z" />
    <glyph glyph-name="m" unicode="m" horiz-adv-x="787" 
d="M58 0l53 433h122l-6 -49c16 19 34 33 52 43c25 14 51 20 78 20c36 0 63 -11 81 -23c24 -16 38 -36 46 -56c12 23 29 41 51 55c25 16 50 24 86 24c42 0 84 -12 110 -36c32 -30 35 -68 35 -101c0 -36 -2 -45 -5 -71l-29 -239h-122l25 206c6 46 6 60 6 63c0 27 -7 47 -19 58
c-11 10 -30 16 -46 16c-19 0 -38 -6 -54 -22c-20 -20 -34 -52 -41 -110l-25 -211h-122l25 201c1 12 6 51 6 68s-2 41 -17 57c-10 10 -26 17 -46 17c-29 0 -48 -13 -59 -25c-21 -23 -33 -67 -38 -112l-25 -206h-122z" />
    <glyph glyph-name="n" unicode="n" horiz-adv-x="536" 
d="M58 0l53 433h122l-7 -56c12 19 29 36 53 50c25 14 50 20 84 20c58 0 94 -18 116 -40c28 -29 34 -65 34 -95c0 -24 -4 -44 -8 -74l-29 -238h-122l25 201c1 9 6 53 6 69c0 30 -11 47 -20 55c-9 9 -26 18 -53 18c-35 0 -56 -14 -68 -26c-23 -24 -33 -65 -37 -96l-27 -221
h-122z" />
    <glyph glyph-name="o" unicode="o" horiz-adv-x="572" 
d="M336 447c85 0 138 -29 171 -62c28 -29 56 -76 56 -144c0 -55 -17 -124 -77 -182c-57 -54 -122 -73 -199 -73c-62 0 -120 13 -167 60c-32 31 -57 79 -57 147c0 71 31 138 75 181c35 34 97 73 198 73zM299 94c33 0 69 12 95 38c25 25 41 63 41 97c0 27 -11 60 -32 80
c-20 19 -50 30 -79 30c-34 0 -68 -13 -92 -35c-30 -28 -43 -69 -43 -103c0 -26 11 -57 30 -76c20 -20 52 -31 80 -31z" />
    <glyph glyph-name="p" unicode="p" horiz-adv-x="572" 
d="M187 56l-35 -285h-122l81 662h122l-7 -56c19 23 40 39 64 51c28 14 50 19 80 19c44 0 95 -9 136 -48c47 -45 57 -105 57 -153c0 -101 -39 -163 -74 -198c-48 -48 -102 -62 -157 -62c-18 0 -65 2 -101 25c-18 11 -33 28 -44 45zM326 339c-32 0 -64 -9 -91 -36
c-28 -27 -41 -63 -41 -97c0 -32 11 -60 27 -78c25 -29 59 -34 86 -34c35 0 64 10 89 35c26 26 40 65 40 103c0 35 -14 62 -32 79s-49 28 -78 28z" />
    <glyph glyph-name="q" unicode="q" horiz-adv-x="573" 
d="M439 377l7 56h122l-81 -662h-122l35 282c-18 -26 -39 -41 -56 -49c-30 -15 -62 -18 -86 -18c-56 0 -103 16 -140 55c-29 30 -55 79 -55 152c0 74 30 147 75 192c32 32 83 62 158 62c20 0 58 -2 91 -20c19 -10 38 -26 52 -50zM325 339c-35 0 -67 -9 -94 -36
c-23 -24 -40 -62 -40 -102c0 -32 13 -58 29 -75c15 -15 40 -32 81 -32c32 0 62 9 88 33s44 60 44 105c0 41 -18 65 -32 79c-23 22 -51 28 -76 28z" />
    <glyph glyph-name="r" unicode="r" horiz-adv-x="360" 
d="M58 0l53 433h122l-8 -62c12 21 31 43 54 57c26 16 50 19 76 19c22 0 38 -3 57 -10l-36 -109c-14 7 -29 11 -47 11c-32 0 -58 -12 -76 -30c-27 -27 -45 -81 -50 -125l-23 -184h-122z" />
    <glyph glyph-name="s" unicode="s" horiz-adv-x="400" 
d="M399 403l-63 -75c-9 9 -18 16 -31 22s-24 9 -41 9c-5 0 -29 -1 -41 -14c-4 -5 -9 -13 -9 -26c0 -9 2 -16 9 -22s16 -10 35 -16l37 -12c24 -8 51 -23 67 -39c25 -26 30 -59 30 -82c0 -50 -20 -86 -45 -111c-45 -45 -102 -51 -142 -51c-44 0 -77 9 -102 21
c-22 11 -48 32 -66 51l73 74c10 -14 24 -27 40 -36c15 -8 33 -14 50 -14c16 0 36 4 47 13c10 8 17 22 17 38c0 8 -2 18 -11 27c-9 8 -24 14 -43 21l-30 12c-18 7 -39 17 -57 35c-20 20 -29 41 -29 74c0 43 18 79 43 103s65 42 123 42c28 0 60 -4 85 -14c19 -7 40 -20 54 -30
z" />
    <glyph glyph-name="t" unicode="t" horiz-adv-x="270" 
d="M304 329h-84l-40 -329h-122l40 329h-48l13 104h48l18 148h122l-18 -148h84z" />
    <glyph glyph-name="u" unicode="u" horiz-adv-x="537" 
d="M112 433h122l-26 -216c-4 -35 -5 -46 -5 -52c0 -28 9 -44 18 -53c13 -14 36 -22 61 -22c31 0 53 11 67 24c23 22 28 52 33 91l28 228h122l-29 -239c-10 -80 -29 -142 -94 -179c-39 -22 -88 -29 -129 -29c-54 0 -108 12 -143 37c-23 17 -58 53 -58 119c0 17 2 37 6 68z
" />
    <glyph glyph-name="v" unicode="v" horiz-adv-x="504" 
d="M55 433h132l84 -244l144 244h140l-274 -433h-58z" />
    <glyph glyph-name="w" unicode="w" horiz-adv-x="792" 
d="M427 253l-146 -253h-60l-166 433h133l83 -250l146 250h57l85 -250l145 250h139l-272 -433h-60z" />
    <glyph glyph-name="x" unicode="x" horiz-adv-x="558" 
d="M2 0l229 236l-145 197h147l77 -112l104 112h159l-193 -197l176 -236h-149l-105 151l-139 -151h-161z" />
    <glyph glyph-name="y" unicode="y" horiz-adv-x="538" 
d="M21 -229l195 294l-161 368h138l104 -246l150 246h142l-430 -662h-138z" />
    <glyph glyph-name="z" unicode="z" horiz-adv-x="484" 
d="M525 433l-286 -329h229l-13 -104h-443l286 329h-208l13 104h422z" />
    <glyph glyph-name="braceleft" unicode="{" horiz-adv-x="503" 
d="M359 556l-19 -157c-4 -34 -12 -62 -26 -82c-12 -17 -34 -34 -50 -43c21 -11 33 -28 39 -43c7 -16 9 -33 9 -48c0 -16 -2 -32 -4 -44l-17 -137c-3 -24 -4 -29 -4 -35c0 -15 5 -25 17 -32c14 -8 35 -9 64 -9h18l-13 -104c-15 -1 -43 -2 -64 -2c-35 0 -87 2 -118 33
c-20 19 -25 43 -25 67c0 17 3 36 6 59l20 155c1 10 2 20 2 28c0 15 -2 27 -8 36c-6 10 -19 21 -39 24l13 104c15 3 32 10 40 18c10 10 22 41 24 60l24 189c4 28 10 68 39 97c36 36 95 39 135 39c22 0 49 -1 64 -2l-13 -104h-18c-29 0 -61 0 -78 -15c-13 -12 -16 -32 -18 -52
z" />
    <glyph glyph-name="bar" unicode="|" horiz-adv-x="377" 
d="M158 -250v1000h122v-1000h-122z" />
    <glyph glyph-name="braceright" unicode="}" horiz-adv-x="502" 
d="M202 -13l18 153c3 24 7 55 21 81c11 20 29 39 55 53c-4 2 -21 13 -32 30c-11 16 -15 35 -15 60c0 63 22 191 22 217c0 11 -2 23 -10 30c-11 11 -34 12 -51 12h-38l13 104c15 1 41 2 59 2c30 0 91 -1 122 -32c21 -21 26 -50 26 -73c0 -43 -26 -188 -26 -235
c0 -20 4 -37 16 -49c8 -7 20 -13 32 -14l-13 -104c-15 -3 -31 -10 -40 -19c-19 -18 -23 -48 -25 -68l-21 -172c-4 -30 -9 -72 -40 -103c-37 -38 -94 -40 -134 -40c-23 0 -50 1 -65 2l13 104h33c17 0 46 0 61 12c16 13 18 37 19 49z" />
    <glyph glyph-name="asciitilde" unicode="~" horiz-adv-x="500" 
d="M467 370l66 -40c-16 -30 -39 -61 -58 -81c-33 -35 -64 -50 -110 -50c-40 0 -68 12 -89 21l-31 13c-31 13 -49 18 -66 18c-19 0 -34 -5 -49 -18c-13 -11 -26 -31 -33 -45l-65 40c17 35 42 72 64 95c27 28 55 45 101 45c28 0 51 -6 84 -19l33 -13c36 -14 55 -20 72 -20
c19 0 35 5 47 14c11 8 25 25 34 40z" />
    <glyph glyph-name="uni00A0" unicode="&#xa0;" horiz-adv-x="233" 
 />
    <glyph glyph-name="exclamdown" unicode="&#xa1;" horiz-adv-x="252" 
d="M101 234h124l-57 -464h-124zM101 361c0 23 10 47 26 63s38 26 63 26c22 0 39 -9 50 -20c16 -16 19 -36 19 -50c0 -26 -9 -47 -25 -62c-18 -18 -39 -24 -62 -24c-20 0 -37 5 -52 20c-14 14 -19 31 -19 47z" />
    <glyph glyph-name="cent" unicode="&#xa2;" 
d="M512 540l-15 -120c-18 17 -50 38 -103 38c-28 0 -62 -6 -90 -34c-27 -26 -40 -66 -40 -99c0 -31 11 -60 30 -79c19 -20 49 -33 82 -33c26 0 67 8 100 38l-14 -119c-27 -15 -55 -23 -84 -24l-11 -95h-82l12 97c-62 11 -98 46 -116 67c-31 37 -45 81 -45 135
c0 76 27 138 70 182c31 31 78 62 145 70l11 91h82l-11 -93c27 -1 53 -8 79 -22z" />
    <glyph glyph-name="sterling" unicode="&#xa3;" 
d="M182 246h-112l11 88h65c-6 15 -23 63 -23 118c0 68 25 125 62 162c58 60 135 68 192 68c50 0 111 -9 159 -55c35 -34 58 -84 58 -157c0 -10 0 -20 -1 -30h-133c1 6 1 13 1 21c0 26 -5 60 -28 82c-17 17 -43 25 -69 25c-33 0 -61 -13 -78 -30c-20 -20 -34 -51 -34 -92
c0 -36 10 -61 27 -112h148l-11 -88h-120c1 -8 1 -16 1 -24c0 -42 -10 -73 -18 -92c50 -19 96 -41 132 -41c18 0 32 5 45 17c10 9 19 24 25 37l86 -19c-10 -36 -30 -74 -52 -98c-30 -32 -64 -41 -103 -41c-51 0 -91 15 -110 22l-35 13c-23 9 -45 16 -72 16
c-29 0 -59 -13 -69 -45l-92 17c4 12 16 46 42 77c28 33 59 48 91 53c8 14 18 35 18 70c0 11 -1 24 -3 38z" />
    <glyph glyph-name="currency" unicode="&#xa4;" horiz-adv-x="667" 
d="M136 682l103 -103c51 40 98 45 136 45c50 0 100 -7 146 -45l103 103l66 -66l-103 -103c39 -49 45 -100 45 -139s-6 -90 -45 -139l103 -103l-66 -66l-103 103c-51 -39 -100 -45 -141 -45s-90 6 -141 45l-103 -103l-66 66l103 103c-39 49 -45 100 -45 139s6 90 45 139
l-103 103zM380 232c38 0 77 16 102 41c20 20 38 53 38 101c0 52 -20 84 -40 103c-26 25 -63 39 -100 39c-35 0 -73 -13 -101 -40c-18 -18 -39 -50 -39 -102c0 -49 20 -81 38 -100c23 -24 60 -42 102 -42z" />
    <glyph glyph-name="yen" unicode="&#xa5;" 
d="M508 667h144l-155 -213h88l-11 -90h-142l-44 -63h178l-11 -90h-178l-26 -211h-120l26 211h-178l11 90h178l-28 63h-142l11 90h88l-103 213h144l106 -234z" />
    <glyph glyph-name="brokenbar" unicode="&#xa6;" horiz-adv-x="377" 
d="M158 390v360h122v-360h-122zM158 -250v360h122v-360h-122z" />
    <glyph glyph-name="section" unicode="&#xa7;" horiz-adv-x="567" 
d="M90 10h122c0 -19 5 -45 17 -61c12 -17 29 -25 52 -25c31 0 47 15 52 20c11 11 20 33 20 50s-9 37 -29 53c-12 9 -29 18 -63 34l-34 16c-26 12 -60 30 -85 63c-21 27 -34 63 -34 106c0 44 14 79 38 110c27 34 59 53 93 63c-26 16 -41 35 -46 42c-15 21 -23 43 -23 73
c0 59 25 98 50 123c43 43 91 52 140 52c74 0 114 -25 135 -45c29 -28 50 -76 50 -131v-4h-120v4c0 24 -7 43 -17 55c-14 17 -33 21 -51 21c-22 0 -39 -7 -51 -19c-8 -8 -18 -22 -18 -43c0 -19 8 -32 23 -44c17 -14 40 -24 63 -34l41 -19c44 -20 67 -43 76 -52
c34 -35 44 -72 44 -116c0 -28 -2 -80 -34 -123c-21 -29 -54 -51 -87 -63c22 -14 36 -33 43 -47c12 -23 15 -46 15 -67c0 -53 -16 -96 -50 -130c-45 -45 -99 -52 -145 -52c-45 0 -95 8 -135 49c-32 33 -52 86 -52 141zM316 193c27 0 51 11 66 27c14 16 23 40 23 67
c0 25 -7 45 -26 61c-14 12 -32 19 -54 19c-30 0 -54 -12 -68 -29c-15 -18 -20 -46 -20 -67c0 -29 11 -47 23 -58c12 -12 32 -20 56 -20z" />
    <glyph glyph-name="dieresis" unicode="&#xa8;" horiz-adv-x="500" 
d="M354 578c0 17 6 38 24 56c19 19 41 24 58 24c21 0 36 -9 46 -20c9 -10 16 -24 16 -44c0 -22 -9 -40 -22 -54c-17 -19 -38 -26 -59 -26c-19 0 -34 7 -44 17c-12 12 -19 30 -19 47zM146 578c0 17 6 38 24 56c19 19 41 24 58 24c21 0 36 -9 46 -20c9 -10 16 -24 16 -44
c0 -22 -9 -40 -22 -54c-17 -19 -38 -26 -59 -26c-19 0 -34 7 -44 17c-12 12 -19 30 -19 47z" />
    <glyph glyph-name="copyright" unicode="&#xa9;" horiz-adv-x="760" 
d="M552 516v-109c-11 11 -27 26 -40 34c-19 12 -41 19 -66 19c-37 0 -67 -12 -87 -31c-26 -24 -40 -63 -40 -99c0 -35 13 -66 33 -88s50 -36 93 -36c26 0 50 7 68 18c12 7 27 21 39 34v-109c-41 -21 -81 -25 -119 -25c-50 0 -107 11 -155 60c-26 27 -55 72 -55 142
c0 73 28 125 59 156c42 42 95 60 158 60c48 0 84 -11 112 -26zM768 333c0 -118 -51 -200 -103 -250c-63 -61 -149 -98 -244 -98s-181 37 -244 98c-51 50 -103 132 -103 251c0 118 51 200 103 250c63 61 149 98 244 98s181 -37 244 -98c51 -50 103 -132 103 -251zM421 620
c-92 0 -153 -42 -187 -74c-51 -49 -90 -125 -90 -212c0 -74 29 -155 90 -213c34 -32 95 -74 187 -74s153 42 187 74c61 58 90 139 90 213c0 87 -39 163 -90 212c-34 32 -95 74 -187 74z" />
    <glyph glyph-name="ordfeminine" unicode="&#xaa;" horiz-adv-x="343" 
d="M314 625l4 34h74l-33 -264h-74l5 35c-8 -12 -18 -23 -33 -31c-19 -11 -36 -13 -54 -13c-35 0 -62 10 -84 33c-22 22 -34 54 -34 90c0 47 20 88 46 115c30 30 67 43 103 43c13 0 30 -1 46 -9c18 -8 28 -21 34 -33zM239 600c-23 0 -40 -8 -53 -21c-15 -14 -24 -37 -24 -60
c0 -18 7 -35 18 -47c15 -16 36 -19 49 -19c19 0 37 5 54 19c13 11 27 31 27 60c0 24 -9 39 -18 48c-8 8 -24 20 -53 20zM70 291l7 56h277l-7 -56h-277z" />
    <glyph glyph-name="guillemotleft" unicode="&#xab;" horiz-adv-x="514" 
d="M173 217l102 -162l-76 -50l-132 214l184 214l64 -52zM369 217l102 -162l-76 -50l-132 214l184 214l64 -52z" />
    <glyph glyph-name="logicalnot" unicode="&#xac;" horiz-adv-x="500" 
d="M486 0h-122v157h-312v112h434v-269z" />
    <glyph glyph-name="uni00AD" unicode="&#xad;" horiz-adv-x="360" 
d="M71 174l14 112h260l-14 -112h-260z" />
    <glyph glyph-name="registered" unicode="&#xae;" horiz-adv-x="760" 
d="M421 682c69 0 163 -18 245 -99c74 -74 102 -160 102 -251c0 -104 -38 -183 -94 -242c-49 -52 -131 -105 -253 -105c-90 0 -181 32 -249 101c-68 68 -98 158 -98 248c0 109 44 196 107 255c66 63 152 93 240 93zM421 620c-71 0 -136 -23 -192 -80
c-42 -42 -85 -109 -85 -205c0 -86 36 -162 82 -208s119 -80 195 -80c73 0 141 30 191 79c33 32 86 99 86 205c0 104 -49 173 -86 210c-59 59 -128 79 -191 79zM304 527h118c27 0 67 -2 97 -32c16 -16 30 -44 30 -83c0 -22 -5 -50 -26 -72c-15 -16 -38 -27 -64 -31l121 -156
h-89l-111 143v-143h-76v374zM380 461v-103h30c26 0 40 9 46 15c12 12 14 27 14 38c0 20 -7 32 -14 38c-13 12 -33 12 -43 12h-33z" />
    <glyph glyph-name="macron" unicode="&#xaf;" horiz-adv-x="500" 
d="M136 539l10 80h364l-10 -80h-364z" />
    <glyph glyph-name="degree" unicode="&#xb0;" horiz-adv-x="503" 
d="M314 363c-85 0 -154 69 -154 153c0 83 69 151 154 151c86 0 155 -68 155 -151c0 -84 -69 -153 -155 -153zM314 591c-42 0 -76 -34 -76 -75c0 -42 34 -76 76 -76c43 0 77 34 77 75c0 42 -34 76 -77 76z" />
    <glyph glyph-name="plusminus" unicode="&#xb1;" horiz-adv-x="449" 
d="M39 355v112h156v156h122v-156h156v-112h-156v-156h-122v156h-156zM39 52v112h434v-112h-434z" />
    <glyph glyph-name="twosuperior" unicode="&#xb2;" horiz-adv-x="380" 
d="M57 267l164 162c39 39 51 51 60 62c18 23 25 44 25 61s-7 32 -17 40c-7 6 -20 12 -41 12c-18 0 -33 -4 -45 -18c-10 -11 -17 -27 -18 -44h-84c5 37 21 69 41 90c22 24 57 44 110 44c49 0 85 -18 106 -39c20 -20 32 -46 32 -80c0 -32 -10 -59 -28 -85
c-11 -16 -45 -52 -62 -68l-70 -65h136l-9 -72h-300z" />
    <glyph glyph-name="threesuperior" unicode="&#xb3;" horiz-adv-x="380" 
d="M192 558h-78c5 28 19 60 41 82c31 31 70 36 101 36c35 0 72 -6 100 -36c17 -19 27 -42 27 -73c0 -21 -5 -43 -20 -61c-10 -12 -25 -23 -43 -28c13 -6 26 -15 35 -26c16 -20 19 -43 19 -60c0 -47 -19 -76 -35 -93c-34 -35 -82 -41 -117 -41s-78 7 -110 39
c-10 10 -36 40 -36 90h84c1 -14 7 -32 18 -42c12 -11 31 -15 47 -15c18 0 34 5 48 18c13 13 18 27 18 45c0 14 -4 31 -21 42c-9 6 -23 10 -47 10h-12l8 66h9c17 0 38 1 52 11c13 9 20 26 20 42c0 13 -5 26 -13 33c-9 9 -25 13 -39 13c-16 0 -28 -4 -39 -15
c-9 -9 -15 -24 -17 -37z" />
    <glyph glyph-name="acute" unicode="&#xb4;" horiz-adv-x="500" 
d="M404 700l81 -56l-166 -134l-51 40z" />
    <glyph glyph-name="mu" unicode="&#xb5;" horiz-adv-x="560" 
d="M152 -230h-122l81 663h122l-22 -186c-1 -8 -5 -42 -5 -61c0 -39 12 -61 23 -74s31 -28 67 -28c28 0 52 7 72 28c28 29 34 69 40 121l25 200h122l-53 -433h-122l6 54c-10 -19 -26 -39 -42 -50c-15 -11 -35 -18 -62 -18c-30 0 -51 12 -65 26c-21 21 -28 50 -29 54z" />
    <glyph glyph-name="paragraph" unicode="&#xb6;" horiz-adv-x="656" 
d="M313 -93h-104l50 413h-7c-37 0 -88 12 -119 38c-39 32 -47 79 -47 115c0 63 20 105 47 134c48 51 114 60 200 60h333l-12 -94h-70l-81 -666h-104l81 666h-86z" />
    <glyph glyph-name="periodcentered" unicode="&#xb7;" horiz-adv-x="202" 
d="M43 325c0 27 11 53 31 73c21 21 48 31 73 31s46 -9 60 -23c18 -18 22 -40 22 -57c0 -27 -9 -54 -29 -75c-21 -22 -45 -29 -73 -29c-18 0 -43 3 -62 23c-13 14 -22 34 -22 57z" />
    <glyph glyph-name="cedilla" unicode="&#xb8;" horiz-adv-x="500" 
d="M260 -46l88 -44l-142 -146l-64 36z" />
    <glyph glyph-name="onesuperior" unicode="&#xb9;" horiz-adv-x="380" 
d="M199 267l40 328h-80l9 72h164l-49 -400h-84z" />
    <glyph glyph-name="ordmasculine" unicode="&#xba;" horiz-adv-x="333" 
d="M221 386c-26 0 -70 4 -103 36c-20 19 -38 50 -38 96s18 80 42 105c33 34 72 44 115 44c31 0 71 -7 105 -41c26 -27 35 -56 35 -93c0 -40 -11 -75 -42 -105c-33 -32 -71 -42 -114 -42zM232 600c-18 0 -39 -4 -56 -22c-13 -15 -20 -36 -20 -57c0 -19 5 -35 17 -48
c14 -16 31 -20 49 -20c19 0 42 3 60 24c12 14 19 32 19 54c0 27 -11 44 -22 53c-14 13 -31 16 -47 16zM72 347h274l-6 -56h-274z" />
    <glyph glyph-name="guillemotright" unicode="&#xbb;" horiz-adv-x="514" 
d="M199 221l-102 162l76 50l132 -214l-184 -214l-64 52zM395 221l-102 162l76 50l132 -214l-184 -214l-64 52z" />
    <glyph glyph-name="onequarter" unicode="&#xbc;" horiz-adv-x="862" 
d="M199 267l40 328h-80l9 72h164l-49 -400h-84zM226 3l482 686l49 -30l-481 -687zM833 400l-31 -256h47l-9 -68h-47l-9 -76h-80l9 76h-199l5 35l234 289h80zM627 144h95l17 145z" />
    <glyph glyph-name="onehalf" unicode="&#xbd;" horiz-adv-x="861" 
d="M199 267l40 328h-80l9 72h164l-49 -400h-84zM186 3l482 686l49 -30l-481 -687zM504 0l164 162c39 39 51 51 60 62c18 23 25 44 25 61s-7 32 -17 40c-7 6 -20 12 -41 12c-18 0 -33 -4 -45 -18c-10 -11 -17 -27 -18 -44h-84c5 37 21 69 41 90c22 24 57 44 110 44
c49 0 85 -18 106 -39c20 -20 32 -46 32 -80c0 -32 -10 -59 -28 -85c-11 -16 -45 -52 -62 -68l-70 -65h136l-9 -72h-300z" />
    <glyph glyph-name="threequarters" unicode="&#xbe;" horiz-adv-x="860" 
d="M192 558h-78c5 28 19 60 41 82c31 31 70 36 101 36c35 0 72 -6 100 -36c17 -19 27 -42 27 -73c0 -21 -5 -43 -20 -61c-10 -12 -25 -23 -43 -28c13 -6 26 -15 35 -26c16 -20 19 -43 19 -59c0 -48 -19 -78 -35 -94c-34 -35 -82 -41 -117 -41s-78 7 -110 39
c-10 10 -36 40 -36 90h84c1 -14 7 -32 18 -42c12 -11 31 -15 47 -15c18 0 34 5 48 18c13 13 18 27 18 45c0 14 -4 31 -21 42c-9 6 -23 10 -47 10h-12l8 66h9c17 0 38 1 52 11c13 9 20 26 20 42c0 13 -5 26 -13 33c-9 9 -25 13 -39 13c-16 0 -28 -4 -39 -15
c-9 -9 -15 -24 -17 -37zM236 3l482 686l49 -30l-481 -687zM625 144h95l17 145zM831 400l-31 -256h47l-9 -68h-47l-9 -76h-80l9 76h-199l5 35l234 289h80z" />
    <glyph glyph-name="questiondown" unicode="&#xbf;" horiz-adv-x="492" 
d="M246 237h124l-24 -196c-14 3 -28 4 -44 4c-27 0 -65 -4 -96 -32c-15 -14 -32 -38 -32 -74c0 -28 11 -46 21 -55c12 -11 29 -18 52 -18c35 0 52 16 60 27c11 15 15 37 15 56h130c-3 -43 -21 -97 -54 -133c-45 -49 -108 -58 -156 -58c-42 0 -99 5 -146 49
c-28 26 -53 66 -53 129c0 56 20 107 51 139c9 10 56 56 139 57zM246 361c0 23 10 47 26 63s38 26 63 26c22 0 39 -9 50 -20c16 -16 19 -36 19 -50c0 -26 -9 -47 -25 -62c-18 -18 -39 -24 -62 -24c-20 0 -37 5 -52 20c-14 14 -19 31 -19 47z" />
    <glyph glyph-name="Agrave" unicode="&#xc0;" horiz-adv-x="672" 
d="M533 0l-42 140h-269l-76 -140h-144l373 667h98l197 -667h-137zM276 246h190l-64 240zM449 728l-159 122l99 70l123 -142z" />
    <glyph glyph-name="Aacute" unicode="&#xc1;" horiz-adv-x="672" 
d="M533 0l-42 140h-269l-76 -140h-144l373 667h98l197 -667h-137zM276 246h190l-64 240zM401 728l-49 50l157 142l81 -70z" />
    <glyph glyph-name="Acircumflex" unicode="&#xc2;" horiz-adv-x="672" 
d="M533 0l-42 140h-269l-76 -140h-144l373 667h98l197 -667h-137zM276 246h190l-64 240zM439 820l-131 -88l-54 64l196 134l164 -134l-66 -64z" />
    <glyph glyph-name="Atilde" unicode="&#xc3;" horiz-adv-x="672" 
d="M533 0l-42 140h-269l-76 -140h-144l373 667h98l197 -667h-137zM276 246h190l-64 240zM573 869l62 -48c-14 -20 -37 -47 -53 -61c-26 -22 -52 -28 -70 -28c-22 0 -50 9 -74 19l-33 14c-20 8 -34 16 -50 16c-10 0 -23 -3 -37 -16c-10 -10 -17 -20 -19 -24l-64 48
c20 31 42 51 47 55c17 15 45 34 82 34c26 0 50 -11 68 -19l38 -16c19 -8 35 -14 50 -14c9 0 22 3 34 14c6 6 14 17 19 26z" />
    <glyph glyph-name="Adieresis" unicode="&#xc4;" horiz-adv-x="672" 
d="M533 0l-42 140h-269l-76 -140h-144l373 667h98l197 -667h-137zM276 246h190l-64 240zM470 800c0 22 8 44 23 59c15 16 38 24 57 24s35 -7 46 -18s18 -27 18 -45c0 -19 -7 -41 -24 -58c-14 -14 -32 -23 -55 -23c-24 0 -40 10 -48 18c-10 10 -17 24 -17 43zM246 800
c0 22 8 44 23 59c15 16 38 24 57 24s35 -7 46 -18s18 -27 18 -45c0 -19 -7 -41 -24 -58c-14 -14 -32 -23 -55 -23c-24 0 -40 10 -48 18c-10 10 -17 24 -17 43z" />
    <glyph glyph-name="Aring" unicode="&#xc5;" horiz-adv-x="672" 
d="M533 0l-42 140h-269l-76 -140h-144l373 667h98l197 -667h-137zM276 246h190l-64 240zM337 808c0 27 11 56 32 78c23 24 50 34 79 34s50 -11 64 -25c11 -11 25 -32 25 -65c0 -21 -6 -50 -33 -77c-20 -19 -45 -31 -76 -31c-29 0 -51 9 -66 25c-15 15 -25 37 -25 61z
M397 815c0 -8 3 -17 8 -22c6 -7 18 -12 28 -12c13 0 25 6 32 14s12 21 12 33c0 8 -4 18 -10 24c-5 5 -15 9 -25 9c-9 0 -21 -3 -31 -13c-10 -9 -14 -22 -14 -33z" />
    <glyph glyph-name="AE" unicode="&#xc6;" horiz-adv-x="920" 
d="M533 0l-42 140h-269l-76 -140h-140l371 667h352l30 -112h-245l42 -149h241l32 -112h-242l51 -182h246l30 -112h-381zM276 246h190l-62 240z" />
    <glyph glyph-name="Ccedilla" unicode="&#xc7;" horiz-adv-x="607" 
d="M585 176l-19 -152c-27 -14 -80 -39 -165 -39c-121 0 -192 48 -227 82c-66 63 -89 144 -89 224c0 126 46 227 107 289c87 87 195 102 274 102c43 0 104 -4 176 -41l-18 -150c-56 65 -128 73 -170 73c-84 0 -135 -35 -167 -69c-44 -47 -67 -118 -67 -185
c0 -73 28 -120 56 -150c38 -40 87 -58 144 -58c101 0 148 51 165 74zM374 -46l96 -44l-150 -154l-70 36z" />
    <glyph glyph-name="Egrave" unicode="&#xc8;" horiz-adv-x="496" 
d="M528 667l-14 -112h-240l-18 -149h230l-14 -112h-230l-22 -182h240l-14 -112h-240h-130l82 667h370zM378 728l-159 122l99 70l123 -142z" />
    <glyph glyph-name="Eacute" unicode="&#xc9;" horiz-adv-x="496" 
d="M528 667l-14 -112h-240l-18 -149h230l-14 -112h-230l-22 -182h240l-14 -112h-240h-130l82 667h370zM335 728l-49 50l157 142l81 -70z" />
    <glyph glyph-name="Ecircumflex" unicode="&#xca;" horiz-adv-x="496" 
d="M528 667l-14 -112h-240l-18 -149h230l-14 -112h-230l-22 -182h240l-14 -112h-240h-130l82 667h370zM363 820l-131 -88l-54 64l196 134l164 -134l-66 -64z" />
    <glyph glyph-name="Edieresis" unicode="&#xcb;" horiz-adv-x="496" 
d="M528 667l-14 -112h-240l-18 -149h230l-14 -112h-230l-22 -182h240l-14 -112h-240h-130l82 667h370zM400 800c0 22 8 44 23 59c15 16 38 24 57 24s35 -7 46 -18s18 -27 18 -45c0 -19 -7 -41 -24 -58c-14 -14 -32 -23 -55 -23c-24 0 -40 10 -48 18c-10 10 -17 24 -17 43z
M176 800c0 22 8 44 23 59c15 16 38 24 57 24s35 -7 46 -18s18 -27 18 -45c0 -19 -7 -41 -24 -58c-14 -14 -32 -23 -55 -23c-24 0 -40 10 -48 18c-10 10 -17 24 -17 43z" />
    <glyph glyph-name="Igrave" unicode="&#xcc;" horiz-adv-x="282" 
d="M158 667h130l-82 -667h-130zM247 728l-154 114l95 68l119 -134z" />
    <glyph glyph-name="Iacute" unicode="&#xcd;" horiz-adv-x="282" 
d="M158 667h130l-82 -667h-130zM318 910l77 -68l-182 -114l-48 48z" />
    <glyph glyph-name="Icircumflex" unicode="&#xce;" horiz-adv-x="282" 
d="M158 667h130l-82 -667h-130zM242 822l-102 -80l-47 54l161 124l131 -124l-61 -54z" />
    <glyph glyph-name="Idieresis" unicode="&#xcf;" horiz-adv-x="282" 
d="M158 667h130l-82 -667h-130zM255 798c0 22 9 49 27 67c11 11 26 18 41 18c11 0 26 -4 37 -20c9 -12 13 -28 13 -42c0 -22 -8 -46 -25 -63c-12 -12 -27 -19 -42 -19s-26 7 -34 16c-12 13 -17 27 -17 43zM105 798c0 22 9 49 27 67c11 11 26 18 41 18c11 0 26 -4 37 -20
c9 -12 13 -28 13 -42c0 -22 -8 -46 -25 -63c-12 -12 -27 -19 -42 -19s-26 7 -34 16c-12 13 -17 27 -17 43z" />
    <glyph glyph-name="Eth" unicode="&#xd0;" horiz-adv-x="673" 
d="M332 667c51 0 172 -5 255 -85c47 -45 83 -119 83 -218c0 -156 -67 -233 -98 -263c-75 -74 -176 -101 -316 -101h-50h-130l39 316h-86l12 100h86l31 251h174zM274 555l-17 -139h122l-12 -100h-122l-25 -204h44c88 0 161 17 211 72c42 46 61 115 61 177c0 37 -8 97 -58 142
c-54 48 -129 52 -164 52h-40z" />
    <glyph glyph-name="Ntilde" unicode="&#xd1;" horiz-adv-x="778" 
d="M206 0h-130l82 667h92l349 -445l55 445h130l-82 -667h-92l-349 447zM627 869l62 -48c-14 -20 -37 -47 -53 -61c-26 -22 -52 -28 -70 -28c-22 0 -50 9 -74 19l-33 14c-20 8 -34 16 -50 16c-10 0 -23 -3 -37 -16c-10 -10 -17 -20 -19 -24l-64 48c20 31 42 51 47 55
c17 15 45 34 82 34c26 0 50 -11 68 -19l38 -16c19 -8 35 -14 50 -14c9 0 22 3 34 14c6 6 14 17 19 26z" />
    <glyph glyph-name="Ograve" unicode="&#xd2;" horiz-adv-x="806" 
d="M484 682c95 0 178 -35 231 -86c50 -48 88 -123 88 -222c0 -106 -40 -211 -107 -280c-53 -55 -143 -109 -278 -109c-131 0 -206 53 -245 93c-55 56 -88 137 -88 221c0 110 46 213 115 278c70 66 174 105 284 105zM425 103c67 0 124 27 164 66c48 47 79 120 79 195
c0 60 -22 109 -53 141c-29 30 -79 58 -152 58c-72 0 -128 -28 -166 -64c-51 -48 -77 -118 -77 -190c0 -71 27 -118 53 -145c36 -38 90 -61 152 -61zM513 728l-159 122l99 70l123 -142z" />
    <glyph glyph-name="Oacute" unicode="&#xd3;" horiz-adv-x="806" 
d="M484 682c95 0 178 -35 231 -86c50 -48 88 -123 88 -222c0 -106 -40 -211 -107 -280c-53 -55 -143 -109 -278 -109c-131 0 -206 53 -245 93c-55 56 -88 137 -88 221c0 110 46 213 115 278c70 66 174 105 284 105zM425 103c67 0 124 27 164 66c48 47 79 120 79 195
c0 60 -22 109 -53 141c-29 30 -79 58 -152 58c-72 0 -128 -28 -166 -64c-51 -48 -77 -118 -77 -190c0 -71 27 -118 53 -145c36 -38 90 -61 152 -61zM465 728l-49 50l157 142l81 -70z" />
    <glyph glyph-name="Ocircumflex" unicode="&#xd4;" horiz-adv-x="806" 
d="M484 682c95 0 178 -35 231 -86c50 -48 88 -123 88 -222c0 -106 -40 -211 -107 -280c-53 -55 -143 -109 -278 -109c-131 0 -206 53 -245 93c-55 56 -88 137 -88 221c0 110 46 213 115 278c70 66 174 105 284 105zM425 103c67 0 124 27 164 66c48 47 79 120 79 195
c0 60 -22 109 -53 141c-29 30 -79 58 -152 58c-72 0 -128 -28 -166 -64c-51 -48 -77 -118 -77 -190c0 -71 27 -118 53 -145c36 -38 90 -61 152 -61zM503 820l-131 -88l-54 64l196 134l164 -134l-66 -64z" />
    <glyph glyph-name="Otilde" unicode="&#xd5;" horiz-adv-x="806" 
d="M484 682c95 0 178 -35 231 -86c50 -48 88 -123 88 -222c0 -106 -40 -211 -107 -280c-53 -55 -143 -109 -278 -109c-131 0 -206 53 -245 93c-55 56 -88 137 -88 221c0 110 46 213 115 278c70 66 174 105 284 105zM425 103c67 0 124 27 164 66c48 47 79 120 79 195
c0 60 -22 109 -53 141c-29 30 -79 58 -152 58c-72 0 -128 -28 -166 -64c-51 -48 -77 -118 -77 -190c0 -71 27 -118 53 -145c36 -38 90 -61 152 -61zM617 869l62 -48c-14 -20 -37 -47 -53 -61c-26 -22 -52 -28 -70 -28c-22 0 -50 9 -74 19l-33 14c-20 8 -34 16 -50 16
c-10 0 -23 -3 -37 -16c-10 -10 -17 -20 -19 -24l-64 48c20 31 42 51 47 55c17 15 45 34 82 34c26 0 50 -11 68 -19l38 -16c19 -8 35 -14 50 -14c9 0 22 3 34 14c6 6 14 17 19 26z" />
    <glyph glyph-name="Odieresis" unicode="&#xd6;" horiz-adv-x="806" 
d="M484 682c95 0 178 -35 231 -86c50 -48 88 -123 88 -222c0 -106 -40 -211 -107 -280c-53 -55 -143 -109 -278 -109c-131 0 -206 53 -245 93c-55 56 -88 137 -88 221c0 110 46 213 115 278c70 66 174 105 284 105zM425 103c67 0 124 27 164 66c48 47 79 120 79 195
c0 60 -22 109 -53 141c-29 30 -79 58 -152 58c-72 0 -128 -28 -166 -64c-51 -48 -77 -118 -77 -190c0 -71 27 -118 53 -145c36 -38 90 -61 152 -61zM520 800c0 22 8 44 23 59c15 16 38 24 57 24s35 -7 46 -18s18 -27 18 -45c0 -19 -7 -41 -24 -58c-14 -14 -32 -23 -55 -23
c-24 0 -40 10 -48 18c-10 10 -17 24 -17 43zM296 800c0 22 8 44 23 59c15 16 38 24 57 24s35 -7 46 -18s18 -27 18 -45c0 -19 -7 -41 -24 -58c-14 -14 -32 -23 -55 -23c-24 0 -40 10 -48 18c-10 10 -17 24 -17 43z" />
    <glyph glyph-name="multiply" unicode="&#xd7;" horiz-adv-x="500" 
d="M84 215l124 124l-124 124l82 82l124 -124l124 124l82 -82l-124 -124l124 -124l-82 -82l-124 124l-124 -124z" />
    <glyph glyph-name="Oslash" unicode="&#xd8;" horiz-adv-x="840" 
d="M45 31l105 94c-36 55 -51 112 -51 179c0 125 53 214 115 273c48 45 136 105 274 105c86 0 153 -21 216 -65l103 91l64 -73l-101 -90c28 -49 47 -104 47 -174c0 -103 -40 -208 -107 -277c-54 -56 -142 -109 -278 -109c-83 0 -149 18 -216 68l-107 -95zM664 451l-350 -311
c44 -27 89 -37 125 -37c66 0 125 28 164 66c49 47 79 120 79 195c0 29 -5 57 -18 87zM253 216l350 311c-34 21 -73 36 -126 36c-79 0 -132 -32 -166 -64c-32 -31 -77 -92 -77 -190c0 -37 6 -65 19 -93z" />
    <glyph glyph-name="Ugrave" unicode="&#xd9;" horiz-adv-x="686" 
d="M156 667h130l-45 -369c-2 -20 -7 -61 -7 -74c0 -39 15 -72 34 -90c23 -21 59 -31 91 -31c38 0 71 11 94 28c48 36 54 94 62 159l47 377h130l-48 -391c-10 -78 -20 -161 -79 -221c-63 -64 -150 -70 -207 -70c-62 0 -142 10 -198 67c-44 45 -55 100 -55 154
c0 27 6 91 9 113zM457 728l-159 122l99 70l123 -142z" />
    <glyph glyph-name="Uacute" unicode="&#xda;" horiz-adv-x="686" 
d="M156 667h130l-45 -369c-2 -20 -7 -61 -7 -74c0 -39 15 -72 34 -90c23 -21 59 -31 91 -31c38 0 71 11 94 28c48 36 54 94 62 159l47 377h130l-48 -391c-10 -78 -20 -161 -79 -221c-63 -64 -150 -70 -207 -70c-62 0 -142 10 -198 67c-44 45 -55 100 -55 154
c0 27 6 91 9 113zM409 728l-49 50l157 142l81 -70z" />
    <glyph glyph-name="Ucircumflex" unicode="&#xdb;" horiz-adv-x="686" 
d="M156 667h130l-45 -369c-2 -20 -7 -61 -7 -74c0 -39 15 -72 34 -90c23 -21 59 -31 91 -31c38 0 71 11 94 28c48 36 54 94 62 159l47 377h130l-48 -391c-10 -78 -20 -161 -79 -221c-63 -64 -150 -70 -207 -70c-62 0 -142 10 -198 67c-44 45 -55 100 -55 154
c0 27 6 91 9 113zM443 820l-131 -88l-54 64l196 134l164 -134l-66 -64z" />
    <glyph glyph-name="Udieresis" unicode="&#xdc;" horiz-adv-x="686" 
d="M156 667h130l-45 -369c-2 -20 -7 -61 -7 -74c0 -39 15 -72 34 -90c23 -21 59 -31 91 -31c38 0 71 11 94 28c48 36 54 94 62 159l47 377h130l-48 -391c-10 -78 -20 -161 -79 -221c-63 -64 -150 -70 -207 -70c-62 0 -142 10 -198 67c-44 45 -55 100 -55 154
c0 27 6 91 9 113zM480 800c0 22 8 44 23 59c15 16 38 24 57 24s35 -7 46 -18s18 -27 18 -45c0 -19 -7 -41 -24 -58c-14 -14 -32 -23 -55 -23c-24 0 -40 10 -48 18c-10 10 -17 24 -17 43zM256 800c0 22 8 44 23 59c15 16 38 24 57 24s35 -7 46 -18s18 -27 18 -45
c0 -19 -7 -41 -24 -58c-14 -14 -32 -23 -55 -23c-24 0 -40 10 -48 18c-10 10 -17 24 -17 43z" />
    <glyph glyph-name="Yacute" unicode="&#xdd;" horiz-adv-x="590" 
d="M227 0l37 305l-184 362h148l114 -232l172 232h160l-280 -362l-37 -305h-130zM360 728l-49 50l157 142l81 -70z" />
    <glyph glyph-name="Thorn" unicode="&#xde;" horiz-adv-x="534" 
d="M158 667h130l-11 -90h60c76 0 151 -17 191 -77c28 -41 31 -95 31 -124c0 -82 -30 -132 -61 -161c-33 -31 -90 -58 -187 -58h-86l-19 -157h-130zM263 465l-24 -196h55c31 0 70 2 100 28c27 24 32 55 32 78c0 22 -4 52 -36 72c-27 17 -68 18 -81 18h-46z" />
    <glyph glyph-name="germandbls" unicode="&#xdf;" horiz-adv-x="570" 
d="M180 0h-122l63 506c7 55 18 123 69 175c51 51 115 60 161 60c68 0 117 -20 151 -53c30 -29 48 -69 48 -124c0 -36 -9 -65 -26 -90c-14 -21 -37 -46 -76 -61c32 -13 60 -34 78 -58c27 -34 35 -74 35 -115c0 -75 -26 -132 -74 -178c-62 -60 -141 -76 -222 -76h-9l14 108
c50 -1 94 18 121 45c23 24 41 61 41 104c0 38 -14 62 -28 76c-31 30 -77 33 -99 33h-5l13 104c33 -1 66 10 87 30c18 17 29 43 29 68c0 23 -8 45 -24 59c-12 11 -31 20 -59 20s-51 -10 -67 -25c-26 -25 -34 -71 -38 -103z" />
    <glyph glyph-name="agrave" unicode="&#xe0;" horiz-adv-x="572" 
d="M438 377l7 56h122l-53 -433h-122l7 56c-22 -29 -47 -44 -55 -49c-26 -15 -51 -21 -81 -21c-52 0 -101 14 -142 55c-42 42 -58 95 -58 153c0 78 26 142 67 185c35 36 91 68 171 68c31 0 58 -6 86 -21c24 -13 39 -29 51 -49zM318 339c-31 0 -60 -9 -85 -31
c-28 -26 -43 -64 -43 -100c0 -38 14 -68 33 -86c18 -17 44 -28 80 -28c24 0 57 5 86 31s43 67 43 104c0 31 -12 58 -30 77c-14 15 -40 33 -84 33zM342 510l-134 134l95 56l100 -150z" />
    <glyph glyph-name="aacute" unicode="&#xe1;" horiz-adv-x="572" 
d="M438 377l7 56h122l-53 -433h-122l7 56c-22 -29 -47 -44 -55 -49c-26 -15 -51 -21 -81 -21c-52 0 -101 14 -142 55c-42 42 -58 95 -58 153c0 78 26 142 67 185c35 36 91 68 171 68c31 0 58 -6 86 -21c24 -13 39 -29 51 -49zM318 339c-31 0 -60 -9 -85 -31
c-28 -26 -43 -64 -43 -100c0 -38 14 -68 33 -86c18 -17 44 -28 80 -28c24 0 57 5 86 31s43 67 43 104c0 31 -12 58 -30 77c-14 15 -40 33 -84 33zM429 700l81 -56l-166 -134l-51 40z" />
    <glyph glyph-name="acircumflex" unicode="&#xe2;" horiz-adv-x="572" 
d="M438 377l7 56h122l-53 -433h-122l7 56c-22 -29 -47 -44 -55 -49c-26 -15 -51 -21 -81 -21c-52 0 -101 14 -142 55c-42 42 -58 95 -58 153c0 78 26 142 67 185c35 36 91 68 171 68c31 0 58 -6 86 -21c24 -13 39 -29 51 -49zM318 339c-31 0 -60 -9 -85 -31
c-28 -26 -43 -64 -43 -100c0 -38 14 -68 33 -86c18 -17 44 -28 80 -28c24 0 57 5 86 31s43 67 43 104c0 31 -12 58 -30 77c-14 15 -40 33 -84 33zM351 602l-121 -92l-55 60l187 138l153 -138l-65 -60z" />
    <glyph glyph-name="atilde" unicode="&#xe3;" horiz-adv-x="572" 
d="M438 377l7 56h122l-53 -433h-122l7 56c-22 -29 -47 -44 -55 -49c-26 -15 -51 -21 -81 -21c-52 0 -101 14 -142 55c-42 42 -58 95 -58 153c0 78 26 142 67 185c35 36 91 68 171 68c31 0 58 -6 86 -21c24 -13 39 -29 51 -49zM318 339c-31 0 -60 -9 -85 -31
c-28 -26 -43 -64 -43 -100c0 -38 14 -68 33 -86c18 -17 44 -28 80 -28c24 0 57 5 86 31s43 67 43 104c0 31 -12 58 -30 77c-14 15 -40 33 -84 33zM487 647l54 -48c-11 -17 -29 -41 -44 -54c-20 -18 -42 -27 -69 -27c-28 0 -51 9 -70 18l-32 14c-16 7 -36 14 -49 14
c-26 0 -49 -24 -60 -41l-55 48c9 15 26 36 41 50c22 20 48 31 83 31c26 0 44 -7 63 -15l36 -15c25 -11 40 -16 52 -16c19 0 38 15 50 41z" />
    <glyph glyph-name="adieresis" unicode="&#xe4;" horiz-adv-x="572" 
d="M438 377l7 56h122l-53 -433h-122l7 56c-22 -29 -47 -44 -55 -49c-26 -15 -51 -21 -81 -21c-52 0 -101 14 -142 55c-42 42 -58 95 -58 153c0 78 26 142 67 185c35 36 91 68 171 68c31 0 58 -6 86 -21c24 -13 39 -29 51 -49zM318 339c-31 0 -60 -9 -85 -31
c-28 -26 -43 -64 -43 -100c0 -38 14 -68 33 -86c18 -17 44 -28 80 -28c24 0 57 5 86 31s43 67 43 104c0 31 -12 58 -30 77c-14 15 -40 33 -84 33zM394 578c0 17 6 38 24 56c19 19 41 24 58 24c21 0 36 -9 46 -20c9 -10 16 -24 16 -44c0 -22 -9 -40 -22 -54
c-17 -19 -38 -26 -59 -26c-19 0 -34 7 -44 17c-12 12 -19 30 -19 47zM186 578c0 17 6 38 24 56c19 19 41 24 58 24c21 0 36 -9 46 -20c9 -10 16 -24 16 -44c0 -22 -9 -40 -22 -54c-17 -19 -38 -26 -59 -26c-19 0 -34 7 -44 17c-12 12 -19 30 -19 47z" />
    <glyph glyph-name="aring" unicode="&#xe5;" horiz-adv-x="572" 
d="M438 377l7 56h122l-53 -433h-122l7 56c-22 -29 -47 -44 -55 -49c-26 -15 -51 -21 -81 -21c-52 0 -101 14 -142 55c-42 42 -58 95 -58 153c0 78 26 142 67 185c35 36 91 68 171 68c31 0 58 -6 86 -21c24 -13 39 -29 51 -49zM318 339c-31 0 -60 -9 -85 -31
c-28 -26 -43 -64 -43 -100c0 -38 14 -68 33 -86c18 -17 44 -28 80 -28c24 0 57 5 86 31s43 67 43 104c0 31 -12 58 -30 77c-14 15 -40 33 -84 33zM239 589c0 28 12 55 29 73c14 15 39 32 77 32c21 0 40 -6 57 -22c13 -13 26 -33 26 -65c0 -29 -9 -53 -30 -74
c-18 -18 -39 -27 -69 -27c-28 0 -49 8 -66 25s-24 36 -24 58zM295 595c0 -8 3 -17 8 -23c3 -4 11 -11 26 -11c14 0 25 5 32 13c8 8 12 19 12 30c0 10 -3 18 -10 25s-15 10 -25 10c-11 0 -20 -3 -29 -11c-10 -9 -14 -22 -14 -33z" />
    <glyph glyph-name="ae" unicode="&#xe6;" horiz-adv-x="810" 
d="M435 374c19 24 41 39 59 49c32 17 68 24 106 24c75 0 121 -27 145 -51c51 -49 60 -123 52 -200h-322c0 -30 11 -68 32 -88c24 -24 59 -26 78 -26c24 0 41 4 61 19c14 10 24 21 30 38l110 -18c-13 -33 -39 -73 -73 -97c-33 -24 -82 -38 -135 -38c-64 0 -103 18 -112 23
c-23 11 -44 29 -61 48c-25 -33 -54 -47 -68 -53c-31 -13 -75 -18 -108 -18c-41 0 -100 5 -141 45c-28 27 -37 59 -37 94c0 47 17 88 61 116c41 26 94 30 128 30c42 0 83 -7 124 -30v21c0 21 -2 50 -31 71c-9 7 -30 18 -74 18c-40 0 -78 -8 -118 -23l12 97
c44 15 90 22 131 22c33 0 62 -5 92 -19c26 -12 45 -28 59 -54zM171 126c0 -11 4 -26 20 -37s42 -17 64 -17c21 0 45 4 63 14c27 15 30 36 30 47c0 15 -7 30 -26 40c-13 7 -31 12 -60 12c-21 0 -44 -1 -65 -14c-23 -14 -26 -33 -26 -45zM487 274h205c-2 22 -14 52 -33 68
c-6 5 -25 19 -63 19c-27 0 -52 -5 -75 -27c-16 -16 -28 -39 -34 -60z" />
    <glyph glyph-name="ccedilla" unicode="&#xe7;" horiz-adv-x="420" 
d="M438 421l-15 -120c-18 17 -50 38 -103 38c-28 0 -62 -6 -90 -34c-27 -26 -40 -66 -40 -99c0 -31 11 -60 30 -79c19 -20 49 -33 82 -33c26 0 67 8 100 38l-14 -119c-40 -23 -85 -27 -114 -27c-62 0 -120 22 -158 61c-31 32 -54 79 -54 146c0 76 27 138 70 182
c52 53 113 72 186 72c38 0 76 -5 120 -26zM240 -46l88 -44l-142 -146l-64 36z" />
    <glyph glyph-name="egrave" unicode="&#xe8;" horiz-adv-x="526" 
d="M393 141l105 -25c-22 -45 -57 -81 -92 -101c-43 -24 -91 -29 -130 -29c-58 0 -115 11 -161 60c-24 25 -52 69 -52 140c0 75 27 150 75 197c55 55 120 64 173 64c52 0 106 -10 148 -50c47 -45 56 -104 56 -157c0 -18 0 -31 -2 -44h-324c-5 -40 7 -69 25 -87
c22 -23 49 -27 71 -27c15 0 43 1 66 14c18 11 33 29 42 45zM203 274h205c-1 25 -12 49 -27 63c-17 16 -43 24 -68 24c-33 0 -57 -13 -74 -28c-15 -14 -29 -35 -36 -59zM327 510l-134 134l95 56l100 -150z" />
    <glyph glyph-name="eacute" unicode="&#xe9;" horiz-adv-x="526" 
d="M393 141l105 -25c-22 -45 -57 -81 -92 -101c-43 -24 -91 -29 -130 -29c-58 0 -115 11 -161 60c-24 25 -52 69 -52 140c0 75 27 150 75 197c55 55 120 64 173 64c52 0 106 -10 148 -50c47 -45 56 -104 56 -157c0 -18 0 -31 -2 -44h-324c-5 -40 7 -69 25 -87
c22 -23 49 -27 71 -27c15 0 43 1 66 14c18 11 33 29 42 45zM203 274h205c-1 25 -12 49 -27 63c-17 16 -43 24 -68 24c-33 0 -57 -13 -74 -28c-15 -14 -29 -35 -36 -59zM414 700l81 -56l-166 -134l-51 40z" />
    <glyph glyph-name="ecircumflex" unicode="&#xea;" horiz-adv-x="526" 
d="M393 141l105 -25c-22 -45 -57 -81 -92 -101c-43 -24 -91 -29 -130 -29c-58 0 -115 11 -161 60c-24 25 -52 69 -52 140c0 75 27 150 75 197c55 55 120 64 173 64c52 0 106 -10 148 -50c47 -45 56 -104 56 -157c0 -18 0 -31 -2 -44h-324c-5 -40 7 -69 25 -87
c22 -23 49 -27 71 -27c15 0 43 1 66 14c18 11 33 29 42 45zM203 274h205c-1 25 -12 49 -27 63c-17 16 -43 24 -68 24c-33 0 -57 -13 -74 -28c-15 -14 -29 -35 -36 -59zM326 602l-121 -92l-55 60l187 138l153 -138l-65 -60z" />
    <glyph glyph-name="edieresis" unicode="&#xeb;" horiz-adv-x="526" 
d="M393 141l105 -25c-22 -45 -57 -81 -92 -101c-43 -24 -91 -29 -130 -29c-58 0 -115 11 -161 60c-24 25 -52 69 -52 140c0 75 27 150 75 197c55 55 120 64 173 64c52 0 106 -10 148 -50c47 -45 56 -104 56 -157c0 -18 0 -31 -2 -44h-324c-5 -40 7 -69 25 -87
c22 -23 49 -27 71 -27c15 0 43 1 66 14c18 11 33 29 42 45zM203 274h205c-1 25 -12 49 -27 63c-17 16 -43 24 -68 24c-33 0 -57 -13 -74 -28c-15 -14 -29 -35 -36 -59zM354 578c0 17 6 38 24 56c19 19 41 24 58 24c21 0 36 -9 46 -20c9 -10 16 -24 16 -44
c0 -22 -9 -40 -22 -54c-17 -19 -38 -26 -59 -26c-19 0 -34 7 -44 17c-12 12 -19 30 -19 47zM146 578c0 17 6 38 24 56c19 19 41 24 58 24c21 0 36 -9 46 -20c9 -10 16 -24 16 -44c0 -22 -9 -40 -22 -54c-17 -19 -38 -26 -59 -26c-19 0 -34 7 -44 17c-12 12 -19 30 -19 47z
" />
    <glyph glyph-name="igrave" unicode="&#xec;" horiz-adv-x="238" 
d="M111 433h122l-53 -433h-122zM174 501l-90 168l104 32l54 -177z" />
    <glyph glyph-name="iacute" unicode="&#xed;" horiz-adv-x="238" 
d="M111 433h122l-53 -433h-122zM222 701l96 -32l-130 -168l-64 23z" />
    <glyph glyph-name="icircumflex" unicode="&#xee;" horiz-adv-x="238" 
d="M111 433h122l-53 -433h-122zM193 602l-98 -78l-50 56l160 128l128 -128l-62 -56z" />
    <glyph glyph-name="idieresis" unicode="&#xef;" horiz-adv-x="238" 
d="M111 433h122l-53 -433h-122zM208 606c0 25 10 49 27 66c10 10 21 17 38 17c10 0 25 -3 37 -18c10 -12 15 -27 15 -43c0 -5 0 -31 -20 -57c-17 -21 -35 -26 -47 -26c-16 0 -27 7 -35 16c-9 11 -15 27 -15 45zM65 607c0 24 10 48 27 65c10 10 21 17 38 17
c10 0 25 -3 37 -18c10 -12 15 -27 15 -43c0 -5 0 -31 -20 -57c-17 -21 -35 -26 -47 -26c-16 0 -27 7 -35 16c-9 11 -15 27 -15 46z" />
    <glyph glyph-name="eth" unicode="&#xf0;" horiz-adv-x="548" 
d="M139 588l45 94c121 -10 186 -45 220 -66l146 46l24 -68l-110 -32c29 -33 45 -63 59 -104c17 -49 24 -92 24 -138c0 -72 -14 -193 -88 -266c-59 -57 -131 -68 -184 -68c-47 0 -104 8 -152 54c-29 27 -61 74 -61 150c0 68 26 136 68 179c29 29 82 64 164 64
c72 0 108 -29 127 -50c-6 39 -25 101 -82 140l-205 -73l-20 62l151 50c-39 16 -81 26 -126 26zM310 329c-42 0 -70 -17 -86 -35c-26 -28 -35 -69 -35 -102c0 -27 11 -55 29 -73c16 -15 41 -25 70 -25c43 0 69 19 82 33c24 25 37 68 37 105c0 40 -18 62 -30 73s-33 24 -67 24
z" />
    <glyph glyph-name="ntilde" unicode="&#xf1;" horiz-adv-x="536" 
d="M58 0l53 433h122l-7 -56c12 19 29 36 53 50c25 14 50 20 84 20c58 0 94 -18 116 -40c28 -29 34 -65 34 -95c0 -24 -4 -44 -8 -74l-29 -238h-122l25 201c1 9 6 53 6 69c0 30 -11 47 -20 55c-9 9 -26 18 -53 18c-35 0 -56 -14 -68 -26c-23 -24 -33 -65 -37 -96l-27 -221
h-122zM477 647l54 -48c-11 -17 -29 -41 -44 -54c-20 -18 -42 -27 -69 -27c-28 0 -51 9 -70 18l-32 14c-16 7 -36 14 -49 14c-26 0 -49 -24 -60 -41l-55 48c9 15 26 36 41 50c22 20 48 31 83 31c26 0 44 -7 63 -15l36 -15c25 -11 40 -16 52 -16c19 0 38 15 50 41z" />
    <glyph glyph-name="ograve" unicode="&#xf2;" horiz-adv-x="572" 
d="M336 447c85 0 138 -29 171 -62c28 -29 56 -76 56 -144c0 -55 -17 -124 -77 -182c-57 -54 -122 -73 -199 -73c-62 0 -120 13 -167 60c-32 31 -57 79 -57 147c0 71 31 138 75 181c35 34 97 73 198 73zM299 94c33 0 69 12 95 38c25 25 41 63 41 97c0 27 -11 60 -32 80
c-20 19 -50 30 -79 30c-34 0 -68 -13 -92 -35c-30 -28 -43 -69 -43 -103c0 -26 11 -57 30 -76c20 -20 52 -31 80 -31zM357 510l-134 134l95 56l100 -150z" />
    <glyph glyph-name="oacute" unicode="&#xf3;" horiz-adv-x="572" 
d="M336 447c85 0 138 -29 171 -62c28 -29 56 -76 56 -144c0 -55 -17 -124 -77 -182c-57 -54 -122 -73 -199 -73c-62 0 -120 13 -167 60c-32 31 -57 79 -57 147c0 71 31 138 75 181c35 34 97 73 198 73zM299 94c33 0 69 12 95 38c25 25 41 63 41 97c0 27 -11 60 -32 80
c-20 19 -50 30 -79 30c-34 0 -68 -13 -92 -35c-30 -28 -43 -69 -43 -103c0 -26 11 -57 30 -76c20 -20 52 -31 80 -31zM424 700l81 -56l-166 -134l-51 40z" />
    <glyph glyph-name="ocircumflex" unicode="&#xf4;" horiz-adv-x="572" 
d="M336 447c85 0 138 -29 171 -62c28 -29 56 -76 56 -144c0 -55 -17 -124 -77 -182c-57 -54 -122 -73 -199 -73c-62 0 -120 13 -167 60c-32 31 -57 79 -57 147c0 71 31 138 75 181c35 34 97 73 198 73zM299 94c33 0 69 12 95 38c25 25 41 63 41 97c0 27 -11 60 -32 80
c-20 19 -50 30 -79 30c-34 0 -68 -13 -92 -35c-30 -28 -43 -69 -43 -103c0 -26 11 -57 30 -76c20 -20 52 -31 80 -31zM360 602l-121 -92l-55 60l187 138l153 -138l-65 -60z" />
    <glyph glyph-name="otilde" unicode="&#xf5;" horiz-adv-x="572" 
d="M336 447c85 0 138 -29 171 -62c28 -29 56 -76 56 -144c0 -55 -17 -124 -77 -182c-57 -54 -122 -73 -199 -73c-62 0 -120 13 -167 60c-32 31 -57 79 -57 147c0 71 31 138 75 181c35 34 97 73 198 73zM299 94c33 0 69 12 95 38c25 25 41 63 41 97c0 27 -11 60 -32 80
c-20 19 -50 30 -79 30c-34 0 -68 -13 -92 -35c-30 -28 -43 -69 -43 -103c0 -26 11 -57 30 -76c20 -20 52 -31 80 -31zM477 647l54 -48c-11 -17 -29 -41 -44 -54c-20 -18 -42 -27 -69 -27c-28 0 -51 9 -70 18l-32 14c-16 7 -36 14 -49 14c-26 0 -49 -24 -60 -41l-55 48
c9 15 26 36 41 50c22 20 48 31 83 31c26 0 44 -7 63 -15l36 -15c25 -11 40 -16 52 -16c19 0 38 15 50 41z" />
    <glyph glyph-name="odieresis" unicode="&#xf6;" horiz-adv-x="572" 
d="M336 447c85 0 138 -29 171 -62c28 -29 56 -76 56 -144c0 -55 -17 -124 -77 -182c-57 -54 -122 -73 -199 -73c-62 0 -120 13 -167 60c-32 31 -57 79 -57 147c0 71 31 138 75 181c35 34 97 73 198 73zM299 94c33 0 69 12 95 38c25 25 41 63 41 97c0 27 -11 60 -32 80
c-20 19 -50 30 -79 30c-34 0 -68 -13 -92 -35c-30 -28 -43 -69 -43 -103c0 -26 11 -57 30 -76c20 -20 52 -31 80 -31zM374 578c0 17 6 38 24 56c19 19 41 24 58 24c21 0 36 -9 46 -20c9 -10 16 -24 16 -44c0 -22 -9 -40 -22 -54c-17 -19 -38 -26 -59 -26c-19 0 -34 7 -44 17
c-12 12 -19 30 -19 47zM166 578c0 17 6 38 24 56c19 19 41 24 58 24c21 0 36 -9 46 -20c9 -10 16 -24 16 -44c0 -22 -9 -40 -22 -54c-17 -19 -38 -26 -59 -26c-19 0 -34 7 -44 17c-12 12 -19 30 -19 47z" />
    <glyph glyph-name="divide" unicode="&#xf7;" horiz-adv-x="487" 
d="M214 511c0 39 32 71 71 71s71 -32 71 -71s-32 -71 -71 -71s-71 32 -71 71zM214 167c0 39 32 71 71 71s71 -32 71 -71s-32 -71 -71 -71s-71 32 -71 71zM68 283v112h434v-112h-434z" />
    <glyph glyph-name="oslash" unicode="&#xf8;" horiz-adv-x="588" 
d="M34 8l73 65c-23 34 -35 70 -35 118c0 89 39 148 75 183s97 73 194 73c52 0 99 -10 147 -39l78 69l44 -51l-74 -66c24 -36 36 -75 36 -121c0 -54 -17 -122 -77 -180c-51 -50 -112 -73 -191 -73c-57 0 -101 11 -146 37l-75 -67zM436 271l-183 -163c17 -8 37 -14 55 -14
c33 0 69 12 95 38c26 25 41 62 41 97c0 15 -2 28 -8 42zM207 160l185 164c-20 11 -39 15 -59 15c-35 0 -65 -10 -92 -35c-19 -18 -43 -51 -43 -101c0 -16 3 -30 9 -43z" />
    <glyph glyph-name="ugrave" unicode="&#xf9;" horiz-adv-x="537" 
d="M112 433h122l-26 -216c-4 -35 -5 -46 -5 -52c0 -28 9 -44 18 -53c13 -14 36 -22 61 -22c31 0 53 11 67 24c23 22 28 52 33 91l28 228h122l-29 -239c-10 -80 -29 -142 -94 -179c-39 -22 -88 -29 -129 -29c-54 0 -108 12 -143 37c-23 17 -58 53 -58 119c0 17 2 37 6 68z
M325 510l-134 134l95 56l100 -150z" />
    <glyph glyph-name="uacute" unicode="&#xfa;" horiz-adv-x="537" 
d="M112 433h122l-26 -216c-4 -35 -5 -46 -5 -52c0 -28 9 -44 18 -53c13 -14 36 -22 61 -22c31 0 53 11 67 24c23 22 28 52 33 91l28 228h122l-29 -239c-10 -80 -29 -142 -94 -179c-39 -22 -88 -29 -129 -29c-54 0 -108 12 -143 37c-23 17 -58 53 -58 119c0 17 2 37 6 68z
M422 700l81 -56l-166 -134l-51 40z" />
    <glyph glyph-name="ucircumflex" unicode="&#xfb;" horiz-adv-x="537" 
d="M112 433h122l-26 -216c-4 -35 -5 -46 -5 -52c0 -28 9 -44 18 -53c13 -14 36 -22 61 -22c31 0 53 11 67 24c23 22 28 52 33 91l28 228h122l-29 -239c-10 -80 -29 -142 -94 -179c-39 -22 -88 -29 -129 -29c-54 0 -108 12 -143 37c-23 17 -58 53 -58 119c0 17 2 37 6 68z
M344 602l-121 -92l-55 60l187 138l153 -138l-65 -60z" />
    <glyph glyph-name="udieresis" unicode="&#xfc;" horiz-adv-x="537" 
d="M112 433h122l-26 -216c-4 -35 -5 -46 -5 -52c0 -28 9 -44 18 -53c13 -14 36 -22 61 -22c31 0 53 11 67 24c23 22 28 52 33 91l28 228h122l-29 -239c-10 -80 -29 -142 -94 -179c-39 -22 -88 -29 -129 -29c-54 0 -108 12 -143 37c-23 17 -58 53 -58 119c0 17 2 37 6 68z
M372 578c0 17 6 38 24 56c19 19 41 24 58 24c21 0 36 -9 46 -20c9 -10 16 -24 16 -44c0 -22 -9 -40 -22 -54c-17 -19 -38 -26 -59 -26c-19 0 -34 7 -44 17c-12 12 -19 30 -19 47zM164 578c0 17 6 38 24 56c19 19 41 24 58 24c21 0 36 -9 46 -20c9 -10 16 -24 16 -44
c0 -22 -9 -40 -22 -54c-17 -19 -38 -26 -59 -26c-19 0 -34 7 -44 17c-12 12 -19 30 -19 47z" />
    <glyph glyph-name="yacute" unicode="&#xfd;" horiz-adv-x="538" 
d="M21 -229l195 294l-161 368h138l104 -246l150 246h142l-430 -662h-138zM410 700l81 -56l-166 -134l-51 40z" />
    <glyph glyph-name="thorn" unicode="&#xfe;" horiz-adv-x="572" 
d="M187 56l-35 -285h-122l117 958h122l-43 -352c19 23 40 39 64 51c28 14 50 19 80 19c44 0 95 -9 136 -48c47 -45 57 -105 57 -153c0 -101 -39 -163 -74 -198c-48 -48 -102 -62 -157 -62c-18 0 -65 2 -101 25c-18 11 -33 28 -44 45zM326 339c-32 0 -64 -9 -91 -36
c-28 -27 -41 -63 -41 -97c0 -32 11 -60 27 -78c25 -29 59 -34 86 -34c35 0 64 10 89 35c26 26 40 65 40 103c0 35 -14 62 -32 79s-49 28 -78 28z" />
    <glyph glyph-name="ydieresis" unicode="&#xff;" horiz-adv-x="538" 
d="M21 -229l195 294l-161 368h138l104 -246l150 246h142l-430 -662h-138zM374 578c0 17 6 38 24 56c19 19 41 24 58 24c21 0 36 -9 46 -20c9 -10 16 -24 16 -44c0 -22 -9 -40 -22 -54c-17 -19 -38 -26 -59 -26c-19 0 -34 7 -44 17c-12 12 -19 30 -19 47zM166 578
c0 17 6 38 24 56c19 19 41 24 58 24c21 0 36 -9 46 -20c9 -10 16 -24 16 -44c0 -22 -9 -40 -22 -54c-17 -19 -38 -26 -59 -26c-19 0 -34 7 -44 17c-12 12 -19 30 -19 47z" />
    <glyph glyph-name="Amacron" unicode="&#x100;" horiz-adv-x="672" 
d="M533 0l-42 140h-269l-76 -140h-144l373 667h98l197 -667h-137zM276 246h190l-64 240zM242 745l11 86h366l-11 -86h-366z" />
    <glyph glyph-name="amacron" unicode="&#x101;" horiz-adv-x="572" 
d="M438 377l7 56h122l-53 -433h-122l7 56c-22 -29 -47 -44 -55 -49c-26 -15 -51 -21 -81 -21c-52 0 -101 14 -142 55c-42 42 -58 95 -58 153c0 78 26 142 67 185c35 36 91 68 171 68c31 0 58 -6 86 -21c24 -13 39 -29 51 -49zM318 339c-31 0 -60 -9 -85 -31
c-28 -26 -43 -64 -43 -100c0 -38 14 -68 33 -86c18 -17 44 -28 80 -28c24 0 57 5 86 31s43 67 43 104c0 31 -12 58 -30 77c-14 15 -40 33 -84 33zM156 539l10 80h364l-10 -80h-364z" />
    <glyph glyph-name="Abreve" unicode="&#x102;" horiz-adv-x="672" 
d="M533 0l-42 140h-269l-76 -140h-144l373 667h98l197 -667h-137zM276 246h190l-64 240zM515 870h92c-7 -37 -26 -77 -47 -99c-37 -38 -90 -45 -129 -45c-66 0 -103 20 -123 40c-26 25 -41 66 -41 104h88c1 -16 8 -31 17 -40c11 -12 31 -20 57 -20s44 7 57 17s24 25 29 43z
" />
    <glyph glyph-name="abreve" unicode="&#x103;" horiz-adv-x="572" 
d="M438 377l7 56h122l-53 -433h-122l7 56c-22 -29 -47 -44 -55 -49c-26 -15 -51 -21 -81 -21c-52 0 -101 14 -142 55c-42 42 -58 95 -58 153c0 78 26 142 67 185c35 36 91 68 171 68c31 0 58 -6 86 -21c24 -13 39 -29 51 -49zM318 339c-31 0 -60 -9 -85 -31
c-28 -26 -43 -64 -43 -100c0 -38 14 -68 33 -86c18 -17 44 -28 80 -28c24 0 57 5 86 31s43 67 43 104c0 31 -12 58 -30 77c-14 15 -40 33 -84 33zM426 650h88c-7 -42 -27 -73 -49 -94c-37 -36 -79 -47 -126 -47c-29 0 -77 5 -113 41c-22 23 -39 59 -40 100h80
c2 -15 10 -33 21 -44c10 -10 27 -19 54 -19c18 0 39 3 57 18c12 10 23 27 28 45z" />
    <glyph glyph-name="Aogonek" unicode="&#x104;" horiz-adv-x="672" 
d="M670 0h-65c-17 -12 -30 -24 -42 -37c-9 -10 -25 -30 -25 -50c0 -14 7 -21 11 -24c7 -5 18 -8 28 -8c14 0 31 5 45 12l-22 -69c-25 -14 -48 -17 -64 -17c-24 0 -46 7 -62 20c-14 12 -24 30 -24 56c0 27 10 48 26 68c9 12 28 32 57 49l-42 140h-269l-76 -140h-144l373 667
h98zM276 246h190l-64 240z" />
    <glyph glyph-name="aogonek" unicode="&#x105;" horiz-adv-x="572" 
d="M438 377l7 56h122l-53 -433h-40c-13 -10 -26 -24 -37 -38c-11 -15 -16 -28 -16 -45c0 -11 3 -18 11 -25c9 -8 19 -9 29 -9c14 0 24 1 49 12l-23 -67c-25 -13 -44 -17 -63 -17c-33 0 -52 12 -59 18c-15 12 -25 29 -25 53c0 30 13 54 26 71c14 18 33 35 50 47h-24l7 56
c-32 -41 -78 -70 -136 -70c-52 0 -101 14 -142 55c-42 42 -58 95 -58 153c0 78 26 142 67 185c35 36 91 68 171 68c31 0 58 -6 86 -21c24 -13 39 -29 51 -49zM318 339c-31 0 -60 -9 -85 -31c-28 -26 -43 -64 -43 -100c0 -38 14 -68 33 -86c18 -17 44 -28 80 -28
c24 0 57 5 86 31s43 67 43 104c0 31 -12 58 -30 77c-14 15 -40 33 -84 33z" />
    <glyph glyph-name="Cacute" unicode="&#x106;" horiz-adv-x="607" 
d="M585 176l-19 -152c-27 -14 -80 -39 -165 -39c-121 0 -192 48 -227 82c-66 63 -89 144 -89 224c0 126 46 227 107 289c87 87 195 102 274 102c43 0 104 -4 176 -41l-18 -150c-56 65 -128 73 -170 73c-84 0 -135 -35 -167 -69c-44 -47 -67 -118 -67 -185
c0 -73 28 -120 56 -150c38 -40 87 -58 144 -58c101 0 148 51 165 74zM455 728l-49 50l157 142l81 -70z" />
    <glyph glyph-name="cacute" unicode="&#x107;" horiz-adv-x="420" 
d="M438 421l-15 -120c-18 17 -50 38 -103 38c-28 0 -62 -6 -90 -34c-27 -26 -40 -66 -40 -99c0 -31 11 -60 30 -79c19 -20 49 -33 82 -33c26 0 67 8 100 38l-14 -119c-40 -23 -85 -27 -114 -27c-62 0 -120 22 -158 61c-31 32 -54 79 -54 146c0 76 27 138 70 182
c52 53 113 72 186 72c38 0 76 -5 120 -26zM414 700l81 -56l-166 -134l-51 40z" />
    <glyph glyph-name="Ccircumflex" unicode="&#x108;" horiz-adv-x="607" 
d="M585 176l-19 -152c-27 -14 -80 -39 -165 -39c-121 0 -192 48 -227 82c-66 63 -89 144 -89 224c0 126 46 227 107 289c87 87 195 102 274 102c43 0 104 -4 176 -41l-18 -150c-56 65 -128 73 -170 73c-84 0 -135 -35 -167 -69c-44 -47 -67 -118 -67 -185
c0 -73 28 -120 56 -150c38 -40 87 -58 144 -58c101 0 148 51 165 74zM483 820l-131 -88l-54 64l196 134l164 -134l-66 -64z" />
    <glyph glyph-name="ccircumflex" unicode="&#x109;" horiz-adv-x="420" 
d="M438 421l-15 -120c-18 17 -50 38 -103 38c-28 0 -62 -6 -90 -34c-27 -26 -40 -66 -40 -99c0 -31 11 -60 30 -79c19 -20 49 -33 82 -33c26 0 67 8 100 38l-14 -119c-40 -23 -85 -27 -114 -27c-62 0 -120 22 -158 61c-31 32 -54 79 -54 146c0 76 27 138 70 182
c52 53 113 72 186 72c38 0 76 -5 120 -26zM341 602l-121 -92l-55 60l187 138l153 -138l-65 -60z" />
    <glyph glyph-name="Cdotaccent" unicode="&#x10a;" horiz-adv-x="607" 
d="M585 176l-19 -152c-27 -14 -80 -39 -165 -39c-121 0 -192 48 -227 82c-66 63 -89 144 -89 224c0 126 46 227 107 289c87 87 195 102 274 102c43 0 104 -4 176 -41l-18 -150c-56 65 -128 73 -170 73c-84 0 -135 -35 -167 -69c-44 -47 -67 -118 -67 -185
c0 -73 28 -120 56 -150c38 -40 87 -58 144 -58c101 0 148 51 165 74zM324 809c0 22 10 45 25 61c14 14 34 25 62 25c20 0 40 -7 52 -19s19 -31 19 -50c0 -20 -7 -43 -26 -62c-15 -15 -34 -25 -59 -25c-21 0 -39 7 -52 19c-6 6 -21 22 -21 51z" />
    <glyph glyph-name="cdotaccent" unicode="&#x10b;" horiz-adv-x="420" 
d="M438 421l-15 -120c-18 17 -50 38 -103 38c-28 0 -62 -6 -90 -34c-27 -26 -40 -66 -40 -99c0 -31 11 -60 30 -79c19 -20 49 -33 82 -33c26 0 67 8 100 38l-14 -119c-40 -23 -85 -27 -114 -27c-62 0 -120 22 -158 61c-31 32 -54 79 -54 146c0 76 27 138 70 182
c52 53 113 72 186 72c38 0 76 -5 120 -26zM205 582c0 23 10 46 24 60c10 10 29 24 59 24c28 0 44 -12 52 -20c9 -10 19 -26 19 -52c0 -27 -11 -46 -23 -57s-31 -23 -59 -23c-26 0 -42 9 -52 19c-11 11 -20 28 -20 49z" />
    <glyph glyph-name="Ccaron" unicode="&#x10c;" horiz-adv-x="607" 
d="M585 176l-19 -152c-27 -14 -80 -39 -165 -39c-121 0 -192 48 -227 82c-66 63 -89 144 -89 224c0 126 46 227 107 289c87 87 195 102 274 102c43 0 104 -4 176 -41l-18 -150c-56 65 -128 73 -170 73c-84 0 -135 -35 -167 -69c-44 -47 -67 -118 -67 -185
c0 -73 28 -120 56 -150c38 -40 87 -58 144 -58c101 0 148 51 165 74zM481 842l131 88l54 -64l-196 -134l-164 134l66 64z" />
    <glyph glyph-name="ccaron" unicode="&#x10d;" horiz-adv-x="420" 
d="M438 421l-15 -120c-18 17 -50 38 -103 38c-28 0 -62 -6 -90 -34c-27 -26 -40 -66 -40 -99c0 -31 11 -60 30 -79c19 -20 49 -33 82 -33c26 0 67 8 100 38l-14 -119c-40 -23 -85 -27 -114 -27c-62 0 -120 22 -158 61c-31 32 -54 79 -54 146c0 76 27 138 70 182
c52 53 113 72 186 72c38 0 76 -5 120 -26zM344 616l121 92l55 -60l-187 -138l-153 138l65 60z" />
    <glyph glyph-name="Dcaron" unicode="&#x10e;" horiz-adv-x="673" 
d="M158 667h174c51 0 172 -5 255 -85c47 -45 83 -119 83 -218c0 -156 -67 -233 -98 -263c-75 -74 -176 -101 -316 -101h-52h-128zM274 555l-54 -443h44c88 0 161 17 211 72c42 46 61 115 61 177c0 37 -8 97 -58 142c-54 48 -129 52 -164 52h-40zM391 842l131 88l54 -64
l-196 -134l-164 134l66 64z" />
    <glyph glyph-name="dcaron" unicode="&#x10f;" horiz-adv-x="730" 
d="M438 377l44 352h122l-90 -729h-122l7 56c-1 -2 -24 -33 -54 -50c-24 -13 -57 -20 -88 -20c-53 0 -97 15 -134 52c-30 30 -60 80 -60 161c0 79 29 144 68 183c37 38 99 65 159 65c31 0 67 -9 90 -20c12 -6 37 -20 58 -50zM316 339c-35 0 -64 -10 -87 -33
c-26 -25 -39 -60 -39 -96c0 -39 14 -70 34 -88c16 -15 42 -28 79 -28s69 14 90 35c22 22 40 62 40 100c0 34 -12 60 -32 79c-25 23 -55 31 -85 31zM610 478l106 212l114 -20l-136 -208z" />
    <glyph glyph-name="Dcroat" unicode="&#x110;" horiz-adv-x="673" 
d="M332 667c51 0 172 -5 255 -85c47 -45 83 -119 83 -218c0 -156 -67 -233 -98 -263c-75 -74 -176 -101 -316 -101h-50h-130l39 316h-86l12 100h86l31 251h174zM274 555l-17 -139h122l-12 -100h-122l-25 -204h44c88 0 161 17 211 72c42 46 61 115 61 177c0 37 -8 97 -58 142
c-54 48 -129 52 -164 52h-40z" />
    <glyph glyph-name="dcroat" unicode="&#x111;" horiz-adv-x="570" 
d="M438 377l24 182h-220l9 78h220l12 92h120l-12 -92h100l-9 -78h-100l-68 -559h-122l7 56c-1 -2 -24 -33 -54 -50c-24 -13 -57 -20 -88 -20c-53 0 -97 15 -134 52c-30 30 -60 80 -60 161c0 79 29 144 68 183c37 38 99 65 159 65c31 0 67 -9 90 -20c12 -6 37 -20 58 -50z
M316 339c-35 0 -64 -10 -87 -33c-26 -25 -39 -60 -39 -96c0 -39 14 -70 34 -88c16 -15 42 -28 79 -28s69 14 90 35c27 26 40 72 40 105c0 25 -8 52 -32 74c-25 23 -55 31 -85 31z" />
    <glyph glyph-name="Emacron" unicode="&#x112;" horiz-adv-x="496" 
d="M528 667l-14 -112h-240l-18 -149h230l-14 -112h-230l-22 -182h240l-14 -112h-240h-130l82 667h370zM166 745l11 86h366l-11 -86h-366z" />
    <glyph glyph-name="emacron" unicode="&#x113;" horiz-adv-x="526" 
d="M393 141l105 -25c-22 -45 -57 -81 -92 -101c-43 -24 -91 -29 -130 -29c-58 0 -115 11 -161 60c-24 25 -52 69 -52 140c0 75 27 150 75 197c55 55 120 64 173 64c52 0 106 -10 148 -50c47 -45 56 -104 56 -157c0 -18 0 -31 -2 -44h-324c-5 -40 7 -69 25 -87
c22 -23 49 -27 71 -27c15 0 43 1 66 14c18 11 33 29 42 45zM203 274h205c-1 25 -12 49 -27 63c-17 16 -43 24 -68 24c-33 0 -57 -13 -74 -28c-15 -14 -29 -35 -36 -59zM136 539l10 80h364l-10 -80h-364z" />
    <glyph glyph-name="Edotaccent" unicode="&#x116;" horiz-adv-x="496" 
d="M528 667l-14 -112h-240l-18 -149h230l-14 -112h-230l-22 -182h240l-14 -112h-240h-130l82 667h370zM281 809c0 22 10 45 25 61c14 14 34 25 62 25c20 0 40 -7 52 -19s19 -31 19 -50c0 -20 -7 -43 -26 -62c-15 -15 -34 -25 -59 -25c-21 0 -39 7 -52 19c-6 6 -21 22 -21 51
z" />
    <glyph glyph-name="edotaccent" unicode="&#x117;" horiz-adv-x="526" 
d="M393 141l105 -25c-22 -45 -57 -81 -92 -101c-43 -24 -91 -29 -130 -29c-58 0 -115 11 -161 60c-24 25 -52 69 -52 140c0 75 27 150 75 197c55 55 120 64 173 64c52 0 106 -10 148 -50c47 -45 56 -104 56 -157c0 -18 0 -31 -2 -44h-324c-5 -40 7 -69 25 -87
c22 -23 49 -27 71 -27c15 0 43 1 66 14c18 11 33 29 42 45zM203 274h205c-1 25 -12 49 -27 63c-17 16 -43 24 -68 24c-33 0 -57 -13 -74 -28c-15 -14 -29 -35 -36 -59zM245 582c0 23 10 46 24 60c10 10 29 24 59 24c28 0 44 -12 52 -20c9 -10 19 -26 19 -52
c0 -27 -11 -46 -23 -57s-31 -23 -59 -23c-26 0 -42 9 -52 19c-11 11 -20 28 -20 49z" />
    <glyph glyph-name="Eogonek" unicode="&#x118;" horiz-adv-x="496" 
d="M528 667l-14 -112h-240l-18 -149h230l-14 -112h-230l-22 -182h240l-14 -112h-40c-17 -12 -30 -24 -42 -37c-9 -10 -25 -30 -25 -50c0 -14 7 -21 11 -24c7 -5 18 -8 28 -8c14 0 31 5 45 12l-22 -69c-25 -14 -48 -17 -64 -17c-24 0 -46 7 -62 20c-14 12 -24 30 -24 56
c0 27 10 48 26 68c9 12 28 32 57 49h-258l82 667h370z" />
    <glyph glyph-name="eogonek" unicode="&#x119;" horiz-adv-x="526" 
d="M393 141l105 -25c-11 -28 -26 -48 -49 -68c-21 -19 -41 -32 -61 -45c-16 -11 -37 -26 -50 -45c-9 -14 -13 -27 -13 -39c0 -11 3 -20 11 -27c9 -8 19 -9 29 -9c14 0 24 1 49 12l-23 -67c-25 -13 -44 -17 -63 -17c-33 0 -52 12 -59 18c-15 12 -25 29 -25 53
c0 30 13 54 26 71s27 29 36 36c-8 -2 -23 -3 -41 -3c-76 0 -124 32 -150 60c-23 24 -52 69 -52 143c0 72 26 146 75 194c55 55 120 64 173 64c52 0 106 -10 148 -50c47 -45 56 -104 56 -157c0 -18 0 -31 -2 -44h-324c-1 -6 -1 -11 -1 -16c0 -32 10 -55 26 -71
c22 -23 49 -27 71 -27c15 0 43 1 66 14c18 11 33 29 42 45zM203 274h205c-1 25 -12 49 -27 63c-17 16 -43 24 -68 24c-33 0 -57 -13 -74 -28c-15 -14 -29 -35 -36 -59z" />
    <glyph glyph-name="Ecaron" unicode="&#x11a;" horiz-adv-x="496" 
d="M528 667l-14 -112h-240l-18 -149h230l-14 -112h-230l-22 -182h240l-14 -112h-240h-130l82 667h370zM361 842l131 88l54 -64l-196 -134l-164 134l66 64z" />
    <glyph glyph-name="ecaron" unicode="&#x11b;" horiz-adv-x="526" 
d="M393 141l105 -25c-22 -45 -57 -81 -92 -101c-43 -24 -91 -29 -130 -29c-58 0 -115 11 -161 60c-24 25 -52 69 -52 140c0 75 27 150 75 197c55 55 120 64 173 64c52 0 106 -10 148 -50c47 -45 56 -104 56 -157c0 -18 0 -31 -2 -44h-324c-5 -40 7 -69 25 -87
c22 -23 49 -27 71 -27c15 0 43 1 66 14c18 11 33 29 42 45zM203 274h205c-1 25 -12 49 -27 63c-17 16 -43 24 -68 24c-33 0 -57 -13 -74 -28c-15 -14 -29 -35 -36 -59zM334 616l121 92l55 -60l-187 -138l-153 138l65 60z" />
    <glyph glyph-name="Gcircumflex" unicode="&#x11c;" horiz-adv-x="766" 
d="M446 245l14 112h306c-7 -76 -31 -198 -113 -280c-74 -74 -163 -92 -243 -92c-77 0 -163 18 -234 87c-47 45 -91 117 -91 229c0 120 50 217 113 278c54 52 140 103 272 103c53 0 116 -9 177 -47c37 -23 73 -58 100 -104l-117 -67c-18 33 -42 56 -67 71
c-32 20 -68 29 -108 29c-77 0 -130 -32 -163 -65c-46 -46 -73 -119 -73 -191c0 -79 34 -126 58 -150c45 -45 100 -55 143 -55c38 0 91 6 136 45c30 26 51 64 62 97h-172zM493 820l-131 -88l-54 64l196 134l164 -134l-66 -64z" />
    <glyph glyph-name="gcircumflex" unicode="&#x11d;" horiz-adv-x="564" 
d="M430 377l7 56h122l-51 -413c-6 -51 -14 -134 -66 -187c-32 -33 -91 -63 -186 -63c-52 0 -116 9 -162 58c-28 29 -48 74 -53 121h128c2 -18 11 -40 25 -53c11 -11 32 -22 66 -22c38 0 66 12 84 29c27 26 35 65 39 94l8 61c-5 -7 -24 -33 -54 -51c-25 -15 -52 -21 -81 -21
c-53 0 -102 13 -142 53c-32 32 -57 83 -57 155c0 82 32 150 78 193c30 29 80 60 154 60c39 0 69 -8 91 -21c15 -9 35 -24 50 -49zM312 339c-43 0 -71 -16 -87 -31c-29 -26 -42 -67 -42 -104c0 -40 18 -66 32 -80c23 -23 51 -30 76 -30c49 0 78 18 93 32c26 25 42 66 42 105
c0 40 -18 66 -33 80c-18 16 -46 28 -81 28zM346 602l-121 -92l-55 60l187 138l153 -138l-65 -60z" />
    <glyph glyph-name="Gbreve" unicode="&#x11e;" horiz-adv-x="766" 
d="M446 245l14 112h306c-7 -76 -31 -198 -113 -280c-74 -74 -163 -92 -243 -92c-77 0 -163 18 -234 87c-47 45 -91 117 -91 229c0 120 50 217 113 278c54 52 140 103 272 103c53 0 116 -9 177 -47c37 -23 73 -58 100 -104l-117 -67c-18 33 -42 56 -67 71
c-32 20 -68 29 -108 29c-77 0 -130 -32 -163 -65c-46 -46 -73 -119 -73 -191c0 -79 34 -126 58 -150c45 -45 100 -55 143 -55c38 0 91 6 136 45c30 26 51 64 62 97h-172zM559 870h92c-7 -37 -26 -77 -47 -99c-37 -38 -90 -45 -129 -45c-66 0 -103 20 -123 40
c-26 25 -41 66 -41 104h88c1 -16 8 -31 17 -40c11 -12 31 -20 57 -20s44 7 57 17s24 25 29 43z" />
    <glyph glyph-name="gbreve" unicode="&#x11f;" horiz-adv-x="564" 
d="M430 377l7 56h122l-51 -413c-6 -51 -14 -134 -66 -187c-32 -33 -91 -63 -186 -63c-52 0 -116 9 -162 58c-28 29 -48 74 -53 121h128c2 -18 11 -40 25 -53c11 -11 32 -22 66 -22c38 0 66 12 84 29c27 26 35 65 39 94l8 61c-5 -7 -24 -33 -54 -51c-25 -15 -52 -21 -81 -21
c-53 0 -102 13 -142 53c-32 32 -57 83 -57 155c0 82 32 150 78 193c30 29 80 60 154 60c39 0 69 -8 91 -21c15 -9 35 -24 50 -49zM312 339c-43 0 -71 -16 -87 -31c-29 -26 -42 -67 -42 -104c0 -40 18 -66 32 -80c23 -23 51 -30 76 -30c49 0 78 18 93 32c26 25 42 66 42 105
c0 40 -18 66 -33 80c-18 16 -46 28 -81 28zM416 650h88c-7 -42 -27 -73 -49 -94c-37 -36 -79 -47 -126 -47c-29 0 -77 5 -113 41c-22 23 -39 59 -40 100h80c2 -15 10 -33 21 -44c10 -10 27 -19 54 -19c18 0 39 3 57 18c12 10 23 27 28 45z" />
    <glyph glyph-name="Gdotaccent" unicode="&#x120;" horiz-adv-x="766" 
d="M446 245l14 112h306c-7 -76 -31 -198 -113 -280c-74 -74 -163 -92 -243 -92c-77 0 -163 18 -234 87c-47 45 -91 117 -91 229c0 120 50 217 113 278c54 52 140 103 272 103c53 0 116 -9 177 -47c37 -23 73 -58 100 -104l-117 -67c-18 33 -42 56 -67 71
c-32 20 -68 29 -108 29c-77 0 -130 -32 -163 -65c-46 -46 -73 -119 -73 -191c0 -79 34 -126 58 -150c45 -45 100 -55 143 -55c38 0 91 6 136 45c30 26 51 64 62 97h-172zM404 809c0 22 10 45 25 61c14 14 34 25 62 25c20 0 40 -7 52 -19s19 -31 19 -50c0 -20 -7 -43 -26 -62
c-15 -15 -34 -25 -59 -25c-21 0 -39 7 -52 19c-6 6 -21 22 -21 51z" />
    <glyph glyph-name="gdotaccent" unicode="&#x121;" horiz-adv-x="564" 
d="M430 377l7 56h122l-51 -413c-6 -51 -14 -134 -66 -187c-32 -33 -91 -63 -186 -63c-52 0 -116 9 -162 58c-28 29 -48 74 -53 121h128c2 -18 11 -40 25 -53c11 -11 32 -22 66 -22c38 0 66 12 84 29c27 26 35 65 39 94l8 61c-5 -7 -24 -33 -54 -51c-25 -15 -52 -21 -81 -21
c-53 0 -102 13 -142 53c-32 32 -57 83 -57 155c0 82 32 150 78 193c30 29 80 60 154 60c39 0 69 -8 91 -21c15 -9 35 -24 50 -49zM312 339c-43 0 -71 -16 -87 -31c-29 -26 -42 -67 -42 -104c0 -40 18 -66 32 -80c23 -23 51 -30 76 -30c49 0 78 18 93 32c26 25 42 66 42 105
c0 40 -18 66 -33 80c-18 16 -46 28 -81 28zM243 582c0 23 10 46 24 60c10 10 29 24 59 24c28 0 44 -12 52 -20c9 -10 19 -26 19 -52c0 -27 -11 -46 -23 -57s-31 -23 -59 -23c-26 0 -42 9 -52 19c-11 11 -20 28 -20 49z" />
    <glyph glyph-name="Gcommaaccent" unicode="&#x122;" horiz-adv-x="766" 
d="M446 245l14 112h306c-7 -76 -31 -198 -113 -280c-74 -74 -163 -92 -243 -92c-77 0 -163 18 -234 87c-47 45 -91 117 -91 229c0 120 50 217 113 278c54 52 140 103 272 103c53 0 116 -9 177 -47c37 -23 73 -58 100 -104l-117 -67c-18 33 -42 56 -67 71
c-32 20 -68 29 -108 29c-77 0 -130 -32 -163 -65c-46 -46 -73 -119 -73 -191c0 -79 34 -126 58 -150c45 -45 100 -55 143 -55c38 0 91 6 136 45c30 26 51 64 62 97h-172zM260 -258l98 208l112 -16l-130 -204z" />
    <glyph glyph-name="gcommaaccent" unicode="&#x123;" horiz-adv-x="564" 
d="M430 377l7 56h122l-51 -413c-6 -51 -14 -134 -66 -187c-32 -33 -91 -63 -186 -63c-52 0 -116 9 -162 58c-28 29 -48 74 -53 121h128c2 -18 11 -40 25 -53c11 -11 32 -22 66 -22c38 0 66 12 84 29c27 26 35 65 39 94l8 61c-5 -7 -24 -33 -54 -51c-25 -15 -52 -21 -81 -21
c-53 0 -102 13 -142 53c-32 32 -57 83 -57 155c0 82 32 150 78 193c30 29 80 60 154 60c39 0 69 -8 91 -21c15 -9 35 -24 50 -49zM312 339c-43 0 -71 -16 -87 -31c-29 -26 -42 -67 -42 -104c0 -40 18 -66 32 -80c23 -23 51 -30 76 -30c49 0 78 18 93 32c26 25 42 66 42 105
c0 40 -18 66 -33 80c-18 16 -46 28 -81 28zM445 690l-98 -208l-112 16l130 204z" />
    <glyph glyph-name="Hcircumflex" unicode="&#x124;" horiz-adv-x="694" 
d="M288 667l-32 -258h282l32 258h130l-82 -667h-130l36 297h-282l-36 -297h-130l82 667h130zM450 820l-131 -88l-54 64l196 134l164 -134l-66 -64z" />
    <glyph glyph-name="hcircumflex" unicode="&#x125;" horiz-adv-x="536" 
d="M58 0l90 729h122l-44 -352c12 19 29 36 53 50c25 14 50 20 84 20c58 0 94 -18 116 -40c28 -29 34 -65 34 -95c0 -24 -4 -44 -8 -74l-29 -238h-122l25 201c1 9 6 53 6 69c0 30 -11 47 -20 55c-12 11 -30 18 -52 18c-39 0 -61 -18 -69 -26c-23 -23 -33 -64 -37 -96
l-27 -221h-122zM221 852l-121 -92l-55 60l187 138l153 -138l-65 -60z" />
    <glyph glyph-name="Hbar" unicode="&#x126;" horiz-adv-x="694" 
d="M288 667l-7 -53h282l7 53h130l-7 -53h60l-11 -96h-60l-64 -518h-130l36 297h-282l-36 -297h-130l64 518h-60l11 96h60l7 53h130zM552 518h-282l-14 -109h282z" />
    <glyph glyph-name="hbar" unicode="&#x127;" horiz-adv-x="546" 
d="M69 0l69 559h-100l9 78h100l12 92h122l-12 -92h200l-9 -78h-200l-23 -182c12 19 29 36 53 50c25 14 51 20 83 20c58 0 95 -18 116 -40c31 -32 34 -70 34 -98c0 -30 -4 -50 -8 -80l-28 -229h-122l25 201c1 9 6 53 6 69c0 30 -11 47 -20 55c-12 11 -30 18 -53 18
c-33 0 -55 -13 -68 -26c-23 -23 -33 -64 -37 -96l-27 -221h-122z" />
    <glyph glyph-name="Imacron" unicode="&#x12a;" horiz-adv-x="282" 
d="M158 667h130l-82 -667h-130zM96 745l10 86h280l-10 -86h-280z" />
    <glyph glyph-name="imacron" unicode="&#x12b;" horiz-adv-x="238" 
d="M111 433h122l-53 -433h-122zM65 539l10 80h244l-10 -80h-244z" />
    <glyph glyph-name="Iogonek" unicode="&#x12e;" horiz-adv-x="282" 
d="M158 667h130l-82 -667c-17 -12 -30 -24 -42 -37c-9 -10 -25 -30 -25 -50c0 -14 7 -21 11 -24c7 -5 18 -8 28 -8c14 0 31 5 45 12l-22 -69c-25 -14 -48 -17 -64 -17c-24 0 -46 7 -62 20c-14 12 -24 30 -24 56c0 27 10 48 26 68c9 12 28 32 57 49h-58z" />
    <glyph glyph-name="iogonek" unicode="&#x12f;" horiz-adv-x="238" 
d="M111 433h122l-53 -433c-13 -10 -26 -24 -37 -38c-11 -15 -16 -28 -16 -45c0 -11 3 -18 11 -25c9 -8 19 -9 29 -9c14 0 24 1 49 12l-23 -67c-25 -13 -44 -17 -63 -17c-33 0 -52 12 -59 18c-15 12 -25 29 -25 53c0 30 13 54 26 71c14 18 33 35 50 47h-64zM121 607
c0 19 7 40 24 57c20 21 42 25 58 25c19 0 35 -7 46 -18c12 -12 19 -29 19 -47c0 -15 -5 -37 -24 -56c-18 -18 -39 -25 -58 -25s-34 7 -46 18c-12 12 -19 26 -19 46z" />
    <glyph glyph-name="Idotaccent" unicode="&#x130;" horiz-adv-x="282" 
d="M158 667h130l-82 -667h-130zM149 809c0 22 10 45 25 61c14 14 34 25 62 25c20 0 40 -7 52 -19s19 -31 19 -50c0 -20 -7 -43 -26 -62c-15 -15 -34 -25 -59 -25c-21 0 -39 7 -52 19c-6 6 -21 22 -21 51z" />
    <glyph glyph-name="dotlessi" unicode="&#x131;" horiz-adv-x="238" 
d="M111 433h122l-53 -433h-122z" />
    <glyph glyph-name="Jcircumflex" unicode="&#x134;" horiz-adv-x="390" 
d="M266 667h130l-55 -447c-10 -78 -19 -142 -69 -188c-44 -41 -95 -47 -136 -47c-21 0 -63 2 -99 20c-18 9 -40 25 -57 42l90 95c18 -32 45 -36 62 -36s34 5 48 19c23 23 27 67 33 112zM343 820l-131 -88l-54 64l196 134l164 -134l-66 -64z" />
    <glyph glyph-name="jcircumflex" unicode="&#x135;" horiz-adv-x="238" 
d="M111 433h122l-81 -662h-122zM193 602l-121 -92l-53 60l187 138l153 -138l-67 -60z" />
    <glyph glyph-name="Kcommaaccent" unicode="&#x136;" horiz-adv-x="617" 
d="M288 667l-34 -266l273 266h151l-319 -311l253 -356h-156l-192 289l-25 -24l-33 -265h-130l82 667h130zM170 -258l98 208l112 -16l-130 -204z" />
    <glyph glyph-name="kcommaaccent" unicode="&#x137;" horiz-adv-x="503" 
d="M148 729h122l-55 -446l180 150h149l-231 -192l187 -241h-146l-127 178l-28 -22l-19 -156h-122zM120 -258l98 208l112 -16l-130 -204z" />
    <glyph glyph-name="Lacute" unicode="&#x139;" horiz-adv-x="426" 
d="M158 667h130l-68 -555h206l-14 -112h-205h-131zM235 728l-49 50l157 142l81 -70z" />
    <glyph glyph-name="lacute" unicode="&#x13a;" horiz-adv-x="236" 
d="M148 729h122l-90 -729h-122zM273 980l81 -56l-166 -134l-51 40z" />
    <glyph glyph-name="Lcommaaccent" unicode="&#x13b;" horiz-adv-x="426" 
d="M158 667h130l-68 -555h206l-14 -112h-205h-131zM110 -258l98 208l112 -16l-130 -204z" />
    <glyph glyph-name="lcommaaccent" unicode="&#x13c;" horiz-adv-x="236" 
d="M148 729h122l-90 -729h-122zM-20 -258l98 208l112 -16l-130 -204z" />
    <glyph glyph-name="Lcaron" unicode="&#x13d;" horiz-adv-x="426" 
d="M158 667h130l-68 -555h206l-14 -112h-205h-131zM310 468l106 212l114 -20l-136 -208z" />
    <glyph glyph-name="lcaron" unicode="&#x13e;" horiz-adv-x="419" 
d="M148 729h122l-90 -729h-122zM280 478l106 212l114 -20l-136 -208z" />
    <glyph glyph-name="Ldot" unicode="&#x13f;" horiz-adv-x="426" 
d="M158 667h130l-68 -555h206l-14 -112h-205h-131zM307 326c0 22 10 45 25 61c14 14 34 25 62 25c20 0 40 -7 52 -19s19 -31 19 -50c0 -20 -7 -43 -26 -62c-15 -15 -34 -25 -59 -25c-21 0 -39 7 -52 19c-6 6 -21 22 -21 51z" />
    <glyph glyph-name="ldot" unicode="&#x140;" horiz-adv-x="407" 
d="M148 729h122l-90 -729h-122zM289 358c0 23 10 46 24 60c10 10 29 24 59 24c28 0 44 -12 52 -20c9 -10 19 -26 19 -52c0 -27 -11 -46 -23 -57s-31 -23 -59 -23c-26 0 -42 9 -52 19c-11 11 -20 28 -20 49z" />
    <glyph glyph-name="Lslash" unicode="&#x141;" horiz-adv-x="426" 
d="M158 667h130l-28 -226l110 65l-12 -100l-110 -65l-28 -229h206l-14 -112h-207h-129l34 278l-93 -55l13 100l92 55z" />
    <glyph glyph-name="lslash" unicode="&#x142;" horiz-adv-x="238" 
d="M147 729h122l-25 -209l80 54l-11 -90l-80 -54l-53 -430h-122l45 364l-81 -54l11 90l81 54z" />
    <glyph glyph-name="Nacute" unicode="&#x143;" horiz-adv-x="778" 
d="M206 0h-130l82 667h92l349 -445l55 445h130l-82 -667h-92l-349 447zM454 728l-49 50l157 142l81 -70z" />
    <glyph glyph-name="nacute" unicode="&#x144;" horiz-adv-x="536" 
d="M58 0l53 433h122l-7 -56c12 19 29 36 53 50c25 14 50 20 84 20c58 0 94 -18 116 -40c28 -29 34 -65 34 -95c0 -24 -4 -44 -8 -74l-29 -238h-122l25 201c1 9 6 53 6 69c0 30 -11 47 -20 55c-9 9 -26 18 -53 18c-35 0 -56 -14 -68 -26c-23 -24 -33 -65 -37 -96l-27 -221
h-122zM421 700l81 -56l-166 -134l-51 40z" />
    <glyph glyph-name="Ncommaaccent" unicode="&#x145;" horiz-adv-x="778" 
d="M206 0h-130l82 667h92l349 -445l55 445h130l-82 -667h-92l-349 447zM295 -258l98 208l112 -16l-130 -204z" />
    <glyph glyph-name="ncommaaccent" unicode="&#x146;" horiz-adv-x="536" 
d="M58 0l53 433h122l-7 -56c12 19 29 36 53 50c25 14 50 20 84 20c58 0 94 -18 116 -40c28 -29 34 -65 34 -95c0 -24 -4 -44 -8 -74l-29 -238h-122l25 201c1 9 6 53 6 69c0 30 -11 47 -20 55c-9 9 -26 18 -53 18c-35 0 -56 -14 -68 -26c-23 -24 -33 -65 -37 -96l-27 -221
h-122zM120 -258l98 208l112 -16l-130 -204z" />
    <glyph glyph-name="Ncaron" unicode="&#x147;" horiz-adv-x="778" 
d="M206 0h-130l82 667h92l349 -445l55 445h130l-82 -667h-92l-349 447zM490 842l131 88l54 -64l-196 -134l-164 134l66 64z" />
    <glyph glyph-name="ncaron" unicode="&#x148;" horiz-adv-x="536" 
d="M58 0l53 433h122l-7 -56c12 19 29 36 53 50c25 14 50 20 84 20c58 0 94 -18 116 -40c28 -29 34 -65 34 -95c0 -24 -4 -44 -8 -74l-29 -238h-122l25 201c1 9 6 53 6 69c0 30 -11 47 -20 55c-9 9 -26 18 -53 18c-35 0 -56 -14 -68 -26c-23 -24 -33 -65 -37 -96l-27 -221
h-122zM364 616l121 92l55 -60l-187 -138l-153 138l65 60z" />
    <glyph glyph-name="Omacron" unicode="&#x14c;" horiz-adv-x="806" 
d="M484 682c95 0 178 -35 231 -86c50 -48 88 -123 88 -222c0 -106 -40 -211 -107 -280c-53 -55 -143 -109 -278 -109c-131 0 -206 53 -245 93c-55 56 -88 137 -88 221c0 110 46 213 115 278c70 66 174 105 284 105zM425 103c67 0 124 27 164 66c48 47 79 120 79 195
c0 60 -22 109 -53 141c-29 30 -79 58 -152 58c-72 0 -128 -28 -166 -64c-51 -48 -77 -118 -77 -190c0 -71 27 -118 53 -145c36 -38 90 -61 152 -61zM292 745l11 86h366l-11 -86h-366z" />
    <glyph glyph-name="omacron" unicode="&#x14d;" horiz-adv-x="572" 
d="M336 447c85 0 138 -29 171 -62c28 -29 56 -76 56 -144c0 -55 -17 -124 -77 -182c-57 -54 -122 -73 -199 -73c-62 0 -120 13 -167 60c-32 31 -57 79 -57 147c0 71 31 138 75 181c35 34 97 73 198 73zM299 94c33 0 69 12 95 38c25 25 41 63 41 97c0 27 -11 60 -32 80
c-20 19 -50 30 -79 30c-34 0 -68 -13 -92 -35c-30 -28 -43 -69 -43 -103c0 -26 11 -57 30 -76c20 -20 52 -31 80 -31zM156 539l10 80h364l-10 -80h-364z" />
    <glyph glyph-name="Obreve" unicode="&#x14e;" horiz-adv-x="806" 
d="M484 682c95 0 178 -35 231 -86c50 -48 88 -123 88 -222c0 -106 -40 -211 -107 -280c-53 -55 -143 -109 -278 -109c-131 0 -206 53 -245 93c-55 56 -88 137 -88 221c0 110 46 213 115 278c70 66 174 105 284 105zM425 103c67 0 124 27 164 66c48 47 79 120 79 195
c0 60 -22 109 -53 141c-29 30 -79 58 -152 58c-72 0 -128 -28 -166 -64c-51 -48 -77 -118 -77 -190c0 -71 27 -118 53 -145c36 -38 90 -61 152 -61zM565 870h92c-7 -37 -26 -77 -47 -99c-37 -38 -90 -45 -129 -45c-66 0 -103 20 -123 40c-26 25 -41 66 -41 104h88
c1 -16 8 -31 17 -40c11 -12 31 -20 57 -20s44 7 57 17s24 25 29 43z" />
    <glyph glyph-name="obreve" unicode="&#x14f;" horiz-adv-x="572" 
d="M336 447c85 0 138 -29 171 -62c28 -29 56 -76 56 -144c0 -55 -17 -124 -77 -182c-57 -54 -122 -73 -199 -73c-62 0 -120 13 -167 60c-32 31 -57 79 -57 147c0 71 31 138 75 181c35 34 97 73 198 73zM299 94c33 0 69 12 95 38c25 25 41 63 41 97c0 27 -11 60 -32 80
c-20 19 -50 30 -79 30c-34 0 -68 -13 -92 -35c-30 -28 -43 -69 -43 -103c0 -26 11 -57 30 -76c20 -20 52 -31 80 -31zM426 650h88c-7 -42 -27 -73 -49 -94c-37 -36 -79 -47 -126 -47c-29 0 -77 5 -113 41c-22 23 -39 59 -40 100h80c2 -15 10 -33 21 -44
c10 -10 27 -19 54 -19c18 0 39 3 57 18c12 10 23 27 28 45z" />
    <glyph glyph-name="Ohungarumlaut" unicode="&#x150;" horiz-adv-x="806" 
d="M484 682c95 0 178 -35 231 -86c50 -48 88 -123 88 -222c0 -106 -40 -211 -107 -280c-53 -55 -143 -109 -278 -109c-131 0 -206 53 -245 93c-55 56 -88 137 -88 221c0 110 46 213 115 278c70 66 174 105 284 105zM425 103c67 0 124 27 164 66c48 47 79 120 79 195
c0 60 -22 109 -53 141c-29 30 -79 58 -152 58c-72 0 -128 -28 -166 -64c-51 -48 -77 -118 -77 -190c0 -71 27 -118 53 -145c36 -38 90 -61 152 -61zM441 921l83 -59l-161 -134l-51 40zM641 920l83 -58l-161 -134l-51 40z" />
    <glyph glyph-name="ohungarumlaut" unicode="&#x151;" horiz-adv-x="572" 
d="M336 447c85 0 138 -29 171 -62c28 -29 56 -76 56 -144c0 -55 -17 -124 -77 -182c-57 -54 -122 -73 -199 -73c-62 0 -120 13 -167 60c-32 31 -57 79 -57 147c0 71 31 138 75 181c35 34 97 73 198 73zM299 94c33 0 69 12 95 38c25 25 41 63 41 97c0 27 -11 60 -32 80
c-20 19 -50 30 -79 30c-34 0 -68 -13 -92 -35c-30 -28 -43 -69 -43 -103c0 -26 11 -57 30 -76c20 -20 52 -31 80 -31zM309 690l75 -58l-149 -134l-45 40zM497 689l75 -57l-149 -134l-45 40z" />
    <glyph glyph-name="OE" unicode="&#x152;" horiz-adv-x="1041" 
d="M1073 667l-14 -112h-234l-18 -149h224l-14 -112h-224l-22 -182h234l-14 -112h-234h-130l11 90c-35 -45 -74 -66 -84 -72c-56 -30 -127 -33 -159 -33c-81 0 -155 16 -220 80c-57 56 -90 131 -90 230c0 122 46 223 113 289c73 72 157 98 261 98c48 0 98 -6 150 -30
c41 -20 68 -43 89 -75l11 90h364zM416 103c66 0 123 20 169 68c42 43 72 109 72 190c0 41 -9 101 -56 148c-26 26 -71 55 -144 55c-88 0 -140 -38 -167 -65c-43 -44 -71 -110 -71 -193c0 -50 12 -101 51 -144c42 -45 94 -59 146 -59z" />
    <glyph glyph-name="oe" unicode="&#x153;" horiz-adv-x="882" 
d="M748 139l110 -18c-13 -33 -39 -73 -73 -97c-33 -24 -82 -38 -135 -38c-16 0 -67 1 -112 23c-23 11 -48 30 -69 61c-19 -22 -48 -47 -72 -60c-42 -22 -97 -24 -121 -24c-54 0 -112 11 -159 61c-27 29 -54 76 -54 150c0 67 24 136 71 183c56 56 128 67 183 67
c39 0 72 -6 107 -22c29 -13 53 -32 74 -57c17 24 38 42 66 56c35 18 72 23 111 23c73 0 117 -27 142 -51c51 -49 60 -122 52 -200h-322c0 -30 11 -68 32 -88c24 -24 59 -26 78 -26c24 0 41 4 61 19c14 10 24 21 30 38zM295 94c37 0 71 14 92 35c26 25 39 63 39 101
c0 31 -10 57 -32 79s-48 30 -78 30c-39 0 -69 -13 -90 -36c-25 -27 -36 -66 -36 -99s12 -59 28 -77c15 -17 39 -33 77 -33zM560 274h205c-2 22 -14 52 -33 68c-6 5 -25 19 -63 19c-27 0 -52 -5 -75 -27c-16 -16 -28 -39 -34 -60z" />
    <glyph glyph-name="Racute" unicode="&#x154;" horiz-adv-x="576" 
d="M158 667h193c51 0 117 -7 166 -58c23 -24 47 -64 47 -128c0 -63 -23 -113 -55 -144c-30 -29 -79 -51 -123 -58l170 -279h-156l-145 268h-16l-33 -268h-130zM275 561l-25 -201h46c35 0 79 10 104 35c12 12 29 36 29 76c0 19 -4 45 -27 65c-16 14 -43 25 -86 25h-41z
M352 728l-49 50l157 142l81 -70z" />
    <glyph glyph-name="racute" unicode="&#x155;" horiz-adv-x="360" 
d="M58 0l53 433h122l-8 -62c12 21 31 43 54 57c26 16 50 19 76 19c22 0 38 -3 57 -10l-36 -109c-14 7 -29 11 -47 11c-32 0 -58 -12 -76 -30c-27 -27 -45 -81 -50 -125l-23 -184h-122zM344 700l81 -56l-166 -134l-51 40z" />
    <glyph glyph-name="Rcommaaccent" unicode="&#x156;" horiz-adv-x="576" 
d="M158 667h193c51 0 117 -7 166 -58c23 -24 47 -64 47 -128c0 -63 -23 -113 -55 -144c-30 -29 -79 -51 -123 -58l170 -279h-156l-145 268h-16l-33 -268h-130zM275 561l-25 -201h46c35 0 79 10 104 35c12 12 29 36 29 76c0 19 -4 45 -27 65c-16 14 -43 25 -86 25h-41z
M195 -258l98 208l112 -16l-130 -204z" />
    <glyph glyph-name="rcommaaccent" unicode="&#x157;" horiz-adv-x="360" 
d="M58 0l53 433h122l-8 -62c12 21 31 43 54 57c26 16 50 19 76 19c22 0 38 -3 57 -10l-36 -109c-14 7 -29 11 -47 11c-32 0 -58 -12 -76 -30c-27 -27 -45 -81 -50 -125l-23 -184h-122zM60 -258l98 208l112 -16l-130 -204z" />
    <glyph glyph-name="Rcaron" unicode="&#x158;" horiz-adv-x="576" 
d="M158 667h193c51 0 117 -7 166 -58c23 -24 47 -64 47 -128c0 -63 -23 -113 -55 -144c-30 -29 -79 -51 -123 -58l170 -279h-156l-145 268h-16l-33 -268h-130zM275 561l-25 -201h46c35 0 79 10 104 35c12 12 29 36 29 76c0 19 -4 45 -27 65c-16 14 -43 25 -86 25h-41z
M361 842l131 88l54 -64l-196 -134l-164 134l66 64z" />
    <glyph glyph-name="rcaron" unicode="&#x159;" horiz-adv-x="360" 
d="M58 0l53 433h122l-8 -62c12 21 31 43 54 57c26 16 50 19 76 19c22 0 38 -3 57 -10l-36 -109c-14 7 -29 11 -47 11c-32 0 -58 -12 -76 -30c-27 -27 -45 -81 -50 -125l-23 -184h-122zM284 616l121 92l55 -60l-187 -138l-153 138l65 60z" />
    <glyph glyph-name="Sacute" unicode="&#x15a;" horiz-adv-x="534" 
d="M546 604l-79 -89c-18 27 -52 57 -107 57c-36 0 -58 -11 -71 -23c-16 -14 -26 -33 -26 -56c0 -22 9 -38 28 -51c13 -9 30 -16 63 -30l45 -19c26 -11 57 -28 83 -56c30 -32 41 -63 41 -107c0 -73 -28 -141 -71 -182c-55 -53 -127 -63 -182 -63c-51 0 -94 10 -137 38
c-34 22 -64 56 -85 88l95 81c10 -19 29 -46 47 -61c26 -22 54 -28 84 -28c26 0 61 4 87 33c14 15 25 37 25 69c0 24 -8 43 -30 61s-42 22 -68 33l-38 16c-42 18 -66 34 -81 49c-35 34 -41 75 -41 110c0 52 15 102 57 144c54 54 122 64 181 64c43 0 117 -7 180 -78zM355 728
l-49 50l157 142l81 -70z" />
    <glyph glyph-name="sacute" unicode="&#x15b;" horiz-adv-x="400" 
d="M399 403l-63 -75c-9 9 -18 16 -31 22s-24 9 -41 9c-5 0 -29 -1 -41 -14c-4 -5 -9 -13 -9 -26c0 -9 2 -16 9 -22s16 -10 35 -16l37 -12c24 -8 51 -23 67 -39c25 -26 30 -59 30 -82c0 -50 -20 -86 -45 -111c-45 -45 -102 -51 -142 -51c-44 0 -77 9 -102 21
c-22 11 -48 32 -66 51l73 74c10 -14 24 -27 40 -36c15 -8 33 -14 50 -14c16 0 36 4 47 13c10 8 17 22 17 38c0 8 -2 18 -11 27c-9 8 -24 14 -43 21l-30 12c-18 7 -39 17 -57 35c-20 20 -29 41 -29 74c0 43 18 79 43 103s65 42 123 42c28 0 60 -4 85 -14c19 -7 40 -20 54 -30
zM356 700l81 -56l-166 -134l-51 40z" />
    <glyph glyph-name="Scircumflex" unicode="&#x15c;" horiz-adv-x="534" 
d="M546 604l-79 -89c-18 27 -52 57 -107 57c-36 0 -58 -11 -71 -23c-16 -14 -26 -33 -26 -56c0 -22 9 -38 28 -51c13 -9 30 -16 63 -30l45 -19c26 -11 57 -28 83 -56c30 -32 41 -63 41 -107c0 -73 -28 -141 -71 -182c-55 -53 -127 -63 -182 -63c-51 0 -94 10 -137 38
c-34 22 -64 56 -85 88l95 81c10 -19 29 -46 47 -61c26 -22 54 -28 84 -28c26 0 61 4 87 33c14 15 25 37 25 69c0 24 -8 43 -30 61s-42 22 -68 33l-38 16c-42 18 -66 34 -81 49c-35 34 -41 75 -41 110c0 52 15 102 57 144c54 54 122 64 181 64c43 0 117 -7 180 -78zM373 820
l-131 -88l-54 64l196 134l164 -134l-66 -64z" />
    <glyph glyph-name="scircumflex" unicode="&#x15d;" horiz-adv-x="400" 
d="M399 403l-63 -75c-9 9 -18 16 -31 22s-24 9 -41 9c-5 0 -29 -1 -41 -14c-4 -5 -9 -13 -9 -26c0 -9 2 -16 9 -22s16 -10 35 -16l37 -12c24 -8 51 -23 67 -39c25 -26 30 -59 30 -82c0 -50 -20 -86 -45 -111c-45 -45 -102 -51 -142 -51c-44 0 -77 9 -102 21
c-22 11 -48 32 -66 51l73 74c10 -14 24 -27 40 -36c15 -8 33 -14 50 -14c16 0 36 4 47 13c10 8 17 22 17 38c0 8 -2 18 -11 27c-9 8 -24 14 -43 21l-30 12c-18 7 -39 17 -57 35c-20 20 -29 41 -29 74c0 43 18 79 43 103s65 42 123 42c28 0 60 -4 85 -14c19 -7 40 -20 54 -30
zM286 602l-121 -92l-55 60l187 138l153 -138l-65 -60z" />
    <glyph glyph-name="Scedilla" unicode="&#x15e;" horiz-adv-x="534" 
d="M546 604l-79 -89c-18 27 -52 57 -107 57c-36 0 -58 -11 -71 -23c-16 -14 -26 -33 -26 -56c0 -22 9 -38 28 -51c13 -9 30 -16 63 -30l45 -19c26 -11 57 -28 83 -56c30 -32 41 -63 41 -107c0 -73 -28 -141 -71 -182c-55 -53 -127 -63 -182 -63c-51 0 -94 10 -137 38
c-34 22 -64 56 -85 88l95 81c10 -19 29 -46 47 -61c26 -22 54 -28 84 -28c26 0 61 4 87 33c14 15 25 37 25 69c0 24 -8 43 -30 61s-42 22 -68 33l-38 16c-42 18 -66 34 -81 49c-35 34 -41 75 -41 110c0 52 15 102 57 144c54 54 122 64 181 64c43 0 117 -7 180 -78zM264 -46
l96 -44l-150 -154l-70 36z" />
    <glyph glyph-name="scedilla" unicode="&#x15f;" horiz-adv-x="400" 
d="M399 403l-63 -75c-9 9 -18 16 -31 22s-24 9 -41 9c-5 0 -29 -1 -41 -14c-4 -5 -9 -13 -9 -26c0 -9 2 -16 9 -22s16 -10 35 -16l37 -12c24 -8 51 -23 67 -39c25 -26 30 -59 30 -82c0 -50 -20 -86 -45 -111c-45 -45 -102 -51 -142 -51c-44 0 -77 9 -102 21
c-22 11 -48 32 -66 51l73 74c10 -14 24 -27 40 -36c15 -8 33 -14 50 -14c16 0 36 4 47 13c10 8 17 22 17 38c0 8 -2 18 -11 27c-9 8 -24 14 -43 21l-30 12c-18 7 -39 17 -57 35c-20 20 -29 41 -29 74c0 43 18 79 43 103s65 42 123 42c28 0 60 -4 85 -14c19 -7 40 -20 54 -30
zM180 -46l88 -44l-142 -146l-64 36z" />
    <glyph glyph-name="Scaron" unicode="&#x160;" horiz-adv-x="534" 
d="M546 604l-79 -89c-18 27 -52 57 -107 57c-36 0 -58 -11 -71 -23c-16 -14 -26 -33 -26 -56c0 -22 9 -38 28 -51c13 -9 30 -16 63 -30l45 -19c26 -11 57 -28 83 -56c30 -32 41 -63 41 -107c0 -73 -28 -141 -71 -182c-55 -53 -127 -63 -182 -63c-51 0 -94 10 -137 38
c-34 22 -64 56 -85 88l95 81c10 -19 29 -46 47 -61c26 -22 54 -28 84 -28c26 0 61 4 87 33c14 15 25 37 25 69c0 24 -8 43 -30 61s-42 22 -68 33l-38 16c-42 18 -66 34 -81 49c-35 34 -41 75 -41 110c0 52 15 102 57 144c54 54 122 64 181 64c43 0 117 -7 180 -78zM371 842
l131 88l54 -64l-196 -134l-164 134l66 64z" />
    <glyph glyph-name="scaron" unicode="&#x161;" horiz-adv-x="400" 
d="M399 403l-63 -75c-9 9 -18 16 -31 22s-24 9 -41 9c-5 0 -29 -1 -41 -14c-4 -5 -9 -13 -9 -26c0 -9 2 -16 9 -22s16 -10 35 -16l37 -12c24 -8 51 -23 67 -39c25 -26 30 -59 30 -82c0 -50 -20 -86 -45 -111c-45 -45 -102 -51 -142 -51c-44 0 -77 9 -102 21
c-22 11 -48 32 -66 51l73 74c10 -14 24 -27 40 -36c15 -8 33 -14 50 -14c16 0 36 4 47 13c10 8 17 22 17 38c0 8 -2 18 -11 27c-9 8 -24 14 -43 21l-30 12c-18 7 -39 17 -57 35c-20 20 -29 41 -29 74c0 43 18 79 43 103s65 42 123 42c28 0 60 -4 85 -14c19 -7 40 -20 54 -30
zM284 616l121 92l55 -60l-187 -138l-153 138l65 60z" />
    <glyph glyph-name="Tcommaaccent" unicode="&#x162;" horiz-adv-x="442" 
d="M504 555h-150l-68 -555h-130l68 555h-150l14 112h430zM83 -258l98 208l112 -16l-130 -204z" />
    <glyph glyph-name="tcommaaccent" unicode="&#x163;" horiz-adv-x="270" 
d="M304 329h-84l-40 -329h-122l40 329h-48l13 104h48l18 148h122l-18 -148h84zM-10 -258l98 208l112 -16l-130 -204z" />
    <glyph glyph-name="Tcaron" unicode="&#x164;" horiz-adv-x="442" 
d="M504 555h-150l-68 -555h-130l68 555h-150l14 112h430zM322 842l131 88l54 -64l-196 -134l-164 134l66 64z" />
    <glyph glyph-name="tcaron" unicode="&#x165;" horiz-adv-x="390" 
d="M304 329h-84l-40 -329h-122l40 329h-48l13 104h48l18 148h122l-18 -148h84zM270 478l106 212l114 -20l-136 -208z" />
    <glyph glyph-name="Utilde" unicode="&#x168;" horiz-adv-x="686" 
d="M156 667h130l-45 -369c-2 -20 -7 -61 -7 -74c0 -39 15 -72 34 -90c23 -21 59 -31 91 -31c38 0 71 11 94 28c48 36 54 94 62 159l47 377h130l-48 -391c-10 -78 -20 -161 -79 -221c-63 -64 -150 -70 -207 -70c-62 0 -142 10 -198 67c-44 45 -55 100 -55 154
c0 27 6 91 9 113zM580 869l62 -48c-14 -20 -37 -47 -53 -61c-26 -22 -52 -28 -70 -28c-22 0 -50 9 -74 19l-33 14c-20 8 -34 16 -50 16c-10 0 -23 -3 -37 -16c-10 -10 -17 -20 -19 -24l-64 48c20 31 42 51 47 55c17 15 45 34 82 34c26 0 50 -11 68 -19l38 -16
c19 -8 35 -14 50 -14c9 0 22 3 34 14c6 6 14 17 19 26z" />
    <glyph glyph-name="utilde" unicode="&#x169;" horiz-adv-x="537" 
d="M112 433h122l-26 -216c-4 -35 -5 -46 -5 -52c0 -28 9 -44 18 -53c13 -14 36 -22 61 -22c31 0 53 11 67 24c23 22 28 52 33 91l28 228h122l-29 -239c-10 -80 -29 -142 -94 -179c-39 -22 -88 -29 -129 -29c-54 0 -108 12 -143 37c-23 17 -58 53 -58 119c0 17 2 37 6 68z
M475 647l54 -48c-11 -17 -29 -41 -44 -54c-20 -18 -42 -27 -69 -27c-28 0 -51 9 -70 18l-32 14c-16 7 -36 14 -49 14c-26 0 -49 -24 -60 -41l-55 48c9 15 26 36 41 50c22 20 48 31 83 31c26 0 44 -7 63 -15l36 -15c25 -11 40 -16 52 -16c19 0 38 15 50 41z" />
    <glyph glyph-name="Umacron" unicode="&#x16a;" horiz-adv-x="686" 
d="M156 667h130l-45 -369c-2 -20 -7 -61 -7 -74c0 -39 15 -72 34 -90c23 -21 59 -31 91 -31c38 0 71 11 94 28c48 36 54 94 62 159l47 377h130l-48 -391c-10 -78 -20 -161 -79 -221c-63 -64 -150 -70 -207 -70c-62 0 -142 10 -198 67c-44 45 -55 100 -55 154
c0 27 6 91 9 113zM248 745l11 86h366l-11 -86h-366z" />
    <glyph glyph-name="umacron" unicode="&#x16b;" horiz-adv-x="537" 
d="M112 433h122l-26 -216c-4 -35 -5 -46 -5 -52c0 -28 9 -44 18 -53c13 -14 36 -22 61 -22c31 0 53 11 67 24c23 22 28 52 33 91l28 228h122l-29 -239c-10 -80 -29 -142 -94 -179c-39 -22 -88 -29 -129 -29c-54 0 -108 12 -143 37c-23 17 -58 53 -58 119c0 17 2 37 6 68z
M154 539l10 80h364l-10 -80h-364z" />
    <glyph glyph-name="Ubreve" unicode="&#x16c;" horiz-adv-x="686" 
d="M156 667h130l-45 -369c-2 -20 -7 -61 -7 -74c0 -39 15 -72 34 -90c23 -21 59 -31 91 -31c38 0 71 11 94 28c48 36 54 94 62 159l47 377h130l-48 -391c-10 -78 -20 -161 -79 -221c-63 -64 -150 -70 -207 -70c-62 0 -142 10 -198 67c-44 45 -55 100 -55 154
c0 27 6 91 9 113zM521 870h92c-7 -37 -26 -77 -47 -99c-37 -38 -90 -45 -129 -45c-66 0 -103 20 -123 40c-26 25 -41 66 -41 104h88c1 -16 8 -31 17 -40c11 -12 31 -20 57 -20s44 7 57 17s24 25 29 43z" />
    <glyph glyph-name="ubreve" unicode="&#x16d;" horiz-adv-x="537" 
d="M112 433h122l-26 -216c-4 -35 -5 -46 -5 -52c0 -28 9 -44 18 -53c13 -14 36 -22 61 -22c31 0 53 11 67 24c23 22 28 52 33 91l28 228h122l-29 -239c-10 -80 -29 -142 -94 -179c-39 -22 -88 -29 -129 -29c-54 0 -108 12 -143 37c-23 17 -58 53 -58 119c0 17 2 37 6 68z
M424 650h88c-7 -42 -27 -73 -49 -94c-37 -36 -79 -47 -126 -47c-29 0 -77 5 -113 41c-22 23 -39 59 -40 100h80c2 -15 10 -33 21 -44c10 -10 27 -19 54 -19c18 0 39 3 57 18c12 10 23 27 28 45z" />
    <glyph glyph-name="Uring" unicode="&#x16e;" horiz-adv-x="686" 
d="M156 667h130l-45 -369c-2 -20 -7 -61 -7 -74c0 -39 15 -72 34 -90c23 -21 59 -31 91 -31c38 0 71 11 94 28c48 36 54 94 62 159l47 377h130l-48 -391c-10 -78 -20 -161 -79 -221c-63 -64 -150 -70 -207 -70c-62 0 -142 10 -198 67c-44 45 -55 100 -55 154
c0 27 6 91 9 113zM337 808c0 27 11 56 32 78c23 24 50 34 79 34s50 -11 64 -25c11 -11 25 -32 25 -65c0 -21 -6 -50 -33 -77c-20 -19 -45 -31 -76 -31c-29 0 -51 9 -66 25c-15 15 -25 37 -25 61zM397 815c0 -8 3 -17 8 -22c6 -7 18 -12 28 -12c13 0 25 6 32 14s12 21 12 33
c0 8 -4 18 -10 24c-5 5 -15 9 -25 9c-9 0 -21 -3 -31 -13c-10 -9 -14 -22 -14 -33z" />
    <glyph glyph-name="uring" unicode="&#x16f;" horiz-adv-x="537" 
d="M112 433h122l-26 -216c-4 -35 -5 -46 -5 -52c0 -28 9 -44 18 -53c13 -14 36 -22 61 -22c31 0 53 11 67 24c23 22 28 52 33 91l28 228h122l-29 -239c-10 -80 -29 -142 -94 -179c-39 -22 -88 -29 -129 -29c-54 0 -108 12 -143 37c-23 17 -58 53 -58 119c0 17 2 37 6 68z
M247 589c0 28 12 55 29 73c14 15 39 32 77 32c21 0 40 -6 57 -22c13 -13 26 -33 26 -65c0 -29 -9 -53 -30 -74c-18 -18 -39 -27 -69 -27c-28 0 -49 8 -66 25s-24 36 -24 58zM303 595c0 -8 3 -17 8 -23c3 -4 11 -11 26 -11c14 0 25 5 32 13c8 8 12 19 12 30
c0 10 -3 18 -10 25s-15 10 -25 10c-11 0 -20 -3 -29 -11c-10 -9 -14 -22 -14 -33z" />
    <glyph glyph-name="Uhungarumlaut" unicode="&#x170;" horiz-adv-x="686" 
d="M156 667h130l-45 -369c-2 -20 -7 -61 -7 -74c0 -39 15 -72 34 -90c23 -21 59 -31 91 -31c38 0 71 11 94 28c48 36 54 94 62 159l47 377h130l-48 -391c-10 -78 -20 -161 -79 -221c-63 -64 -150 -70 -207 -70c-62 0 -142 10 -198 67c-44 45 -55 100 -55 154
c0 27 6 91 9 113zM391 921l83 -59l-161 -134l-51 40zM591 920l83 -58l-161 -134l-51 40z" />
    <glyph glyph-name="uhungarumlaut" unicode="&#x171;" horiz-adv-x="537" 
d="M112 433h122l-26 -216c-4 -35 -5 -46 -5 -52c0 -28 9 -44 18 -53c13 -14 36 -22 61 -22c31 0 53 11 67 24c23 22 28 52 33 91l28 228h122l-29 -239c-10 -80 -29 -142 -94 -179c-39 -22 -88 -29 -129 -29c-54 0 -108 12 -143 37c-23 17 -58 53 -58 119c0 17 2 37 6 68z
M307 690l75 -58l-149 -134l-45 40zM495 689l75 -57l-149 -134l-45 40z" />
    <glyph glyph-name="Uogonek" unicode="&#x172;" horiz-adv-x="686" 
d="M156 667h130l-45 -369c-6 -50 -7 -64 -7 -73c0 -41 14 -73 34 -91c23 -21 59 -31 91 -31c38 0 71 11 94 28c48 36 54 94 62 159l47 377h130l-52 -423c-8 -67 -15 -118 -55 -167c-27 -32 -61 -52 -91 -69c-28 -15 -54 -29 -73 -45c-20 -17 -28 -35 -28 -50
c0 -14 7 -21 11 -24c7 -5 18 -8 28 -8c14 0 31 5 45 12l-22 -69c-25 -14 -48 -17 -64 -17c-24 0 -46 7 -62 20c-11 9 -24 26 -24 56c0 21 7 40 19 58c11 17 28 33 44 45c-8 -1 -16 -1 -24 -1c-65 0 -138 21 -184 67c-44 45 -55 101 -55 150c0 30 6 96 9 117z" />
    <glyph glyph-name="uogonek" unicode="&#x173;" horiz-adv-x="538" 
d="M112 433h122l-26 -216c-4 -35 -5 -46 -5 -52c0 -28 9 -44 18 -53c13 -14 36 -22 61 -22c31 0 53 11 67 24c23 22 28 52 33 91l28 228h122l-32 -262c-3 -26 -9 -55 -21 -81c-20 -44 -54 -67 -85 -88c-20 -14 -37 -26 -49 -44c-8 -11 -13 -25 -13 -39c0 -11 3 -20 11 -27
c9 -8 19 -9 29 -9c14 0 24 1 49 12l-23 -67c-25 -13 -44 -17 -63 -17c-33 0 -52 12 -59 18c-15 12 -25 29 -25 53c0 19 5 41 20 63c10 15 26 32 42 44c-11 -2 -25 -3 -38 -3c-47 0 -104 13 -138 37c-23 16 -58 53 -58 119c0 17 2 37 6 68z" />
    <glyph glyph-name="Ydieresis" unicode="&#x178;" horiz-adv-x="590" 
d="M227 0l37 305l-184 362h148l114 -232l172 232h160l-280 -362l-37 -305h-130zM424 800c0 22 8 44 23 59c15 16 38 24 57 24s35 -7 46 -18s18 -27 18 -45c0 -19 -7 -41 -24 -58c-14 -14 -32 -23 -55 -23c-24 0 -40 10 -48 18c-10 10 -17 24 -17 43zM200 800
c0 22 8 44 23 59c15 16 38 24 57 24s35 -7 46 -18s18 -27 18 -45c0 -19 -7 -41 -24 -58c-14 -14 -32 -23 -55 -23c-24 0 -40 10 -48 18c-10 10 -17 24 -17 43z" />
    <glyph glyph-name="Zacute" unicode="&#x179;" horiz-adv-x="584" 
d="M644 667l-392 -555h308l-14 -112h-524l392 555h-273l14 112h489zM365 728l-49 50l157 142l81 -70z" />
    <glyph glyph-name="zacute" unicode="&#x17a;" horiz-adv-x="484" 
d="M525 433l-286 -329h229l-13 -104h-443l286 329h-208l13 104h422zM396 700l81 -56l-166 -134l-51 40z" />
    <glyph glyph-name="Zdotaccent" unicode="&#x17b;" horiz-adv-x="584" 
d="M644 667l-392 -555h308l-14 -112h-524l392 555h-273l14 112h489zM317 809c0 22 10 45 25 61c14 14 34 25 62 25c20 0 40 -7 52 -19s19 -31 19 -50c0 -20 -7 -43 -26 -62c-15 -15 -34 -25 -59 -25c-21 0 -39 7 -52 19c-6 6 -21 22 -21 51z" />
    <glyph glyph-name="zdotaccent" unicode="&#x17c;" horiz-adv-x="484" 
d="M525 433l-286 -329h229l-13 -104h-443l286 329h-208l13 104h422zM235 582c0 23 10 46 24 60c10 10 29 24 59 24c28 0 44 -12 52 -20c9 -10 19 -26 19 -52c0 -27 -11 -46 -23 -57s-31 -23 -59 -23c-26 0 -42 9 -52 19c-11 11 -20 28 -20 49z" />
    <glyph glyph-name="Zcaron" unicode="&#x17d;" horiz-adv-x="584" 
d="M644 667l-392 -555h308l-14 -112h-524l392 555h-273l14 112h489zM411 842l131 88l54 -64l-196 -134l-164 134l66 64z" />
    <glyph glyph-name="zcaron" unicode="&#x17e;" horiz-adv-x="484" 
d="M525 433l-286 -329h229l-13 -104h-443l286 329h-208l13 104h422zM324 616l121 92l55 -60l-187 -138l-153 138l65 60z" />
    <glyph glyph-name="uni018F" unicode="&#x18f;" horiz-adv-x="763" 
d="M88 377h538c-1 56 -24 104 -56 136c-39 39 -88 51 -136 51c-40 0 -76 -7 -113 -29c-11 -7 -41 -26 -69 -61l-114 61c29 35 73 77 117 102c62 36 129 45 185 45c73 0 161 -13 232 -84c53 -53 88 -130 88 -236c0 -142 -55 -233 -114 -290c-77 -73 -152 -87 -238 -87
c-103 0 -185 20 -252 108c-55 72 -80 182 -68 284zM613 277h-390c2 -45 21 -98 54 -130c25 -24 65 -44 126 -44c55 0 108 15 151 59c30 31 51 73 59 115z" />
    <glyph glyph-name="florin" unicode="&#x192;" 
d="M272 347h-60l22 86h60l34 130c10 38 26 90 67 129c23 22 65 48 128 48c47 0 72 -12 85 -19l-27 -107c-17 9 -37 15 -54 15c-19 0 -36 -7 -47 -17c-8 -8 -20 -23 -30 -60l-32 -119h108l-22 -86h-108l-65 -266c-25 -101 -49 -160 -95 -203c-47 -43 -104 -58 -178 -58
c-18 0 -32 1 -49 4l27 112c11 -2 21 -3 32 -3c32 0 62 9 82 26c32 28 47 85 58 131z" />
    <glyph glyph-name="uni01CF" unicode="&#x1cf;" horiz-adv-x="282" 
d="M158 667h130l-82 -667h-130zM244 840l102 80l47 -54l-161 -124l-131 124l61 54z" />
    <glyph glyph-name="uni01D0" unicode="&#x1d0;" horiz-adv-x="238" 
d="M111 433h122l-53 -433h-122zM196 630l98 78l50 -56l-160 -128l-128 128l62 56z" />
    <glyph glyph-name="uni01DD" unicode="&#x1dd;" horiz-adv-x="525" 
d="M201 297l-115 19c19 37 47 70 81 93c45 30 92 38 138 38c56 0 110 -13 154 -55c48 -46 57 -103 57 -148c0 -70 -17 -136 -71 -191c-48 -49 -98 -67 -171 -67c-55 0 -108 11 -150 54c-51 52 -66 138 -58 207h324c2 28 -7 61 -25 79c-14 15 -39 25 -69 25
c-22 0 -42 -4 -60 -15c-12 -8 -26 -20 -35 -39zM381 169h-209c2 -27 14 -56 32 -73c20 -19 43 -24 65 -24c20 0 51 3 77 27c4 4 28 28 35 70z" />
    <glyph glyph-name="Gcaron" unicode="&#x1e6;" horiz-adv-x="766" 
d="M446 245l14 112h306c-7 -76 -31 -198 -113 -280c-74 -74 -163 -92 -243 -92c-77 0 -163 18 -234 87c-47 45 -91 117 -91 229c0 120 50 217 113 278c54 52 140 103 272 103c53 0 116 -9 177 -47c37 -23 73 -58 100 -104l-117 -67c-18 33 -42 56 -67 71
c-32 20 -68 29 -108 29c-77 0 -130 -32 -163 -65c-46 -46 -73 -119 -73 -191c0 -79 34 -126 58 -150c45 -45 100 -55 143 -55c38 0 91 6 136 45c30 26 51 64 62 97h-172zM484 842l131 88l54 -64l-196 -134l-164 134l66 64z" />
    <glyph glyph-name="gcaron" unicode="&#x1e7;" horiz-adv-x="564" 
d="M430 377l7 56h122l-51 -413c-6 -51 -14 -134 -66 -187c-32 -33 -91 -63 -186 -63c-52 0 -116 9 -162 58c-28 29 -48 74 -53 121h128c2 -18 11 -40 25 -53c11 -11 32 -22 66 -22c38 0 66 12 84 29c27 26 35 65 39 94l8 61c-5 -7 -24 -33 -54 -51c-25 -15 -52 -21 -81 -21
c-53 0 -102 13 -142 53c-32 32 -57 83 -57 155c0 82 32 150 78 193c30 29 80 60 154 60c39 0 69 -8 91 -21c15 -9 35 -24 50 -49zM312 339c-43 0 -71 -16 -87 -31c-29 -26 -42 -67 -42 -104c0 -40 18 -66 32 -80c23 -23 51 -30 76 -30c49 0 78 18 93 32c26 25 42 66 42 105
c0 40 -18 66 -33 80c-18 16 -46 28 -81 28zM334 616l121 92l55 -60l-187 -138l-153 138l65 60z" />
    <glyph glyph-name="AEacute" unicode="&#x1fc;" horiz-adv-x="920" 
d="M533 0l-42 140h-269l-76 -140h-140l371 667h352l30 -112h-245l42 -149h241l32 -112h-242l51 -182h246l30 -112h-381zM276 246h190l-62 240zM525 728l-49 50l157 142l81 -70z" />
    <glyph glyph-name="aeacute" unicode="&#x1fd;" horiz-adv-x="810" 
d="M435 374c19 24 41 39 59 49c32 17 68 24 106 24c75 0 121 -27 145 -51c51 -49 60 -123 52 -200h-322c0 -30 11 -68 32 -88c24 -24 59 -26 78 -26c24 0 41 4 61 19c14 10 24 21 30 38l110 -18c-13 -33 -39 -73 -73 -97c-33 -24 -82 -38 -135 -38c-64 0 -103 18 -112 23
c-23 11 -44 29 -61 48c-25 -33 -54 -47 -68 -53c-31 -13 -75 -18 -108 -18c-41 0 -100 5 -141 45c-28 27 -37 59 -37 94c0 47 17 88 61 116c41 26 94 30 128 30c42 0 83 -7 124 -30v21c0 21 -2 50 -31 71c-9 7 -30 18 -74 18c-40 0 -78 -8 -118 -23l12 97
c44 15 90 22 131 22c33 0 62 -5 92 -19c26 -12 45 -28 59 -54zM171 126c0 -11 4 -26 20 -37s42 -17 64 -17c21 0 45 4 63 14c27 15 30 36 30 47c0 15 -7 30 -26 40c-13 7 -31 12 -60 12c-21 0 -44 -1 -65 -14c-23 -14 -26 -33 -26 -45zM487 274h205c-2 22 -14 52 -33 68
c-6 5 -25 19 -63 19c-27 0 -52 -5 -75 -27c-16 -16 -28 -39 -34 -60zM559 700l81 -56l-166 -134l-51 40z" />
    <glyph glyph-name="Scommaaccent" unicode="&#x218;" horiz-adv-x="534" 
d="M546 604l-79 -89c-18 27 -52 57 -107 57c-36 0 -58 -11 -71 -23c-16 -14 -26 -33 -26 -56c0 -22 9 -38 28 -51c13 -9 30 -16 63 -30l45 -19c26 -11 57 -28 83 -56c30 -32 41 -63 41 -107c0 -73 -28 -141 -71 -182c-55 -53 -127 -63 -182 -63c-51 0 -94 10 -137 38
c-34 22 -64 56 -85 88l95 81c10 -19 29 -46 47 -61c26 -22 54 -28 84 -28c26 0 61 4 87 33c14 15 25 37 25 69c0 24 -8 43 -30 61s-42 22 -68 33l-38 16c-42 18 -66 34 -81 49c-35 34 -41 75 -41 110c0 52 15 102 57 144c54 54 122 64 181 64c43 0 117 -7 180 -78zM155 -258
l98 208l112 -16l-130 -204z" />
    <glyph glyph-name="scommaaccent" unicode="&#x219;" horiz-adv-x="400" 
d="M399 403l-63 -75c-9 9 -18 16 -31 22s-24 9 -41 9c-5 0 -29 -1 -41 -14c-4 -5 -9 -13 -9 -26c0 -9 2 -16 9 -22s16 -10 35 -16l37 -12c24 -8 51 -23 67 -39c25 -26 30 -59 30 -82c0 -50 -20 -86 -45 -111c-45 -45 -102 -51 -142 -51c-44 0 -77 9 -102 21
c-22 11 -48 32 -66 51l73 74c10 -14 24 -27 40 -36c15 -8 33 -14 50 -14c16 0 36 4 47 13c10 8 17 22 17 38c0 8 -2 18 -11 27c-9 8 -24 14 -43 21l-30 12c-18 7 -39 17 -57 35c-20 20 -29 41 -29 74c0 43 18 79 43 103s65 42 123 42c28 0 60 -4 85 -14c19 -7 40 -20 54 -30
zM70 -258l98 208l112 -16l-130 -204z" />
    <glyph glyph-name="uni021A" unicode="&#x21a;" horiz-adv-x="442" 
d="M504 555h-150l-68 -555h-130l68 555h-150l14 112h430zM83 -258l98 208l112 -16l-130 -204z" />
    <glyph glyph-name="uni021B" unicode="&#x21b;" horiz-adv-x="270" 
d="M304 329h-84l-40 -329h-122l40 329h-48l13 104h48l18 148h122l-18 -148h84zM-10 -258l98 208l112 -16l-130 -204z" />
    <glyph glyph-name="uni0228" unicode="&#x228;" horiz-adv-x="496" 
d="M528 667l-14 -112h-240l-18 -149h230l-14 -112h-230l-22 -182h240l-14 -112h-240h-130l82 667h370zM264 -46l96 -44l-150 -154l-70 36z" />
    <glyph glyph-name="uni0229" unicode="&#x229;" horiz-adv-x="526" 
d="M393 141l105 -25c-22 -45 -57 -81 -92 -101c-43 -24 -91 -29 -130 -29c-58 0 -115 11 -161 60c-24 25 -52 69 -52 140c0 75 27 150 75 197c55 55 120 64 173 64c52 0 106 -10 148 -50c47 -45 56 -104 56 -157c0 -18 0 -31 -2 -44h-324c-5 -40 7 -69 25 -87
c22 -23 49 -27 71 -27c15 0 43 1 66 14c18 11 33 29 42 45zM203 274h205c-1 25 -12 49 -27 63c-17 16 -43 24 -68 24c-33 0 -57 -13 -74 -28c-15 -14 -29 -35 -36 -59zM274 -46l88 -44l-142 -146l-64 36z" />
    <glyph glyph-name="uni0237" unicode="&#x237;" horiz-adv-x="238" 
d="M111 433h122l-81 -662h-122z" />
    <glyph glyph-name="uni0259" unicode="&#x259;" horiz-adv-x="525" 
d="M201 297l-115 19c19 37 47 70 81 93c45 30 92 38 138 38c56 0 110 -13 154 -55c48 -46 57 -103 57 -148c0 -70 -17 -136 -71 -191c-48 -49 -98 -67 -171 -67c-55 0 -108 11 -150 54c-51 52 -66 138 -58 207h324c2 28 -7 61 -25 79c-14 15 -39 25 -69 25
c-22 0 -42 -4 -60 -15c-12 -8 -26 -20 -35 -39zM381 169h-209c2 -27 14 -56 32 -73c20 -19 43 -24 65 -24c20 0 51 3 77 27c4 4 28 28 35 70z" />
    <glyph glyph-name="afii57929" unicode="&#x2bc;" horiz-adv-x="500" 
d="M160 478l106 212l114 -20l-136 -208z" />
    <glyph glyph-name="circumflex" unicode="&#x2c6;" horiz-adv-x="500" 
d="M326 602l-121 -92l-55 60l187 138l153 -138l-65 -60z" />
    <glyph glyph-name="caron" unicode="&#x2c7;" horiz-adv-x="500" 
d="M324 616l121 92l55 -60l-187 -138l-153 138l65 60z" />
    <glyph glyph-name="uni02C9" unicode="&#x2c9;" horiz-adv-x="500" 
d="M136 539l10 80h364l-10 -80h-364z" />
    <glyph glyph-name="breve" unicode="&#x2d8;" horiz-adv-x="500" 
d="M406 650h88c-7 -42 -27 -73 -49 -94c-37 -36 -79 -47 -126 -47c-29 0 -77 5 -113 41c-22 23 -39 59 -40 100h80c2 -15 10 -33 21 -44c10 -10 27 -19 54 -19c18 0 39 3 57 18c12 10 23 27 28 45z" />
    <glyph glyph-name="dotaccent" unicode="&#x2d9;" horiz-adv-x="500" 
d="M245 582c0 23 10 46 24 60c10 10 29 24 59 24c28 0 44 -12 52 -20c9 -10 19 -26 19 -52c0 -27 -11 -46 -23 -57s-31 -23 -59 -23c-26 0 -42 9 -52 19c-11 11 -20 28 -20 49z" />
    <glyph glyph-name="ring" unicode="&#x2da;" horiz-adv-x="500" 
d="M229 589c0 28 12 55 29 73c14 15 39 32 77 32c21 0 40 -6 57 -22c13 -13 26 -33 26 -65c0 -29 -9 -53 -30 -74c-18 -18 -39 -27 -69 -27c-28 0 -49 8 -66 25s-24 36 -24 58zM285 595c0 -8 3 -17 8 -23c3 -4 11 -11 26 -11c14 0 25 5 32 13c8 8 12 19 12 30
c0 10 -3 18 -10 25s-15 10 -25 10c-11 0 -20 -3 -29 -11c-10 -9 -14 -22 -14 -33z" />
    <glyph glyph-name="ogonek" unicode="&#x2db;" horiz-adv-x="500" 
d="M280 0h58c-13 -8 -32 -21 -43 -33c-18 -18 -22 -35 -22 -49c0 -13 6 -20 12 -24c8 -6 19 -7 27 -7c14 0 29 2 50 12l-23 -67c-23 -13 -45 -17 -66 -17c-19 0 -44 4 -62 22c-9 9 -19 25 -19 49c0 21 9 49 38 77c15 15 34 28 50 37z" />
    <glyph glyph-name="tilde" unicode="&#x2dc;" horiz-adv-x="500" 
d="M457 647l54 -48c-11 -17 -29 -41 -44 -54c-20 -18 -42 -27 -69 -27c-28 0 -51 9 -70 18l-32 14c-16 7 -36 14 -49 14c-26 0 -49 -24 -60 -41l-55 48c9 15 26 36 41 50c22 20 48 31 83 31c26 0 44 -7 63 -15l36 -15c25 -11 40 -16 52 -16c19 0 38 15 50 41z" />
    <glyph glyph-name="hungarumlaut" unicode="&#x2dd;" horiz-adv-x="500" 
d="M289 690l75 -58l-149 -134l-45 40zM477 689l75 -57l-149 -134l-45 40z" />
    <glyph glyph-name="acutecomb" unicode="&#x301;" horiz-adv-x="2" 
d="M-145 700l81 -56l-166 -134l-51 40z" />
    <glyph glyph-name="uni0313" unicode="&#x313;" horiz-adv-x="500" 
d="M160 478l106 212l114 -20l-136 -208z" />
    <glyph glyph-name="uni0315" unicode="&#x315;" horiz-adv-x="500" 
d="M160 478l106 212l114 -20l-136 -208z" />
    <glyph glyph-name="uni0326" unicode="&#x326;" horiz-adv-x="500" 
d="M130 -258l98 208l112 -16l-130 -204z" />
    <glyph glyph-name="uni037E" unicode="&#x37e;" horiz-adv-x="328" 
d="M-12 -131l139 269l110 -13l-173 -265zM127 358c0 23 10 47 26 63s38 26 63 26c22 0 39 -9 50 -20c16 -16 19 -36 19 -50c0 -26 -9 -47 -25 -62c-18 -18 -39 -24 -62 -24c-20 0 -37 5 -52 20c-14 14 -19 31 -19 47z" />
    <glyph glyph-name="anoteleia" unicode="&#x387;" horiz-adv-x="202" 
d="M43 325c0 27 11 53 31 73c21 21 48 31 73 31s46 -9 60 -23c18 -18 22 -40 22 -57c0 -27 -9 -54 -29 -75c-21 -22 -45 -29 -73 -29c-18 0 -43 3 -62 23c-13 14 -22 34 -22 57z" />
    <glyph glyph-name="uni0394" unicode="&#x394;" horiz-adv-x="668" 
d="M650 0h-632l248 667h132zM333 518l-139 -406h278z" />
    <glyph glyph-name="uni03A9" unicode="&#x3a9;" horiz-adv-x="627" 
d="M34 112h142c-30 16 -53 36 -71 54c-57 59 -75 127 -75 198c0 105 38 180 86 230c57 59 131 88 222 88s165 -29 222 -88c48 -50 86 -125 86 -230c0 -71 -18 -139 -75 -198c-18 -18 -41 -38 -71 -54h142v-112h-268v112c41 20 66 46 73 54c55 59 65 140 65 189
c0 86 -34 137 -61 163c-29 28 -66 46 -113 46c-54 0 -90 -24 -113 -46c-35 -35 -61 -91 -61 -165c0 -50 10 -128 65 -187c7 -8 32 -34 73 -54v-112h-268v112z" />
    <glyph glyph-name="uni03BC" unicode="&#x3bc;" horiz-adv-x="560" 
d="M152 -230h-122l81 663h122l-22 -186c-1 -8 -5 -42 -5 -61c0 -39 12 -61 23 -74s31 -28 67 -28c28 0 52 7 72 28c28 29 34 69 40 121l25 200h122l-53 -433h-122l6 54c-10 -19 -26 -39 -42 -50c-15 -11 -35 -18 -62 -18c-30 0 -51 12 -65 26c-21 21 -28 50 -29 54z" />
    <glyph glyph-name="pi" unicode="&#x3c0;" horiz-adv-x="621" 
d="M274 0h-122v329h-76v104h562v-104h-76v-329h-122v329h-166v-329z" />
    <glyph glyph-name="afii10023" unicode="&#x401;" horiz-adv-x="496" 
d="M528 667l-14 -112h-240l-18 -149h230l-14 -112h-230l-22 -182h240l-14 -112h-240h-130l82 667h370zM400 800c0 22 8 44 23 59c15 16 38 24 57 24s35 -7 46 -18s18 -27 18 -45c0 -19 -7 -41 -24 -58c-14 -14 -32 -23 -55 -23c-24 0 -40 10 -48 18c-10 10 -17 24 -17 43z
M176 800c0 22 8 44 23 59c15 16 38 24 57 24s35 -7 46 -18s18 -27 18 -45c0 -19 -7 -41 -24 -58c-14 -14 -32 -23 -55 -23c-24 0 -40 10 -48 18c-10 10 -17 24 -17 43z" />
    <glyph glyph-name="afii10051" unicode="&#x402;" horiz-adv-x="672" 
d="M564 555h-220l-21 -170c40 14 83 23 134 23c46 0 112 -7 159 -49c31 -28 59 -79 59 -152c0 -64 -23 -126 -65 -164c-47 -42 -107 -50 -161 -50c-25 0 -58 2 -95 8l14 111c21 -4 46 -7 71 -7c20 0 50 1 73 23c25 24 27 59 27 80c0 22 -4 45 -23 63c-23 22 -59 25 -82 25
c-32 0 -76 -5 -124 -23l-34 -273h-130l68 555h-140l14 112h490z" />
    <glyph glyph-name="afii10052" unicode="&#x403;" horiz-adv-x="436" 
d="M512 667l-14 -112h-224l-68 -555h-130l82 667h354zM345 728l-49 50l157 142l81 -70z" />
    <glyph glyph-name="afii10053" unicode="&#x404;" horiz-adv-x="613" 
d="M591 176l-19 -152c-28 -15 -80 -39 -165 -39c-114 0 -187 38 -233 82c-65 62 -89 143 -89 228c0 121 44 222 107 285c86 87 194 102 280 102c43 0 103 -4 176 -41l-18 -150c-56 65 -127 73 -170 73c-55 0 -108 -10 -155 -51c-36 -32 -62 -77 -74 -122h320l-14 -112h-315
c6 -59 33 -100 57 -124c44 -44 99 -53 147 -53c91 0 138 39 165 74z" />
    <glyph glyph-name="afii10054" unicode="&#x405;" horiz-adv-x="534" 
d="M546 604l-79 -89c-18 27 -52 57 -107 57c-36 0 -58 -11 -71 -23c-16 -14 -26 -33 -26 -56c0 -22 9 -38 28 -51c13 -9 30 -16 63 -30l45 -19c26 -11 57 -28 83 -56c30 -32 41 -63 41 -107c0 -73 -28 -141 -71 -182c-55 -53 -127 -63 -182 -63c-51 0 -94 10 -137 38
c-34 22 -64 56 -85 88l95 81c10 -19 29 -46 47 -61c26 -22 54 -28 84 -28c26 0 61 4 87 33c14 15 25 37 25 69c0 24 -8 43 -30 61s-42 22 -68 33l-38 16c-42 18 -66 34 -81 49c-35 34 -41 75 -41 110c0 52 15 102 57 144c54 54 122 64 181 64c43 0 117 -7 180 -78z" />
    <glyph glyph-name="afii10055" unicode="&#x406;" horiz-adv-x="282" 
d="M158 667h130l-82 -667h-130z" />
    <glyph glyph-name="afii10056" unicode="&#x407;" horiz-adv-x="282" 
d="M158 667h130l-82 -667h-130zM255 798c0 22 9 49 27 67c11 11 26 18 41 18c11 0 26 -4 37 -20c9 -12 13 -28 13 -42c0 -22 -8 -46 -25 -63c-12 -12 -27 -19 -42 -19s-26 7 -34 16c-12 13 -17 27 -17 43zM105 798c0 22 9 49 27 67c11 11 26 18 41 18c11 0 26 -4 37 -20
c9 -12 13 -28 13 -42c0 -22 -8 -46 -25 -63c-12 -12 -27 -19 -42 -19s-26 7 -34 16c-12 13 -17 27 -17 43z" />
    <glyph glyph-name="afii10057" unicode="&#x408;" horiz-adv-x="390" 
d="M266 667h130l-55 -447c-10 -78 -19 -142 -69 -188c-44 -41 -95 -47 -136 -47c-21 0 -63 2 -99 20c-18 9 -40 25 -57 42l90 95c18 -32 45 -36 62 -36s34 5 48 19c23 23 27 67 33 112z" />
    <glyph glyph-name="afii10058" unicode="&#x409;" horiz-adv-x="945" 
d="M464 0l67 555h-193l-36 -296c-9 -78 -22 -156 -75 -208c-52 -51 -118 -57 -158 -57c-20 0 -38 2 -59 6l14 112c10 -4 21 -6 36 -6c35 0 58 13 71 27c33 33 37 95 44 152l47 382h454l-32 -261h90c85 0 137 -28 166 -55c29 -28 50 -69 50 -128c0 -71 -27 -126 -62 -160
c-59 -58 -135 -63 -197 -63h-98h-129zM630 294l-22 -182h76c29 0 66 2 92 19c17 11 40 33 40 75c0 38 -19 59 -34 69c-21 14 -59 19 -86 19h-66z" />
    <glyph glyph-name="afii10059" unicode="&#x40a;" horiz-adv-x="968" 
d="M487 0l36 294h-282l-35 -294h-130l82 667h130l-33 -261h282l32 261h130l-32 -261h90c85 0 137 -28 166 -55c29 -28 50 -69 50 -128c0 -71 -27 -126 -62 -160c-59 -58 -135 -63 -197 -63h-98h-129zM653 294l-22 -182h76c29 0 66 2 92 19c17 11 40 33 40 75
c0 38 -19 59 -34 69c-21 14 -59 19 -86 19h-66z" />
    <glyph glyph-name="afii10060" unicode="&#x40b;" horiz-adv-x="693" 
d="M544 555h-200l-20 -160c62 13 111 13 128 13c50 0 114 -9 155 -37c30 -21 61 -58 61 -124c0 -22 -3 -45 -8 -82l-20 -165h-130l17 142c4 32 7 48 7 64c0 37 -19 60 -36 71c-12 8 -36 19 -89 19c-38 0 -68 -4 -98 -13l-35 -283h-130l68 555h-140l14 112h470z" />
    <glyph glyph-name="afii10061" unicode="&#x40c;" horiz-adv-x="617" 
d="M288 667l-34 -266l273 266h151l-319 -311l253 -356h-156l-192 289l-25 -24l-33 -265h-130l82 667h130zM383 728l-49 50l157 142l81 -70z" />
    <glyph glyph-name="afii10062" unicode="&#x40e;" horiz-adv-x="606" 
d="M84 667h140l132 -327l180 327h150l-391 -667h-142l122 200zM209 844l90 36c8 -26 24 -40 26 -41c19 -16 45 -17 58 -17c17 0 41 2 62 16c15 10 27 27 34 42l90 -36c-23 -49 -57 -74 -74 -84c-39 -24 -82 -28 -117 -28c-30 0 -77 4 -113 31c-39 28 -53 73 -56 81z" />
    <glyph glyph-name="afii10145" unicode="&#x40f;" horiz-adv-x="676" 
d="M76 0l82 667h130l-68 -555h264l68 555h130l-82 -667h-202l-20 -166h-120l20 166h-202z" />
    <glyph glyph-name="afii10017" unicode="&#x410;" horiz-adv-x="672" 
d="M533 0l-42 140h-269l-76 -140h-144l373 667h98l197 -667h-137zM276 246h190l-64 240z" />
    <glyph glyph-name="afii10018" unicode="&#x411;" horiz-adv-x="572" 
d="M76 0l82 667h386l-14 -112h-256l-19 -153h72c33 0 124 -2 179 -57c26 -26 47 -68 47 -124c0 -64 -27 -125 -66 -161c-33 -30 -94 -60 -190 -60h-90h-131zM242 290l-22 -178h62c32 0 65 2 93 19c20 12 42 34 42 76c0 37 -21 57 -35 66c-13 8 -37 17 -88 17h-52z" />
    <glyph glyph-name="afii10019" unicode="&#x412;" horiz-adv-x="571" 
d="M158 667h165c56 0 117 -5 162 -49c35 -34 43 -74 43 -114c0 -38 -7 -67 -28 -97c-18 -27 -40 -42 -65 -51c28 -9 58 -26 79 -49c27 -30 36 -62 36 -99c0 -71 -28 -117 -54 -144c-41 -43 -98 -64 -200 -64h-220zM275 561l-21 -171h28c38 0 72 4 97 30c14 15 25 38 25 63
c0 30 -13 49 -29 61c-22 16 -50 17 -68 17h-32zM242 290l-23 -184h56c47 0 91 3 117 28c15 14 26 39 26 68c0 25 -9 46 -22 59c-25 24 -73 29 -106 29h-48z" />
    <glyph glyph-name="afii10020" unicode="&#x413;" horiz-adv-x="436" 
d="M512 667l-14 -112h-224l-68 -555h-130l82 667h354z" />
    <glyph glyph-name="afii10021" unicode="&#x414;" horiz-adv-x="670" 
d="M222 667h450l-68 -555h70l-32 -262h-120l18 150h-410l-18 -150h-120l32 262c25 2 57 11 86 38c58 54 66 144 76 227zM334 555l-22 -178c-7 -57 -12 -110 -27 -154c-18 -54 -49 -89 -74 -111h263l54 443h-194z" />
    <glyph glyph-name="afii10022" unicode="&#x415;" horiz-adv-x="496" 
d="M528 667l-14 -112h-240l-18 -149h230l-14 -112h-230l-22 -182h240l-14 -112h-240h-130l82 667h370z" />
    <glyph glyph-name="afii10024" unicode="&#x416;" horiz-adv-x="861" 
d="M450 667h124l-35 -282l241 282h148l-284 -312l220 -355h-144l-174 292l-20 -16l-34 -276h-124l35 284l-13 15l-234 -299h-150l295 359l-217 308h144l187 -282z" />
    <glyph glyph-name="afii10025" unicode="&#x417;" horiz-adv-x="600" 
d="M219 515l-57 89c29 23 65 44 94 56c42 17 79 21 118 21c45 0 97 -4 140 -35c33 -23 62 -65 62 -125c0 -33 -9 -66 -28 -94c-14 -21 -38 -45 -73 -60c30 -10 55 -28 72 -49c23 -28 33 -59 33 -98c0 -74 -30 -127 -64 -162c-48 -49 -115 -73 -223 -73c-55 0 -105 9 -150 35
c-30 17 -64 46 -89 91l95 81c13 -32 34 -56 55 -71c22 -16 55 -28 101 -28c64 0 97 24 112 39c19 19 28 42 28 71c0 18 -3 48 -32 69s-81 22 -101 22h-62l14 112h60c31 0 69 9 88 22s34 38 34 66c0 21 -9 39 -21 51c-24 22 -64 23 -73 23c-26 0 -50 -5 -75 -16
c-24 -10 -42 -23 -58 -37z" />
    <glyph glyph-name="afii10026" unicode="&#x418;" horiz-adv-x="736" 
d="M156 667h130l-54 -440l424 440h88l-82 -667h-130l54 443l-422 -443h-90z" />
    <glyph glyph-name="afii10027" unicode="&#x419;" horiz-adv-x="736" 
d="M156 667h130l-54 -440l424 440h88l-82 -667h-130l54 443l-422 -443h-90zM297 844l90 36c8 -26 24 -40 26 -41c19 -16 45 -17 58 -17c17 0 41 2 62 16c15 10 27 27 34 42l90 -36c-23 -49 -57 -74 -74 -84c-39 -24 -82 -28 -117 -28c-30 0 -77 4 -113 31
c-39 28 -53 73 -56 81z" />
    <glyph glyph-name="afii10028" unicode="&#x41a;" horiz-adv-x="617" 
d="M288 667l-34 -266l273 266h151l-319 -311l253 -356h-156l-192 289l-25 -24l-33 -265h-130l82 667h130z" />
    <glyph glyph-name="afii10029" unicode="&#x41b;" horiz-adv-x="670" 
d="M222 667h454l-82 -667h-130l68 555h-194l-36 -296c-9 -78 -22 -156 -75 -208c-52 -51 -118 -57 -158 -57c-20 0 -38 2 -59 6l14 112c10 -4 21 -6 36 -6c35 0 58 13 71 27c33 33 37 95 44 152z" />
    <glyph glyph-name="afii10030" unicode="&#x41c;" horiz-adv-x="870" 
d="M42 0l207 667h94l124 -424l238 424h94l29 -667h-130l-10 411l-232 -411h-40l-122 411l-118 -411h-134z" />
    <glyph glyph-name="afii10031" unicode="&#x41d;" horiz-adv-x="694" 
d="M288 667l-32 -258h282l32 258h130l-82 -667h-130l36 297h-282l-36 -297h-130l82 667h130z" />
    <glyph glyph-name="afii10032" unicode="&#x41e;" horiz-adv-x="806" 
d="M484 682c95 0 178 -35 231 -86c50 -48 88 -123 88 -222c0 -106 -40 -211 -107 -280c-53 -55 -143 -109 -278 -109c-131 0 -206 53 -245 93c-55 56 -88 137 -88 221c0 110 46 213 115 278c70 66 174 105 284 105zM425 103c67 0 124 27 164 66c48 47 79 120 79 195
c0 60 -22 109 -53 141c-29 30 -79 58 -152 58c-72 0 -128 -28 -166 -64c-51 -48 -77 -118 -77 -190c0 -71 27 -118 53 -145c36 -38 90 -61 152 -61z" />
    <glyph glyph-name="afii10033" unicode="&#x41f;" horiz-adv-x="680" 
d="M158 667h528l-82 -667h-130l68 555h-268l-68 -555h-130z" />
    <glyph glyph-name="afii10034" unicode="&#x420;" horiz-adv-x="535" 
d="M158 667h180c36 0 124 -3 179 -54c29 -27 54 -71 54 -142c0 -72 -25 -130 -63 -166c-53 -50 -128 -58 -183 -58h-89l-30 -247h-130zM274 555l-24 -196h55c31 0 70 2 100 28c27 24 32 55 32 79c0 20 -4 51 -36 71c-21 13 -56 18 -81 18h-46z" />
    <glyph glyph-name="afii10035" unicode="&#x421;" horiz-adv-x="607" 
d="M585 176l-19 -152c-27 -14 -80 -39 -165 -39c-121 0 -192 48 -227 82c-66 63 -89 144 -89 224c0 126 46 227 107 289c87 87 195 102 274 102c43 0 104 -4 176 -41l-18 -150c-56 65 -128 73 -170 73c-84 0 -135 -35 -167 -69c-44 -47 -67 -118 -67 -185
c0 -73 28 -120 56 -150c38 -40 87 -58 144 -58c101 0 148 51 165 74z" />
    <glyph glyph-name="afii10036" unicode="&#x422;" horiz-adv-x="442" 
d="M504 555h-150l-68 -555h-130l68 555h-150l14 112h430z" />
    <glyph glyph-name="afii10037" unicode="&#x423;" horiz-adv-x="606" 
d="M84 667h140l132 -327l180 327h150l-391 -667h-142l122 200z" />
    <glyph glyph-name="afii10038" unicode="&#x424;" horiz-adv-x="834" 
d="M351 0l11 92h-7c-109 0 -167 37 -182 48c-41 29 -86 82 -86 183c0 91 36 162 80 207c67 68 162 86 250 86h10l9 78h130l-9 -78h9c40 0 136 -4 203 -71c52 -51 64 -115 64 -170c0 -71 -14 -141 -73 -200c-43 -43 -117 -83 -258 -83h-10l-11 -92h-130zM376 204l37 300h-11
c-37 0 -93 -5 -133 -45c-33 -32 -48 -84 -48 -128c0 -53 23 -82 42 -97c30 -23 76 -30 108 -30h5zM543 504l-37 -300h10c74 0 114 23 134 41c28 25 48 71 48 125c0 48 -18 83 -40 103c-32 28 -80 31 -106 31h-9z" />
    <glyph glyph-name="afii10039" unicode="&#x425;" horiz-adv-x="634" 
d="M8 0l279 352l-160 315h150l91 -207l149 207h156l-244 -315l185 -352h-150l-116 244l-184 -244h-156z" />
    <glyph glyph-name="afii10040" unicode="&#x426;" horiz-adv-x="690" 
d="M76 0l82 667h130l-68 -555h264l68 555h130l-68 -555h80l-32 -262h-120l18 150h-484z" />
    <glyph glyph-name="afii10041" unicode="&#x427;" horiz-adv-x="622" 
d="M416 0l33 270c-40 -8 -75 -11 -112 -11c-53 0 -118 7 -166 40c-46 32 -64 75 -64 127c0 25 5 56 9 93l18 148h130l-17 -141c-3 -25 -7 -47 -7 -67c0 -33 11 -54 37 -69c16 -10 44 -19 95 -19c33 0 62 4 90 11l36 285h130l-82 -667h-130z" />
    <glyph glyph-name="afii10042" unicode="&#x428;" horiz-adv-x="970" 
d="M76 0l82 667h130l-68 -555h214l68 555h130l-68 -555h214l68 555h130l-82 -667h-818z" />
    <glyph glyph-name="afii10043" unicode="&#x429;" horiz-adv-x="984" 
d="M76 0l82 667h130l-68 -555h214l68 555h130l-68 -555h214l68 555h130l-68 -555h80l-32 -262h-120l18 150h-778z" />
    <glyph glyph-name="afii10044" unicode="&#x42a;" horiz-adv-x="627" 
d="M146 0l68 555h-140l14 112h270l-32 -261h90c85 0 137 -28 166 -55c29 -28 50 -69 50 -128c0 -71 -27 -126 -62 -160c-59 -58 -135 -63 -197 -63h-97h-130zM312 294l-22 -182h76c29 0 66 2 92 19c17 11 40 33 40 75c0 38 -19 59 -34 69c-21 14 -59 19 -86 19h-66z" />
    <glyph glyph-name="afii10045" unicode="&#x42b;" horiz-adv-x="800" 
d="M676 667h130l-82 -667h-130zM76 0l82 667h130l-32 -261h90c85 0 137 -28 166 -55c29 -28 50 -69 50 -128c0 -71 -27 -126 -62 -160c-59 -58 -135 -63 -197 -63h-98h-129zM242 294l-22 -182h76c50 0 76 9 92 19c25 16 40 44 40 75c0 38 -19 59 -34 69
c-21 14 -59 19 -86 19h-66z" />
    <glyph glyph-name="afii10046" unicode="&#x42c;" horiz-adv-x="557" 
d="M76 0l82 667h130l-32 -261h90c85 0 137 -28 166 -55c29 -28 50 -69 50 -128c0 -71 -27 -126 -62 -160c-59 -58 -135 -63 -197 -63h-227zM242 294l-22 -182h76c29 0 66 2 92 19c17 11 40 33 40 75c0 38 -19 59 -34 69c-21 14 -59 19 -86 19h-66z" />
    <glyph glyph-name="afii10047" unicode="&#x42d;" horiz-adv-x="614" 
d="M47 24l19 152c51 -58 115 -73 169 -73c67 0 121 18 156 46c9 7 59 49 76 130h-299l14 112h297c-1 56 -25 100 -52 126c-24 23 -66 47 -133 47c-71 0 -138 -28 -190 -75l19 152c76 34 139 41 183 41c104 0 186 -35 234 -88c63 -69 71 -165 71 -216
c0 -152 -64 -249 -114 -300c-65 -65 -146 -93 -266 -93c-98 0 -156 25 -184 39z" />
    <glyph glyph-name="afii10048" unicode="&#x42e;" horiz-adv-x="1019" 
d="M256 409h86c23 93 75 159 127 199c54 42 133 74 232 74c124 0 196 -51 234 -90c64 -66 81 -146 81 -214c0 -107 -35 -215 -107 -290c-75 -78 -166 -103 -259 -103c-76 0 -170 16 -242 93c-45 48 -82 123 -79 219h-87l-36 -297h-130l82 667h130zM648 103
c65 0 119 25 157 61c45 43 76 115 76 200c0 46 -10 104 -57 150c-38 36 -83 49 -130 49c-78 0 -131 -32 -163 -64c-43 -43 -76 -112 -76 -190c0 -77 30 -126 61 -155c29 -28 72 -51 132 -51z" />
    <glyph glyph-name="afii10049" unicode="&#x42f;" 
d="M574 667l-82 -667h-130l32 258h-16l-202 -258h-164l231 270c-32 8 -66 27 -89 53c-20 23 -38 58 -38 112c0 63 23 126 69 169c61 57 140 63 196 63h193zM431 561h-40c-34 0 -77 -1 -107 -30c-19 -18 -32 -50 -32 -81c0 -37 18 -57 31 -67c28 -22 73 -23 93 -23h30z" />
    <glyph glyph-name="afii10065" unicode="&#x430;" horiz-adv-x="572" 
d="M438 377l7 56h122l-53 -433h-122l7 56c-22 -29 -47 -44 -55 -49c-26 -15 -51 -21 -81 -21c-52 0 -101 14 -142 55c-42 42 -58 95 -58 153c0 78 26 142 67 185c35 36 91 68 171 68c31 0 58 -6 86 -21c24 -13 39 -29 51 -49zM318 339c-31 0 -60 -9 -85 -31
c-28 -26 -43 -64 -43 -100c0 -38 14 -68 33 -86c18 -17 44 -28 80 -28c24 0 57 5 86 31s43 67 43 104c0 31 -12 58 -30 77c-14 15 -40 33 -84 33z" />
    <glyph glyph-name="afii10066" unicode="&#x431;" horiz-adv-x="581" 
d="M497 720h112c-3 -9 -19 -66 -62 -105c-44 -40 -110 -54 -155 -64c-46 -10 -95 -21 -131 -60c-24 -26 -42 -67 -49 -106h2c45 53 106 62 143 62c57 0 121 -20 162 -61c26 -26 55 -72 55 -143s-27 -135 -72 -182c-57 -59 -124 -75 -199 -75c-53 0 -115 10 -165 60
c-31 31 -62 82 -62 166c0 110 47 291 122 363c51 49 116 65 186 79c71 15 103 23 113 66zM312 94c39 0 76 16 98 40c24 25 37 65 37 96c0 27 -11 60 -32 80c-17 16 -44 29 -84 29c-46 0 -75 -18 -93 -37c-22 -23 -37 -58 -37 -99c0 -40 15 -64 29 -78c17 -17 46 -31 82 -31z
" />
    <glyph glyph-name="afii10067" unicode="&#x432;" horiz-adv-x="457" 
d="M111 433h180c28 0 80 -3 114 -34c21 -19 30 -44 30 -73c0 -32 -12 -53 -22 -66c-11 -13 -28 -26 -50 -32c31 -7 48 -24 53 -29c19 -20 24 -41 24 -62c0 -40 -13 -70 -36 -93c-39 -39 -90 -44 -123 -44h-104h-119zM212 261h48c15 0 31 0 44 8s18 19 18 32
c0 9 -2 21 -15 29c-10 6 -24 7 -35 7h-51zM192 96h63c14 0 33 3 44 11c10 7 17 20 17 35c0 16 -7 25 -15 31c-12 9 -27 10 -39 10h-60z" />
    <glyph glyph-name="afii10068" unicode="&#x433;" horiz-adv-x="340" 
d="M58 0l53 433h276l-13 -104h-154l-40 -329h-122z" />
    <glyph glyph-name="afii10069" unicode="&#x434;" horiz-adv-x="530" 
d="M151 433h360l-40 -329h64l-28 -230h-110l15 126h-298l-15 -126h-110l28 230c28 3 50 16 65 30c38 36 44 96 49 136zM349 104l27 225h-128l-11 -96c-3 -26 -11 -59 -23 -83c-3 -6 -14 -26 -36 -46h171z" />
    <glyph glyph-name="afii10070" unicode="&#x435;" horiz-adv-x="526" 
d="M393 141l105 -25c-22 -45 -57 -81 -92 -101c-43 -24 -91 -29 -130 -29c-58 0 -115 11 -161 60c-24 25 -52 69 -52 140c0 75 27 150 75 197c55 55 120 64 173 64c52 0 106 -10 148 -50c47 -45 56 -104 56 -157c0 -18 0 -31 -2 -44h-324c-5 -40 7 -69 25 -87
c22 -23 49 -27 71 -27c15 0 43 1 66 14c18 11 33 29 42 45zM203 274h205c-1 25 -12 49 -27 63c-17 16 -43 24 -68 24c-33 0 -57 -13 -74 -28c-15 -14 -29 -35 -36 -59z" />
    <glyph glyph-name="afii10072" unicode="&#x436;" horiz-adv-x="655" 
d="M323 433h110l-20 -168l146 168h142l-194 -200l142 -233h-136l-96 170l-18 -18l-19 -152h-110l19 152l-14 18l-135 -170h-142l202 236l-141 197h134l110 -168z" />
    <glyph glyph-name="afii10073" unicode="&#x437;" horiz-adv-x="439" 
d="M145 315l-53 78c21 15 48 30 69 38c27 10 65 16 94 16c39 0 82 -10 109 -27c34 -22 49 -55 49 -88c0 -24 -8 -44 -21 -62c-13 -19 -28 -30 -51 -37c17 -5 38 -15 52 -29c20 -20 25 -45 25 -66c0 -27 -6 -67 -42 -103c-31 -31 -73 -49 -154 -49c-68 0 -109 18 -117 22
c-4 2 -38 18 -72 53l69 74c16 -15 33 -27 51 -35s38 -14 62 -14c17 0 40 4 54 12c16 10 24 26 24 40c0 12 -7 23 -19 31c-13 8 -35 10 -51 10h-51l11 88h49c12 0 34 2 46 8c13 7 22 20 22 36c0 14 -7 23 -17 29c-17 10 -43 11 -46 11c-18 0 -35 -3 -50 -10
c-13 -6 -29 -15 -42 -26z" />
    <glyph glyph-name="afii10074" unicode="&#x438;" horiz-adv-x="560" 
d="M111 433h122l-33 -267l233 267h122l-53 -433h-122l33 267l-233 -267h-122z" />
    <glyph glyph-name="afii10075" unicode="&#x439;" horiz-adv-x="560" 
d="M111 433h122l-33 -267l233 267h122l-53 -433h-122l33 267l-233 -267h-122zM499 650l77 -38c-3 -8 -22 -49 -60 -75c-28 -19 -65 -28 -106 -28c-55 0 -91 17 -111 32c-20 14 -40 37 -51 71l83 38c3 -16 11 -33 23 -44c16 -14 41 -19 60 -19c23 0 41 7 54 17s25 28 31 46z
" />
    <glyph glyph-name="afii10076" unicode="&#x43a;" horiz-adv-x="489" 
d="M111 433h122l-20 -168l176 168h147l-222 -200l174 -233h-140l-124 175l-25 -19l-19 -156h-122z" />
    <glyph glyph-name="afii10077" unicode="&#x43b;" horiz-adv-x="500" 
d="M495 433l-53 -433h-122l40 329h-118l-19 -159c-5 -41 -15 -92 -54 -131c-54 -54 -128 -45 -161 -38l13 104c28 -7 56 -1 70 13s21 43 23 60l31 255h350z" />
    <glyph glyph-name="afii10078" unicode="&#x43c;" horiz-adv-x="600" 
d="M12 0l134 433h90l87 -249l147 249h94l24 -433h-120l-7 235l-138 -235h-40l-82 235l-65 -235h-124z" />
    <glyph glyph-name="afii10079" unicode="&#x43d;" horiz-adv-x="530" 
d="M58 0l53 433h122l-19 -153h170l19 153h122l-53 -433h-122l22 176h-170l-22 -176h-122z" />
    <glyph glyph-name="afii10080" unicode="&#x43e;" horiz-adv-x="572" 
d="M336 447c85 0 138 -29 171 -62c28 -29 56 -76 56 -144c0 -55 -17 -124 -77 -182c-57 -54 -122 -73 -199 -73c-62 0 -120 13 -167 60c-32 31 -57 79 -57 147c0 71 31 138 75 181c35 34 97 73 198 73zM299 94c33 0 69 12 95 38c25 25 41 63 41 97c0 27 -11 60 -32 80
c-20 19 -50 30 -79 30c-34 0 -68 -13 -92 -35c-30 -28 -43 -69 -43 -103c0 -26 11 -57 30 -76c20 -20 52 -31 80 -31z" />
    <glyph glyph-name="afii10081" unicode="&#x43f;" horiz-adv-x="526" 
d="M111 433h410l-53 -433h-122l40 329h-166l-40 -329h-122z" />
    <glyph glyph-name="afii10082" unicode="&#x440;" horiz-adv-x="572" 
d="M187 56l-35 -285h-122l81 662h122l-7 -56c19 23 40 39 64 51c28 14 50 19 80 19c44 0 95 -9 136 -48c47 -45 57 -105 57 -153c0 -101 -39 -163 -74 -198c-48 -48 -102 -62 -157 -62c-18 0 -65 2 -101 25c-18 11 -33 28 -44 45zM326 339c-32 0 -64 -9 -91 -36
c-28 -27 -41 -63 -41 -97c0 -32 11 -60 27 -78c25 -29 59 -34 86 -34c35 0 64 10 89 35c26 26 40 65 40 103c0 35 -14 62 -32 79s-49 28 -78 28z" />
    <glyph glyph-name="afii10083" unicode="&#x441;" horiz-adv-x="420" 
d="M438 421l-15 -120c-18 17 -50 38 -103 38c-28 0 -62 -6 -90 -34c-27 -26 -40 -66 -40 -99c0 -31 11 -60 30 -79c19 -20 49 -33 82 -33c26 0 67 8 100 38l-14 -119c-40 -23 -85 -27 -114 -27c-62 0 -120 22 -158 61c-31 32 -54 79 -54 146c0 76 27 138 70 182
c52 53 113 72 186 72c38 0 76 -5 120 -26z" />
    <glyph glyph-name="afii10084" unicode="&#x442;" horiz-adv-x="374" 
d="M408 329h-120l-40 -329h-122l40 329h-120l13 104h362z" />
    <glyph glyph-name="afii10085" unicode="&#x443;" horiz-adv-x="538" 
d="M21 -229l195 294l-161 368h138l104 -246l150 246h142l-430 -662h-138z" />
    <glyph glyph-name="afii10086" unicode="&#x444;" horiz-adv-x="694" 
d="M258 -229l27 223h-5c-58 0 -108 18 -143 44c-26 20 -74 66 -74 155c0 80 40 151 89 190c48 38 121 56 188 56l28 228h122l-28 -228c58 -2 128 -25 169 -64c46 -44 54 -99 54 -139c0 -82 -33 -137 -63 -168c-64 -65 -159 -74 -215 -74l-27 -223h-122zM299 102l28 229
c-32 0 -72 -9 -96 -30c-25 -21 -42 -61 -42 -100c0 -43 23 -66 37 -77c20 -15 49 -22 73 -22zM449 331l-28 -229c34 0 74 11 98 32c26 23 39 63 39 95c0 33 -14 60 -33 76c-21 18 -51 26 -76 26z" />
    <glyph glyph-name="afii10087" unicode="&#x445;" horiz-adv-x="558" 
d="M2 0l229 236l-145 197h147l77 -112l104 112h159l-193 -197l176 -236h-149l-105 151l-139 -151h-161z" />
    <glyph glyph-name="afii10088" unicode="&#x446;" horiz-adv-x="542" 
d="M58 0l53 433h122l-40 -329h162l40 329h122l-40 -329h70l-28 -230h-110l15 126h-366z" />
    <glyph glyph-name="afii10089" unicode="&#x447;" horiz-adv-x="483" 
d="M303 0l18 153c-30 -11 -57 -15 -88 -15c-36 0 -85 5 -122 39c-25 23 -35 49 -35 81c0 14 2 28 5 54l15 121h120l-13 -105c-2 -12 -3 -23 -3 -33c0 -18 4 -33 22 -43c13 -8 35 -10 52 -10c13 0 34 2 59 11l23 180h122l-53 -433h-122z" />
    <glyph glyph-name="afii10090" unicode="&#x448;" horiz-adv-x="762" 
d="M58 0l53 433h122l-40 -329h140l40 329h122l-40 -329h140l40 329h122l-53 -433h-646z" />
    <glyph glyph-name="afii10091" unicode="&#x449;" horiz-adv-x="782" 
d="M58 0l53 433h122l-40 -329h140l40 329h122l-40 -329h140l40 329h122l-40 -329h70l-28 -230h-110l15 126h-606z" />
    <glyph glyph-name="afii10092" unicode="&#x44a;" horiz-adv-x="505" 
d="M59 433h228l-19 -154h78c23 0 80 -2 117 -37c28 -27 33 -62 33 -86c0 -49 -17 -87 -41 -111c-42 -41 -107 -45 -161 -45h-60h-122l40 329h-106zM246 96h56c13 0 35 1 49 11c8 6 18 18 18 37c0 18 -9 27 -16 31c-10 6 -29 8 -40 8h-57z" />
    <glyph glyph-name="afii10093" unicode="&#x44b;" horiz-adv-x="650" 
d="M523 433h122l-53 -433h-122zM112 433h121l-19 -154h78c23 0 80 -2 117 -37c28 -27 33 -62 33 -87c0 -55 -21 -91 -41 -110c-42 -41 -107 -45 -161 -45h-64h-118zM192 96h56c13 0 35 1 49 11c8 6 18 18 18 37c0 18 -9 27 -16 31c-10 6 -29 8 -40 8h-57z" />
    <glyph glyph-name="afii10094" unicode="&#x44c;" horiz-adv-x="451" 
d="M112 433h121l-19 -154h78c23 0 80 -2 117 -37c28 -27 33 -62 33 -87c0 -55 -21 -91 -41 -110c-42 -41 -107 -45 -161 -45h-62h-120zM192 96h56c13 0 35 1 49 11c8 6 18 18 18 37c0 18 -9 27 -16 31c-10 6 -29 8 -40 8h-57z" />
    <glyph glyph-name="afii10095" unicode="&#x44d;" horiz-adv-x="436" 
d="M35 11l15 116c25 -24 60 -42 118 -42c26 0 56 4 81 22c6 4 33 26 41 68h-179l11 88h179c-4 28 -18 51 -35 64c-20 16 -49 24 -77 24c-34 0 -76 -9 -114 -37l13 106c51 20 91 27 127 27c58 0 123 -21 162 -62c42 -44 50 -101 50 -143c0 -102 -40 -163 -74 -196
c-58 -56 -123 -61 -176 -61c-48 0 -92 5 -142 26z" />
    <glyph glyph-name="afii10096" unicode="&#x44e;" horiz-adv-x="753" 
d="M213 270h56c15 53 45 95 79 122c45 36 109 55 171 55c78 0 135 -29 169 -63c21 -21 56 -66 56 -144c0 -55 -17 -125 -77 -183c-57 -56 -119 -71 -199 -71c-54 0 -111 11 -156 57c-27 27 -50 70 -55 123h-57l-20 -166h-122l53 433h122zM482 94c38 0 70 14 93 37
c25 25 41 62 41 100c0 34 -14 61 -32 78c-20 19 -50 30 -79 30c-27 0 -58 -9 -85 -35c-24 -23 -42 -60 -42 -100c0 -35 13 -62 29 -79c10 -10 33 -31 75 -31z" />
    <glyph glyph-name="afii10097" unicode="&#x44f;" horiz-adv-x="460" 
d="M20 0l148 162c-24 6 -47 19 -61 34c-22 23 -28 51 -28 79c0 53 21 88 41 108c48 49 119 50 174 50h161l-53 -433h-122l19 152h-8l-125 -152h-146zM309 240l12 97h-53c-15 0 -35 -4 -46 -13c-8 -6 -18 -19 -18 -40c0 -12 3 -23 15 -32s31 -12 45 -12h45z" />
    <glyph glyph-name="afii10071" unicode="&#x451;" horiz-adv-x="526" 
d="M393 141l105 -25c-22 -45 -57 -81 -92 -101c-43 -24 -91 -29 -130 -29c-58 0 -115 11 -161 60c-24 25 -52 69 -52 140c0 75 27 150 75 197c55 55 120 64 173 64c52 0 106 -10 148 -50c47 -45 56 -104 56 -157c0 -18 0 -31 -2 -44h-324c-5 -40 7 -69 25 -87
c22 -23 49 -27 71 -27c15 0 43 1 66 14c18 11 33 29 42 45zM203 274h205c-1 25 -12 49 -27 63c-17 16 -43 24 -68 24c-33 0 -57 -13 -74 -28c-15 -14 -29 -35 -36 -59zM374 578c0 17 6 38 24 56c19 19 41 24 58 24c21 0 36 -9 46 -20c9 -10 16 -24 16 -44
c0 -22 -9 -40 -22 -54c-17 -19 -38 -26 -59 -26c-19 0 -34 7 -44 17c-12 12 -19 30 -19 47zM166 578c0 17 6 38 24 56c19 19 41 24 58 24c21 0 36 -9 46 -20c9 -10 16 -24 16 -44c0 -22 -9 -40 -22 -54c-17 -19 -38 -26 -59 -26c-19 0 -34 7 -44 17c-12 12 -19 30 -19 47z
" />
    <glyph glyph-name="afii10099" unicode="&#x452;" horiz-adv-x="546" 
d="M69 0l64 519h-100l9 78h100l17 132h122l-17 -132h200l-9 -78h-200l-23 -182c14 23 32 38 54 50c26 14 48 20 82 20c59 0 94 -18 116 -40c28 -28 34 -62 34 -96c0 -30 -5 -54 -8 -82l-34 -275c-4 -35 -12 -75 -45 -106c-35 -33 -81 -38 -118 -38c-24 0 -51 3 -77 9l13 108
c7 -3 23 -9 43 -9c30 0 45 14 51 22c8 11 12 31 14 45l28 218c2 12 6 52 6 67c0 30 -11 47 -20 55c-12 11 -30 18 -53 18c-33 0 -55 -13 -68 -26c-23 -23 -33 -64 -37 -96l-22 -181h-122z" />
    <glyph glyph-name="afii10100" unicode="&#x453;" horiz-adv-x="340" 
d="M58 0l53 433h276l-13 -104h-154l-40 -329h-122zM344 700l81 -56l-166 -134l-51 40z" />
    <glyph glyph-name="afii10101" unicode="&#x454;" horiz-adv-x="433" 
d="M448 421l-15 -120c-33 31 -70 38 -105 38c-25 0 -57 -4 -84 -22c-16 -11 -33 -30 -43 -57h192l-11 -88h-187c6 -25 19 -45 36 -57c25 -19 56 -21 77 -21c48 0 80 16 104 38l-14 -119c-19 -10 -53 -27 -115 -27c-85 0 -137 30 -167 61c-31 32 -54 79 -54 146
c0 76 27 138 70 182c58 60 126 72 192 72c56 0 93 -11 124 -26z" />
    <glyph glyph-name="afii10102" unicode="&#x455;" horiz-adv-x="400" 
d="M399 403l-63 -75c-9 9 -18 16 -31 22s-24 9 -41 9c-5 0 -29 -1 -41 -14c-4 -5 -9 -13 -9 -26c0 -9 2 -16 9 -22s16 -10 35 -16l37 -12c24 -8 51 -23 67 -39c25 -26 30 -59 30 -82c0 -50 -20 -86 -45 -111c-45 -45 -102 -51 -142 -51c-44 0 -77 9 -102 21
c-22 11 -48 32 -66 51l73 74c10 -14 24 -27 40 -36c15 -8 33 -14 50 -14c16 0 36 4 47 13c10 8 17 22 17 38c0 8 -2 18 -11 27c-9 8 -24 14 -43 21l-30 12c-18 7 -39 17 -57 35c-20 20 -29 41 -29 74c0 43 18 79 43 103s65 42 123 42c28 0 60 -4 85 -14c19 -7 40 -20 54 -30
z" />
    <glyph glyph-name="afii10103" unicode="&#x456;" horiz-adv-x="238" 
d="M111 433h122l-53 -433h-122zM121 607c0 19 7 40 24 57c20 21 42 25 58 25c19 0 35 -7 46 -18c12 -12 19 -29 19 -47c0 -15 -5 -37 -24 -56c-18 -18 -39 -25 -58 -25s-34 7 -46 18c-12 12 -19 26 -19 46z" />
    <glyph glyph-name="afii10104" unicode="&#x457;" horiz-adv-x="274" 
d="M129 433h122l-53 -433h-122zM226 606c0 25 10 49 27 66c10 10 21 17 38 17c10 0 25 -3 37 -18c10 -12 15 -27 15 -43c0 -5 0 -31 -20 -57c-17 -21 -35 -26 -47 -26c-16 0 -27 7 -35 16c-9 11 -15 27 -15 45zM83 607c0 24 10 48 27 65c10 10 21 17 38 17
c10 0 25 -3 37 -18c10 -12 15 -27 15 -43c0 -5 0 -31 -20 -57c-17 -21 -35 -26 -47 -26c-16 0 -27 7 -35 16c-9 11 -15 27 -15 46z" />
    <glyph glyph-name="afii10105" unicode="&#x458;" horiz-adv-x="238" 
d="M111 433h122l-81 -662h-122zM121 607c0 19 7 40 24 57c20 21 42 25 58 25c19 0 35 -7 46 -18c12 -12 19 -29 19 -47c0 -15 -5 -37 -24 -56c-18 -18 -39 -25 -58 -25s-34 7 -46 18c-12 12 -19 26 -19 46z" />
    <glyph glyph-name="afii10106" unicode="&#x459;" horiz-adv-x="713" 
d="M476 279h78c23 0 80 -2 117 -37c28 -27 33 -61 33 -88c0 -54 -21 -89 -41 -109c-42 -41 -107 -45 -161 -45h-59h-123l40 329h-118l-19 -159c-5 -41 -15 -92 -54 -131c-54 -54 -128 -45 -161 -38l13 104c23 -6 52 -4 70 13c16 16 21 43 23 60l31 255h350zM454 96h56
c14 0 33 0 49 11c8 6 18 18 18 37c0 18 -9 27 -16 31c-10 6 -29 8 -40 8h-57z" />
    <glyph glyph-name="afii10107" unicode="&#x45a;" horiz-adv-x="742" 
d="M524 433l-19 -154h78c23 0 80 -2 117 -37c28 -27 33 -62 33 -87c0 -55 -21 -91 -41 -110c-42 -41 -107 -45 -161 -45h-61h-121l23 183h-169l-23 -183h-122l53 433h122l-19 -154h170l19 154h121zM483 96h56c13 0 35 1 49 11c8 6 18 18 18 37c0 18 -9 27 -16 31
c-10 6 -29 8 -40 8h-57z" />
    <glyph glyph-name="afii10108" unicode="&#x45b;" horiz-adv-x="546" 
d="M69 0l64 519h-100l9 78h100l17 132h122l-17 -132h200l-9 -78h-200l-23 -182c14 23 32 38 54 50c26 14 48 20 82 20c59 0 94 -18 116 -40c28 -28 34 -62 34 -96c0 -31 -5 -53 -8 -82l-23 -189h-122l20 163c1 12 6 52 6 67c0 30 -11 47 -20 55c-12 11 -30 18 -53 18
c-33 0 -55 -13 -68 -26c-23 -23 -33 -64 -37 -96l-22 -181h-122z" />
    <glyph glyph-name="afii10109" unicode="&#x45c;" horiz-adv-x="489" 
d="M111 433h122l-20 -168l176 168h147l-222 -200l174 -233h-140l-124 175l-25 -19l-19 -156h-122zM414 700l81 -56l-166 -134l-51 40z" />
    <glyph glyph-name="afii10110" unicode="&#x45e;" horiz-adv-x="538" 
d="M21 -229l195 294l-161 368h138l104 -246l150 246h142l-430 -662h-138zM474 650l77 -38c-3 -8 -22 -49 -60 -75c-28 -19 -65 -28 -106 -28c-55 0 -91 17 -111 32c-20 14 -40 37 -51 71l83 38c3 -16 11 -33 23 -44c16 -14 41 -19 60 -19c23 0 41 7 54 17s25 28 31 46z" />
    <glyph glyph-name="afii10193" unicode="&#x45f;" horiz-adv-x="522" 
d="M58 0l53 433h122l-40 -329h162l40 329h122l-53 -433h-148l-17 -136h-110l17 136h-148z" />
    <glyph glyph-name="afii10146" unicode="&#x462;" horiz-adv-x="622" 
d="M140 0l61 497h-150l12 100h150l13 97h130l-13 -97h200l-12 -100h-200l-11 -91h90c85 0 137 -28 166 -55c29 -28 50 -69 50 -128c0 -71 -27 -126 -62 -160c-59 -58 -135 -63 -197 -63h-227zM306 294l-22 -182h76c29 0 66 2 92 19c17 11 40 33 40 75c0 38 -19 59 -34 69
c-21 14 -59 19 -86 19h-66z" />
    <glyph glyph-name="afii10194" unicode="&#x463;" horiz-adv-x="503" 
d="M112 0l42 345h-106l11 88h106l29 234h122l-29 -234h140l-11 -88h-140l-9 -74h77c29 0 82 -3 117 -37c27 -26 33 -59 33 -87c0 -33 -7 -71 -39 -102c-43 -41 -107 -45 -161 -45h-60h-122zM246 96h56c16 0 34 1 49 11c13 9 18 21 18 36c0 9 -2 23 -16 32c-10 6 -29 8 -40 8
h-57z" />
    <glyph glyph-name="afii10147" unicode="&#x472;" horiz-adv-x="806" 
d="M484 682c95 0 178 -35 231 -86c50 -48 88 -123 88 -222c0 -106 -40 -211 -107 -280c-53 -55 -143 -109 -278 -109c-115 0 -194 41 -245 93c-54 55 -88 137 -88 224c0 107 45 209 115 275s174 105 284 105zM658 289h-437c5 -73 44 -117 58 -131c42 -42 94 -55 146 -55
c64 0 113 18 158 59c46 41 66 88 75 127zM230 385h437c-5 51 -27 93 -52 120c-32 33 -79 58 -152 58c-62 0 -111 -17 -152 -52c-36 -30 -65 -75 -81 -126z" />
    <glyph glyph-name="afii10195" unicode="&#x473;" horiz-adv-x="572" 
d="M337 447c84 0 137 -29 170 -62c28 -29 56 -76 56 -144c0 -55 -17 -124 -77 -182c-57 -54 -122 -73 -199 -73c-62 0 -120 13 -167 60c-32 31 -57 79 -57 147c0 71 31 138 75 181c34 34 97 73 199 73zM427 184h-236c1 -32 16 -59 33 -74c21 -18 51 -26 80 -26
c26 0 55 8 76 24s39 46 47 76zM202 262h228c-3 23 -15 46 -31 61c-18 17 -47 26 -77 26c-29 0 -54 -6 -77 -24c-18 -14 -34 -37 -43 -63z" />
    <glyph glyph-name="afii10148" unicode="&#x474;" horiz-adv-x="644" 
d="M84 667h140l123 -448l233 448h144l-366 -667h-74z" />
    <glyph glyph-name="afii10196" unicode="&#x475;" horiz-adv-x="504" 
d="M55 433h132l84 -244l144 244h140l-274 -433h-58z" />
    <glyph glyph-name="afii10050" unicode="&#x490;" horiz-adv-x="476" 
d="M76 0l82 667h274l18 150h120l-32 -262h-264l-68 -555h-130z" />
    <glyph glyph-name="afii10098" unicode="&#x491;" horiz-adv-x="380" 
d="M58 0l53 433h206l16 126h110l-29 -230h-194l-40 -329h-122z" />
    <glyph glyph-name="uni0492" unicode="&#x492;" horiz-adv-x="436" 
d="M76 0l38 308h-96l12 100h96l32 259h354l-14 -112h-224l-18 -147h160l-12 -100h-160l-38 -308h-130z" />
    <glyph glyph-name="uni0493" unicode="&#x493;" horiz-adv-x="340" 
d="M58 0l19 158h-68l11 86h68l23 189h276l-13 -104h-154l-10 -85h100l-11 -86h-100l-19 -158h-122z" />
    <glyph glyph-name="uni0494" unicode="&#x494;" horiz-adv-x="602" 
d="M494 555h-220l-21 -170c40 14 83 23 134 23c46 0 112 -7 159 -49c31 -28 59 -79 59 -152c0 -64 -23 -126 -65 -164c-47 -42 -107 -50 -161 -50c-25 0 -58 2 -95 8l14 111c21 -4 46 -7 71 -7c20 0 50 1 73 23c25 24 27 59 27 80c0 22 -4 45 -23 63c-23 22 -59 25 -82 25
c-32 0 -76 -5 -124 -23l-34 -273h-130l82 667h350z" />
    <glyph glyph-name="uni0495" unicode="&#x495;" horiz-adv-x="456" 
d="M58 0l53 433h276l-13 -104h-154l-11 -93h13c39 0 104 -4 152 -49c23 -22 52 -62 52 -127c0 -59 -20 -151 -113 -214c-40 -27 -95 -50 -162 -54l13 108c43 6 73 26 90 43c25 25 44 61 44 105c0 32 -11 51 -23 62c-21 20 -53 22 -69 22h-10l-16 -132h-122z" />
    <glyph glyph-name="uni0496" unicode="&#x496;" horiz-adv-x="861" 
d="M450 667h124l-35 -282l241 282h148l-284 -312l151 -243h89l-32 -262h-120l18 150h-30l-174 292l-20 -16l-34 -276h-124l35 284l-13 15l-234 -299h-150l295 359l-217 308h144l187 -282z" />
    <glyph glyph-name="uni0497" unicode="&#x497;" horiz-adv-x="655" 
d="M323 433h110l-20 -168l146 168h142l-194 -200l79 -129h75l-28 -230h-110l15 126h-25l-96 170l-18 -18l-19 -152h-110l19 152l-14 18l-135 -170h-142l202 236l-141 197h134l110 -168z" />
    <glyph glyph-name="uni0498" unicode="&#x498;" horiz-adv-x="600" 
d="M219 515l-57 89c29 23 65 44 94 56c42 17 79 21 118 21c45 0 97 -4 140 -35c33 -23 62 -65 62 -125c0 -33 -9 -66 -28 -94c-14 -21 -38 -45 -73 -60c30 -10 55 -28 72 -49c23 -28 33 -59 33 -98c0 -74 -30 -128 -64 -162c-27 -27 -79 -64 -158 -67l-20 -157h-120l20 154
c-42 4 -74 17 -108 40c-33 22 -57 46 -76 83l95 81c13 -32 34 -56 55 -71c22 -16 55 -28 101 -28c64 0 97 24 112 39c19 19 28 42 28 71c0 18 -3 48 -32 69s-81 22 -101 22h-62l14 112h60c31 0 69 9 88 22s34 38 34 66c0 21 -9 39 -21 51c-24 22 -64 23 -73 23
c-26 0 -50 -5 -75 -16c-24 -10 -42 -23 -58 -37z" />
    <glyph glyph-name="uni0499" unicode="&#x499;" horiz-adv-x="439" 
d="M145 315l-53 78c21 15 48 30 69 38c28 10 64 16 94 16c66 0 102 -23 109 -27c39 -25 49 -62 49 -89c0 -22 -8 -46 -22 -64c-10 -12 -25 -27 -50 -34c4 -1 29 -9 47 -27c13 -12 30 -36 30 -75c0 -26 -6 -66 -42 -100c-18 -17 -51 -39 -99 -41l-15 -126h-110l16 127
c-28 3 -51 10 -77 25c-21 12 -40 26 -58 45l69 74c16 -15 33 -27 51 -35c21 -10 42 -14 61 -14c2 0 34 0 55 12c22 12 24 30 24 40c0 12 -6 23 -19 31s-35 10 -51 10h-51l11 88h49c12 0 34 2 46 8c13 7 22 20 22 36c0 14 -7 22 -17 29c-13 8 -31 11 -46 11
c-19 0 -35 -4 -50 -10c-13 -6 -29 -15 -42 -26z" />
    <glyph glyph-name="uni049A" unicode="&#x49a;" horiz-adv-x="617" 
d="M288 667l-34 -266l273 266h151l-319 -311l175 -244h93l-32 -262h-120l18 150h-37l-192 289l-25 -24l-33 -265h-130l82 667h130z" />
    <glyph glyph-name="uni049B" unicode="&#x49b;" horiz-adv-x="489" 
d="M111 433h122l-20 -168l176 168h147l-222 -200l97 -129h85l-28 -230h-110l15 126h-25l-124 175l-25 -19l-19 -156h-122z" />
    <glyph glyph-name="uni049C" unicode="&#x49c;" horiz-adv-x="723" 
d="M158 667h130l-33 -268h69l20 160h96l-20 -162l223 270h147l-268 -317l184 -350h-144l-154 303l-21 -174h-96l21 170h-69l-37 -299h-130z" />
    <glyph glyph-name="uni049D" unicode="&#x49d;" horiz-adv-x="584" 
d="M111 433h122l-20 -165h48l11 100h81l-12 -100l144 165h146l-191 -200l126 -233h-138l-97 190l-14 -120h-80l14 120h-48l-23 -190h-122z" />
    <glyph glyph-name="uni04A0" unicode="&#x4a0;" horiz-adv-x="687" 
d="M748 667l-319 -311l253 -356h-156l-192 289l-25 -24l-33 -265h-130l68 555h-140l14 112h270l-34 -266l273 266h151z" />
    <glyph glyph-name="uni04A1" unicode="&#x4a1;" horiz-adv-x="573" 
d="M112 0l40 329h-106l13 104h228l-20 -168l176 168h147l-222 -200l174 -233h-140l-124 175l-25 -19l-19 -156h-122z" />
    <glyph glyph-name="uni04A2" unicode="&#x4a2;" horiz-adv-x="708" 
d="M76 0l82 667h130l-32 -258h282l32 258h130l-68 -555h80l-32 -262h-120l18 150h-90l36 297h-282l-36 -297h-130z" />
    <glyph glyph-name="uni04A3" unicode="&#x4a3;" horiz-adv-x="550" 
d="M58 0l53 433h122l-19 -153h170l19 153h122l-40 -329h70l-28 -230h-110l15 126h-82l22 176h-170l-22 -176h-122z" />
    <glyph glyph-name="uni04A4" unicode="&#x4a4;" horiz-adv-x="848" 
d="M76 0l82 667h130l-32 -258h282l32 258h354l-14 -112h-224l-68 -555h-130l36 297h-282l-36 -297h-130z" />
    <glyph glyph-name="uni04A5" unicode="&#x4a5;" horiz-adv-x="632" 
d="M58 0l53 433h122l-19 -153h170l19 153h276l-13 -104h-154l-40 -329h-122l22 176h-170l-22 -176h-122z" />
    <glyph glyph-name="uni04AA" unicode="&#x4aa;" horiz-adv-x="607" 
d="M585 176l-19 -152c-32 -20 -64 -30 -96 -33l-20 -157h-120l20 154c-78 8 -137 42 -176 79c-55 52 -89 127 -89 231c0 118 43 218 107 282c87 87 195 102 274 102c43 0 104 -4 176 -41l-18 -150c-56 65 -128 73 -170 73c-84 0 -135 -35 -167 -69
c-44 -47 -67 -118 -67 -184c0 -74 28 -122 56 -151c38 -40 87 -58 144 -58c101 0 148 51 165 74z" />
    <glyph glyph-name="uni04AB" unicode="&#x4ab;" horiz-adv-x="420" 
d="M438 421l-15 -120c-18 17 -50 38 -103 38c-28 0 -62 -6 -90 -34c-27 -26 -40 -66 -40 -99c0 -31 11 -60 30 -79c19 -20 49 -33 82 -33c26 0 67 8 100 38l-14 -119c-20 -13 -41 -20 -63 -23l-16 -126h-110l16 129c-46 9 -78 32 -99 54c-43 45 -54 99 -54 146
c0 88 36 147 70 182c52 53 113 72 186 72c38 0 76 -5 120 -26z" />
    <glyph glyph-name="uni04AE" unicode="&#x4ae;" horiz-adv-x="590" 
d="M227 0l37 305l-184 362h148l114 -232l172 232h160l-280 -362l-37 -305h-130z" />
    <glyph glyph-name="uni04AF" unicode="&#x4af;" horiz-adv-x="504" 
d="M55 433h132l84 -244l144 244h140l-235 -376l-35 -286h-122l35 286z" />
    <glyph glyph-name="uni04B0" unicode="&#x4b0;" horiz-adv-x="590" 
d="M227 0l25 205h-180l12 100h180l-184 362h148l114 -232l172 232h160l-280 -362h180l-12 -100h-180l-25 -205h-130z" />
    <glyph glyph-name="uni04B1" unicode="&#x4b1;" horiz-adv-x="504" 
d="M55 433h132l84 -244l144 244h140l-235 -376l-5 -37h140l-11 -96h-140l-19 -153h-122l19 153h-140l11 96h140l5 37z" />
    <glyph glyph-name="uni04B2" unicode="&#x4b2;" horiz-adv-x="634" 
d="M8 0l279 352l-160 315h150l91 -207l149 207h156l-244 -315l125 -240h73l-32 -262h-120l18 150h-29l-116 244l-184 -244h-156z" />
    <glyph glyph-name="uni04B3" unicode="&#x4b3;" horiz-adv-x="556" 
d="M2 0l229 236l-145 197h147l77 -112l104 112h159l-193 -197l98 -132h89l-28 -230h-110l15 126h-37l-105 151l-139 -151h-161z" />
    <glyph glyph-name="uni04B6" unicode="&#x4b6;" horiz-adv-x="635" 
d="M505 0h-89l33 270c-40 -8 -75 -11 -112 -11c-53 0 -118 7 -166 40c-46 32 -64 75 -64 127c0 25 5 56 9 93l18 148h130l-17 -141c-3 -25 -7 -47 -7 -67c0 -33 11 -54 37 -69c16 -10 44 -19 95 -19c33 0 62 4 90 11l36 285h130l-69 -555h80l-32 -262h-120z" />
    <glyph glyph-name="uni04B7" unicode="&#x4b7;" horiz-adv-x="503" 
d="M385 0h-82l18 153c-30 -11 -57 -15 -88 -15c-36 0 -85 5 -122 39c-25 23 -35 49 -35 81c0 14 2 28 5 54l15 121h120l-13 -105c-2 -12 -3 -23 -3 -33c0 -18 4 -33 22 -43c13 -8 34 -10 51 -10c18 0 38 3 60 11l23 180h122l-40 -329h70l-28 -230h-110z" />
    <glyph glyph-name="uni04B8" unicode="&#x4b8;" horiz-adv-x="664" 
d="M458 0l34 275c-28 -4 -56 -7 -83 -7l-18 -145h-96l18 148c-46 -2 -101 9 -136 29c-31 18 -70 55 -70 127c0 15 2 28 10 88l19 152h130l-18 -149c-3 -23 -7 -45 -7 -64c0 -14 0 -42 20 -60c15 -14 43 -22 65 -21l22 180h96l-22 -183c29 -1 56 1 82 6l36 291h130l-82 -667
h-130z" />
    <glyph glyph-name="uni04B9" unicode="&#x4b9;" horiz-adv-x="540" 
d="M360 0l20 159c-18 -4 -36 -6 -55 -6l-11 -89h-80l11 88c-45 0 -111 11 -142 42c-23 23 -27 52 -27 74c0 18 2 35 5 56l14 109h122c-15 -125 -16 -135 -16 -140c0 -26 12 -37 19 -42c10 -6 26 -9 36 -9l13 106h80l-13 -107c17 0 35 2 54 5l23 187h122l-53 -433h-122z" />
    <glyph glyph-name="uni04BA" unicode="&#x4ba;" horiz-adv-x="623" 
d="M288 667l-31 -252c62 13 111 13 128 13c50 0 114 -9 155 -37c30 -21 61 -58 61 -124c0 -19 -3 -38 -8 -82l-23 -185h-130l20 162c4 31 7 49 7 64c0 37 -19 60 -36 71c-12 8 -36 19 -89 19c-38 0 -69 -4 -99 -13l-37 -303h-130l82 667h130z" />
    <glyph glyph-name="uni04BB" unicode="&#x4bb;" horiz-adv-x="536" 
d="M58 0l90 729h122l-44 -352c12 19 29 36 53 50c25 14 50 20 84 20c58 0 94 -18 116 -40c28 -29 34 -65 34 -95c0 -24 -4 -44 -8 -74l-29 -238h-122l25 201c1 9 6 53 6 69c0 30 -11 47 -20 55c-12 11 -30 18 -52 18c-39 0 -61 -18 -69 -26c-23 -23 -33 -64 -37 -96
l-27 -221h-122z" />
    <glyph glyph-name="uni04C0" unicode="&#x4c0;" horiz-adv-x="282" 
d="M158 667h130l-82 -667h-130z" />
    <glyph glyph-name="uni04C1" unicode="&#x4c1;" horiz-adv-x="861" 
d="M450 667h124l-35 -282l241 282h148l-284 -312l220 -355h-144l-174 292l-20 -16l-34 -276h-124l35 284l-13 15l-234 -299h-150l295 359l-217 308h144l187 -282zM354 844l90 36c8 -26 24 -40 26 -41c19 -16 45 -17 58 -17c17 0 41 2 62 16c15 10 27 27 34 42l90 -36
c-23 -49 -57 -74 -74 -84c-39 -24 -82 -28 -117 -28c-30 0 -77 4 -113 31c-39 28 -53 73 -56 81z" />
    <glyph glyph-name="uni04C2" unicode="&#x4c2;" horiz-adv-x="655" 
d="M323 433h110l-20 -168l146 168h142l-194 -200l142 -233h-136l-96 170l-18 -18l-19 -152h-110l19 152l-14 18l-135 -170h-142l202 236l-141 197h134l110 -168zM496 650l77 -38c-3 -8 -22 -49 -60 -75c-28 -19 -65 -28 -106 -28c-55 0 -91 17 -111 32c-20 14 -40 37 -51 71
l83 38c3 -16 11 -33 23 -44c16 -14 41 -19 60 -19c23 0 41 7 54 17s25 28 31 46z" />
    <glyph glyph-name="uni04C3" unicode="&#x4c3;" horiz-adv-x="647" 
d="M288 667l-34 -277l273 277h151l-275 -271c55 0 112 -18 149 -48c48 -38 63 -85 63 -137c0 -70 -21 -124 -61 -164c-51 -52 -107 -58 -157 -58c-24 0 -43 2 -66 7l14 111c8 -2 23 -6 41 -6c19 0 45 3 66 25c17 17 27 44 27 72c0 31 -11 56 -38 75c-28 20 -65 23 -93 23
c-37 0 -73 -4 -109 -17l-33 -279h-130l82 667h130z" />
    <glyph glyph-name="uni04C4" unicode="&#x4c4;" horiz-adv-x="485" 
d="M111 433h122l-22 -180l178 180h147l-212 -203c34 -9 67 -29 88 -51c20 -22 43 -60 43 -119s-20 -151 -113 -214c-40 -27 -95 -50 -162 -54l13 108c43 6 73 26 90 43c26 25 44 61 44 105c0 36 -14 60 -28 72c-19 17 -52 23 -78 23h-24l-17 -143h-122z" />
    <glyph glyph-name="uni04C7" unicode="&#x4c7;" horiz-adv-x="686" 
d="M76 0l82 667h130l-32 -258h282l32 258h130l-88 -719c-5 -40 -16 -102 -51 -137c-37 -37 -92 -41 -125 -41c-30 0 -58 3 -83 9l14 122c14 -7 26 -9 42 -9c28 0 44 9 53 18c14 14 20 39 24 71l38 316h-282l-36 -297h-130z" />
    <glyph glyph-name="uni04C8" unicode="&#x4c8;" horiz-adv-x="530" 
d="M58 0l53 433h122l-19 -153h170l19 153h122l-62 -497c-5 -39 -11 -91 -48 -128c-34 -34 -81 -38 -118 -38c-24 0 -51 3 -77 9l13 108c7 -3 23 -9 43 -9c30 0 45 14 51 22c9 12 15 32 19 69l25 207h-169l-22 -176h-122z" />
    <glyph glyph-name="uni04D0" unicode="&#x4d0;" horiz-adv-x="672" 
d="M533 0l-42 140h-269l-76 -140h-144l373 667h98l197 -667h-137zM276 246h190l-64 240zM250 844l90 36c8 -26 24 -40 26 -41c19 -16 45 -17 58 -17c17 0 41 2 62 16c15 10 27 27 34 42l90 -36c-23 -49 -57 -74 -74 -84c-39 -24 -82 -28 -117 -28c-30 0 -77 4 -113 31
c-39 28 -53 73 -56 81z" />
    <glyph glyph-name="uni04D1" unicode="&#x4d1;" horiz-adv-x="572" 
d="M438 377l7 56h122l-53 -433h-122l7 56c-22 -29 -47 -44 -55 -49c-26 -15 -51 -21 -81 -21c-52 0 -101 14 -142 55c-42 42 -58 95 -58 153c0 78 26 142 67 185c35 36 91 68 171 68c31 0 58 -6 86 -21c24 -13 39 -29 51 -49zM318 339c-31 0 -60 -9 -85 -31
c-28 -26 -43 -64 -43 -100c0 -38 14 -68 33 -86c18 -17 44 -28 80 -28c24 0 57 5 86 31s43 67 43 104c0 31 -12 58 -30 77c-14 15 -40 33 -84 33zM484 650l77 -38c-3 -8 -22 -49 -60 -75c-28 -19 -65 -28 -106 -28c-55 0 -91 17 -111 32c-20 14 -40 37 -51 71l83 38
c3 -16 11 -33 23 -44c16 -14 41 -19 60 -19c23 0 41 7 54 17s25 28 31 46z" />
    <glyph glyph-name="uni04D2" unicode="&#x4d2;" horiz-adv-x="672" 
d="M533 0l-42 140h-269l-76 -140h-144l373 667h98l197 -667h-137zM276 246h190l-64 240zM470 800c0 22 8 44 23 59c15 16 38 24 57 24s35 -7 46 -18s18 -27 18 -45c0 -19 -7 -41 -24 -58c-14 -14 -32 -23 -55 -23c-24 0 -40 10 -48 18c-10 10 -17 24 -17 43zM246 800
c0 22 8 44 23 59c15 16 38 24 57 24s35 -7 46 -18s18 -27 18 -45c0 -19 -7 -41 -24 -58c-14 -14 -32 -23 -55 -23c-24 0 -40 10 -48 18c-10 10 -17 24 -17 43z" />
    <glyph glyph-name="uni04D3" unicode="&#x4d3;" horiz-adv-x="572" 
d="M438 377l7 56h122l-53 -433h-122l7 56c-22 -29 -47 -44 -55 -49c-26 -15 -51 -21 -81 -21c-52 0 -101 14 -142 55c-42 42 -58 95 -58 153c0 78 26 142 67 185c35 36 91 68 171 68c31 0 58 -6 86 -21c24 -13 39 -29 51 -49zM318 339c-31 0 -60 -9 -85 -31
c-28 -26 -43 -64 -43 -100c0 -38 14 -68 33 -86c18 -17 44 -28 80 -28c24 0 57 5 86 31s43 67 43 104c0 31 -12 58 -30 77c-14 15 -40 33 -84 33zM394 578c0 17 6 38 24 56c19 19 41 24 58 24c21 0 36 -9 46 -20c9 -10 16 -24 16 -44c0 -22 -9 -40 -22 -54
c-17 -19 -38 -26 -59 -26c-19 0 -34 7 -44 17c-12 12 -19 30 -19 47zM186 578c0 17 6 38 24 56c19 19 41 24 58 24c21 0 36 -9 46 -20c9 -10 16 -24 16 -44c0 -22 -9 -40 -22 -54c-17 -19 -38 -26 -59 -26c-19 0 -34 7 -44 17c-12 12 -19 30 -19 47z" />
    <glyph glyph-name="uni04D4" unicode="&#x4d4;" horiz-adv-x="920" 
d="M533 0l-42 140h-269l-76 -140h-140l371 667h352l30 -112h-245l42 -149h241l32 -112h-242l51 -182h246l30 -112h-381zM276 246h190l-62 240z" />
    <glyph glyph-name="uni04D5" unicode="&#x4d5;" horiz-adv-x="810" 
d="M435 374c19 24 41 39 59 49c32 17 68 24 106 24c75 0 121 -27 145 -51c51 -49 60 -123 52 -200h-322c0 -30 11 -68 32 -88c24 -24 59 -26 78 -26c24 0 41 4 61 19c14 10 24 21 30 38l110 -18c-13 -33 -39 -73 -73 -97c-33 -24 -82 -38 -135 -38c-64 0 -103 18 -112 23
c-23 11 -44 29 -61 48c-25 -33 -54 -47 -68 -53c-31 -13 -75 -18 -108 -18c-41 0 -100 5 -141 45c-28 27 -37 59 -37 94c0 47 17 88 61 116c41 26 94 30 128 30c42 0 83 -7 124 -30v21c0 21 -2 50 -31 71c-9 7 -30 18 -74 18c-40 0 -78 -8 -118 -23l12 97
c44 15 90 22 131 22c33 0 62 -5 92 -19c26 -12 45 -28 59 -54zM171 126c0 -11 4 -26 20 -37s42 -17 64 -17c21 0 45 4 63 14c27 15 30 36 30 47c0 15 -7 30 -26 40c-13 7 -31 12 -60 12c-21 0 -44 -1 -65 -14c-23 -14 -26 -33 -26 -45zM487 274h205c-2 22 -14 52 -33 68
c-6 5 -25 19 -63 19c-27 0 -52 -5 -75 -27c-16 -16 -28 -39 -34 -60z" />
    <glyph glyph-name="uni04D6" unicode="&#x4d6;" horiz-adv-x="496" 
d="M528 667l-14 -112h-240l-18 -149h230l-14 -112h-230l-22 -182h240l-14 -112h-240h-130l82 667h370zM184 844l90 36c8 -26 24 -40 26 -41c19 -16 45 -17 58 -17c17 0 41 2 62 16c15 10 27 27 34 42l90 -36c-23 -49 -57 -74 -74 -84c-39 -24 -82 -28 -117 -28
c-30 0 -77 4 -113 31c-39 28 -53 73 -56 81z" />
    <glyph glyph-name="uni04D7" unicode="&#x4d7;" horiz-adv-x="526" 
d="M393 141l105 -25c-22 -45 -57 -81 -92 -101c-43 -24 -91 -29 -130 -29c-58 0 -115 11 -161 60c-24 25 -52 69 -52 140c0 75 27 150 75 197c55 55 120 64 173 64c52 0 106 -10 148 -50c47 -45 56 -104 56 -157c0 -18 0 -31 -2 -44h-324c-5 -40 7 -69 25 -87
c22 -23 49 -27 71 -27c15 0 43 1 66 14c18 11 33 29 42 45zM203 274h205c-1 25 -12 49 -27 63c-17 16 -43 24 -68 24c-33 0 -57 -13 -74 -28c-15 -14 -29 -35 -36 -59zM474 650l77 -38c-3 -8 -22 -49 -60 -75c-28 -19 -65 -28 -106 -28c-55 0 -91 17 -111 32
c-20 14 -40 37 -51 71l83 38c3 -16 11 -33 23 -44c16 -14 41 -19 60 -19c23 0 41 7 54 17s25 28 31 46z" />
    <glyph glyph-name="uni04D8" unicode="&#x4d8;" horiz-adv-x="763" 
d="M88 377h538c-1 56 -24 104 -56 136c-39 39 -88 51 -136 51c-40 0 -76 -7 -113 -29c-11 -7 -41 -26 -69 -61l-114 61c29 35 73 77 117 102c62 36 129 45 185 45c73 0 161 -13 232 -84c53 -53 88 -130 88 -236c0 -142 -55 -233 -114 -290c-77 -73 -152 -87 -238 -87
c-103 0 -185 20 -252 108c-55 72 -80 182 -68 284zM613 277h-390c2 -45 21 -98 54 -130c25 -24 65 -44 126 -44c55 0 108 15 151 59c30 31 51 73 59 115z" />
    <glyph glyph-name="afii10846" unicode="&#x4d9;" horiz-adv-x="525" 
d="M201 297l-115 19c19 37 47 70 81 93c45 30 92 38 138 38c56 0 110 -13 154 -55c48 -46 57 -103 57 -148c0 -70 -17 -136 -71 -191c-48 -49 -98 -67 -171 -67c-55 0 -108 11 -150 54c-51 52 -66 138 -58 207h324c2 28 -7 61 -25 79c-14 15 -39 25 -69 25
c-22 0 -42 -4 -60 -15c-12 -8 -26 -20 -35 -39zM381 169h-209c2 -27 14 -56 32 -73c20 -19 43 -24 65 -24c20 0 51 3 77 27c4 4 28 28 35 70z" />
    <glyph glyph-name="uni04DA" unicode="&#x4da;" horiz-adv-x="763" 
d="M88 377h538c-1 56 -24 104 -56 136c-39 39 -88 51 -136 51c-40 0 -76 -7 -113 -29c-11 -7 -41 -26 -69 -61l-114 61c29 35 73 77 117 102c62 36 129 45 185 45c73 0 161 -13 232 -84c53 -53 88 -130 88 -236c0 -142 -55 -233 -114 -290c-77 -73 -152 -87 -238 -87
c-103 0 -185 20 -252 108c-55 72 -80 182 -68 284zM613 277h-390c2 -45 21 -98 54 -130c25 -24 65 -44 126 -44c55 0 108 15 151 59c30 31 51 73 59 115zM502 800c0 22 8 44 23 59c15 16 38 24 57 24s35 -7 46 -18s18 -27 18 -45c0 -19 -7 -41 -24 -58
c-14 -14 -32 -23 -55 -23c-24 0 -40 10 -48 18c-10 10 -17 24 -17 43zM278 800c0 22 8 44 23 59c15 16 38 24 57 24s35 -7 46 -18s18 -27 18 -45c0 -19 -7 -41 -24 -58c-14 -14 -32 -23 -55 -23c-24 0 -40 10 -48 18c-10 10 -17 24 -17 43z" />
    <glyph glyph-name="uni04DB" unicode="&#x4db;" horiz-adv-x="525" 
d="M201 297l-115 19c19 37 47 70 81 93c45 30 92 38 138 38c56 0 110 -13 154 -55c48 -46 57 -103 57 -148c0 -70 -17 -136 -71 -191c-48 -49 -98 -67 -171 -67c-55 0 -108 11 -150 54c-51 52 -66 138 -58 207h324c2 28 -7 61 -25 79c-14 15 -39 25 -69 25
c-22 0 -42 -4 -60 -15c-12 -8 -26 -20 -35 -39zM381 169h-209c2 -27 14 -56 32 -73c20 -19 43 -24 65 -24c20 0 51 3 77 27c4 4 28 28 35 70zM344 578c0 17 6 38 24 56c19 19 41 24 58 24c21 0 36 -9 46 -20c9 -10 16 -24 16 -44c0 -22 -9 -40 -22 -54
c-17 -19 -38 -26 -59 -26c-19 0 -34 7 -44 17c-12 12 -19 30 -19 47zM136 578c0 17 6 38 24 56c19 19 41 24 58 24c21 0 36 -9 46 -20c9 -10 16 -24 16 -44c0 -22 -9 -40 -22 -54c-17 -19 -38 -26 -59 -26c-19 0 -34 7 -44 17c-12 12 -19 30 -19 47z" />
    <glyph glyph-name="uni04DC" unicode="&#x4dc;" horiz-adv-x="861" 
d="M450 667h124l-35 -282l241 282h148l-284 -312l220 -355h-144l-174 292l-20 -16l-34 -276h-124l35 284l-13 15l-234 -299h-150l295 359l-217 308h144l187 -282zM560 800c0 22 8 44 23 59c15 16 38 24 57 24s35 -7 46 -18s18 -27 18 -45c0 -19 -7 -41 -24 -58
c-14 -14 -32 -23 -55 -23c-24 0 -40 10 -48 18c-10 10 -17 24 -17 43zM336 800c0 22 8 44 23 59c15 16 38 24 57 24s35 -7 46 -18s18 -27 18 -45c0 -19 -7 -41 -24 -58c-14 -14 -32 -23 -55 -23c-24 0 -40 10 -48 18c-10 10 -17 24 -17 43z" />
    <glyph glyph-name="uni04DD" unicode="&#x4dd;" horiz-adv-x="655" 
d="M323 433h110l-20 -168l146 168h142l-194 -200l142 -233h-136l-96 170l-18 -18l-19 -152h-110l19 152l-14 18l-135 -170h-142l202 236l-141 197h134l110 -168zM426 578c0 17 6 38 24 56c19 19 41 24 58 24c21 0 36 -9 46 -20c9 -10 16 -24 16 -44c0 -22 -9 -40 -22 -54
c-17 -19 -38 -26 -59 -26c-19 0 -34 7 -44 17c-12 12 -19 30 -19 47zM218 578c0 17 6 38 24 56c19 19 41 24 58 24c21 0 36 -9 46 -20c9 -10 16 -24 16 -44c0 -22 -9 -40 -22 -54c-17 -19 -38 -26 -59 -26c-19 0 -34 7 -44 17c-12 12 -19 30 -19 47z" />
    <glyph glyph-name="uni04DE" unicode="&#x4de;" horiz-adv-x="600" 
d="M219 515l-57 89c29 23 65 44 94 56c42 17 79 21 118 21c45 0 97 -4 140 -35c33 -23 62 -65 62 -125c0 -33 -9 -66 -28 -94c-14 -21 -38 -45 -73 -60c30 -10 55 -28 72 -49c23 -28 33 -59 33 -98c0 -74 -30 -127 -64 -162c-48 -49 -115 -73 -223 -73c-55 0 -105 9 -150 35
c-30 17 -64 46 -89 91l95 81c13 -32 34 -56 55 -71c22 -16 55 -28 101 -28c64 0 97 24 112 39c19 19 28 42 28 71c0 18 -3 48 -32 69s-81 22 -101 22h-62l14 112h60c31 0 69 9 88 22s34 38 34 66c0 21 -9 39 -21 51c-24 22 -64 23 -73 23c-26 0 -50 -5 -75 -16
c-24 -10 -42 -23 -58 -37zM430 800c0 22 8 44 23 59c15 16 38 24 57 24s35 -7 46 -18s18 -27 18 -45c0 -19 -7 -41 -24 -58c-14 -14 -32 -23 -55 -23c-24 0 -40 10 -48 18c-10 10 -17 24 -17 43zM206 800c0 22 8 44 23 59c15 16 38 24 57 24s35 -7 46 -18s18 -27 18 -45
c0 -19 -7 -41 -24 -58c-14 -14 -32 -23 -55 -23c-24 0 -40 10 -48 18c-10 10 -17 24 -17 43z" />
    <glyph glyph-name="uni04DF" unicode="&#x4df;" horiz-adv-x="439" 
d="M145 315l-53 78c21 15 48 30 69 38c27 10 65 16 94 16c39 0 82 -10 109 -27c34 -22 49 -55 49 -88c0 -24 -8 -44 -21 -62c-13 -19 -28 -30 -51 -37c17 -5 38 -15 52 -29c20 -20 25 -45 25 -66c0 -27 -6 -67 -42 -103c-31 -31 -73 -49 -154 -49c-68 0 -109 18 -117 22
c-4 2 -38 18 -72 53l69 74c16 -15 33 -27 51 -35s38 -14 62 -14c17 0 40 4 54 12c16 10 24 26 24 40c0 12 -7 23 -19 31c-13 8 -35 10 -51 10h-51l11 88h49c12 0 34 2 46 8c13 7 22 20 22 36c0 14 -7 23 -17 29c-17 10 -43 11 -46 11c-18 0 -35 -3 -50 -10
c-13 -6 -29 -15 -42 -26zM298 578c0 17 6 38 24 56c19 19 41 24 58 24c21 0 36 -9 46 -20c9 -10 16 -24 16 -44c0 -22 -9 -40 -22 -54c-17 -19 -38 -26 -59 -26c-19 0 -34 7 -44 17c-12 12 -19 30 -19 47zM90 578c0 17 6 38 24 56c19 19 41 24 58 24c21 0 36 -9 46 -20
c9 -10 16 -24 16 -44c0 -22 -9 -40 -22 -54c-17 -19 -38 -26 -59 -26c-19 0 -34 7 -44 17c-12 12 -19 30 -19 47z" />
    <glyph glyph-name="uni04E2" unicode="&#x4e2;" horiz-adv-x="736" 
d="M156 667h130l-54 -440l424 440h88l-82 -667h-130l54 443l-422 -443h-90zM292 745l11 86h366l-11 -86h-366z" />
    <glyph glyph-name="uni04E3" unicode="&#x4e3;" horiz-adv-x="560" 
d="M111 433h122l-33 -267l233 267h122l-53 -433h-122l33 267l-233 -267h-122zM166 539l10 80h364l-10 -80h-364z" />
    <glyph glyph-name="uni04E4" unicode="&#x4e4;" horiz-adv-x="736" 
d="M156 667h130l-54 -440l424 440h88l-82 -667h-130l54 443l-422 -443h-90zM520 800c0 22 8 44 23 59c15 16 38 24 57 24s35 -7 46 -18s18 -27 18 -45c0 -19 -7 -41 -24 -58c-14 -14 -32 -23 -55 -23c-24 0 -40 10 -48 18c-10 10 -17 24 -17 43zM296 800c0 22 8 44 23 59
c15 16 38 24 57 24s35 -7 46 -18s18 -27 18 -45c0 -19 -7 -41 -24 -58c-14 -14 -32 -23 -55 -23c-24 0 -40 10 -48 18c-10 10 -17 24 -17 43z" />
    <glyph glyph-name="uni04E5" unicode="&#x4e5;" horiz-adv-x="560" 
d="M111 433h122l-33 -267l233 267h122l-53 -433h-122l33 267l-233 -267h-122zM384 578c0 17 6 38 24 56c19 19 41 24 58 24c21 0 36 -9 46 -20c9 -10 16 -24 16 -44c0 -22 -9 -40 -22 -54c-17 -19 -38 -26 -59 -26c-19 0 -34 7 -44 17c-12 12 -19 30 -19 47zM176 578
c0 17 6 38 24 56c19 19 41 24 58 24c21 0 36 -9 46 -20c9 -10 16 -24 16 -44c0 -22 -9 -40 -22 -54c-17 -19 -38 -26 -59 -26c-19 0 -34 7 -44 17c-12 12 -19 30 -19 47z" />
    <glyph glyph-name="uni04E6" unicode="&#x4e6;" horiz-adv-x="806" 
d="M484 682c95 0 178 -35 231 -86c50 -48 88 -123 88 -222c0 -106 -40 -211 -107 -280c-53 -55 -143 -109 -278 -109c-131 0 -206 53 -245 93c-55 56 -88 137 -88 221c0 110 46 213 115 278c70 66 174 105 284 105zM425 103c67 0 124 27 164 66c48 47 79 120 79 195
c0 60 -22 109 -53 141c-29 30 -79 58 -152 58c-72 0 -128 -28 -166 -64c-51 -48 -77 -118 -77 -190c0 -71 27 -118 53 -145c36 -38 90 -61 152 -61zM530 800c0 22 8 44 23 59c15 16 38 24 57 24s35 -7 46 -18s18 -27 18 -45c0 -19 -7 -41 -24 -58c-14 -14 -32 -23 -55 -23
c-24 0 -40 10 -48 18c-10 10 -17 24 -17 43zM306 800c0 22 8 44 23 59c15 16 38 24 57 24s35 -7 46 -18s18 -27 18 -45c0 -19 -7 -41 -24 -58c-14 -14 -32 -23 -55 -23c-24 0 -40 10 -48 18c-10 10 -17 24 -17 43z" />
    <glyph glyph-name="uni04E7" unicode="&#x4e7;" horiz-adv-x="572" 
d="M336 447c85 0 138 -29 171 -62c28 -29 56 -76 56 -144c0 -55 -17 -124 -77 -182c-57 -54 -122 -73 -199 -73c-62 0 -120 13 -167 60c-32 31 -57 79 -57 147c0 71 31 138 75 181c35 34 97 73 198 73zM299 94c33 0 69 12 95 38c25 25 41 63 41 97c0 27 -11 60 -32 80
c-20 19 -50 30 -79 30c-34 0 -68 -13 -92 -35c-30 -28 -43 -69 -43 -103c0 -26 11 -57 30 -76c20 -20 52 -31 80 -31zM388 578c0 17 6 38 24 56c19 19 41 24 58 24c21 0 36 -9 46 -20c9 -10 16 -24 16 -44c0 -22 -9 -40 -22 -54c-17 -19 -38 -26 -59 -26c-19 0 -34 7 -44 17
c-12 12 -19 30 -19 47zM180 578c0 17 6 38 24 56c19 19 41 24 58 24c21 0 36 -9 46 -20c9 -10 16 -24 16 -44c0 -22 -9 -40 -22 -54c-17 -19 -38 -26 -59 -26c-19 0 -34 7 -44 17c-12 12 -19 30 -19 47z" />
    <glyph glyph-name="uni04E8" unicode="&#x4e8;" horiz-adv-x="806" 
d="M484 682c95 0 178 -35 231 -86c50 -48 88 -123 88 -222c0 -106 -40 -211 -107 -280c-53 -55 -143 -109 -278 -109c-115 0 -194 41 -245 93c-54 55 -88 137 -88 224c0 107 45 209 115 275s174 105 284 105zM658 289h-437c5 -73 44 -117 58 -131c42 -42 94 -55 146 -55
c64 0 113 18 158 59c46 41 66 88 75 127zM230 385h437c-5 51 -27 93 -52 120c-32 33 -79 58 -152 58c-62 0 -111 -17 -152 -52c-36 -30 -65 -75 -81 -126z" />
    <glyph glyph-name="uni04E9" unicode="&#x4e9;" horiz-adv-x="572" 
d="M337 447c84 0 137 -29 170 -62c28 -29 56 -76 56 -144c0 -55 -17 -124 -77 -182c-57 -54 -122 -73 -199 -73c-62 0 -120 13 -167 60c-32 31 -57 79 -57 147c0 71 31 138 75 181c34 34 97 73 199 73zM427 184h-236c1 -32 16 -59 33 -74c21 -18 51 -26 80 -26
c26 0 55 8 76 24s39 46 47 76zM202 262h228c-3 23 -15 46 -31 61c-18 17 -47 26 -77 26c-29 0 -54 -6 -77 -24c-18 -14 -34 -37 -43 -63z" />
    <glyph glyph-name="uni04EA" unicode="&#x4ea;" horiz-adv-x="806" 
d="M484 682c95 0 178 -35 231 -86c50 -48 88 -123 88 -222c0 -106 -40 -211 -107 -280c-53 -55 -143 -109 -278 -109c-115 0 -194 41 -245 93c-54 55 -88 137 -88 224c0 107 45 209 115 275s174 105 284 105zM658 289h-437c5 -73 44 -117 58 -131c42 -42 94 -55 146 -55
c64 0 113 18 158 59c46 41 66 88 75 127zM230 385h437c-5 51 -27 93 -52 120c-32 33 -79 58 -152 58c-62 0 -111 -17 -152 -52c-36 -30 -65 -75 -81 -126zM520 800c0 22 8 44 23 59c15 16 38 24 57 24s35 -7 46 -18s18 -27 18 -45c0 -19 -7 -41 -24 -58
c-14 -14 -32 -23 -55 -23c-24 0 -40 10 -48 18c-10 10 -17 24 -17 43zM296 800c0 22 8 44 23 59c15 16 38 24 57 24s35 -7 46 -18s18 -27 18 -45c0 -19 -7 -41 -24 -58c-14 -14 -32 -23 -55 -23c-24 0 -40 10 -48 18c-10 10 -17 24 -17 43z" />
    <glyph glyph-name="uni04EB" unicode="&#x4eb;" horiz-adv-x="572" 
d="M337 447c84 0 137 -29 170 -62c28 -29 56 -76 56 -144c0 -55 -17 -124 -77 -182c-57 -54 -122 -73 -199 -73c-62 0 -120 13 -167 60c-32 31 -57 79 -57 147c0 71 31 138 75 181c34 34 97 73 199 73zM427 184h-236c1 -32 16 -59 33 -74c21 -18 51 -26 80 -26
c26 0 55 8 76 24s39 46 47 76zM202 262h228c-3 23 -15 46 -31 61c-18 17 -47 26 -77 26c-29 0 -54 -6 -77 -24c-18 -14 -34 -37 -43 -63zM388 578c0 17 6 38 24 56c19 19 41 24 58 24c21 0 36 -9 46 -20c9 -10 16 -24 16 -44c0 -22 -9 -40 -22 -54c-17 -19 -38 -26 -59 -26
c-19 0 -34 7 -44 17c-12 12 -19 30 -19 47zM180 578c0 17 6 38 24 56c19 19 41 24 58 24c21 0 36 -9 46 -20c9 -10 16 -24 16 -44c0 -22 -9 -40 -22 -54c-17 -19 -38 -26 -59 -26c-19 0 -34 7 -44 17c-12 12 -19 30 -19 47z" />
    <glyph glyph-name="uni04EE" unicode="&#x4ee;" horiz-adv-x="606" 
d="M84 667h140l132 -327l180 327h150l-391 -667h-142l122 200zM207 745l11 86h366l-11 -86h-366z" />
    <glyph glyph-name="uni04EF" unicode="&#x4ef;" horiz-adv-x="538" 
d="M21 -229l195 294l-161 368h138l104 -246l150 246h142l-430 -662h-138zM150 539l10 80h364l-10 -80h-364z" />
    <glyph glyph-name="uni04F0" unicode="&#x4f0;" horiz-adv-x="606" 
d="M84 667h140l132 -327l180 327h150l-391 -667h-142l122 200zM440 800c0 22 8 44 23 59c15 16 38 24 57 24s35 -7 46 -18s18 -27 18 -45c0 -19 -7 -41 -24 -58c-14 -14 -32 -23 -55 -23c-24 0 -40 10 -48 18c-10 10 -17 24 -17 43zM216 800c0 22 8 44 23 59
c15 16 38 24 57 24s35 -7 46 -18s18 -27 18 -45c0 -19 -7 -41 -24 -58c-14 -14 -32 -23 -55 -23c-24 0 -40 10 -48 18c-10 10 -17 24 -17 43z" />
    <glyph glyph-name="uni04F1" unicode="&#x4f1;" horiz-adv-x="538" 
d="M21 -229l195 294l-161 368h138l104 -246l150 246h142l-430 -662h-138zM373 578c0 17 6 38 24 56c19 19 41 24 58 24c21 0 36 -9 46 -20c9 -10 16 -24 16 -44c0 -22 -9 -40 -22 -54c-17 -19 -38 -26 -59 -26c-19 0 -34 7 -44 17c-12 12 -19 30 -19 47zM165 578
c0 17 6 38 24 56c19 19 41 24 58 24c21 0 36 -9 46 -20c9 -10 16 -24 16 -44c0 -22 -9 -40 -22 -54c-17 -19 -38 -26 -59 -26c-19 0 -34 7 -44 17c-12 12 -19 30 -19 47z" />
    <glyph glyph-name="uni04F2" unicode="&#x4f2;" horiz-adv-x="606" 
d="M84 667h140l132 -327l180 327h150l-391 -667h-142l122 200zM341 921l83 -59l-161 -134l-51 40zM541 920l83 -58l-161 -134l-51 40z" />
    <glyph glyph-name="uni04F3" unicode="&#x4f3;" horiz-adv-x="538" 
d="M21 -229l195 294l-161 368h138l104 -246l150 246h142l-430 -662h-138zM269 690l75 -58l-149 -134l-45 40zM457 689l75 -57l-149 -134l-45 40z" />
    <glyph glyph-name="uni04F4" unicode="&#x4f4;" horiz-adv-x="622" 
d="M416 0l33 270c-40 -8 -75 -11 -112 -11c-53 0 -118 7 -166 40c-46 32 -64 75 -64 127c0 25 5 56 9 93l18 148h130l-17 -141c-3 -25 -7 -47 -7 -67c0 -33 11 -54 37 -69c16 -10 44 -19 95 -19c33 0 62 4 90 11l36 285h130l-82 -667h-130zM434 800c0 22 8 44 23 59
c15 16 38 24 57 24s35 -7 46 -18s18 -27 18 -45c0 -19 -7 -41 -24 -58c-14 -14 -32 -23 -55 -23c-24 0 -40 10 -48 18c-10 10 -17 24 -17 43zM210 800c0 22 8 44 23 59c15 16 38 24 57 24s35 -7 46 -18s18 -27 18 -45c0 -19 -7 -41 -24 -58c-14 -14 -32 -23 -55 -23
c-24 0 -40 10 -48 18c-10 10 -17 24 -17 43z" />
    <glyph glyph-name="uni04F5" unicode="&#x4f5;" horiz-adv-x="483" 
d="M303 0l18 153c-30 -11 -57 -15 -88 -15c-36 0 -85 5 -122 39c-25 23 -35 49 -35 81c0 14 2 28 5 54l15 121h120l-13 -105c-2 -12 -3 -23 -3 -33c0 -18 4 -33 22 -43c13 -8 35 -10 52 -10c13 0 34 2 59 11l23 180h122l-53 -433h-122zM330 578c0 17 6 38 24 56
c19 19 41 24 58 24c21 0 36 -9 46 -20c9 -10 16 -24 16 -44c0 -22 -9 -40 -22 -54c-17 -19 -38 -26 -59 -26c-19 0 -34 7 -44 17c-12 12 -19 30 -19 47zM122 578c0 17 6 38 24 56c19 19 41 24 58 24c21 0 36 -9 46 -20c9 -10 16 -24 16 -44c0 -22 -9 -40 -22 -54
c-17 -19 -38 -26 -59 -26c-19 0 -34 7 -44 17c-12 12 -19 30 -19 47z" />
    <glyph glyph-name="uni04F8" unicode="&#x4f8;" horiz-adv-x="800" 
d="M676 667h130l-82 -667h-130zM76 0l82 667h130l-32 -261h90c85 0 137 -28 166 -55c29 -28 50 -69 50 -128c0 -71 -27 -126 -62 -160c-59 -58 -135 -63 -197 -63h-98h-129zM242 294l-22 -182h76c50 0 76 9 92 19c25 16 40 44 40 75c0 38 -19 59 -34 69
c-21 14 -59 19 -86 19h-66zM542 800c0 22 8 44 23 59c15 16 38 24 57 24s35 -7 46 -18s18 -27 18 -45c0 -19 -7 -41 -24 -58c-14 -14 -32 -23 -55 -23c-24 0 -40 10 -48 18c-10 10 -17 24 -17 43zM318 800c0 22 8 44 23 59c15 16 38 24 57 24s35 -7 46 -18s18 -27 18 -45
c0 -19 -7 -41 -24 -58c-14 -14 -32 -23 -55 -23c-24 0 -40 10 -48 18c-10 10 -17 24 -17 43z" />
    <glyph glyph-name="uni04F9" unicode="&#x4f9;" horiz-adv-x="650" 
d="M523 433h122l-53 -433h-122zM112 433h121l-19 -154h78c23 0 80 -2 117 -37c28 -27 33 -62 33 -87c0 -55 -21 -91 -41 -110c-42 -41 -107 -45 -161 -45h-64h-118zM192 96h56c13 0 35 1 49 11c8 6 18 18 18 37c0 18 -9 27 -16 31c-10 6 -29 8 -40 8h-57zM429 578
c0 17 6 38 24 56c19 19 41 24 58 24c21 0 36 -9 46 -20c9 -10 16 -24 16 -44c0 -22 -9 -40 -22 -54c-17 -19 -38 -26 -59 -26c-19 0 -34 7 -44 17c-12 12 -19 30 -19 47zM221 578c0 17 6 38 24 56c19 19 41 24 58 24c21 0 36 -9 46 -20c9 -10 16 -24 16 -44
c0 -22 -9 -40 -22 -54c-17 -19 -38 -26 -59 -26c-19 0 -34 7 -44 17c-12 12 -19 30 -19 47z" />
    <glyph glyph-name="uni2010" unicode="&#x2010;" horiz-adv-x="360" 
d="M71 174l14 112h260l-14 -112h-260z" />
    <glyph glyph-name="uni2011" unicode="&#x2011;" horiz-adv-x="360" 
d="M71 174l14 112h260l-14 -112h-260z" />
    <glyph glyph-name="figuredash" unicode="&#x2012;" horiz-adv-x="640" 
d="M92 289l13 104h500l-13 -104h-500z" />
    <glyph glyph-name="endash" unicode="&#x2013;" horiz-adv-x="640" 
d="M92 178l13 104h500l-13 -104h-500z" />
    <glyph glyph-name="emdash" unicode="&#x2014;" horiz-adv-x="840" 
d="M92 178l13 104h700l-13 -104h-700z" />
    <glyph glyph-name="afii00208" unicode="&#x2015;" horiz-adv-x="840" 
d="M92 178l13 104h700l-13 -104h-700z" />
    <glyph glyph-name="quoteleft" unicode="&#x2018;" horiz-adv-x="304" 
d="M342 667l-139 -269l-110 13l173 265z" />
    <glyph glyph-name="quoteright" unicode="&#x2019;" horiz-adv-x="370" 
d="M92 411l139 269l111 -13l-174 -265z" />
    <glyph glyph-name="quotesinglbase" unicode="&#x201a;" horiz-adv-x="370" 
d="M26 -131l139 269l110 -13l-173 -265z" />
    <glyph glyph-name="quotedblleft" unicode="&#x201c;" horiz-adv-x="492" 
d="M530 667l-139 -269l-110 13l173 265zM342 667l-139 -269l-110 13l173 265z" />
    <glyph glyph-name="quotedblright" unicode="&#x201d;" horiz-adv-x="570" 
d="M92 411l139 269l111 -13l-174 -265zM280 411l139 269l111 -13l-174 -265z" />
    <glyph glyph-name="quotedblbase" unicode="&#x201e;" horiz-adv-x="570" 
d="M26 -131l139 269l110 -13l-173 -265zM214 -131l139 269l110 -13l-173 -265z" />
    <glyph glyph-name="dagger" unicode="&#x2020;" horiz-adv-x="569" 
d="M299 521l26 208h116l-26 -208h158l-13 -104h-158l-73 -597h-116l73 597h-158l13 104h158z" />
    <glyph glyph-name="daggerdbl" unicode="&#x2021;" horiz-adv-x="572" 
d="M302 521l26 208h116l-26 -208h158l-13 -104h-158l-29 -241h158l-13 -104h-158l-31 -252h-116l31 252h-158l13 104h158l29 241h-158l13 104h158z" />
    <glyph glyph-name="bullet" unicode="&#x2022;" horiz-adv-x="1000" 
d="M401 324c0 36 15 74 43 104c30 32 73 52 115 52c34 0 67 -15 88 -35c24 -23 36 -57 36 -89c0 -35 -15 -75 -46 -107c-37 -38 -78 -49 -112 -49c-39 0 -68 14 -89 36c-18 18 -35 47 -35 88z" />
    <glyph glyph-name="ellipsis" unicode="&#x2026;" horiz-adv-x="846" 
d="M71 54c0 23 10 47 26 63s38 26 63 26c22 0 39 -9 50 -20c16 -16 19 -36 19 -50c0 -26 -9 -47 -25 -62c-18 -18 -39 -24 -62 -24c-20 0 -37 5 -52 20c-14 14 -19 31 -19 47zM352 54c0 23 10 47 26 63s38 26 63 26c22 0 39 -9 50 -20c16 -16 19 -36 19 -50
c0 -26 -9 -47 -25 -62c-18 -18 -39 -24 -62 -24c-20 0 -37 5 -52 20c-14 14 -19 31 -19 47zM633 54c0 23 10 47 26 63s38 26 63 26c22 0 39 -9 50 -20c16 -16 19 -36 19 -50c0 -26 -9 -47 -25 -62c-18 -18 -39 -24 -62 -24c-20 0 -37 5 -52 20c-14 14 -19 31 -19 47z" />
    <glyph glyph-name="perthousand" unicode="&#x2030;" horiz-adv-x="1174" 
d="M269 675c61 0 98 -23 119 -43c18 -18 44 -52 44 -109c0 -43 -15 -84 -43 -114c-41 -44 -92 -50 -133 -50c-43 0 -87 8 -122 43c-26 26 -41 62 -41 104c0 43 17 88 47 119c28 29 69 50 129 50zM256 431c31 0 53 12 66 25c16 16 26 41 26 69c0 29 -11 47 -21 57
c-19 19 -45 21 -59 21c-24 0 -44 -5 -63 -24c-14 -14 -27 -35 -27 -69c0 -17 4 -40 22 -58c13 -13 32 -21 56 -21zM164 3l482 686l49 -30l-481 -687zM602 306c61 0 98 -23 119 -43c18 -18 44 -52 44 -109c0 -43 -15 -84 -43 -114c-41 -44 -92 -50 -133 -50
c-43 0 -87 8 -122 43c-26 26 -41 62 -41 104c0 43 17 88 47 119c28 29 69 50 129 50zM589 62c31 0 53 12 66 25c16 16 26 41 26 69c0 29 -11 47 -21 57c-19 19 -45 21 -59 21c-24 0 -44 -5 -63 -24c-14 -14 -27 -35 -27 -69c0 -17 4 -40 22 -58c13 -13 32 -21 56 -21z
M999 306c61 0 98 -23 119 -43c18 -18 44 -52 44 -109c0 -43 -15 -84 -43 -114c-41 -44 -92 -50 -133 -50c-43 0 -87 8 -122 43c-26 26 -41 62 -41 104c0 43 17 88 47 119c28 29 69 50 129 50zM986 62c31 0 53 12 66 25c16 16 26 41 26 69c0 29 -11 47 -21 57
c-19 19 -45 21 -59 21c-24 0 -44 -5 -63 -24c-14 -14 -27 -35 -27 -69c0 -17 4 -40 22 -58c13 -13 32 -21 56 -21z" />
    <glyph glyph-name="guilsinglleft" unicode="&#x2039;" horiz-adv-x="318" 
d="M173 217l102 -162l-76 -50l-132 214l184 214l64 -52z" />
    <glyph glyph-name="guilsinglright" unicode="&#x203a;" horiz-adv-x="318" 
d="M199 221l-102 162l76 50l132 -214l-184 -214l-64 52z" />
    <glyph glyph-name="fraction" unicode="&#x2044;" horiz-adv-x="231" 
d="M-100 3l482 686l49 -30l-481 -687z" />
    <glyph glyph-name="uni2080" unicode="&#x2080;" horiz-adv-x="380" 
d="M196 -9c-33 0 -70 4 -104 40c-27 29 -45 74 -45 132c0 76 30 156 75 200c35 34 75 46 117 46c31 0 64 -7 91 -32c30 -28 47 -74 47 -138c0 -70 -21 -154 -69 -204c-34 -35 -68 -44 -112 -44zM228 337c-15 0 -33 -5 -50 -23c-30 -31 -46 -96 -46 -149c0 -9 1 -64 27 -88
c9 -8 22 -14 36 -14c18 0 35 8 47 18c33 29 50 100 50 153c0 13 -1 63 -24 87c-6 6 -19 16 -40 16z" />
    <glyph glyph-name="uni2081" unicode="&#x2081;" horiz-adv-x="380" 
d="M166 0l40 328h-80l9 72h164l-49 -400h-84z" />
    <glyph glyph-name="uni2082" unicode="&#x2082;" horiz-adv-x="380" 
d="M24 0l163 162c35 35 50 49 60 62c18 23 25 44 25 61s-7 32 -17 40c-7 6 -20 12 -41 12c-18 0 -33 -4 -45 -18c-10 -11 -17 -27 -18 -44h-84c5 37 21 69 41 90c22 24 57 44 110 44c49 0 85 -18 106 -39c20 -20 32 -46 32 -80c0 -32 -10 -59 -28 -85
c-11 -16 -45 -52 -62 -68l-70 -65h136l-9 -72h-299z" />
    <glyph glyph-name="uni2083" unicode="&#x2083;" horiz-adv-x="380" 
d="M159 291h-78c5 28 19 60 41 82c31 31 70 36 101 36c35 0 72 -6 100 -36c17 -19 27 -42 27 -73c0 -21 -5 -43 -20 -61c-10 -12 -25 -23 -43 -28c13 -6 26 -15 35 -26c16 -20 19 -43 19 -60c0 -47 -19 -76 -35 -93c-34 -35 -82 -41 -117 -41s-78 7 -110 39
c-10 10 -36 40 -36 90h84c1 -14 7 -32 18 -42c12 -11 31 -15 47 -15c18 0 34 5 48 18c13 13 18 27 18 45c0 14 -4 31 -21 42c-9 6 -23 10 -47 10h-12l8 66h9c17 0 38 1 52 11c13 9 20 26 20 42c0 13 -5 26 -13 33c-9 9 -25 13 -39 13c-16 0 -28 -4 -39 -15
c-9 -9 -15 -24 -17 -37z" />
    <glyph glyph-name="uni2084" unicode="&#x2084;" horiz-adv-x="380" 
d="M353 407l-33 -268h47l-8 -68h-47l-9 -71h-80l9 71h-199l4 35l236 301h80zM145 139h95l18 149z" />
    <glyph glyph-name="uni2085" unicode="&#x2085;" horiz-adv-x="380" 
d="M355 400l-9 -72h-135l-20 -58c8 1 17 2 29 2c44 0 72 -16 89 -33c15 -15 33 -42 33 -87s-15 -87 -44 -116c-43 -44 -93 -45 -131 -45s-84 6 -130 51l35 72c25 -34 61 -51 99 -51c20 0 46 6 62 21s24 40 24 60c0 27 -14 42 -24 50c-6 4 -23 16 -58 16
c-27 0 -53 -7 -80 -26h-5l74 216h191z" />
    <glyph glyph-name="uni2086" unicode="&#x2086;" horiz-adv-x="380" 
d="M251 422l59 -47l-107 -119c7 2 22 6 40 6c28 0 60 -10 84 -32c26 -23 37 -54 37 -89c0 -46 -18 -83 -42 -107c-39 -39 -88 -43 -125 -43c-34 0 -72 4 -104 27c-29 21 -48 52 -48 101c0 30 8 56 21 79c4 7 15 25 41 56zM198 57c26 0 43 9 54 18s26 27 26 58
c0 18 -7 35 -17 45c-12 12 -32 19 -52 19c-24 0 -44 -9 -57 -22s-22 -33 -22 -57c0 -19 7 -33 16 -42c10 -10 28 -19 52 -19z" />
    <glyph glyph-name="uni2087" unicode="&#x2087;" horiz-adv-x="380" 
d="M55 26l218 302h-199l9 72h336l-293 -411z" />
    <glyph glyph-name="uni2088" unicode="&#x2088;" horiz-adv-x="380" 
d="M143 209c-10 4 -24 13 -35 31c-9 14 -13 30 -13 48c0 34 15 65 37 86c31 29 69 35 106 35c25 0 62 -4 89 -28c11 -10 33 -34 33 -79c0 -28 -9 -47 -19 -60c-11 -14 -29 -28 -50 -35c19 -7 32 -18 40 -28c14 -17 19 -37 19 -57c0 -40 -17 -76 -45 -99
c-17 -14 -51 -32 -112 -32c-42 0 -73 10 -94 25c-18 13 -41 38 -41 85c0 32 11 56 24 72c13 15 34 30 61 36zM231 343c-18 0 -32 -4 -44 -16s-16 -27 -16 -42c0 -9 2 -23 14 -33c9 -8 25 -13 38 -13c15 0 33 5 45 17c10 10 16 26 16 42c0 17 -9 28 -15 33
c-12 11 -29 12 -38 12zM210 173c-22 0 -37 -7 -48 -17c-15 -14 -18 -32 -18 -46c0 -12 2 -27 15 -39c7 -7 20 -14 41 -14c17 0 34 3 48 17c13 12 18 28 18 48c0 12 -3 25 -14 36c-12 13 -29 15 -42 15z" />
    <glyph glyph-name="uni2089" unicode="&#x2089;" horiz-adv-x="380" 
d="M176 -22l-60 47l105 116c-12 -2 -28 -4 -41 -4c-29 0 -59 11 -80 29c-26 22 -37 49 -37 83c0 51 18 91 45 117c39 37 89 43 124 43c37 0 82 -7 115 -40c24 -24 34 -53 34 -88c0 -23 -6 -53 -16 -75c-8 -17 -21 -36 -50 -69zM227 343c-21 0 -43 -8 -57 -22
c-13 -12 -22 -33 -22 -57c0 -23 9 -36 17 -44c16 -16 40 -17 52 -17c16 0 39 3 58 20c14 13 23 33 23 59c0 23 -11 36 -19 44c-13 12 -34 17 -52 17z" />
    <glyph glyph-name="Euro" unicode="&#x20ac;" 
d="M535 172l-18 -146c-30 -15 -89 -41 -189 -41c-73 0 -157 15 -215 87c-29 36 -49 85 -52 139h-75l47 90h30c0 22 3 43 8 63h-66l47 90h42c27 77 72 123 94 143c82 74 178 85 245 85c84 0 132 -21 169 -44l-64 -109c-11 8 -53 35 -126 35c-86 0 -149 -41 -179 -110h268
l-47 -90h-249c-5 -22 -8 -43 -8 -63h231l-47 -90h-176c10 -77 82 -108 152 -108c91 0 146 38 178 69z" />
    <glyph glyph-name="uni20B4" unicode="&#x20b4;" 
d="M206 515l-57 89c26 20 57 39 82 51c41 19 80 27 123 27c80 0 123 -27 145 -50c26 -27 38 -67 38 -103s-14 -60 -25 -75h63l-11 -90h-131l-95 -63h218l-11 -90h-287c-7 -10 -11 -21 -11 -35c0 -20 6 -37 22 -52c18 -17 38 -21 59 -21c26 0 48 6 72 21c28 18 48 41 54 48
l69 -88c-25 -27 -57 -52 -91 -69c-42 -21 -84 -30 -126 -30c-34 0 -88 5 -132 44c-38 34 -56 82 -56 127c0 19 3 37 11 55h-59l11 90h107l95 63h-194l11 90h281c20 16 24 37 24 51c0 18 -7 33 -18 44c-9 9 -27 23 -60 23c-27 0 -51 -9 -73 -21c-16 -9 -33 -22 -48 -36z" />
    <glyph glyph-name="uni20B6" unicode="&#x20b6;" 
d="M364 667c36 0 124 -3 179 -54c29 -27 54 -71 54 -142c0 -83 -32 -134 -62 -163c-53 -50 -128 -58 -183 -58h-89l-8 -66h184l-11 -90h-184l-12 -94h-130l12 94h-72l11 90h72l8 66h-72l13 109h72l38 308h180zM300 555l-24 -196h55c31 0 70 2 100 28c27 24 32 55 32 79
c0 20 -4 51 -36 71c-21 13 -56 18 -81 18h-46z" />
    <glyph glyph-name="uni20B7" unicode="&#x20b7;" 
d="M364 667c36 0 124 -3 179 -54c29 -27 54 -71 54 -142c0 -83 -32 -134 -62 -163c-53 -50 -128 -58 -183 -58h-89l-8 -66h184l-11 -90h-184l-12 -94h-130l12 94h-72l11 90h72l8 66h-72l13 109h72l38 308h180zM300 555l-24 -196h55c31 0 70 2 100 28c27 24 32 55 32 79
c0 20 -4 51 -36 71c-21 13 -56 18 -81 18h-46z" />
    <glyph glyph-name="uni20B8" unicode="&#x20b8;" 
d="M364 667c36 0 124 -3 179 -54c29 -27 54 -71 54 -142c0 -83 -32 -134 -62 -163c-53 -50 -128 -58 -183 -58h-89l-8 -66h184l-11 -90h-184l-12 -94h-130l12 94h-72l11 90h72l8 66h-72l13 109h72l38 308h180zM300 555l-24 -196h55c31 0 70 2 100 28c27 24 32 55 32 79
c0 20 -4 51 -36 71c-21 13 -56 18 -81 18h-46z" />
    <glyph glyph-name="uni20B9" unicode="&#x20b9;" 
d="M364 667c36 0 124 -3 179 -54c29 -27 54 -71 54 -142c0 -83 -32 -134 -62 -163c-53 -50 -128 -58 -183 -58h-89l-8 -66h184l-11 -90h-184l-12 -94h-130l12 94h-72l11 90h72l8 66h-72l13 109h72l38 308h180zM300 555l-24 -196h55c31 0 70 2 100 28c27 24 32 55 32 79
c0 20 -4 51 -36 71c-21 13 -56 18 -81 18h-46z" />
    <glyph glyph-name="uni20BA" unicode="&#x20ba;" 
d="M364 667c36 0 124 -3 179 -54c29 -27 54 -71 54 -142c0 -83 -32 -134 -62 -163c-53 -50 -128 -58 -183 -58h-89l-8 -66h184l-11 -90h-184l-12 -94h-130l12 94h-72l11 90h72l8 66h-72l13 109h72l38 308h180zM300 555l-24 -196h55c31 0 70 2 100 28c27 24 32 55 32 79
c0 20 -4 51 -36 71c-21 13 -56 18 -81 18h-46z" />
    <glyph glyph-name="uni20BB" unicode="&#x20bb;" 
d="M364 667c36 0 124 -3 179 -54c29 -27 54 -71 54 -142c0 -83 -32 -134 -62 -163c-53 -50 -128 -58 -183 -58h-89l-8 -66h184l-11 -90h-184l-12 -94h-130l12 94h-72l11 90h72l8 66h-72l13 109h72l38 308h180zM300 555l-24 -196h55c31 0 70 2 100 28c27 24 32 55 32 79
c0 20 -4 51 -36 71c-21 13 -56 18 -81 18h-46z" />
    </font>
</defs>
</svg>
