<?xml version="1.0" standalone="no"?>
<!DOCTYPE svg PUBLIC "-//W3C//DTD SVG 1.1//EN" "http://www.w3.org/Graphics/SVG/1.1/DTD/svg11.dtd" >
<svg xmlns="http://www.w3.org/2000/svg" width="100%" height="100%">
<metadata>
Created by FontXChange 20110222 at Wed Feb 11 01:10:05 2015
 By Arturs Cirsis
Futura was designed for Bauer company in 1927 by Paul Renner. This is a sans serif face based on geometrical shapes, representative of the aesthetics of the Bauhaus school of the 1920s-30s. Issued by the Bauer Foundry in a wide range of weights and widths, Futura became a very popular choice for text and display setting. Originally Cyrillic version of eight styles was developed at ParaType (ParaGraph) in 1995 by Vladimir Yefimov. Additional Cyrillic styles were developed for ParaType in 2007 by Isabella Chaeva. Simultaneously the old eight styles were partly revised to match the whole family. Now the new Futura is an uniform type system consisted of seven weights with corresponding obliques plus eight condensed styles. All these fonts are coordinated in letterforms, metrics, and weights to better working together.
</metadata>
<defs>
<font id="FuturaNewBold-Obl" horiz-adv-x="500" >
  <font-face 
    font-family="FuturaNewBold"
    font-weight="700"
    font-style="italic"
    font-stretch="normal"
    units-per-em="1000"
    panose-1="2 11 9 2 2 2 4 9 2 3"
    ascent="800"
    descent="-200"
    x-height="447"
    cap-height="667"
    bbox="-353 -260 1254 950"
    underline-thickness="50"
    underline-position="-50"
    slope="-12"
    stemh="147"
    stemv="170"
    unicode-range="U+0020-FB02"
  />
<missing-glyph horiz-adv-x="233" 
 />
    <glyph glyph-name="uniF460" unicode="&#x410;`" horiz-adv-x="695" 
d="M462 112h-238l-51 -112h-188l331 667h190l161 -667h-177zM353 393l-67 -149h144l-28 127c-11 51 -12 57 -15 77c-1 5 -3 13 -4 24c-11 -35 -20 -56 -30 -79zM405 898h165l-132 -171h-113z" />
    <glyph glyph-name="uniF461" unicode="&#x415;`" horiz-adv-x="483" 
d="M124 667h365l-18 -147h-196l-14 -111h190l-18 -146h-190l-14 -116h204l-18 -147h-373zM299 898h165l-132 -171h-113z" />
    <glyph glyph-name="uniF462" unicode="&#x418;`" horiz-adv-x="731" 
d="M124 667h169l-51 -412l309 412h164l-82 -667h-169l51 412l-311 -412h-162zM423 898h165l-132 -171h-113z" />
    <glyph glyph-name="uniF463" unicode="&#x41e;`" horiz-adv-x="805" 
d="M429 680c139 0 219 -59 257 -96c62 -61 92 -137 92 -230c0 -150 -70 -235 -100 -266c-48 -49 -129 -101 -262 -101c-120 0 -214 42 -274 103c-54 55 -90 136 -90 234c0 102 38 188 95 247c64 66 162 109 282 109zM422 520c-54 0 -107 -20 -141 -54
c-32 -32 -56 -83 -56 -136c0 -47 17 -95 45 -126c27 -30 75 -57 142 -57c65 0 110 21 140 53c29 30 52 78 52 138s-20 100 -46 127c-33 34 -84 55 -136 55zM460 898h165l-132 -171h-113z" />
    <glyph glyph-name="uniF464" unicode="&#x423;`" horiz-adv-x="642" 
d="M45 667h182l126 -299l147 299h195l-382 -667h-183l118 200zM379 898h165l-132 -171h-113z" />
    <glyph glyph-name="uniF465" unicode="&#x42b;`" horiz-adv-x="861" 
d="M594 0l82 667h169l-82 -667h-169zM42 0l82 667h169l-32 -262h87c65 0 127 -12 169 -54c40 -40 48 -88 48 -125c0 -82 -31 -131 -58 -158c-58 -58 -148 -68 -234 -68h-231zM228 133h57c29 0 65 3 83 15c14 10 28 31 28 66c0 24 -8 36 -14 42c-12 12 -36 16 -77 16h-60z
M488 898h165l-132 -171h-113z" />
    <glyph glyph-name="uniF466" unicode="&#x42d;`" horiz-adv-x="625" 
d="M16 52l20 166c20 -18 50 -40 77 -53c34 -16 70 -22 107 -22s79 6 117 30c44 28 60 67 67 92h-253l18 142h246c-9 31 -27 63 -65 87s-79 28 -111 28c-36 0 -66 -5 -102 -20c-34 -15 -60 -34 -72 -43l22 173c66 36 133 48 187 48c91 0 175 -30 233 -87
c45 -44 91 -118 91 -237c0 -127 -49 -215 -103 -270c-74 -76 -160 -99 -256 -99c-71 0 -144 14 -223 65zM370 898h165l-132 -171h-113z" />
    <glyph glyph-name="uniF467" unicode="&#x42e;`" horiz-adv-x="1095" 
d="M263 424h98c29 109 96 167 134 193c56 38 132 63 222 63c121 0 205 -44 259 -96c62 -61 92 -137 92 -230c0 -150 -70 -235 -100 -266c-48 -49 -130 -101 -260 -101c-83 0 -185 23 -253 81c-42 36 -94 105 -104 209h-106l-34 -277h-169l82 667h169zM711 520
c-53 0 -105 -20 -140 -54c-32 -32 -56 -83 -56 -136c0 -47 17 -95 45 -126c27 -30 75 -57 142 -57c65 0 110 21 140 53c29 30 52 78 52 138s-20 100 -46 127c-33 34 -84 55 -137 55zM605 898h165l-132 -171h-113z" />
    <glyph glyph-name="uniF468" unicode="&#x42f;`" horiz-adv-x="647" 
d="M14 0l218 255c-40 8 -69 29 -86 49c-16 18 -39 55 -39 117c0 68 25 130 69 174c63 63 133 72 203 72h252l-82 -667h-169l28 227h-17l-171 -227h-206zM424 361l22 172h-50c-23 0 -58 -3 -82 -25c-18 -17 -28 -46 -28 -73c0 -35 18 -52 27 -59c6 -4 24 -15 68 -15h43z
M381 898h165l-132 -171h-113z" />
    <glyph glyph-name="uniF469" unicode="&#x401;`" horiz-adv-x="483" 
d="M124 667h365l-18 -147h-196l-14 -111h190l-18 -146h-190l-14 -116h204l-18 -147h-373zM308 915l88 -42l-119 -152l-65 22zM160 887c37 0 65 -28 65 -64s-28 -65 -64 -65c-37 0 -66 29 -66 65s29 64 65 64zM465 887c35 0 65 -29 65 -64c0 -36 -29 -65 -64 -65
c-37 0 -67 29 -67 65s30 64 66 64z" />
    <glyph glyph-name="uniF46A" unicode="&#x430;`" horiz-adv-x="612" 
d="M414 447h165l-55 -447h-165l12 49c-51 -46 -90 -62 -152 -62c-113 0 -186 82 -186 211c0 151 100 262 235 262c63 0 97 -15 145 -64zM291 116c60 0 104 51 104 121c0 57 -34 93 -88 93c-60 0 -106 -52 -106 -120c0 -57 35 -94 90 -94zM364 698h165l-132 -171h-113z" />
    <glyph glyph-name="uniF46B" unicode="&#x435;`" horiz-adv-x="561" 
d="M525 190h-334c0 -16 0 -55 23 -76c8 -8 24 -17 51 -17c14 0 29 3 42 12s19 20 22 30h180c-11 -33 -29 -61 -49 -81c-57 -59 -141 -71 -194 -71c-94 0 -146 36 -171 59c-29 28 -61 78 -61 158c0 86 35 148 73 185c39 38 100 71 191 71c84 0 137 -30 169 -62
c46 -46 60 -112 60 -170c0 -13 -1 -26 -2 -38zM202 283h156c-1 21 -10 41 -23 53c-12 11 -30 18 -52 18c-23 0 -44 -9 -57 -22s-21 -33 -24 -49zM338 698h165l-132 -171h-113z" />
    <glyph glyph-name="uniF46C" unicode="&#x438;`" horiz-adv-x="598" 
d="M87 447h165l-29 -230l197 230h144l-55 -447h-165l29 236l-195 -236h-146zM357 698h165l-132 -171h-113z" />
    <glyph glyph-name="uniF46D" unicode="&#x43e;`" horiz-adv-x="603" 
d="M308 460c99 0 162 -35 197 -70c36 -35 62 -86 62 -159s-26 -128 -65 -168c-34 -35 -95 -76 -199 -76c-90 0 -161 31 -205 75c-32 32 -63 84 -63 160c0 65 23 119 67 162c33 32 96 76 206 76zM294 116c24 0 51 8 71 29c22 22 34 54 34 92c0 42 -17 62 -27 71
c-15 13 -39 22 -62 22c-18 0 -47 -4 -73 -31c-20 -21 -34 -52 -34 -89c0 -35 14 -56 25 -68c17 -17 43 -26 66 -26zM359 698h165l-132 -171h-113z" />
    <glyph glyph-name="uniF46E" unicode="&#x443;`" horiz-adv-x="588" 
d="M427 447h188l-418 -676h-185l160 264l-158 412h183l48 -121c18 -45 26 -73 37 -128c15 33 34 68 59 108zM358 698h165l-132 -171h-113z" />
    <glyph glyph-name="uniF46F" unicode="&#x44b;`" horiz-adv-x="766" 
d="M567 447h165l-55 -447h-165zM234 298h84c42 0 95 -2 134 -40c18 -17 38 -47 38 -96c0 -43 -16 -86 -43 -113c-33 -33 -89 -49 -136 -49h-279l54 447h166zM210 104h49c10 0 37 1 52 14c9 8 15 22 15 38c0 8 -2 22 -15 30c-4 3 -16 8 -55 8h-35zM441 698h165l-132 -171
h-113z" />
    <glyph glyph-name="uniF470" unicode="&#x44d;`" horiz-adv-x="493" 
d="M25 28l17 137c16 -15 39 -31 58 -39c29 -13 62 -15 78 -15c20 0 51 1 76 17c13 8 29 23 38 47h-171l12 100h165c-6 15 -18 36 -47 50c-19 9 -45 13 -67 13c-28 0 -52 -5 -76 -16c-23 -10 -39 -22 -50 -31l17 143c55 19 96 26 140 26c47 0 124 -8 181 -65
c23 -23 61 -72 61 -155c0 -70 -25 -140 -72 -186c-58 -56 -132 -67 -193 -67c-53 0 -104 9 -167 41zM304 698h165l-132 -171h-113z" />
    <glyph glyph-name="uniF471" unicode="&#x44e;`" horiz-adv-x="827" 
d="M233 296h50c19 61 56 97 81 116c53 40 115 48 168 48c100 0 161 -34 197 -70c36 -35 62 -86 62 -159s-26 -128 -65 -168c-60 -62 -137 -76 -199 -76c-87 0 -142 25 -175 50c-57 43 -73 96 -78 132h-56l-21 -169h-165l55 447h165zM518 116c24 0 51 8 71 29
c22 22 34 54 34 92c0 42 -17 62 -27 71c-15 13 -39 22 -62 22c-18 0 -47 -4 -73 -31c-20 -21 -34 -52 -34 -89c0 -35 14 -56 25 -68c17 -17 43 -26 66 -26zM471 698h165l-132 -171h-113z" />
    <glyph glyph-name="uniF472" unicode="&#x44f;`" horiz-adv-x="544" 
d="M10 0l143 160c-23 5 -47 17 -62 32c-26 26 -31 60 -31 85c0 52 20 95 47 121c47 46 119 49 175 49h228l-55 -447h-158l17 142h-11l-113 -142h-180zM326 240l13 103h-50c-12 0 -37 -1 -54 -18c-9 -9 -15 -23 -15 -38c0 -19 9 -31 17 -36c12 -8 37 -11 49 -11h40zM330 698
h165l-132 -171h-113z" />
    <glyph glyph-name="uniF473" unicode="&#x451;`" horiz-adv-x="561" 
d="M525 190h-334c-1 -16 0 -55 23 -76c8 -8 24 -17 51 -17c14 0 29 3 42 12s19 20 22 30h180c-11 -33 -29 -61 -49 -81c-57 -59 -141 -71 -194 -71c-94 0 -146 36 -171 59c-29 28 -61 78 -61 158c0 86 35 148 73 185c39 38 100 71 191 71c84 0 137 -30 169 -62
c56 -57 65 -144 58 -208zM202 283h156c-1 21 -10 41 -23 53c-12 11 -30 18 -52 18c-23 0 -44 -9 -57 -22s-21 -33 -24 -49zM293 703l92 -31l-109 -145l-73 20zM66 615c0 39 33 72 72 72s72 -33 72 -72s-33 -72 -72 -72s-72 33 -72 72zM383 615c0 39 33 72 72 72
s72 -33 72 -72s-33 -72 -72 -72s-72 33 -72 72z" />
    <glyph glyph-name="fi" unicode="fi" horiz-adv-x="581" 
d="M343 320h-101l-40 -320h-165l40 320h-56l15 127h56l7 55c7 54 23 118 71 168c58 60 135 70 197 70c39 0 118 -4 171 -56c44 -43 47 -93 47 -130c0 -17 -1 -31 -4 -47h-165c1 7 3 22 3 29c0 19 -7 37 -19 48s-31 18 -51 18c-21 0 -42 -7 -57 -23c-20 -20 -24 -49 -27 -69
l-8 -63h102zM409 447h163l-55 -447h-163z" />
    <glyph glyph-name="fl" unicode="fl" horiz-adv-x="582" 
d="M343 320h-101l-40 -320h-165l40 320h-56l15 127h56l7 55c5 37 18 114 70 168c37 39 98 70 194 70c77 0 135 -23 170 -56c44 -41 51 -92 51 -135s-6 -72 -9 -98l-56 -451h-165l60 480c4 30 5 40 5 55c0 13 -3 34 -19 49c-12 11 -31 18 -51 18c-21 0 -42 -7 -57 -23
c-20 -20 -24 -49 -27 -69l-8 -63h102z" />
    <glyph glyph-name=".notdef" horiz-adv-x="233" 
 />
    <glyph glyph-name="space" unicode=" " horiz-adv-x="233" 
 />
    <glyph glyph-name="exclam" unicode="!" horiz-adv-x="336" 
d="M154 188c57 0 99 -41 99 -98c0 -59 -43 -103 -101 -103c-59 0 -102 43 -102 102c0 58 43 99 104 99zM139 667h168l-55 -451h-169z" />
    <glyph glyph-name="quotedbl" unicode="&#x22;" horiz-adv-x="413" 
d="M237 667l-57 -268h-96l9 268h144zM425 667l-58 -268h-95l9 268h144z" />
    <glyph glyph-name="numbersign" unicode="#" horiz-adv-x="600" 
d="M484 299h101l-32 -117h-102l-51 -182h-134l52 182h-84l-52 -182h-132l52 182h-102l33 117h101l23 83h-100l32 116h101l48 169h131l-47 -169h84l48 169h133l-48 -169h100l-32 -116h-100zM350 299l24 83h-85l-23 -83h84z" />
    <glyph glyph-name="dollar" unicode="$" horiz-adv-x="600" 
d="M521 214c0 -114 -76 -197 -203 -219l-13 -107h-100l13 105c-59 8 -102 26 -172 70l75 126c59 -39 95 -53 138 -53c54 0 90 26 90 65c0 30 -15 44 -77 76c-80 41 -106 61 -128 95c-16 25 -25 59 -25 96c0 103 67 178 183 203l12 104h100l-12 -101c63 -9 90 -20 152 -58
l-73 -127c-45 34 -81 49 -117 49c-46 0 -73 -22 -73 -57c0 -33 17 -49 84 -79c108 -50 146 -99 146 -188z" />
    <glyph glyph-name="percent" unicode="%" horiz-adv-x="875" 
d="M646 667h88l-469 -667h-88zM649 -8c-41 0 -87 8 -124 44c-26 26 -45 64 -45 106c0 41 17 91 54 127c40 38 87 50 136 50c67 0 106 -22 129 -45c22 -21 41 -56 41 -102c0 -57 -23 -97 -49 -124c-37 -38 -84 -56 -142 -56zM667 231c-21 0 -41 -8 -55 -22
c-16 -15 -24 -37 -24 -60c0 -22 9 -39 19 -49c12 -12 30 -19 49 -19c18 0 39 8 53 22s23 35 23 60c0 23 -9 40 -19 50c-11 11 -29 18 -46 18zM247 586c-21 0 -41 -8 -55 -22c-16 -15 -24 -37 -24 -60c0 -22 9 -39 19 -49c12 -12 30 -19 49 -19c18 0 39 8 53 22s23 35 23 60
c0 23 -9 40 -19 50c-11 11 -29 18 -46 18zM229 347c-41 0 -87 8 -124 44c-26 26 -45 64 -45 106c0 41 17 91 54 127c40 38 87 50 136 50c67 0 106 -22 129 -45c22 -21 41 -56 41 -102c0 -57 -23 -97 -49 -124c-37 -38 -84 -56 -142 -56z" />
    <glyph glyph-name="ampersand" unicode="&#x26;" horiz-adv-x="720" 
d="M670 200c-24 -21 -49 -41 -77 -61l99 -139h-181l-39 56c-8 -7 -45 -39 -94 -57c-41 -15 -84 -18 -112 -18c-52 0 -110 7 -157 47c-19 16 -63 61 -63 143c0 42 11 79 41 117c31 38 74 68 154 91c-38 51 -57 85 -57 132c0 48 20 85 43 109c28 30 80 60 161 60
c82 0 129 -32 154 -59c26 -28 44 -69 44 -116c0 -39 -12 -74 -44 -105c-16 -15 -41 -34 -96 -58l75 -104c31 23 58 48 82 75zM376 432c20 6 45 20 58 34c14 15 19 31 19 46c0 20 -11 32 -14 35c-9 10 -26 17 -47 17c-19 0 -35 -7 -46 -18c-7 -7 -14 -18 -14 -34
c0 -19 8 -33 16 -44c11 -15 2 -2 28 -36zM395 165l-82 114c-24 -9 -53 -25 -73 -45c-17 -16 -26 -34 -26 -56c0 -19 8 -32 20 -42c10 -8 27 -16 54 -16c45 0 83 24 107 45z" />
    <glyph glyph-name="quotesingle" unicode="'" horiz-adv-x="225" 
d="M237 667l-57 -268h-96l9 268h144z" />
    <glyph glyph-name="parenleft" unicode="(" horiz-adv-x="377" 
d="M268 -134l-124 -54c-47 115 -76 234 -76 367c0 185 58 350 196 550l109 -65c-35 -51 -47 -72 -71 -123c-22 -45 -40 -92 -54 -139c-25 -82 -36 -155 -36 -231c0 -100 16 -201 43 -271c2 -8 7 -19 13 -34z" />
    <glyph glyph-name="parenright" unicode=")" horiz-adv-x="377" 
d="M123 676l125 53c37 -91 49 -129 62 -211c9 -51 13 -104 13 -147c0 -194 -58 -358 -196 -559l-109 66c105 153 161 327 161 502c0 102 -17 201 -56 296z" />
    <glyph glyph-name="asterisk" unicode="*" horiz-adv-x="593" 
d="M202 661l98 -44l4 112h110l-24 -112l109 44l22 -103l-114 -26l64 -85l-96 -64l-47 95l-70 -95l-80 64l84 84l-107 26z" />
    <glyph glyph-name="plus" unicode="+" 
d="M47 280v120h152v153h130v-153h151v-120h-151v-153h-130v153h-152z" />
    <glyph glyph-name="comma" unicode="," horiz-adv-x="307" 
d="M121 167h153l-182 -316h-122z" />
    <glyph glyph-name="hyphen" unicode="-" horiz-adv-x="353" 
d="M45 202l16 133h253l-16 -133h-253z" />
    <glyph glyph-name="period" unicode="." horiz-adv-x="307" 
d="M134 190c58 0 104 -44 104 -100c0 -58 -44 -103 -100 -103s-103 47 -103 102c0 56 45 101 99 101z" />
    <glyph glyph-name="slash" unicode="/" horiz-adv-x="729" 
d="M-60 -188l628 917h131l-629 -917h-130z" />
    <glyph glyph-name="zero" unicode="0" horiz-adv-x="600" 
d="M339 682c154 0 255 -107 262 -277c1 -6 1 -12 1 -18c0 -107 -31 -213 -84 -288c-56 -78 -126 -114 -223 -114c-167 0 -271 117 -271 305c0 230 130 392 315 392zM292 131c83 0 139 105 139 258c0 92 -33 146 -90 146c-83 0 -147 -105 -147 -243c0 -99 37 -161 98 -161z
" />
    <glyph glyph-name="one" unicode="1" horiz-adv-x="600" 
d="M185 667h264l-83 -667h-168l64 520h-95z" />
    <glyph glyph-name="two" unicode="2" horiz-adv-x="600" 
d="M323 147h206l-19 -147h-509c92 84 125 116 183 177c39 40 75 80 108 120c64 77 90 124 90 163c0 45 -31 75 -76 75c-58 0 -81 -33 -87 -110h-172c7 83 25 134 67 179c46 49 119 78 199 78c149 0 242 -84 242 -217c0 -58 -19 -114 -55 -158c-15 -19 -33 -38 -54 -58
c-38 -36 -61 -55 -123 -102z" />
    <glyph glyph-name="three" unicode="3" horiz-adv-x="600" 
d="M285 -15c-169 0 -264 86 -266 242h174v-14c0 -54 34 -86 92 -86c57 0 93 32 93 82c0 47 -34 77 -87 77c-4 0 -11 0 -21 -1l16 126c15 -2 23 -3 30 -3c47 0 79 29 79 72c0 38 -29 65 -70 65c-45 0 -68 -23 -76 -81h-173c10 70 39 133 82 168c42 34 94 50 165 50
c148 0 238 -73 238 -194c0 -68 -24 -108 -87 -142c55 -30 77 -70 77 -138c0 -132 -108 -223 -266 -223z" />
    <glyph glyph-name="four" unicode="4" horiz-adv-x="600" 
d="M549 125h-67l-16 -125h-154l15 125h-316l9 135l327 407h201l-50 -408h67zM184 259h160l12 99c6 52 16 111 26 160c-20 -30 -46 -66 -60 -84z" />
    <glyph glyph-name="five" unicode="5" horiz-adv-x="600" 
d="M196 667h360l-18 -147h-234l-27 -82c26 3 37 3 52 3c141 0 223 -74 223 -200c0 -148 -125 -256 -298 -256c-65 0 -117 10 -174 34c-22 9 -34 16 -77 38l48 153c42 -36 72 -52 120 -67c26 -7 56 -12 78 -12c77 0 130 43 130 105c0 64 -51 99 -142 99
c-53 0 -91 -8 -158 -32z" />
    <glyph glyph-name="six" unicode="6" horiz-adv-x="600" 
d="M539 667l-209 -234c21 3 31 4 45 4c123 0 207 -85 207 -209c0 -142 -117 -243 -282 -243c-156 0 -269 96 -269 227c0 27 5 56 15 81c21 54 48 95 115 170l179 204h199zM409 224v4c-2 55 -43 92 -102 92c-63 0 -109 -43 -109 -101c0 -56 45 -98 105 -98
c62 0 106 43 106 103z" />
    <glyph glyph-name="seven" unicode="7" horiz-adv-x="600" 
d="M118 667h512l-369 -667h-185l204 367c24 44 63 109 92 153h-272z" />
    <glyph glyph-name="eight" unicode="8" horiz-adv-x="600" 
d="M560 506c0 -75 -33 -114 -124 -146c68 -25 97 -50 116 -96c10 -24 14 -49 14 -75c0 -124 -103 -204 -262 -204c-164 0 -266 75 -266 198c0 56 23 106 63 137c23 18 41 26 89 40c-60 34 -86 76 -86 138c0 106 100 184 236 184c137 0 220 -67 220 -176zM331 432
c41 0 72 29 72 68c0 40 -28 66 -69 66c-42 0 -74 -30 -74 -69c0 -38 30 -65 71 -65zM393 205v5c-4 41 -40 68 -90 68c-53 0 -92 -32 -92 -76s39 -76 92 -76c52 0 90 33 90 79z" />
    <glyph glyph-name="nine" unicode="9" horiz-adv-x="600" 
d="M88 0l211 234c-19 -4 -27 -6 -39 -6c-123 0 -215 92 -215 214c0 141 118 240 285 240c158 0 267 -93 267 -227c0 -71 -34 -143 -103 -221l-207 -234h-199zM430 451v6c-4 52 -45 88 -101 88c-62 0 -110 -45 -110 -103c0 -54 44 -95 103 -95c62 0 108 43 108 104z" />
    <glyph glyph-name="colon" unicode=":" horiz-adv-x="307" 
d="M134 190c58 0 104 -44 104 -100c0 -58 -44 -103 -100 -103s-103 46 -103 102s45 101 99 101zM167 460c58 0 104 -44 104 -100c0 -58 -44 -103 -100 -103s-102 46 -102 102s44 101 98 101z" />
    <glyph glyph-name="semicolon" unicode=";" horiz-adv-x="307" 
d="M184 460c58 0 104 -44 104 -100c0 -58 -44 -103 -100 -103s-103 47 -103 102c0 56 45 101 99 101zM115 167h153l-182 -316h-121z" />
    <glyph glyph-name="less" unicode="&#x3c;" 
d="M33 389l433 220v-128l-296 -147l295 -148l1 -128l-433 222v109z" />
    <glyph glyph-name="equal" unicode="=" 
d="M47 370v113h433v-113h-433zM47 197v113h433v-113h-433z" />
    <glyph glyph-name="greater" unicode="&#x3e;" 
d="M493 279l-433 -221v129l296 147l-295 147l-1 128l433 -221v-109z" />
    <glyph glyph-name="question" unicode="?" horiz-adv-x="548" 
d="M244 188c58 0 99 -41 99 -98c0 -59 -43 -103 -101 -103c-59 0 -102 43 -102 102c0 58 44 99 104 99zM350 267l-5 -37h-155l20 161c25 -2 33 -2 47 -2c76 0 123 33 123 86c0 41 -28 69 -71 69c-47 0 -70 -22 -75 -72h-157c11 85 29 124 74 160c41 33 91 48 154 48
c140 0 229 -79 229 -204c0 -113 -71 -194 -184 -209z" />
    <glyph glyph-name="at" unicode="@" horiz-adv-x="733" 
d="M493 454l12 37h88l-60 -189c-11 -35 -12 -41 -12 -52c0 -15 7 -23 19 -23c24 0 55 31 77 76c17 35 26 72 26 108c0 114 -82 187 -208 187c-165 0 -305 -140 -305 -306c0 -99 51 -181 131 -208c32 -11 65 -16 109 -16c61 0 119 9 184 30l10 -80c-61 -19 -134 -30 -206 -30
c-193 0 -315 116 -315 297c0 211 184 393 397 393c167 0 282 -105 282 -257c0 -92 -43 -182 -111 -235c-26 -20 -58 -32 -85 -32c-36 0 -66 23 -70 54c-32 -39 -82 -63 -133 -63c-71 0 -122 56 -122 134c0 58 29 123 77 169c38 36 79 54 123 54c41 0 77 -19 92 -48zM359 236
c47 0 98 53 98 113c0 37 -21 60 -54 60c-50 0 -100 -56 -100 -115c0 -35 23 -58 56 -58z" />
    <glyph glyph-name="A" unicode="A" horiz-adv-x="695" 
d="M462 112h-238l-51 -112h-188l331 667h190l161 -667h-177zM353 393l-67 -149h144l-28 127c-11 51 -12 57 -15 77c-1 5 -3 13 -4 24c-11 -35 -20 -56 -30 -79z" />
    <glyph glyph-name="B" unicode="B" horiz-adv-x="603" 
d="M42 0l82 667h213c86 0 126 -9 158 -34c34 -26 53 -71 53 -121c0 -38 -11 -76 -30 -104c-20 -29 -36 -42 -79 -61c42 -10 58 -17 79 -35c29 -25 45 -64 45 -111c0 -81 -50 -154 -127 -184c-33 -13 -66 -17 -129 -17h-265zM307 534h-31l-16 -132h24c74 0 104 22 104 74
c0 45 -18 58 -81 58zM295 277h-51l-17 -144h46c83 0 115 24 115 81c0 49 -20 63 -93 63z" />
    <glyph glyph-name="C" unicode="C" horiz-adv-x="607" 
d="M414 680c72 0 131 -16 202 -56l-20 -165c-49 41 -102 61 -163 61c-123 0 -210 -81 -210 -194c0 -107 76 -179 187 -179c52 0 101 13 153 42l-21 -170c-73 -26 -106 -32 -157 -32c-197 0 -335 137 -335 331c0 203 160 362 364 362z" />
    <glyph glyph-name="D" unicode="D" horiz-adv-x="694" 
d="M42 0l82 667h189c94 0 195 -16 267 -83c57 -53 84 -128 84 -225c0 -145 -53 -224 -112 -273c-101 -83 -222 -86 -290 -86h-220zM321 520h-46l-46 -373h51c87 0 133 35 150 51c37 34 60 90 60 153c0 59 -19 104 -48 131c-36 33 -84 38 -121 38z" />
    <glyph glyph-name="E" unicode="E" horiz-adv-x="483" 
d="M124 667h365l-18 -147h-196l-14 -111h190l-18 -146h-190l-14 -116h204l-18 -147h-373z" />
    <glyph glyph-name="F" unicode="F" horiz-adv-x="474" 
d="M124 667h380l-18 -147h-211l-14 -113h192l-18 -146h-192l-32 -261h-169z" />
    <glyph glyph-name="G" unicode="G" horiz-adv-x="752" 
d="M389 237l16 134h321c-2 -74 -11 -129 -33 -185c-47 -124 -166 -199 -311 -199c-196 0 -332 134 -332 328c0 211 154 365 365 365c85 0 156 -24 213 -72c42 -36 59 -59 86 -123l-147 -57c-33 73 -83 109 -156 109c-106 0 -187 -94 -187 -219c0 -108 73 -185 175 -185
c73 0 130 41 145 104h-155z" />
    <glyph glyph-name="H" unicode="H" horiz-adv-x="724" 
d="M539 667h169l-82 -667h-169l33 273h-245l-34 -273h-169l82 667h169l-30 -247h245z" />
    <glyph glyph-name="I" unicode="I" horiz-adv-x="309" 
d="M124 667h169l-82 -667h-169z" />
    <glyph glyph-name="J" unicode="J" horiz-adv-x="481" 
d="M296 667h169l-57 -459c-7 -58 -17 -117 -68 -168c-47 -47 -99 -53 -146 -53c-50 0 -92 8 -132 37c-28 20 -53 51 -69 82l125 97c3 -15 11 -34 21 -45c10 -12 24 -17 42 -17c12 0 25 3 37 16s19 34 25 79z" />
    <glyph glyph-name="K" unicode="K" horiz-adv-x="672" 
d="M124 667h169l-36 -292l220 292h194l-255 -340l228 -327h-203l-143 213c-18 27 -37 62 -50 88l-37 -301h-169z" />
    <glyph glyph-name="L" unicode="L" horiz-adv-x="472" 
d="M124 667h169l-64 -520h213l-19 -147h-381z" />
    <glyph glyph-name="M" unicode="M" horiz-adv-x="939" 
d="M675 667h175l21 -667h-169l-8 299v21c0 37 2 62 8 111c-16 -43 -29 -73 -47 -110l-164 -321h-89l-57 258c-14 63 -19 97 -28 184c-16 -82 -24 -114 -35 -153l-86 -289h-174l211 667h167l50 -225c13 -56 22 -111 30 -175c11 31 26 68 38 91z" />
    <glyph glyph-name="N" unicode="N" horiz-adv-x="798" 
d="M613 667h169l-82 -667h-185l-177 299c-29 47 -54 98 -82 165v-30c0 -50 -2 -85 -7 -126l-38 -308h-169l82 667h182l190 -322l29 -54l26 -51l13 -25c1 42 3 75 8 114z" />
    <glyph glyph-name="O" unicode="O" horiz-adv-x="805" 
d="M429 680c202 0 341 -124 349 -313v-13c0 -219 -146 -367 -362 -367c-217 0 -364 136 -364 337c0 209 156 356 377 356zM605 336c0 4 0 8 -1 12c-6 105 -77 172 -182 172c-114 0 -197 -80 -197 -190s75 -183 187 -183c114 0 193 77 193 189z" />
    <glyph glyph-name="P" unicode="P" horiz-adv-x="577" 
d="M42 0l82 667h223c76 0 144 -10 194 -59s56 -109 56 -153c0 -48 -7 -108 -52 -157c-46 -50 -126 -77 -232 -77h-75l-27 -221h-169zM323 527h-47l-20 -166h53c24 0 68 2 94 28c19 19 21 44 21 59c0 29 -9 47 -19 57c-22 23 -58 22 -82 22z" />
    <glyph glyph-name="Q" unicode="Q" horiz-adv-x="805" 
d="M727 153c-18 -31 -29 -44 -59 -74l78 -103l-149 -30l-45 62c-46 -15 -86 -21 -138 -21c-215 0 -362 137 -362 337c0 209 156 356 377 356c208 0 349 -132 349 -328c0 -70 -19 -144 -51 -199zM500 302l63 -90c29 37 42 74 42 123c0 111 -74 185 -183 185
c-114 0 -197 -80 -197 -190s75 -183 187 -183c13 0 21 0 39 3l-98 127z" />
    <glyph glyph-name="R" unicode="R" horiz-adv-x="620" 
d="M523 312c-24 -26 -42 -37 -88 -53l156 -259h-196l-152 265l-32 -265h-169l82 667h217c91 0 147 -18 185 -58c32 -34 51 -89 51 -149s-18 -110 -54 -148zM308 533h-32l-21 -171h30c81 0 118 30 118 93c0 58 -24 78 -95 78z" />
    <glyph glyph-name="S" unicode="S" horiz-adv-x="529" 
d="M335 680c68 0 129 -19 194 -61l-74 -128c-45 34 -81 49 -117 49c-46 0 -75 -22 -75 -58c0 -32 17 -48 85 -80c110 -52 148 -99 148 -187c0 -134 -106 -228 -255 -228c-80 0 -136 18 -225 73l76 128c60 -41 95 -55 141 -55c53 0 89 27 89 68c0 29 -15 45 -78 76
c-119 60 -154 103 -154 193c0 121 104 210 245 210z" />
    <glyph glyph-name="T" unicode="T" horiz-adv-x="465" 
d="M495 520h-140l-65 -520h-168l64 520h-143l18 147h452z" />
    <glyph glyph-name="U" unicode="U" horiz-adv-x="717" 
d="M532 667h169l-47 -386c-16 -128 -33 -179 -76 -220c-50 -48 -130 -74 -228 -74c-173 0 -278 85 -278 228c0 20 3 51 8 92l44 360h168l-44 -360c-2 -20 -3 -39 -3 -56c0 -70 36 -104 110 -104c42 0 75 11 95 33c21 24 28 47 36 107z" />
    <glyph glyph-name="V" unicode="V" horiz-adv-x="675" 
d="M539 667h190l-358 -667h-143l-174 667h180l76 -304c13 -51 16 -68 21 -122c11 35 22 61 38 91z" />
    <glyph glyph-name="W" unicode="W" horiz-adv-x="1006" 
d="M877 667h183l-287 -667h-190l-45 266c-10 57 -14 100 -15 173c-22 -75 -30 -98 -55 -159l-114 -280h-181l-119 667h170l42 -250c14 -81 18 -117 24 -219c16 59 22 76 28 92l26 64l126 313h160l49 -287c8 -41 13 -98 19 -182c15 51 22 73 33 99l20 50z" />
    <glyph glyph-name="X" unicode="X" horiz-adv-x="687" 
d="M724 667l-263 -326l206 -341h-194l-61 100c-19 32 -40 73 -62 126c-22 -38 -42 -67 -65 -96l-104 -130h-210l291 351l-191 316h196l44 -78c28 -50 39 -73 61 -123c34 53 48 74 67 97l81 104h204z" />
    <glyph glyph-name="Y" unicode="Y" horiz-adv-x="623" 
d="M676 667l-291 -375l-36 -292h-169l37 297l-170 370h187l46 -107c27 -64 29 -68 36 -90c2 -5 4 -13 7 -22c9 17 18 31 33 53l115 166h205z" />
    <glyph glyph-name="Z" unicode="Z" horiz-adv-x="631" 
d="M298 147h299l-18 -147h-577l362 520h-263l18 147h536z" />
    <glyph glyph-name="bracketleft" unicode="[" horiz-adv-x="382" 
d="M292 -188h-259l112 917h258l-11 -93h-120l-89 -731h120z" />
    <glyph glyph-name="backslash" unicode="\" horiz-adv-x="627" 
d="M76 729h127l400 -917h-127z" />
    <glyph glyph-name="bracketright" unicode="]" horiz-adv-x="384" 
d="M107 729h258l-113 -917h-259l12 93h120l90 731h-120z" />
    <glyph glyph-name="asciicircum" unicode="^" 
d="M263 563l-110 -233h-135l160 337h170l161 -337h-136z" />
    <glyph glyph-name="underscore" unicode="_" 
d="M-30 -178v132h500v-132h-500z" />
    <glyph glyph-name="grave" unicode="`" 
d="M232 527l-89 171h164l38 -171h-113z" />
    <glyph glyph-name="a" unicode="a" horiz-adv-x="612" 
d="M414 447h165l-55 -447h-165l12 49c-51 -46 -90 -62 -152 -62c-113 0 -186 82 -186 211c0 151 100 262 235 262c63 0 97 -15 145 -64zM291 116c60 0 104 51 104 121c0 57 -34 93 -88 93c-60 0 -106 -52 -106 -120c0 -57 35 -94 90 -94z" />
    <glyph glyph-name="b" unicode="b" horiz-adv-x="617" 
d="M122 729h165l-42 -338c53 50 96 69 153 69c109 0 185 -87 185 -214c0 -152 -96 -259 -230 -259c-68 0 -105 17 -154 73l-2 -60h-165zM310 116c61 0 105 51 105 121c0 57 -34 93 -88 93c-61 0 -106 -52 -106 -120c0 -57 35 -94 89 -94z" />
    <glyph glyph-name="c" unicode="c" horiz-adv-x="423" 
d="M282 460c49 0 92 -10 135 -31l-17 -139c-32 29 -56 40 -91 40c-62 0 -106 -49 -106 -117c0 -59 35 -96 92 -96c30 0 52 8 88 34l-17 -140c-57 -19 -80 -24 -118 -24c-125 0 -213 92 -213 222c0 145 104 251 247 251z" />
    <glyph glyph-name="d" unicode="d" horiz-adv-x="612" 
d="M448 729h165l-90 -729h-164l12 53c-53 -48 -96 -66 -157 -66c-109 0 -182 81 -182 203c0 153 99 270 227 270c62 0 102 -19 148 -71zM290 116c60 0 104 51 104 121c0 57 -34 93 -88 93c-61 0 -106 -52 -106 -120c0 -57 35 -94 90 -94z" />
    <glyph glyph-name="e" unicode="e" horiz-adv-x="561" 
d="M525 190h-334c0 -16 0 -55 23 -76c8 -8 24 -17 51 -17c14 0 29 3 42 12s19 20 22 30h180c-11 -33 -29 -61 -49 -81c-57 -59 -141 -71 -194 -71c-94 0 -146 36 -171 59c-29 28 -61 78 -61 158c0 86 35 148 73 185c39 38 100 71 191 71c84 0 137 -30 169 -62
c46 -46 60 -112 60 -170c0 -13 -1 -26 -2 -38zM202 283h156c-1 21 -10 41 -23 53c-12 11 -30 18 -52 18c-23 0 -44 -9 -57 -22s-21 -33 -24 -49z" />
    <glyph glyph-name="f" unicode="f" horiz-adv-x="359" 
d="M367 320h-112l-40 -320h-165l40 320h-69l15 127h70l13 107c14 121 83 187 192 187c37 0 66 -6 105 -22l-18 -140c-20 16 -34 22 -55 22c-38 0 -57 -23 -63 -75l-10 -79h112z" />
    <glyph glyph-name="g" unicode="g" horiz-adv-x="608" 
d="M411 447h164l-49 -392c-14 -120 -34 -179 -75 -221c-44 -43 -108 -63 -199 -63c-80 0 -136 17 -176 54c-38 34 -54 68 -65 125h157c6 -30 36 -51 84 -51c62 0 93 30 102 105l5 42c-48 -45 -79 -59 -131 -59c-121 0 -197 86 -197 222c0 147 93 251 225 251
c64 0 106 -21 152 -78zM289 117c58 0 96 47 96 119c0 58 -33 94 -87 94c-58 0 -99 -47 -99 -114c0 -60 36 -99 90 -99z" />
    <glyph glyph-name="h" unicode="h" horiz-adv-x="593" 
d="M122 729h165l-40 -322c56 39 94 53 147 53c94 0 145 -56 145 -158c0 -19 -2 -43 -6 -74l-28 -228h-165l22 179c6 45 7 56 7 73c0 48 -19 71 -60 71c-53 0 -76 -29 -86 -111l-26 -212h-165z" />
    <glyph glyph-name="i" unicode="i" horiz-adv-x="271" 
d="M87 447h165l-55 -447h-165zM95 633c0 50 40 90 90 90s90 -40 90 -90s-40 -90 -90 -90s-90 40 -90 90z" />
    <glyph glyph-name="j" unicode="j" horiz-adv-x="276" 
d="M85 447h165l-84 -676h-164zM95 633c0 50 40 90 90 90s90 -40 90 -90s-40 -90 -90 -90s-90 40 -90 90z" />
    <glyph glyph-name="k" unicode="k" horiz-adv-x="605" 
d="M122 729h165l-55 -442l143 160h208l-195 -204l209 -243h-201l-66 75c-39 45 -66 79 -107 135l-26 -210h-165z" />
    <glyph glyph-name="l" unicode="l" horiz-adv-x="285" 
d="M122 729h165l-90 -729h-165z" />
    <glyph glyph-name="m" unicode="m" horiz-adv-x="881" 
d="M87 447h165l-13 -60c49 54 90 73 150 73c66 0 101 -20 130 -77c51 56 100 77 166 77c90 0 145 -51 145 -130c0 -20 -1 -39 -8 -95l-30 -235h-164l27 218c2 17 4 39 4 47c0 36 -21 58 -55 58c-53 0 -75 -29 -85 -110l-26 -213h-165l29 233c2 16 3 28 3 38
c0 32 -20 52 -54 52c-48 0 -74 -35 -83 -110l-26 -213h-165z" />
    <glyph glyph-name="n" unicode="n" horiz-adv-x="593" 
d="M87 447h165l-14 -58c61 54 101 71 162 71c91 0 141 -48 141 -136c0 -19 -1 -42 -5 -73l-31 -251h-165l25 197c3 26 4 39 4 55c0 46 -22 71 -60 71c-53 0 -76 -32 -87 -121l-25 -202h-165z" />
    <glyph glyph-name="o" unicode="o" horiz-adv-x="603" 
d="M308 460c157 0 259 -90 259 -229c0 -144 -108 -244 -264 -244c-160 0 -268 94 -268 235c0 139 113 238 273 238zM294 116c61 0 105 51 105 121c0 57 -34 93 -89 93c-61 0 -107 -52 -107 -120c0 -57 36 -94 91 -94z" />
    <glyph glyph-name="p" unicode="p" horiz-adv-x="615" 
d="M85 447h165l-13 -57c58 52 99 70 157 70c113 0 184 -83 184 -216c0 -155 -85 -257 -213 -257c-68 0 -117 27 -161 89l-38 -305h-164zM305 116c61 0 105 51 105 121c0 57 -34 93 -88 93c-61 0 -106 -52 -106 -120c0 -57 35 -94 89 -94z" />
    <glyph glyph-name="q" unicode="q" horiz-adv-x="613" 
d="M415 447h165l-83 -676h-165l33 270c-49 -41 -82 -54 -136 -54c-117 0 -194 86 -194 217c0 153 91 256 227 256c63 0 102 -16 152 -63zM291 116c60 0 103 51 103 121c0 57 -33 93 -86 93c-60 0 -105 -52 -105 -120c0 -57 34 -94 88 -94z" />
    <glyph glyph-name="r" unicode="r" horiz-adv-x="407" 
d="M87 447h165l-13 -61c51 46 86 61 149 61c7 0 18 -1 32 -2l-18 -152c-26 14 -46 20 -75 20c-68 0 -95 -32 -107 -123l-23 -190h-165z" />
    <glyph glyph-name="s" unicode="s" horiz-adv-x="470" 
d="M273 462c55 0 105 -14 166 -46l-39 -113c-47 29 -74 38 -109 38c-37 0 -57 -9 -57 -27c0 -11 7 -17 26 -22l54 -14c82 -22 119 -61 119 -125c0 -102 -81 -166 -208 -166c-74 0 -129 18 -206 68l61 108c63 -40 94 -52 139 -52c39 0 61 11 61 31c0 12 -8 19 -25 24l-54 12
c-84 20 -120 60 -120 130c0 92 76 154 192 154z" />
    <glyph glyph-name="t" unicode="t" horiz-adv-x="333" 
d="M344 320h-88l-40 -320h-164l39 320h-70l15 127h71l17 147h165l-18 -147h88z" />
    <glyph glyph-name="u" unicode="u" horiz-adv-x="597" 
d="M399 447h164l-28 -236c-12 -93 -30 -139 -67 -170c-41 -35 -108 -54 -189 -54c-143 0 -224 63 -224 176c0 16 1 36 4 61l28 223h164l-26 -213c-3 -27 -5 -44 -5 -52c0 -38 24 -58 67 -58c52 0 75 25 83 90z" />
    <glyph glyph-name="v" unicode="v" horiz-adv-x="583" 
d="M427 447h183l-302 -447h-112l-174 447h171l51 -136c10 -26 18 -56 32 -111c24 48 43 82 65 116z" />
    <glyph glyph-name="w" unicode="w" horiz-adv-x="833" 
d="M683 447h177l-258 -447h-118l-44 160c-10 35 -15 59 -20 100c-13 -34 -28 -68 -41 -92l-91 -168h-121l-145 447h167l45 -139c10 -32 18 -62 25 -103c15 40 19 50 44 96l79 146h110l43 -135c13 -41 19 -65 25 -97c12 31 21 52 36 78z" />
    <glyph glyph-name="x" unicode="x" horiz-adv-x="625" 
d="M630 447l-213 -215l179 -232h-204l-43 60c-21 30 -30 44 -44 69c-22 -28 -41 -51 -64 -74l-52 -55h-210l230 236l-162 211h206l33 -52c19 -30 25 -41 35 -63c18 28 23 34 31 43l17 20l46 52h215z" />
    <glyph glyph-name="y" unicode="y" horiz-adv-x="588" 
d="M427 447h188l-418 -676h-185l160 264l-158 412h183l48 -121c18 -45 26 -73 37 -128c15 33 34 68 59 108z" />
    <glyph glyph-name="z" unicode="z" horiz-adv-x="559" 
d="M293 127h216l-21 -127h-496l276 320h-195l21 127h472z" />
    <glyph glyph-name="braceleft" unicode="{" horiz-adv-x="503" 
d="M321 395c-8 -68 -23 -93 -75 -126c35 -26 46 -47 46 -91c0 -11 -1 -25 -2 -36l-21 -157c-1 -8 -1 -14 -1 -20c0 -26 12 -37 57 -37c17 0 37 1 37 1l-14 -115s-53 -2 -66 -2c-106 0 -148 26 -148 110c0 10 0 21 2 34l23 177c1 8 2 19 2 28c0 34 -14 51 -46 58l13 110
c32 6 51 21 57 45l6 23l23 187c13 104 60 145 170 145c4 0 44 -1 77 -3l-14 -114c-86 0 -99 -3 -106 -57z" />
    <glyph glyph-name="bar" unicode="|" 
d="M188 -250v1000h130v-1000h-130z" />
    <glyph glyph-name="braceright" unicode="}" horiz-adv-x="501" 
d="M206 143c8 68 23 93 75 127c-36 25 -46 46 -46 91c0 11 1 25 2 35l20 159c1 8 2 15 2 21c0 33 -20 36 -94 36l14 114c54 2 34 3 77 3c98 0 137 -32 137 -110c0 -10 0 -22 -2 -35l-23 -178c-1 -8 -2 -20 -2 -28c0 -35 14 -52 46 -58l-13 -110c-32 -7 -51 -22 -57 -46
l-8 -30l-20 -178c-12 -110 -51 -144 -169 -144c-18 0 -77 2 -77 2l14 115c10 -1 15 -1 21 -1c65 0 79 9 85 57z" />
    <glyph glyph-name="asciitilde" unicode="~" 
d="M158 256c-34 0 -48 -12 -73 -61l-71 47l7 17c38 93 76 122 144 122c24 0 53 -7 104 -26c59 -22 65 -23 86 -23c33 0 48 11 72 51l73 -43c-34 -73 -54 -97 -94 -118c-21 -10 -42 -16 -65 -16c-21 0 -40 6 -102 28c-55 19 -65 22 -81 22z" />
    <glyph glyph-name="uni00A0" unicode="&#xa0;" horiz-adv-x="233" 
 />
    <glyph glyph-name="exclamdown" unicode="&#xa1;" horiz-adv-x="336" 
d="M190 254c-58 0 -99 41 -99 98c0 59 43 104 101 104c59 0 102 -44 102 -103c0 -58 -44 -99 -104 -99zM205 -230h-168l54 440h168z" />
    <glyph glyph-name="cent" unicode="&#xa2;" horiz-adv-x="600" 
d="M448 125c-38 -15 -66 -22 -100 -24l-11 -91h-94l12 104c-86 28 -143 113 -143 211c0 129 78 229 208 250l9 85h94l-10 -84c41 -7 53 -11 87 -28l-17 -141c-33 26 -58 35 -92 35c-63 0 -109 -47 -109 -113c0 -54 38 -92 91 -92c32 0 58 8 92 29z" />
    <glyph glyph-name="sterling" unicode="&#xa3;" horiz-adv-x="600" 
d="M164 252h-125l12 96h72c-7 25 -12 51 -12 79c0 55 16 120 67 174c53 56 121 78 198 78c47 0 113 -9 163 -62c40 -42 51 -94 51 -139c0 -18 -1 -35 -4 -50h-165c1 6 2 17 2 31c0 21 -3 47 -17 63c-10 12 -27 21 -48 21c-23 0 -47 -11 -62 -34s-20 -58 -20 -84
c0 -35 9 -64 14 -77h153l-12 -96h-125c0 -36 -1 -68 -17 -105l45 -14c33 -10 53 -20 74 -20c32 0 46 21 49 44h108c-4 -43 -22 -99 -53 -130c-34 -34 -77 -41 -112 -41c-42 0 -68 9 -101 20l-35 12c-28 10 -51 17 -83 17c-15 0 -43 -3 -53 -35h-115c7 37 24 75 45 100
c19 23 51 49 100 57c9 23 12 42 12 58c0 17 -3 29 -6 37z" />
    <glyph glyph-name="currency" unicode="&#xa4;" horiz-adv-x="667" 
d="M109 67l-70 70l103 103c-30 44 -44 89 -44 138c0 50 13 91 44 137l-104 104l71 71l104 -104c47 31 88 44 140 44c50 0 90 -13 137 -43l103 102l70 -70l-102 -102c33 -52 45 -90 45 -140c0 -49 -12 -89 -43 -136l103 -103l-70 -71l-103 103c-46 -31 -91 -45 -142 -45
c-49 0 -89 12 -140 44zM488 377c0 76 -61 137 -136 137s-136 -61 -136 -137c0 -75 61 -136 136 -136s136 61 136 136z" />
    <glyph glyph-name="yen" unicode="&#xa5;" horiz-adv-x="600" 
d="M226 329h-163l13 105h100l-112 233h197l76 -192l120 192h200l-176 -233h105l-13 -105h-171l-7 -9l-6 -53h177l-13 -104h-177l-20 -163h-164l20 163h-169l13 104h169l6 53z" />
    <glyph glyph-name="brokenbar" unicode="&#xa6;" 
d="M188 339v411h130v-411h-130zM188 -250v411h130v-411h-130z" />
    <glyph glyph-name="section" unicode="&#xa7;" horiz-adv-x="574" 
d="M523 542h-136c0 20 -1 48 -15 61c-8 8 -22 13 -38 13c-19 0 -35 -5 -47 -17c-15 -14 -18 -30 -18 -43c0 -18 9 -30 21 -41c8 -7 22 -16 70 -38l37 -17c25 -11 59 -28 84 -59c18 -23 33 -56 33 -104c0 -79 -50 -142 -125 -174c31 -19 44 -44 47 -50c10 -20 14 -43 14 -64
c0 -50 -11 -98 -49 -138c-25 -26 -72 -59 -154 -59c-70 0 -112 26 -137 52c-46 48 -49 110 -49 144h136c0 -21 0 -45 15 -62c13 -15 30 -18 43 -18c18 0 33 5 46 18c16 16 17 36 17 48c0 25 -10 40 -28 54s-41 22 -86 42c-36 16 -70 32 -96 63c-28 33 -36 67 -36 106
c0 52 17 89 39 116c19 23 48 44 80 56c-54 39 -58 97 -58 116c0 50 21 99 60 133c26 22 72 49 149 49c78 0 120 -27 140 -47c35 -33 43 -77 43 -110c0 -12 -1 -22 -2 -30zM364 279c0 18 -5 34 -15 46c-12 14 -30 23 -52 23c-23 0 -42 -10 -55 -23c-14 -15 -23 -37 -23 -55
c0 -16 6 -35 18 -48c12 -12 32 -19 49 -19c20 0 40 7 53 19c15 13 25 34 25 57z" />
    <glyph glyph-name="dieresis" unicode="&#xa8;" 
d="M398 687c43 0 80 -37 80 -80c0 -45 -35 -80 -79 -80c-45 0 -82 36 -82 81c0 43 37 79 81 79zM196 687c45 0 80 -36 80 -80c0 -45 -35 -80 -79 -80c-46 0 -81 35 -81 81c0 44 35 79 80 79z" />
    <glyph glyph-name="copyright" unicode="&#xa9;" horiz-adv-x="760" 
d="M46 334c0 192 156 348 349 348c190 0 345 -157 345 -349s-155 -348 -346 -348c-192 0 -348 156 -348 349zM670 333c0 158 -124 286 -276 286c-154 0 -278 -127 -278 -285s125 -287 278 -287c152 0 276 129 276 286zM510 521l4 -1v-143l-11 14c-24 26 -53 40 -87 40
c-58 0 -99 -41 -99 -100c0 -57 41 -97 99 -97c32 0 60 12 87 38l11 11v-139l-4 -2l-12 -3c-36 -12 -59 -16 -86 -16c-123 0 -221 92 -221 208c0 118 97 211 220 211c32 0 60 -6 99 -21z" />
    <glyph glyph-name="ordfeminine" unicode="&#xaa;" horiz-adv-x="346" 
d="M286 632l3 26h94l-33 -265h-94l4 30c-28 -34 -65 -38 -82 -38c-39 0 -70 15 -90 37s-33 55 -33 90c0 41 16 81 48 112c34 32 73 43 108 43c22 0 53 -5 75 -35zM32 267l9 76h303l-9 -76h-303zM220 586c-16 0 -32 -5 -46 -18c-13 -13 -20 -30 -20 -47c0 -15 5 -28 14 -38
c10 -11 25 -18 43 -18s33 7 44 17c12 11 21 28 21 49c0 18 -7 31 -16 40c-11 11 -25 15 -40 15z" />
    <glyph glyph-name="guillemotleft" unicode="&#xab;" horiz-adv-x="544" 
d="M297 379l-127 -160l90 -152l-97 -57l-125 218l179 217zM507 379l-127 -160l90 -152l-97 -57l-125 210l179 225z" />
    <glyph glyph-name="logicalnot" unicode="&#xac;" 
d="M455 0h-130v150h-303v117h433v-267z" />
    <glyph glyph-name="uni00AD" unicode="&#xad;" horiz-adv-x="353" 
d="M45 202l16 133h253l-16 -133h-253z" />
    <glyph glyph-name="registered" unicode="&#xae;" horiz-adv-x="771" 
d="M46 334c0 193 159 348 353 348c195 0 352 -155 352 -348c-2 -192 -159 -349 -352 -349c-194 0 -353 158 -353 349zM681 334c0 159 -123 285 -282 285c-157 0 -283 -126 -283 -285s126 -287 283 -287c156 0 282 128 282 287zM465 304l-4 -2l119 -152h-149l-73 112v-112
h-117v379h158c81 0 134 -48 134 -122c0 -48 -27 -90 -68 -103zM358 441v-77h7c34 0 53 13 53 39c0 24 -19 38 -53 38h-7z" />
    <glyph glyph-name="macron" unicode="&#xaf;" 
d="M83 539l12 98h396l-12 -98h-396z" />
    <glyph glyph-name="degree" unicode="&#xb0;" horiz-adv-x="499" 
d="M286 363c-52 0 -89 23 -111 45c-21 21 -45 56 -45 108c0 30 8 70 45 106c32 31 71 45 108 45c43 0 83 -18 110 -44c26 -25 45 -63 45 -107c0 -30 -8 -71 -45 -108c-31 -31 -67 -45 -107 -45zM212 515c0 -39 30 -70 72 -70s72 31 72 70s-30 70 -72 70s-72 -31 -72 -70z
" />
    <glyph glyph-name="plusminus" unicode="&#xb1;" 
d="M38 357v120h151v153h130v-153h152v-120h-152v-154h-130v154h-151zM38 50v120h433v-120h-433z" />
    <glyph glyph-name="twosuperior" unicode="&#xb2;" horiz-adv-x="411" 
d="M258 365h122l-12 -93h-313c25 23 49 46 76 74c22 22 65 68 89 94c31 35 64 72 64 106c0 10 -3 23 -11 32c-6 7 -16 12 -28 12s-27 -5 -37 -20c-6 -10 -11 -26 -13 -39h-107c6 42 25 82 51 108c34 35 72 41 109 41c55 0 88 -18 109 -37c21 -20 39 -50 39 -89
c0 -36 -13 -66 -30 -91c-26 -39 -67 -72 -108 -98z" />
    <glyph glyph-name="threesuperior" unicode="&#xb3;" horiz-adv-x="402" 
d="M193 553h-104c6 37 24 72 48 94c33 30 71 33 106 33c29 0 72 -2 107 -31c24 -20 37 -47 37 -83c0 -25 -7 -42 -16 -55c-10 -14 -26 -26 -43 -32c12 -6 24 -15 33 -26c14 -17 19 -34 19 -55c0 -45 -19 -75 -39 -94c-38 -35 -86 -40 -122 -40c-39 0 -85 5 -121 41
c-8 8 -39 42 -43 100h108c0 -12 2 -27 14 -39c10 -10 23 -14 37 -14c18 0 29 7 35 13c9 9 15 24 15 38c0 19 -11 29 -15 32c-12 9 -28 10 -39 10h-5l10 73h8c13 0 27 0 39 10c10 8 13 17 13 27c0 12 -1 22 -10 30c-8 8 -18 9 -27 9c-11 0 -20 -1 -28 -9
c-9 -8 -15 -21 -17 -32z" />
    <glyph glyph-name="acute" unicode="&#xb4;" 
d="M308 698h165l-132 -171h-113z" />
    <glyph glyph-name="mu" unicode="&#xb5;" horiz-adv-x="593" 
d="M162 -230h-160l83 677h160l-26 -204c-2 -16 -3 -27 -3 -42c0 -27 5 -50 21 -66c8 -8 22 -17 44 -17c20 0 38 7 51 19c25 23 37 65 43 114l24 196h160l-55 -447h-160l7 56c-8 -16 -21 -33 -33 -44c-15 -13 -32 -20 -52 -20c-23 0 -38 9 -47 18c-11 10 -19 27 -23 41z" />
    <glyph glyph-name="paragraph" unicode="&#xb6;" horiz-adv-x="669" 
d="M290 -95h-114l51 413c-68 0 -108 25 -130 47c-34 34 -39 76 -39 105c0 63 24 105 51 133c49 51 117 64 204 64h336l-13 -106h-72l-81 -656h-114l81 656h-79z" />
    <glyph glyph-name="periodcentered" unicode="&#xb7;" horiz-adv-x="232" 
d="M128 457c66 0 118 -51 118 -115c0 -67 -50 -119 -115 -119c-63 0 -117 54 -117 118s51 116 114 116z" />
    <glyph glyph-name="cedilla" unicode="&#xb8;" 
d="M210 -46l106 -44l-136 -146l-84 40z" />
    <glyph glyph-name="onesuperior" unicode="&#xb9;" horiz-adv-x="263" 
d="M95 667h153l-50 -407h-100l39 323h-52z" />
    <glyph glyph-name="ordmasculine" unicode="&#xba;" horiz-adv-x="339" 
d="M212 667c35 0 81 -7 117 -45c25 -27 35 -58 35 -91c0 -47 -18 -80 -41 -102c-26 -25 -69 -45 -122 -45c-60 0 -98 25 -119 48c-20 22 -34 52 -34 92c0 43 18 74 39 96c22 22 60 47 125 47zM36 343h303l-8 -76h-303zM202 465c18 0 33 7 44 17c12 12 19 27 19 45
s-5 34 -15 44s-25 15 -40 15c-19 0 -33 -7 -44 -18c-12 -12 -19 -29 -19 -46c0 -16 6 -30 15 -40c11 -12 24 -17 40 -17z" />
    <glyph glyph-name="guillemotright" unicode="&#xbb;" horiz-adv-x="541" 
d="M41 78l133 154l-92 156l96 57l125 -217l-179 -218zM246 78l133 154l-92 156l96 57l125 -217l-179 -218z" />
    <glyph glyph-name="onequarter" unicode="&#xbc;" horiz-adv-x="750" 
d="M108 667h153l-50 -407h-100l39 323h-52zM551 667h90l-471 -667h-90zM485 153h84l19 154zM693 400l-30 -247h47l-10 -77h-47l-9 -76h-94l9 76h-186l8 63l181 261h131z" />
    <glyph glyph-name="onehalf" unicode="&#xbd;" horiz-adv-x="782" 
d="M108 667h153l-50 -407h-100l39 323h-52zM609 93h122l-12 -93h-313c25 23 49 46 76 74c22 22 65 68 89 94c31 35 64 72 64 106c0 10 -3 23 -11 32c-6 7 -16 12 -28 12s-27 -5 -37 -20c-6 -10 -11 -26 -13 -39h-107c6 42 25 82 51 108c34 35 72 41 109 41
c55 0 88 -18 109 -37c21 -20 39 -50 39 -89c0 -36 -13 -66 -30 -91c-26 -39 -67 -72 -108 -98zM551 667h90l-471 -667h-90z" />
    <glyph glyph-name="threequarters" unicode="&#xbe;" horiz-adv-x="840" 
d="M668 667h90l-471 -667h-90zM575 153h84l19 154zM783 400l-30 -247h47l-10 -77h-47l-9 -76h-94l9 76h-186l8 63l181 261h131zM198 553h-104c6 37 24 72 48 94c33 30 71 33 106 33c29 0 72 -2 107 -31c24 -20 37 -47 37 -83c0 -25 -7 -42 -16 -55c-10 -14 -26 -26 -43 -32
c12 -6 24 -15 33 -26c14 -17 19 -34 19 -55c0 -45 -19 -75 -39 -94c-38 -35 -86 -40 -122 -40c-39 0 -85 5 -121 41c-8 8 -39 42 -43 100h108c0 -12 2 -27 14 -39c10 -10 23 -14 37 -14c18 0 29 7 35 13c9 9 15 24 15 38c0 19 -11 29 -15 32c-12 9 -28 10 -39 10h-5l10 73h8
c13 0 27 0 39 10c10 8 13 17 13 27c0 12 -1 22 -10 30c-8 8 -18 9 -27 9c-11 0 -20 -1 -28 -9c-9 -8 -15 -21 -17 -32z" />
    <glyph glyph-name="questiondown" unicode="&#xbf;" horiz-adv-x="548" 
d="M311 254c-57 0 -99 41 -99 98c0 60 43 104 101 104c59 0 102 -44 102 -103c0 -58 -43 -99 -104 -99zM205 166l6 47h155l-21 -171c-25 2 -32 2 -47 2c-76 0 -123 -33 -123 -81c0 -41 29 -69 71 -69c47 0 70 22 75 72h158c-12 -84 -30 -124 -75 -160
c-41 -32 -90 -48 -154 -48c-139 0 -229 80 -229 204c0 108 72 189 184 204z" />
    <glyph glyph-name="Agrave" unicode="&#xc0;" horiz-adv-x="695" 
d="M462 112h-238l-51 -112h-188l331 667h190l161 -667h-177zM353 393l-67 -149h144l-28 127c-11 51 -12 57 -15 77c-1 5 -3 13 -4 24c-11 -35 -20 -56 -30 -79zM357 727l-89 171h164l38 -171h-113z" />
    <glyph glyph-name="Aacute" unicode="&#xc1;" horiz-adv-x="695" 
d="M462 112h-238l-51 -112h-188l331 667h190l161 -667h-177zM353 393l-67 -149h144l-28 127c-11 51 -12 57 -15 77c-1 5 -3 13 -4 24c-11 -35 -20 -56 -30 -79zM428 898h165l-132 -171h-113z" />
    <glyph glyph-name="Acircumflex" unicode="&#xc2;" horiz-adv-x="695" 
d="M462 112h-238l-51 -112h-188l331 667h190l161 -667h-177zM353 393l-67 -149h144l-28 127c-11 51 -12 57 -15 77c-1 5 -3 13 -4 24c-11 -35 -20 -56 -30 -79zM456 727l-37 86l-56 -86h-132l111 173h182l59 -173h-127z" />
    <glyph glyph-name="Atilde" unicode="&#xc3;" horiz-adv-x="695" 
d="M462 112h-238l-51 -112h-188l331 667h190l161 -667h-177zM353 393l-67 -149h144l-28 127c-11 51 -12 57 -15 77c-1 5 -3 13 -4 24c-11 -35 -20 -56 -30 -79zM540 873l79 -46c-11 -21 -31 -51 -52 -69c-28 -25 -57 -31 -77 -31s-48 8 -66 15l-36 14c-19 7 -34 15 -48 15
c-27 0 -42 -27 -47 -42l-78 46c11 25 30 52 48 68c22 19 51 30 85 30c24 0 48 -6 68 -14l29 -12c23 -9 38 -18 50 -18c22 0 36 20 45 44z" />
    <glyph glyph-name="Adieresis" unicode="&#xc4;" horiz-adv-x="695" 
d="M462 112h-238l-51 -112h-188l331 667h190l161 -667h-177zM353 393l-67 -149h144l-28 127c-11 51 -12 57 -15 77c-1 5 -3 13 -4 24c-11 -35 -20 -56 -30 -79zM518 887c43 0 80 -37 80 -80c0 -45 -35 -80 -79 -80c-45 0 -82 36 -82 81c0 43 37 79 81 79zM316 887
c45 0 80 -36 80 -80c0 -45 -35 -80 -79 -80c-46 0 -81 35 -81 81c0 44 35 79 80 79z" />
    <glyph glyph-name="Aring" unicode="&#xc5;" horiz-adv-x="695" 
d="M462 112h-238l-51 -112h-188l331 667h190l161 -667h-177zM353 393l-67 -149h144l-28 127c-11 51 -12 57 -15 77c-1 5 -3 13 -4 24c-11 -35 -20 -56 -30 -79zM412 727c-85 0 -135 36 -135 99c0 60 52 98 133 98c80 0 130 -38 130 -99c0 -60 -50 -98 -128 -98zM409 862
c-31 0 -50 -14 -50 -37c0 -22 19 -37 49 -37c32 0 51 14 51 37s-19 37 -50 37z" />
    <glyph glyph-name="AE" unicode="&#xc6;" horiz-adv-x="923" 
d="M311 667h417l37 -147h-212l31 -113h203l37 -147h-201l30 -113h206l36 -147h-373l-28 120h-274l-56 -120h-179zM360 421l-78 -168h182l-44 178c-9 37 -13 58 -18 93c-20 -52 -30 -77 -42 -103z" />
    <glyph glyph-name="Ccedilla" unicode="&#xc7;" horiz-adv-x="607" 
d="M414 680c72 0 131 -16 202 -56l-20 -165c-49 41 -102 61 -163 61c-123 0 -210 -81 -210 -194c0 -107 76 -179 187 -179c52 0 101 13 153 42l-21 -170c-73 -26 -106 -32 -157 -32c-197 0 -335 137 -335 331c0 203 160 362 364 362zM328 -46l112 -44l-136 -146l-92 40z" />
    <glyph glyph-name="Egrave" unicode="&#xc8;" horiz-adv-x="483" 
d="M124 667h365l-18 -147h-196l-14 -111h190l-18 -146h-190l-14 -116h204l-18 -147h-373zM267 727l-89 171h164l38 -171h-113z" />
    <glyph glyph-name="Eacute" unicode="&#xc9;" horiz-adv-x="483" 
d="M124 667h365l-18 -147h-196l-14 -111h190l-18 -146h-190l-14 -116h204l-18 -147h-373zM328 898h165l-132 -171h-113z" />
    <glyph glyph-name="Ecircumflex" unicode="&#xca;" horiz-adv-x="483" 
d="M124 667h365l-18 -147h-196l-14 -111h190l-18 -146h-190l-14 -116h204l-18 -147h-373zM361 727l-37 86l-56 -86h-132l111 173h182l59 -173h-127z" />
    <glyph glyph-name="Edieresis" unicode="&#xcb;" horiz-adv-x="483" 
d="M124 667h365l-18 -147h-196l-14 -111h190l-18 -146h-190l-14 -116h204l-18 -147h-373zM418 887c43 0 80 -37 80 -80c0 -45 -35 -80 -79 -80c-45 0 -82 36 -82 81c0 43 37 79 81 79zM216 887c45 0 80 -36 80 -80c0 -45 -35 -80 -79 -80c-46 0 -81 35 -81 81
c0 44 35 79 80 79z" />
    <glyph glyph-name="Igrave" unicode="&#xcc;" horiz-adv-x="309" 
d="M124 667h169l-82 -667h-169zM162 727l-89 171h164l38 -171h-113z" />
    <glyph glyph-name="Iacute" unicode="&#xcd;" horiz-adv-x="309" 
d="M124 667h169l-82 -667h-169zM228 898h165l-132 -171h-113z" />
    <glyph glyph-name="Icircumflex" unicode="&#xce;" horiz-adv-x="309" 
d="M124 667h169l-82 -667h-169zM266 727l-37 86l-56 -86h-132l111 173h182l59 -173h-127z" />
    <glyph glyph-name="Idieresis" unicode="&#xcf;" horiz-adv-x="309" 
d="M124 667h169l-82 -667h-169zM328 887c43 0 80 -37 80 -80c0 -45 -35 -80 -79 -80c-45 0 -82 36 -82 81c0 43 37 79 81 79zM126 887c45 0 80 -36 80 -80c0 -45 -35 -80 -79 -80c-46 0 -81 35 -81 81c0 44 35 79 80 79z" />
    <glyph glyph-name="Eth" unicode="&#xd0;" horiz-adv-x="736" 
d="M84 0l37 296h-91l15 120h90l31 251h206c111 0 173 -16 223 -55c33 -26 60 -61 79 -101c21 -46 32 -98 32 -153c0 -162 -86 -296 -217 -336c-52 -16 -100 -22 -185 -22h-220zM378 520h-61l-13 -104h118l-14 -120h-120l-17 -149h58c83 0 125 16 161 65c28 38 42 87 42 146
c0 112 -47 162 -154 162z" />
    <glyph glyph-name="Ntilde" unicode="&#xd1;" horiz-adv-x="798" 
d="M613 667h169l-82 -667h-185l-177 299c-29 47 -54 98 -82 165v-30c0 -50 -2 -85 -7 -126l-38 -308h-169l82 667h182l190 -322l29 -54l26 -51l13 -25c1 42 3 75 8 114zM585 873l79 -46c-11 -21 -31 -51 -52 -69c-28 -25 -57 -31 -77 -31s-48 8 -66 15l-36 14
c-19 7 -34 15 -48 15c-27 0 -42 -27 -47 -42l-78 46c11 25 30 52 48 68c22 19 51 30 85 30c24 0 48 -6 68 -14l29 -12c23 -9 38 -18 50 -18c22 0 36 20 45 44z" />
    <glyph glyph-name="Ograve" unicode="&#xd2;" horiz-adv-x="805" 
d="M429 680c202 0 341 -124 349 -313v-13c0 -219 -146 -367 -362 -367c-217 0 -364 136 -364 337c0 209 156 356 377 356zM605 336c0 4 0 8 -1 12c-6 105 -77 172 -182 172c-114 0 -197 -80 -197 -190s75 -183 187 -183c114 0 193 77 193 189zM384 727l-89 171h164l38 -171
h-113z" />
    <glyph glyph-name="Oacute" unicode="&#xd3;" horiz-adv-x="805" 
d="M429 680c202 0 341 -124 349 -313v-13c0 -219 -146 -367 -362 -367c-217 0 -364 136 -364 337c0 209 156 356 377 356zM605 336c0 4 0 8 -1 12c-6 105 -77 172 -182 172c-114 0 -197 -80 -197 -190s75 -183 187 -183c114 0 193 77 193 189zM448 898h165l-132 -171h-113z
" />
    <glyph glyph-name="Ocircumflex" unicode="&#xd4;" horiz-adv-x="805" 
d="M429 680c202 0 341 -124 349 -313v-13c0 -219 -146 -367 -362 -367c-217 0 -364 136 -364 337c0 209 156 356 377 356zM605 336c0 4 0 8 -1 12c-6 105 -77 172 -182 172c-114 0 -197 -80 -197 -190s75 -183 187 -183c114 0 193 77 193 189zM481 727l-37 86l-56 -86h-132
l111 173h182l59 -173h-127z" />
    <glyph glyph-name="Otilde" unicode="&#xd5;" horiz-adv-x="805" 
d="M429 680c202 0 341 -124 349 -313v-13c0 -219 -146 -367 -362 -367c-217 0 -364 136 -364 337c0 209 156 356 377 356zM605 336c0 4 0 8 -1 12c-6 105 -77 172 -182 172c-114 0 -197 -80 -197 -190s75 -183 187 -183c114 0 193 77 193 189zM550 873l79 -46
c-11 -21 -31 -51 -52 -69c-28 -25 -57 -31 -77 -31s-48 8 -66 15l-36 14c-19 7 -34 15 -48 15c-27 0 -42 -27 -47 -42l-78 46c11 25 30 52 48 68c22 19 51 30 85 30c24 0 48 -6 68 -14l29 -12c23 -9 38 -18 50 -18c22 0 36 20 45 44z" />
    <glyph glyph-name="Odieresis" unicode="&#xd6;" horiz-adv-x="805" 
d="M429 680c202 0 341 -124 349 -313v-13c0 -219 -146 -367 -362 -367c-217 0 -364 136 -364 337c0 209 156 356 377 356zM605 336c0 4 0 8 -1 12c-6 105 -77 172 -182 172c-114 0 -197 -80 -197 -190s75 -183 187 -183c114 0 193 77 193 189zM528 887c43 0 80 -37 80 -80
c0 -45 -35 -80 -79 -80c-45 0 -82 36 -82 81c0 43 37 79 81 79zM326 887c45 0 80 -36 80 -80c0 -45 -35 -80 -79 -80c-46 0 -81 35 -81 81c0 44 35 79 80 79z" />
    <glyph glyph-name="multiply" unicode="&#xd7;" 
d="M133 126l-84 85l122 122l-123 123l92 92l123 -123l122 123l85 -85l-122 -123l123 -123l-92 -92l-123 123z" />
    <glyph glyph-name="Oslash" unicode="&#xd8;" horiz-adv-x="855" 
d="M19 39l111 99c-37 57 -52 113 -52 186c0 120 48 198 95 247c81 85 183 109 282 109c85 0 150 -19 215 -62l111 98l81 -88l-108 -96c33 -52 50 -107 50 -179c0 -149 -69 -234 -100 -265c-53 -54 -135 -101 -260 -101c-99 0 -171 27 -230 65l-114 -101zM265 257l272 242
c-29 15 -56 21 -89 21c-61 0 -106 -19 -141 -54c-41 -40 -56 -87 -56 -139c0 -25 2 -45 14 -70zM618 411l-274 -243c30 -13 62 -21 94 -21c74 0 117 29 140 53c31 32 52 82 52 138c0 24 -4 48 -12 73z" />
    <glyph glyph-name="Ugrave" unicode="&#xd9;" horiz-adv-x="717" 
d="M532 667h169l-47 -386c-16 -128 -33 -179 -76 -220c-50 -48 -130 -74 -228 -74c-173 0 -278 85 -278 228c0 20 3 51 8 92l44 360h168l-44 -360c-2 -20 -3 -39 -3 -56c0 -70 36 -104 110 -104c42 0 75 11 95 33c21 24 28 47 36 107zM362 727l-89 171h164l38 -171h-113z
" />
    <glyph glyph-name="Uacute" unicode="&#xda;" horiz-adv-x="717" 
d="M532 667h169l-47 -386c-16 -128 -33 -179 -76 -220c-50 -48 -130 -74 -228 -74c-173 0 -278 85 -278 228c0 20 3 51 8 92l44 360h168l-44 -360c-2 -20 -3 -39 -3 -56c0 -70 36 -104 110 -104c42 0 75 11 95 33c21 24 28 47 36 107zM428 898h165l-132 -171h-113z" />
    <glyph glyph-name="Ucircumflex" unicode="&#xdb;" horiz-adv-x="717" 
d="M532 667h169l-47 -386c-16 -128 -33 -179 -76 -220c-50 -48 -130 -74 -228 -74c-173 0 -278 85 -278 228c0 20 3 51 8 92l44 360h168l-44 -360c-2 -20 -3 -39 -3 -56c0 -70 36 -104 110 -104c42 0 75 11 95 33c21 24 28 47 36 107zM461 727l-37 86l-56 -86h-132l111 173
h182l59 -173h-127z" />
    <glyph glyph-name="Udieresis" unicode="&#xdc;" horiz-adv-x="717" 
d="M532 667h169l-47 -386c-16 -128 -33 -179 -76 -220c-50 -48 -130 -74 -228 -74c-173 0 -278 85 -278 228c0 20 3 51 8 92l44 360h168l-44 -360c-2 -20 -3 -39 -3 -56c0 -70 36 -104 110 -104c42 0 75 11 95 33c21 24 28 47 36 107zM518 887c43 0 80 -37 80 -80
c0 -45 -35 -80 -79 -80c-45 0 -82 36 -82 81c0 43 37 79 81 79zM316 887c45 0 80 -36 80 -80c0 -45 -35 -80 -79 -80c-46 0 -81 35 -81 81c0 44 35 79 80 79z" />
    <glyph glyph-name="Yacute" unicode="&#xdd;" horiz-adv-x="623" 
d="M676 667l-291 -375l-36 -292h-169l37 297l-170 370h187l46 -107c27 -64 29 -68 36 -90c2 -5 4 -13 7 -22c9 17 18 31 33 53l115 166h205zM378 898h165l-132 -171h-113z" />
    <glyph glyph-name="Thorn" unicode="&#xde;" horiz-adv-x="668" 
d="M42 0l82 667h169l-13 -99h56c94 0 133 -8 171 -35c48 -33 77 -98 77 -173c0 -69 -24 -137 -64 -178c-47 -48 -102 -64 -213 -64h-82l-14 -118h-169zM310 434h-47l-20 -169h53c76 0 115 32 115 91c0 55 -30 78 -101 78z" />
    <glyph glyph-name="germandbls" unicode="&#xdf;" horiz-adv-x="608" 
d="M197 0h-165l61 491c13 104 28 148 68 188c41 41 97 62 168 62c140 0 231 -77 231 -197c0 -43 -14 -83 -38 -113c-21 -26 -37 -37 -80 -52c40 -16 55 -24 73 -40c34 -31 53 -77 53 -134c0 -93 -54 -169 -135 -193c-36 -10 -58 -12 -146 -12h-43l18 142c18 -2 25 -2 36 -2
c65 0 102 31 102 87c0 53 -30 81 -86 81c-6 0 -14 0 -32 -1l18 148c12 -1 18 -2 24 -2c48 0 81 32 81 78c0 44 -27 72 -70 72c-45 0 -67 -25 -74 -86z" />
    <glyph glyph-name="agrave" unicode="&#xe0;" horiz-adv-x="612" 
d="M414 447h165l-55 -447h-165l12 49c-51 -46 -90 -62 -152 -62c-113 0 -186 82 -186 211c0 151 100 262 235 262c63 0 97 -15 145 -64zM291 116c60 0 104 51 104 121c0 57 -34 93 -88 93c-60 0 -106 -52 -106 -120c0 -57 35 -94 90 -94zM287 527l-89 171h164l38 -171h-113z
" />
    <glyph glyph-name="aacute" unicode="&#xe1;" horiz-adv-x="612" 
d="M414 447h165l-55 -447h-165l12 49c-51 -46 -90 -62 -152 -62c-113 0 -186 82 -186 211c0 151 100 262 235 262c63 0 97 -15 145 -64zM291 116c60 0 104 51 104 121c0 57 -34 93 -88 93c-60 0 -106 -52 -106 -120c0 -57 35 -94 90 -94zM343 698h165l-132 -171h-113z" />
    <glyph glyph-name="acircumflex" unicode="&#xe2;" horiz-adv-x="612" 
d="M414 447h165l-55 -447h-165l12 49c-51 -46 -90 -62 -152 -62c-113 0 -186 82 -186 211c0 151 100 262 235 262c63 0 97 -15 145 -64zM291 116c60 0 104 51 104 121c0 57 -34 93 -88 93c-60 0 -106 -52 -106 -120c0 -57 35 -94 90 -94zM386 527l-37 86l-56 -86h-132
l111 173h182l59 -173h-127z" />
    <glyph glyph-name="atilde" unicode="&#xe3;" horiz-adv-x="612" 
d="M414 447h165l-55 -447h-165l12 49c-51 -46 -90 -62 -152 -62c-113 0 -186 82 -186 211c0 151 100 262 235 262c63 0 97 -15 145 -64zM291 116c60 0 104 51 104 121c0 57 -34 93 -88 93c-60 0 -106 -52 -106 -120c0 -57 35 -94 90 -94zM470 671l79 -46
c-11 -21 -31 -51 -52 -69c-28 -25 -57 -31 -77 -31s-48 8 -66 15l-36 14c-19 7 -34 15 -48 15c-27 0 -42 -27 -47 -42l-78 46c11 25 30 52 48 68c22 19 51 30 85 30c24 0 48 -6 68 -14l29 -12c23 -9 38 -18 50 -18c22 0 36 20 45 44z" />
    <glyph glyph-name="adieresis" unicode="&#xe4;" horiz-adv-x="612" 
d="M414 447h165l-55 -447h-165l12 49c-51 -46 -90 -62 -152 -62c-113 0 -186 82 -186 211c0 151 100 262 235 262c63 0 97 -15 145 -64zM291 116c60 0 104 51 104 121c0 57 -34 93 -88 93c-60 0 -106 -52 -106 -120c0 -57 35 -94 90 -94zM454 687c43 0 80 -37 80 -80
c0 -45 -35 -80 -79 -80c-45 0 -82 36 -82 81c0 43 37 79 81 79zM252 687c45 0 80 -36 80 -80c0 -45 -35 -80 -79 -80c-46 0 -81 35 -81 81c0 44 35 79 80 79z" />
    <glyph glyph-name="aring" unicode="&#xe5;" horiz-adv-x="612" 
d="M414 447h165l-55 -447h-165l12 49c-51 -46 -90 -62 -152 -62c-113 0 -186 82 -186 211c0 151 100 262 235 262c63 0 97 -15 145 -64zM291 116c60 0 104 51 104 121c0 57 -34 93 -88 93c-60 0 -106 -52 -106 -120c0 -57 35 -94 90 -94zM342 527c-85 0 -135 36 -135 99
c0 60 52 98 133 98c80 0 130 -38 130 -99c0 -60 -50 -98 -128 -98zM339 662c-31 0 -50 -14 -50 -37c0 -22 19 -37 49 -37c32 0 51 14 51 37s-19 37 -50 37z" />
    <glyph glyph-name="ae" unicode="&#xe6;" horiz-adv-x="863" 
d="M827 197h-334v-5c0 -25 9 -51 24 -66s39 -23 61 -23c26 0 60 8 76 40h159c-9 -40 -29 -80 -77 -113c-49 -33 -106 -43 -157 -43c-33 0 -71 2 -108 16c-28 11 -48 26 -64 45c-31 -26 -62 -39 -85 -46c-30 -9 -70 -15 -107 -15c-79 0 -122 25 -145 46c-27 25 -42 55 -42 96
c0 40 12 72 37 97c17 17 59 50 147 50c37 0 84 -7 131 -42c2 10 3 20 3 30c0 27 -7 53 -23 68c-20 19 -54 21 -71 21c-43 0 -83 -9 -141 -33l8 117c74 18 123 23 161 23c49 0 80 -9 93 -13c30 -10 52 -24 71 -45c20 20 40 31 64 41c35 14 62 17 100 17c46 0 103 -7 149 -49
c62 -56 70 -138 70 -199v-15zM246 176c-17 0 -35 -3 -50 -12c-16 -10 -20 -23 -20 -32s3 -22 18 -32c16 -11 40 -15 57 -15c15 0 34 2 51 14c11 8 18 18 18 32c0 11 -6 24 -23 34c-18 10 -37 11 -51 11zM508 290h169c-2 27 -17 43 -28 51c-15 11 -37 15 -54 15
c-19 0 -44 -5 -61 -19c-11 -9 -22 -26 -26 -47z" />
    <glyph glyph-name="ccedilla" unicode="&#xe7;" horiz-adv-x="423" 
d="M282 460c49 0 92 -10 135 -31l-17 -139c-32 29 -56 40 -91 40c-62 0 -106 -49 -106 -117c0 -59 35 -96 92 -96c30 0 52 8 88 34l-17 -140c-57 -19 -80 -24 -118 -24c-125 0 -213 92 -213 222c0 145 104 251 247 251zM180 -46l106 -44l-136 -146l-84 40z" />
    <glyph glyph-name="egrave" unicode="&#xe8;" horiz-adv-x="561" 
d="M525 190h-334c0 -16 0 -55 23 -76c8 -8 24 -17 51 -17c14 0 29 3 42 12s19 20 22 30h180c-11 -33 -29 -61 -49 -81c-57 -59 -141 -71 -194 -71c-94 0 -146 36 -171 59c-29 28 -61 78 -61 158c0 86 35 148 73 185c39 38 100 71 191 71c84 0 137 -30 169 -62
c46 -46 60 -112 60 -170c0 -13 -1 -26 -2 -38zM202 283h156c-1 21 -10 41 -23 53c-12 11 -30 18 -52 18c-23 0 -44 -9 -57 -22s-21 -33 -24 -49zM252 527l-89 171h164l38 -171h-113z" />
    <glyph glyph-name="eacute" unicode="&#xe9;" horiz-adv-x="561" 
d="M525 190h-334c0 -16 0 -55 23 -76c8 -8 24 -17 51 -17c14 0 29 3 42 12s19 20 22 30h180c-11 -33 -29 -61 -49 -81c-57 -59 -141 -71 -194 -71c-94 0 -146 36 -171 59c-29 28 -61 78 -61 158c0 86 35 148 73 185c39 38 100 71 191 71c84 0 137 -30 169 -62
c46 -46 60 -112 60 -170c0 -13 -1 -26 -2 -38zM202 283h156c-1 21 -10 41 -23 53c-12 11 -30 18 -52 18c-23 0 -44 -9 -57 -22s-21 -33 -24 -49zM318 698h165l-132 -171h-113z" />
    <glyph glyph-name="ecircumflex" unicode="&#xea;" horiz-adv-x="561" 
d="M525 190h-334c0 -16 0 -55 23 -76c8 -8 24 -17 51 -17c14 0 29 3 42 12s19 20 22 30h180c-11 -33 -29 -61 -49 -81c-57 -59 -141 -71 -194 -71c-94 0 -146 36 -171 59c-29 28 -61 78 -61 158c0 86 35 148 73 185c39 38 100 71 191 71c84 0 137 -30 169 -62
c46 -46 60 -112 60 -170c0 -13 -1 -26 -2 -38zM202 283h156c-1 21 -10 41 -23 53c-12 11 -30 18 -52 18c-23 0 -44 -9 -57 -22s-21 -33 -24 -49zM366 527l-37 86l-56 -86h-132l111 173h182l59 -173h-127z" />
    <glyph glyph-name="edieresis" unicode="&#xeb;" horiz-adv-x="561" 
d="M525 190h-334c0 -16 0 -55 23 -76c8 -8 24 -17 51 -17c14 0 29 3 42 12s19 20 22 30h180c-11 -33 -29 -61 -49 -81c-57 -59 -141 -71 -194 -71c-94 0 -146 36 -171 59c-29 28 -61 78 -61 158c0 86 35 148 73 185c39 38 100 71 191 71c84 0 137 -30 169 -62
c46 -46 60 -112 60 -170c0 -13 -1 -26 -2 -38zM202 283h156c-1 21 -10 41 -23 53c-12 11 -30 18 -52 18c-23 0 -44 -9 -57 -22s-21 -33 -24 -49zM418 687c43 0 80 -37 80 -80c0 -45 -35 -80 -79 -80c-45 0 -82 36 -82 81c0 43 37 79 81 79zM216 687c45 0 80 -36 80 -80
c0 -45 -35 -80 -79 -80c-46 0 -81 35 -81 81c0 44 35 79 80 79z" />
    <glyph glyph-name="igrave" unicode="&#xec;" horiz-adv-x="285" 
d="M87 447h165l-55 -447h-165zM142 527l-89 171h164l38 -171h-113z" />
    <glyph glyph-name="iacute" unicode="&#xed;" horiz-adv-x="285" 
d="M87 447h165l-55 -447h-165zM178 698h165l-132 -171h-113z" />
    <glyph glyph-name="icircumflex" unicode="&#xee;" horiz-adv-x="285" 
d="M87 447h165l-55 -447h-165zM229 527l-37 86l-56 -86h-132l111 173h182l59 -173h-127z" />
    <glyph glyph-name="idieresis" unicode="&#xef;" horiz-adv-x="285" 
d="M87 447h165l-55 -447h-165zM291 687c43 0 80 -37 80 -80c0 -45 -35 -80 -79 -80c-45 0 -82 36 -82 81c0 43 37 79 81 79zM89 687c45 0 80 -36 80 -80c0 -45 -35 -80 -79 -80c-46 0 -81 35 -81 81c0 44 35 79 80 79z" />
    <glyph glyph-name="eth" unicode="&#xf0;" horiz-adv-x="626" 
d="M136 613l40 116c125 0 192 -33 226 -53l170 74l32 -77l-126 -54c36 -29 58 -60 78 -108c26 -62 31 -115 31 -173c0 -62 -6 -193 -85 -275c-64 -67 -147 -76 -208 -76c-69 0 -137 12 -195 70c-37 38 -64 91 -64 158s26 127 68 170c44 44 114 76 201 76c38 0 90 -7 141 -50
c-1 15 -7 99 -91 143l-213 -97l-30 77l155 67c-21 8 -49 15 -86 15c-14 0 -28 -1 -44 -3zM296 116c24 0 51 8 71 29c22 22 34 54 34 92c0 42 -17 62 -27 71c-15 13 -39 22 -62 22c-18 0 -47 -4 -73 -31c-20 -21 -34 -52 -34 -89c0 -35 14 -56 25 -68c17 -17 43 -26 66 -26z
" />
    <glyph glyph-name="ntilde" unicode="&#xf1;" horiz-adv-x="593" 
d="M87 447h165l-14 -58c61 54 101 71 162 71c91 0 141 -48 141 -136c0 -19 -1 -42 -5 -73l-31 -251h-165l25 197c3 26 4 39 4 55c0 46 -22 71 -60 71c-53 0 -76 -32 -87 -121l-25 -202h-165zM460 671l79 -46c-11 -21 -31 -51 -52 -69c-28 -25 -57 -31 -77 -31s-48 8 -66 15
l-36 14c-19 7 -34 15 -48 15c-27 0 -42 -27 -47 -42l-78 46c11 25 30 52 48 68c22 19 51 30 85 30c24 0 48 -6 68 -14l29 -12c23 -9 38 -18 50 -18c22 0 36 20 45 44z" />
    <glyph glyph-name="ograve" unicode="&#xf2;" horiz-adv-x="603" 
d="M308 460c157 0 259 -90 259 -229c0 -144 -108 -244 -264 -244c-160 0 -268 94 -268 235c0 139 113 238 273 238zM294 116c61 0 105 51 105 121c0 57 -34 93 -89 93c-61 0 -107 -52 -107 -120c0 -57 36 -94 91 -94zM252 527l-89 171h164l38 -171h-113z" />
    <glyph glyph-name="oacute" unicode="&#xf3;" horiz-adv-x="603" 
d="M308 460c157 0 259 -90 259 -229c0 -144 -108 -244 -264 -244c-160 0 -268 94 -268 235c0 139 113 238 273 238zM294 116c61 0 105 51 105 121c0 57 -34 93 -89 93c-61 0 -107 -52 -107 -120c0 -57 36 -94 91 -94zM328 698h165l-132 -171h-113z" />
    <glyph glyph-name="ocircumflex" unicode="&#xf4;" horiz-adv-x="603" 
d="M308 460c157 0 259 -90 259 -229c0 -144 -108 -244 -264 -244c-160 0 -268 94 -268 235c0 139 113 238 273 238zM294 116c61 0 105 51 105 121c0 57 -34 93 -89 93c-61 0 -107 -52 -107 -120c0 -57 36 -94 91 -94zM366 527l-37 86l-56 -86h-132l111 173h182l59 -173h-127
z" />
    <glyph glyph-name="otilde" unicode="&#xf5;" horiz-adv-x="603" 
d="M308 460c157 0 259 -90 259 -229c0 -144 -108 -244 -264 -244c-160 0 -268 94 -268 235c0 139 113 238 273 238zM294 116c61 0 105 51 105 121c0 57 -34 93 -89 93c-61 0 -107 -52 -107 -120c0 -57 36 -94 91 -94zM440 671l79 -46c-11 -21 -31 -51 -52 -69
c-28 -25 -57 -31 -77 -31s-48 8 -66 15l-36 14c-19 7 -34 15 -48 15c-27 0 -42 -27 -47 -42l-78 46c11 25 30 52 48 68c22 19 51 30 85 30c24 0 48 -6 68 -14l29 -12c23 -9 38 -18 50 -18c22 0 36 20 45 44z" />
    <glyph glyph-name="odieresis" unicode="&#xf6;" horiz-adv-x="603" 
d="M308 460c157 0 259 -90 259 -229c0 -144 -108 -244 -264 -244c-160 0 -268 94 -268 235c0 139 113 238 273 238zM294 116c61 0 105 51 105 121c0 57 -34 93 -89 93c-61 0 -107 -52 -107 -120c0 -57 36 -94 91 -94zM418 687c43 0 80 -37 80 -80c0 -45 -35 -80 -79 -80
c-45 0 -82 36 -82 81c0 43 37 79 81 79zM216 687c45 0 80 -36 80 -80c0 -45 -35 -80 -79 -80c-46 0 -81 35 -81 81c0 44 35 79 80 79z" />
    <glyph glyph-name="divide" unicode="&#xf7;" 
d="M189 510c0 41 33 74 74 74c42 0 75 -33 75 -74s-34 -75 -75 -74c-40 0 -74 33 -74 74zM189 170c0 41 33 74 74 74c42 0 75 -33 75 -74s-34 -75 -75 -74c-40 0 -74 33 -74 74zM47 280v120h433v-120h-433z" />
    <glyph glyph-name="oslash" unicode="&#xf8;" horiz-adv-x="626" 
d="M8 5l87 77c-32 39 -48 83 -48 138c0 54 16 113 67 164c59 59 132 76 200 76c61 0 110 -12 159 -40l91 81l54 -59l-85 -75c35 -45 46 -90 46 -140c0 -70 -23 -123 -63 -164c-60 -61 -140 -76 -210 -76c-64 0 -106 11 -151 42l-93 -82zM409 260l-150 -134
c13 -7 27 -11 46 -11c32 0 56 12 72 29c24 25 34 59 34 92c0 8 -1 16 -2 24zM216 188l149 132c-10 7 -21 11 -37 11c-30 0 -57 -11 -75 -27c-32 -29 -38 -70 -38 -97c0 -8 1 -14 1 -19z" />
    <glyph glyph-name="ugrave" unicode="&#xf9;" horiz-adv-x="597" 
d="M399 447h164l-28 -236c-12 -93 -30 -139 -67 -170c-41 -35 -108 -54 -189 -54c-143 0 -224 63 -224 176c0 16 1 36 4 61l28 223h164l-26 -213c-3 -27 -5 -44 -5 -52c0 -38 24 -58 67 -58c52 0 75 25 83 90zM280 527l-89 171h164l38 -171h-113z" />
    <glyph glyph-name="uacute" unicode="&#xfa;" horiz-adv-x="597" 
d="M399 447h164l-28 -236c-12 -93 -30 -139 -67 -170c-41 -35 -108 -54 -189 -54c-143 0 -224 63 -224 176c0 16 1 36 4 61l28 223h164l-26 -213c-3 -27 -5 -44 -5 -52c0 -38 24 -58 67 -58c52 0 75 25 83 90zM356 698h165l-132 -171h-113z" />
    <glyph glyph-name="ucircumflex" unicode="&#xfb;" horiz-adv-x="597" 
d="M399 447h164l-28 -236c-12 -93 -30 -139 -67 -170c-41 -35 -108 -54 -189 -54c-143 0 -224 63 -224 176c0 16 1 36 4 61l28 223h164l-26 -213c-3 -27 -5 -44 -5 -52c0 -38 24 -58 67 -58c52 0 75 25 83 90zM380 527l-37 86l-56 -86h-132l111 173h182l59 -173h-127z" />
    <glyph glyph-name="udieresis" unicode="&#xfc;" horiz-adv-x="597" 
d="M399 447h164l-28 -236c-12 -93 -30 -139 -67 -170c-41 -35 -108 -54 -189 -54c-143 0 -224 63 -224 176c0 16 1 36 4 61l28 223h164l-26 -213c-3 -27 -5 -44 -5 -52c0 -38 24 -58 67 -58c52 0 75 25 83 90zM432 687c43 0 80 -37 80 -80c0 -45 -35 -80 -79 -80
c-45 0 -82 36 -82 81c0 43 37 79 81 79zM230 687c45 0 80 -36 80 -80c0 -45 -35 -80 -79 -80c-46 0 -81 35 -81 81c0 44 35 79 80 79z" />
    <glyph glyph-name="yacute" unicode="&#xfd;" horiz-adv-x="588" 
d="M427 447h188l-418 -676h-185l160 264l-158 412h183l48 -121c18 -45 26 -73 37 -128c15 33 34 68 59 108zM348 698h165l-132 -171h-113z" />
    <glyph glyph-name="thorn" unicode="&#xfe;" horiz-adv-x="614" 
d="M119 729h165l-35 -284l-13 -55c58 52 99 70 157 70c113 0 184 -83 184 -216c0 -155 -85 -257 -213 -257c-68 0 -117 27 -161 89l-37 -305h-164zM304 116c61 0 105 51 105 121c0 57 -34 93 -88 93c-61 0 -106 -52 -106 -120c0 -57 35 -94 89 -94z" />
    <glyph glyph-name="ydieresis" unicode="&#xff;" horiz-adv-x="588" 
d="M427 447h188l-418 -676h-185l160 264l-158 412h183l48 -121c18 -45 26 -73 37 -128c15 33 34 68 59 108zM432 687c43 0 80 -37 80 -80c0 -45 -35 -80 -79 -80c-45 0 -82 36 -82 81c0 43 37 79 81 79zM230 687c45 0 80 -36 80 -80c0 -45 -35 -80 -79 -80
c-46 0 -81 35 -81 81c0 44 35 79 80 79z" />
    <glyph glyph-name="Amacron" unicode="&#x100;" horiz-adv-x="695" 
d="M462 112h-238l-51 -112h-188l331 667h190l161 -667h-177zM353 393l-67 -149h144l-28 127c-11 51 -12 57 -15 77c-1 5 -3 13 -4 24c-11 -35 -20 -56 -30 -79zM214 749l12 98h376l-12 -98h-376z" />
    <glyph glyph-name="amacron" unicode="&#x101;" horiz-adv-x="612" 
d="M414 447h165l-55 -447h-165l12 49c-51 -46 -90 -62 -152 -62c-113 0 -186 82 -186 211c0 151 100 262 235 262c63 0 97 -15 145 -64zM291 116c60 0 104 51 104 121c0 57 -34 93 -88 93c-60 0 -106 -52 -106 -120c0 -57 35 -94 90 -94zM133 539l12 98h396l-12 -98h-396z
" />
    <glyph glyph-name="Abreve" unicode="&#x102;" horiz-adv-x="695" 
d="M462 112h-238l-51 -112h-188l331 667h190l161 -667h-177zM353 393l-67 -149h144l-28 127c-11 51 -12 57 -15 77c-1 5 -3 13 -4 24c-11 -35 -20 -56 -30 -79zM251 861c0 5 1 11 1 20h99c3 -42 24 -62 65 -62c42 0 67 20 81 62h102c-17 -99 -83 -154 -184 -154
c-96 0 -164 55 -164 134z" />
    <glyph glyph-name="abreve" unicode="&#x103;" horiz-adv-x="612" 
d="M414 447h165l-55 -447h-165l12 49c-51 -46 -90 -62 -152 -62c-113 0 -186 82 -186 211c0 151 100 262 235 262c63 0 97 -15 145 -64zM291 116c60 0 104 51 104 121c0 57 -34 93 -88 93c-60 0 -106 -52 -106 -120c0 -57 35 -94 90 -94zM171 661c0 5 1 11 1 20h99
c3 -42 24 -62 65 -62c42 0 67 20 81 62h102c-17 -99 -83 -154 -184 -154c-96 0 -164 55 -164 134z" />
    <glyph glyph-name="Aogonek" unicode="&#x104;" horiz-adv-x="695" 
d="M460 122h-232l-55 -122h-188l331 667h190l161 -667h-99c-12 -9 -27 -22 -38 -33c-9 -9 -22 -24 -22 -40c0 -9 3 -19 10 -25c6 -6 16 -9 25 -9c15 0 37 9 49 18l-32 -86c-24 -13 -48 -18 -68 -18c-18 0 -43 3 -62 23c-13 14 -22 34 -22 57s8 46 28 69c14 16 35 33 54 44z
M402 371c-7 32 -12 51 -19 101c-8 -25 -18 -52 -30 -79l-62 -138h136z" />
    <glyph glyph-name="aogonek" unicode="&#x105;" horiz-adv-x="612" 
d="M414 447h165l-55 -447h-40c-16 -11 -26 -21 -38 -34c-8 -8 -20 -22 -20 -42c0 -10 4 -18 9 -22c7 -6 20 -9 30 -9c20 0 41 14 48 18l-32 -88c-22 -9 -46 -13 -63 -13c-23 0 -50 6 -67 22c-13 12 -22 33 -22 57c0 25 10 44 26 64c22 26 47 42 56 47h-52l12 49
c-17 -15 -40 -33 -58 -42c-34 -17 -69 -20 -94 -20c-40 0 -86 9 -124 45c-26 24 -62 74 -62 166s37 157 74 195c33 33 85 67 166 67c21 0 55 -2 86 -20c18 -10 42 -32 55 -44v51zM291 116c30 0 53 11 71 31s33 50 33 90c0 21 -5 48 -27 70c-15 14 -34 23 -61 23
c-33 0 -56 -15 -70 -29c-21 -21 -36 -53 -36 -91c0 -29 8 -50 25 -68c19 -20 41 -26 65 -26z" />
    <glyph glyph-name="Cacute" unicode="&#x106;" horiz-adv-x="607" 
d="M414 680c72 0 131 -16 202 -56l-20 -165c-49 41 -102 61 -163 61c-123 0 -210 -81 -210 -194c0 -107 76 -179 187 -179c52 0 101 13 153 42l-21 -170c-73 -26 -106 -32 -157 -32c-197 0 -335 137 -335 331c0 203 160 362 364 362zM438 898h165l-132 -171h-113z" />
    <glyph glyph-name="cacute" unicode="&#x107;" horiz-adv-x="423" 
d="M282 460c49 0 92 -10 135 -31l-17 -139c-32 29 -56 40 -91 40c-62 0 -106 -49 -106 -117c0 -59 35 -96 92 -96c30 0 52 8 88 34l-17 -140c-57 -19 -80 -24 -118 -24c-125 0 -213 92 -213 222c0 145 104 251 247 251zM328 698h165l-132 -171h-113z" />
    <glyph glyph-name="Ccircumflex" unicode="&#x108;" horiz-adv-x="607" 
d="M414 680c72 0 131 -16 202 -56l-20 -165c-49 41 -102 61 -163 61c-123 0 -210 -81 -210 -194c0 -107 76 -179 187 -179c52 0 101 13 153 42l-21 -170c-73 -26 -106 -32 -157 -32c-197 0 -335 137 -335 331c0 203 160 362 364 362zM466 727l-37 86l-56 -86h-132l111 173
h182l59 -173h-127z" />
    <glyph glyph-name="ccircumflex" unicode="&#x109;" horiz-adv-x="423" 
d="M282 460c49 0 92 -10 135 -31l-17 -139c-32 29 -56 40 -91 40c-62 0 -106 -49 -106 -117c0 -59 35 -96 92 -96c30 0 52 8 88 34l-17 -140c-57 -19 -80 -24 -118 -24c-125 0 -213 92 -213 222c0 145 104 251 247 251zM346 527l-37 86l-56 -86h-132l111 173h182l59 -173
h-127z" />
    <glyph glyph-name="Cdotaccent" unicode="&#x10a;" horiz-adv-x="607" 
d="M414 680c72 0 131 -16 202 -56l-20 -165c-49 41 -102 61 -163 61c-123 0 -210 -81 -210 -194c0 -107 76 -179 187 -179c52 0 101 13 153 42l-21 -170c-73 -26 -106 -32 -157 -32c-197 0 -335 137 -335 331c0 203 160 362 364 362zM350 811c0 51 40 91 91 91
s91 -40 91 -91s-40 -91 -91 -91s-91 40 -91 91z" />
    <glyph glyph-name="cdotaccent" unicode="&#x10b;" horiz-adv-x="423" 
d="M282 460c49 0 92 -10 135 -31l-17 -139c-32 29 -56 40 -91 40c-62 0 -106 -49 -106 -117c0 -59 35 -96 92 -96c30 0 52 8 88 34l-17 -140c-57 -19 -80 -24 -118 -24c-125 0 -213 92 -213 222c0 145 104 251 247 251zM212 611c0 51 40 91 91 91s91 -40 91 -91
s-40 -91 -91 -91s-91 40 -91 91z" />
    <glyph glyph-name="Ccaron" unicode="&#x10c;" horiz-adv-x="607" 
d="M414 680c72 0 131 -16 202 -56l-20 -165c-49 41 -102 61 -163 61c-123 0 -210 -81 -210 -194c0 -107 76 -179 187 -179c52 0 101 13 153 42l-21 -170c-73 -26 -106 -32 -157 -32c-197 0 -335 137 -335 331c0 203 160 362 364 362zM399 900l37 -86l56 86h132l-111 -173
h-182l-59 173h127z" />
    <glyph glyph-name="ccaron" unicode="&#x10d;" horiz-adv-x="423" 
d="M282 460c49 0 92 -10 135 -31l-17 -139c-32 29 -56 40 -91 40c-62 0 -106 -49 -106 -117c0 -59 35 -96 92 -96c30 0 52 8 88 34l-17 -140c-57 -19 -80 -24 -118 -24c-125 0 -213 92 -213 222c0 145 104 251 247 251zM279 700l37 -86l56 86h132l-111 -173h-182l-59 173
h127z" />
    <glyph glyph-name="Dcaron" unicode="&#x10e;" horiz-adv-x="694" 
d="M42 0l82 667h189c94 0 195 -16 267 -83c57 -53 84 -128 84 -225c0 -145 -53 -224 -112 -273c-101 -83 -222 -86 -290 -86h-220zM321 520h-46l-46 -373h51c87 0 133 35 150 51c37 34 60 90 60 153c0 59 -19 104 -48 131c-36 33 -84 38 -121 38zM339 900l37 -86l56 86h132
l-111 -173h-182l-59 173h127z" />
    <glyph glyph-name="dcaron" unicode="&#x10f;" horiz-adv-x="790" 
d="M448 729h165l-90 -729h-164l12 53c-53 -48 -96 -66 -157 -66c-109 0 -182 81 -182 203c0 153 99 270 227 270c62 0 102 -19 148 -71zM290 116c60 0 104 51 104 121c0 57 -34 93 -88 93c-61 0 -106 -52 -106 -120c0 -57 35 -94 90 -94zM720 700l150 -26l-140 -202l-100 18
z" />
    <glyph glyph-name="Dcroat" unicode="&#x110;" horiz-adv-x="736" 
d="M84 0l37 296h-91l15 120h90l31 251h206c111 0 173 -16 223 -55c33 -26 60 -61 79 -101c21 -46 32 -98 32 -153c0 -162 -86 -296 -217 -336c-52 -16 -100 -22 -185 -22h-220zM378 520h-61l-13 -104h118l-14 -120h-120l-17 -149h58c83 0 125 16 161 65c28 38 42 87 42 146
c0 112 -47 162 -154 162z" />
    <glyph glyph-name="dcroat" unicode="&#x111;" horiz-adv-x="650" 
d="M437 643l11 86h165l-11 -86h98l-14 -110h-97l-66 -533h-164l12 53c-53 -48 -96 -66 -157 -66c-109 0 -182 81 -182 203c0 153 99 270 227 270c62 0 102 -19 148 -71l16 144h-170l14 110h170zM290 116c60 0 104 51 104 121c0 57 -34 93 -88 93c-61 0 -106 -52 -106 -120
c0 -57 35 -94 90 -94z" />
    <glyph glyph-name="Emacron" unicode="&#x112;" horiz-adv-x="483" 
d="M124 667h365l-18 -147h-196l-14 -111h190l-18 -146h-190l-14 -116h204l-18 -147h-373zM119 749l12 98h376l-12 -98h-376z" />
    <glyph glyph-name="emacron" unicode="&#x113;" horiz-adv-x="561" 
d="M525 190h-334c0 -16 0 -55 23 -76c8 -8 24 -17 51 -17c14 0 29 3 42 12s19 20 22 30h180c-11 -33 -29 -61 -49 -81c-57 -59 -141 -71 -194 -71c-94 0 -146 36 -171 59c-29 28 -61 78 -61 158c0 86 35 148 73 185c39 38 100 71 191 71c84 0 137 -30 169 -62
c46 -46 60 -112 60 -170c0 -13 -1 -26 -2 -38zM202 283h156c-1 21 -10 41 -23 53c-12 11 -30 18 -52 18c-23 0 -44 -9 -57 -22s-21 -33 -24 -49zM93 539l12 98h396l-12 -98h-396z" />
    <glyph glyph-name="Edotaccent" unicode="&#x116;" horiz-adv-x="483" 
d="M124 667h365l-18 -147h-196l-14 -111h190l-18 -146h-190l-14 -116h204l-18 -147h-373zM226 811c0 51 40 91 91 91s91 -40 91 -91s-40 -91 -91 -91s-91 40 -91 91z" />
    <glyph glyph-name="edotaccent" unicode="&#x117;" horiz-adv-x="561" 
d="M525 190h-334c0 -16 0 -55 23 -76c8 -8 24 -17 51 -17c14 0 29 3 42 12s19 20 22 30h180c-11 -33 -29 -61 -49 -81c-57 -59 -141 -71 -194 -71c-94 0 -146 36 -171 59c-29 28 -61 78 -61 158c0 86 35 148 73 185c39 38 100 71 191 71c84 0 137 -30 169 -62
c46 -46 60 -112 60 -170c0 -13 -1 -26 -2 -38zM202 283h156c-1 21 -10 41 -23 53c-12 11 -30 18 -52 18c-23 0 -44 -9 -57 -22s-21 -33 -24 -49zM211 611c0 51 40 91 91 91s91 -40 91 -91s-40 -91 -91 -91s-91 40 -91 91z" />
    <glyph glyph-name="Eogonek" unicode="&#x118;" horiz-adv-x="483" 
d="M124 667h365l-18 -147h-196l-14 -115h190l-18 -146h-190l-14 -112h204l-18 -147h-40c-12 -9 -27 -22 -38 -33c-9 -9 -22 -24 -22 -40c0 -9 3 -19 10 -25c6 -6 16 -9 25 -9c15 0 37 9 49 18l-32 -86c-24 -13 -48 -18 -68 -18c-18 0 -43 3 -62 23c-13 14 -22 34 -22 57
s8 46 28 69c14 16 35 33 54 44h-255z" />
    <glyph glyph-name="eogonek" unicode="&#x119;" horiz-adv-x="561" 
d="M525 190h-334c2 -50 14 -87 78 -87c11 0 32 1 46 14c9 8 15 21 17 32h180c-6 -32 -20 -61 -49 -89c-21 -20 -44 -36 -71 -52c-24 -16 -44 -28 -60 -44c-11 -10 -20 -23 -20 -40c0 -8 3 -17 9 -22c7 -6 20 -9 30 -9c20 0 41 14 48 18l-32 -88c-24 -11 -47 -13 -63 -13
c-29 0 -53 9 -67 22c-13 12 -22 33 -22 57c0 21 6 38 20 56c12 16 28 31 45 42c-67 0 -134 10 -185 59c-50 48 -61 110 -61 157c0 89 35 148 70 183c34 34 96 74 193 74c88 0 140 -32 169 -61c37 -37 61 -95 61 -169c0 -13 0 -26 -2 -40zM202 283h156c-1 18 -9 38 -19 49
s-29 20 -55 20c-31 0 -49 -12 -58 -21c-11 -12 -21 -31 -24 -48z" />
    <glyph glyph-name="Ecaron" unicode="&#x11a;" horiz-adv-x="483" 
d="M124 667h365l-18 -147h-196l-14 -111h190l-18 -146h-190l-14 -116h204l-18 -147h-373zM289 900l37 -86l56 86h132l-111 -173h-182l-59 173h127z" />
    <glyph glyph-name="ecaron" unicode="&#x11b;" horiz-adv-x="561" 
d="M525 190h-334c0 -16 0 -55 23 -76c8 -8 24 -17 51 -17c14 0 29 3 42 12s19 20 22 30h180c-11 -33 -29 -61 -49 -81c-57 -59 -141 -71 -194 -71c-94 0 -146 36 -171 59c-29 28 -61 78 -61 158c0 86 35 148 73 185c39 38 100 71 191 71c84 0 137 -30 169 -62
c46 -46 60 -112 60 -170c0 -13 -1 -26 -2 -38zM202 283h156c-1 21 -10 41 -23 53c-12 11 -30 18 -52 18c-23 0 -44 -9 -57 -22s-21 -33 -24 -49zM274 700l37 -86l56 86h132l-111 -173h-182l-59 173h127z" />
    <glyph glyph-name="Gcircumflex" unicode="&#x11c;" horiz-adv-x="752" 
d="M389 237l16 134h321c-2 -74 -11 -129 -33 -185c-47 -124 -166 -199 -311 -199c-196 0 -332 134 -332 328c0 211 154 365 365 365c85 0 156 -24 213 -72c42 -36 59 -59 86 -123l-147 -57c-33 73 -83 109 -156 109c-106 0 -187 -94 -187 -219c0 -108 73 -185 175 -185
c73 0 130 41 145 104h-155zM466 727l-37 86l-56 -86h-132l111 173h182l59 -173h-127z" />
    <glyph glyph-name="gcircumflex" unicode="&#x11d;" horiz-adv-x="608" 
d="M411 447h164l-49 -392c-14 -120 -34 -179 -75 -221c-44 -43 -108 -63 -199 -63c-80 0 -136 17 -176 54c-38 34 -54 68 -65 125h157c6 -30 36 -51 84 -51c62 0 93 30 102 105l5 42c-48 -45 -79 -59 -131 -59c-121 0 -197 86 -197 222c0 147 93 251 225 251
c64 0 106 -21 152 -78zM289 117c58 0 96 47 96 119c0 58 -33 94 -87 94c-58 0 -99 -47 -99 -114c0 -60 36 -99 90 -99zM396 527l-37 86l-56 -86h-132l111 173h182l59 -173h-127z" />
    <glyph glyph-name="Gbreve" unicode="&#x11e;" horiz-adv-x="752" 
d="M389 237l16 134h321c-2 -74 -11 -129 -33 -185c-47 -124 -166 -199 -311 -199c-196 0 -332 134 -332 328c0 211 154 365 365 365c85 0 156 -24 213 -72c42 -36 59 -59 86 -123l-147 -57c-33 73 -83 109 -156 109c-106 0 -187 -94 -187 -219c0 -108 73 -185 175 -185
c73 0 130 41 145 104h-155zM261 861c0 5 1 11 1 20h99c3 -42 24 -62 65 -62c42 0 67 20 81 62h102c-17 -99 -83 -154 -184 -154c-96 0 -164 55 -164 134z" />
    <glyph glyph-name="gbreve" unicode="&#x11f;" horiz-adv-x="608" 
d="M411 447h164l-49 -392c-14 -120 -34 -179 -75 -221c-44 -43 -108 -63 -199 -63c-80 0 -136 17 -176 54c-38 34 -54 68 -65 125h157c6 -30 36 -51 84 -51c62 0 93 30 102 105l5 42c-48 -45 -79 -59 -131 -59c-121 0 -197 86 -197 222c0 147 93 251 225 251
c64 0 106 -21 152 -78zM289 117c58 0 96 47 96 119c0 58 -33 94 -87 94c-58 0 -99 -47 -99 -114c0 -60 36 -99 90 -99zM176 661c0 5 1 11 1 20h99c3 -42 24 -62 65 -62c42 0 67 20 81 62h102c-17 -99 -83 -154 -184 -154c-96 0 -164 55 -164 134z" />
    <glyph glyph-name="Gdotaccent" unicode="&#x120;" horiz-adv-x="752" 
d="M389 237l16 134h321c-2 -74 -11 -129 -33 -185c-47 -124 -166 -199 -311 -199c-196 0 -332 134 -332 328c0 211 154 365 365 365c85 0 156 -24 213 -72c42 -36 59 -59 86 -123l-147 -57c-33 73 -83 109 -156 109c-106 0 -187 -94 -187 -219c0 -108 73 -185 175 -185
c73 0 130 41 145 104h-155zM334 837c0 51 40 91 91 91s91 -40 91 -91s-40 -91 -91 -91s-91 40 -91 91z" />
    <glyph glyph-name="gdotaccent" unicode="&#x121;" horiz-adv-x="608" 
d="M411 447h164l-49 -392c-14 -120 -34 -179 -75 -221c-44 -43 -108 -63 -199 -63c-80 0 -136 17 -176 54c-38 34 -54 68 -65 125h157c6 -30 36 -51 84 -51c62 0 93 30 102 105l5 42c-48 -45 -79 -59 -131 -59c-121 0 -197 86 -197 222c0 147 93 251 225 251
c64 0 106 -21 152 -78zM289 117c58 0 96 47 96 119c0 58 -33 94 -87 94c-58 0 -99 -47 -99 -114c0 -60 36 -99 90 -99zM213 611c0 51 40 91 91 91s91 -40 91 -91s-40 -91 -91 -91s-91 40 -91 91z" />
    <glyph glyph-name="Gcommaaccent" unicode="&#x122;" horiz-adv-x="752" 
d="M389 237l16 134h321c-2 -74 -11 -129 -33 -185c-47 -124 -166 -199 -311 -199c-196 0 -332 134 -332 328c0 211 154 365 365 365c85 0 156 -24 213 -72c42 -36 59 -59 86 -123l-147 -57c-33 73 -83 109 -156 109c-106 0 -187 -94 -187 -219c0 -108 73 -185 175 -185
c73 0 130 41 145 104h-155zM310 -50l150 -16l-120 -194l-100 12z" />
    <glyph glyph-name="gcommaaccent" unicode="&#x123;" horiz-adv-x="608" 
d="M411 447h164l-49 -392c-14 -120 -34 -179 -75 -221c-44 -43 -108 -63 -199 -63c-80 0 -136 17 -176 54c-38 34 -54 68 -65 125h157c6 -30 36 -51 84 -51c62 0 93 30 102 105l5 42c-48 -45 -79 -59 -131 -59c-121 0 -197 86 -197 222c0 147 93 251 225 251
c64 0 106 -21 152 -78zM289 117c58 0 96 47 96 119c0 58 -33 94 -87 94c-58 0 -99 -47 -99 -114c0 -60 36 -99 90 -99zM365 509l-150 16l120 184l100 -12z" />
    <glyph glyph-name="Hcircumflex" unicode="&#x124;" horiz-adv-x="724" 
d="M539 667h169l-82 -667h-169l33 273h-245l-34 -273h-169l82 667h169l-30 -247h245zM461 727l-37 86l-56 -86h-132l111 173h182l59 -173h-127z" />
    <glyph glyph-name="hcircumflex" unicode="&#x125;" horiz-adv-x="593" 
d="M122 729h165l-40 -322c56 39 94 53 147 53c94 0 145 -56 145 -158c0 -19 -2 -43 -6 -74l-28 -228h-165l22 179c6 45 7 56 7 73c0 48 -19 71 -60 71c-53 0 -76 -29 -86 -111l-26 -212h-165zM246 777l-37 86l-56 -86h-132l111 173h182l59 -173h-127z" />
    <glyph glyph-name="Hbar" unicode="&#x126;" horiz-adv-x="724" 
d="M293 667l-7 -53h246l7 53h169l-7 -53h56l-14 -117h-56l-61 -497h-169l33 273h-246l-33 -273h-169l61 497h-56l14 117h56l7 53h169zM518 497h-246l-10 -76h246z" />
    <glyph glyph-name="hbar" unicode="&#x127;" horiz-adv-x="596" 
d="M35 0l66 533h-83l14 110h83l10 86h165l-10 -86h166l-14 -110h-166l-16 -126c56 39 94 53 147 53c94 0 145 -56 145 -158c0 -19 -2 -43 -6 -74l-28 -228h-165l22 179c6 45 7 56 7 73c0 48 -19 71 -60 71c-53 0 -76 -29 -86 -111l-26 -212h-165z" />
    <glyph glyph-name="Imacron" unicode="&#x12a;" horiz-adv-x="309" 
d="M124 667h169l-82 -667h-169zM14 749l12 98h376l-12 -98h-376z" />
    <glyph glyph-name="imacron" unicode="&#x12b;" horiz-adv-x="285" 
d="M87 447h165l-55 -447h-165zM-30 539l12 98h396l-12 -98h-396z" />
    <glyph glyph-name="Iogonek" unicode="&#x12e;" horiz-adv-x="309" 
d="M124 667h169l-82 -667c-12 -9 -27 -22 -38 -33c-9 -9 -22 -24 -22 -40c0 -9 3 -19 10 -25c6 -6 16 -9 25 -9c15 0 37 9 49 18l-32 -86c-24 -13 -48 -18 -68 -18c-18 0 -43 3 -62 23c-13 14 -22 34 -22 57s8 46 28 69c14 16 35 33 54 44h-91z" />
    <glyph glyph-name="iogonek" unicode="&#x12f;" horiz-adv-x="285" 
d="M194 713c51 0 95 -43 95 -96c0 -55 -44 -100 -97 -100c-55 0 -99 44 -99 99c0 53 44 97 101 97zM87 447h165l-55 -447c-17 -12 -25 -21 -38 -34c-8 -9 -20 -20 -20 -39c0 -9 3 -19 10 -25c7 -7 16 -9 25 -9c15 0 29 5 52 18l-32 -86c-11 -6 -32 -15 -63 -15
c-33 0 -54 11 -66 23c-14 14 -23 34 -23 57c0 17 6 44 32 71c13 13 34 29 50 39h-92z" />
    <glyph glyph-name="Idotaccent" unicode="&#x130;" horiz-adv-x="309" 
d="M124 667h169l-82 -667h-169zM126 811c0 51 40 91 91 91s91 -40 91 -91s-40 -91 -91 -91s-91 40 -91 91z" />
    <glyph glyph-name="dotlessi" unicode="&#x131;" horiz-adv-x="285" 
d="M87 447h165l-55 -447h-165z" />
    <glyph glyph-name="Jcircumflex" unicode="&#x134;" horiz-adv-x="481" 
d="M296 667h169l-57 -459c-7 -58 -17 -117 -68 -168c-47 -47 -99 -53 -146 -53c-50 0 -92 8 -132 37c-28 20 -53 51 -69 82l125 97c3 -15 11 -34 21 -45c10 -12 24 -17 42 -17c12 0 25 3 37 16s19 34 25 79zM436 727l-37 86l-56 -86h-132l111 173h182l59 -173h-127z" />
    <glyph glyph-name="jcircumflex" unicode="&#x135;" horiz-adv-x="276" 
d="M85 447h165l-84 -676h-164zM229 527l-37 86l-56 -86h-132l111 173h182l59 -173h-127z" />
    <glyph glyph-name="Kcommaaccent" unicode="&#x136;" horiz-adv-x="672" 
d="M124 667h169l-36 -292l220 292h194l-255 -340l228 -327h-203l-143 213c-18 27 -37 62 -50 88l-37 -301h-169zM250 -50l150 -16l-120 -194l-100 12z" />
    <glyph glyph-name="kcommaaccent" unicode="&#x137;" horiz-adv-x="605" 
d="M122 729h165l-55 -442l143 160h208l-195 -204l209 -243h-201l-66 75c-39 45 -66 79 -107 135l-26 -210h-165zM220 -50l150 -16l-120 -184l-100 12z" />
    <glyph glyph-name="Lacute" unicode="&#x139;" horiz-adv-x="472" 
d="M124 667h169l-64 -520h213l-19 -147h-381zM228 898h165l-132 -171h-113z" />
    <glyph glyph-name="lacute" unicode="&#x13a;" horiz-adv-x="285" 
d="M122 729h165l-90 -729h-165zM213 948h165l-132 -171h-113z" />
    <glyph glyph-name="Lcommaaccent" unicode="&#x13b;" horiz-adv-x="472" 
d="M124 667h169l-64 -520h213l-19 -147h-381zM180 -50l150 -16l-120 -194l-100 12z" />
    <glyph glyph-name="lcommaaccent" unicode="&#x13c;" horiz-adv-x="285" 
d="M122 729h165l-90 -729h-165zM80 -50l150 -16l-120 -184l-100 12z" />
    <glyph glyph-name="Lcaron" unicode="&#x13d;" horiz-adv-x="472" 
d="M124 667h169l-64 -520h213l-19 -147h-381zM420 680l150 -26l-140 -202l-100 18z" />
    <glyph glyph-name="lcaron" unicode="&#x13e;" horiz-adv-x="470" 
d="M122 729h165l-90 -729h-165zM400 700l150 -26l-140 -202l-100 18z" />
    <glyph glyph-name="Ldot" unicode="&#x13f;" horiz-adv-x="472" 
d="M124 667h169l-64 -520h213l-19 -147h-381zM315 346c0 51 40 91 91 91s91 -40 91 -91s-40 -91 -91 -91s-91 40 -91 91z" />
    <glyph glyph-name="ldot" unicode="&#x140;" horiz-adv-x="442" 
d="M122 729h165l-90 -729h-165zM290 366c0 51 40 91 91 91s91 -40 91 -91s-40 -91 -91 -91s-91 40 -91 91z" />
    <glyph glyph-name="Lslash" unicode="&#x141;" horiz-adv-x="516" 
d="M138 382l35 285h169l-27 -222l110 65l-17 -138l-110 -65l-20 -160h208l-18 -147h-377l30 244l-93 -55l17 138z" />
    <glyph glyph-name="lslash" unicode="&#x142;" horiz-adv-x="302" 
d="M97 449l35 280h160l-27 -213l87 54l-15 -118l-86 -54l-49 -398h-160l41 331l-87 -54l14 118z" />
    <glyph glyph-name="Nacute" unicode="&#x143;" horiz-adv-x="798" 
d="M613 667h169l-82 -667h-185l-177 299c-29 47 -54 98 -82 165v-30c0 -50 -2 -85 -7 -126l-38 -308h-169l82 667h182l190 -322l29 -54l26 -51l13 -25c1 42 3 75 8 114zM473 898h165l-132 -171h-113z" />
    <glyph glyph-name="nacute" unicode="&#x144;" horiz-adv-x="593" 
d="M87 447h165l-14 -58c61 54 101 71 162 71c91 0 141 -48 141 -136c0 -19 -1 -42 -5 -73l-31 -251h-165l25 197c3 26 4 39 4 55c0 46 -22 71 -60 71c-53 0 -76 -32 -87 -121l-25 -202h-165zM363 698h165l-132 -171h-113z" />
    <glyph glyph-name="Ncommaaccent" unicode="&#x145;" horiz-adv-x="798" 
d="M613 667h169l-82 -667h-185l-177 299c-29 47 -54 98 -82 165v-30c0 -50 -2 -85 -7 -126l-38 -308h-169l82 667h182l190 -322l29 -54l26 -51l13 -25c1 42 3 75 8 114zM290 -50l150 -16l-120 -194l-100 12z" />
    <glyph glyph-name="ncommaaccent" unicode="&#x146;" horiz-adv-x="593" 
d="M87 447h165l-14 -58c61 54 101 71 162 71c91 0 141 -48 141 -136c0 -19 -1 -42 -5 -73l-31 -251h-165l25 197c3 26 4 39 4 55c0 46 -22 71 -60 71c-53 0 -76 -32 -87 -121l-25 -202h-165zM210 -50l150 -16l-120 -184l-100 12z" />
    <glyph glyph-name="Ncaron" unicode="&#x147;" horiz-adv-x="798" 
d="M613 667h169l-82 -667h-185l-177 299c-29 47 -54 98 -82 165v-30c0 -50 -2 -85 -7 -126l-38 -308h-169l82 667h182l190 -322l29 -54l26 -51l13 -25c1 42 3 75 8 114zM424 900l37 -86l56 86h132l-111 -173h-182l-59 173h127z" />
    <glyph glyph-name="ncaron" unicode="&#x148;" horiz-adv-x="593" 
d="M87 447h165l-14 -58c61 54 101 71 162 71c91 0 141 -48 141 -136c0 -19 -1 -42 -5 -73l-31 -251h-165l25 197c3 26 4 39 4 55c0 46 -22 71 -60 71c-53 0 -76 -32 -87 -121l-25 -202h-165zM314 700l37 -86l56 86h132l-111 -173h-182l-59 173h127z" />
    <glyph glyph-name="Omacron" unicode="&#x14c;" horiz-adv-x="805" 
d="M429 680c202 0 341 -124 349 -313v-13c0 -219 -146 -367 -362 -367c-217 0 -364 136 -364 337c0 209 156 356 377 356zM605 336c0 4 0 8 -1 12c-6 105 -77 172 -182 172c-114 0 -197 -80 -197 -190s75 -183 187 -183c114 0 193 77 193 189zM234 749l12 98h376l-12 -98
h-376z" />
    <glyph glyph-name="omacron" unicode="&#x14d;" horiz-adv-x="603" 
d="M308 460c157 0 259 -90 259 -229c0 -144 -108 -244 -264 -244c-160 0 -268 94 -268 235c0 139 113 238 273 238zM294 116c61 0 105 51 105 121c0 57 -34 93 -89 93c-61 0 -107 -52 -107 -120c0 -57 36 -94 91 -94zM123 539l12 98h396l-12 -98h-396z" />
    <glyph glyph-name="Obreve" unicode="&#x14e;" horiz-adv-x="805" 
d="M429 680c202 0 341 -124 349 -313v-13c0 -219 -146 -367 -362 -367c-217 0 -364 136 -364 337c0 209 156 356 377 356zM605 336c0 4 0 8 -1 12c-6 105 -77 172 -182 172c-114 0 -197 -80 -197 -190s75 -183 187 -183c114 0 193 77 193 189zM271 861c0 5 1 11 1 20h99
c3 -42 24 -62 65 -62c42 0 67 20 81 62h102c-17 -99 -83 -154 -184 -154c-96 0 -164 55 -164 134z" />
    <glyph glyph-name="obreve" unicode="&#x14f;" horiz-adv-x="603" 
d="M308 460c157 0 259 -90 259 -229c0 -144 -108 -244 -264 -244c-160 0 -268 94 -268 235c0 139 113 238 273 238zM294 116c61 0 105 51 105 121c0 57 -34 93 -89 93c-61 0 -107 -52 -107 -120c0 -57 36 -94 91 -94zM161 661c0 5 1 11 1 20h99c3 -42 24 -62 65 -62
c42 0 67 20 81 62h102c-17 -99 -83 -154 -184 -154c-96 0 -164 55 -164 134z" />
    <glyph glyph-name="Ohungarumlaut" unicode="&#x150;" horiz-adv-x="805" 
d="M429 680c202 0 341 -124 349 -313v-13c0 -219 -146 -367 -362 -367c-217 0 -364 136 -364 337c0 209 156 356 377 356zM605 336c0 4 0 8 -1 12c-6 105 -77 172 -182 172c-114 0 -197 -80 -197 -190s75 -183 187 -183c114 0 193 77 193 189zM340 898h151l-117 -171h-100z
M540 898h151l-117 -171h-99z" />
    <glyph glyph-name="ohungarumlaut" unicode="&#x151;" horiz-adv-x="603" 
d="M308 460c157 0 259 -90 259 -229c0 -144 -108 -244 -264 -244c-160 0 -268 94 -268 235c0 139 113 238 273 238zM294 116c61 0 105 51 105 121c0 57 -34 93 -89 93c-61 0 -107 -52 -107 -120c0 -57 36 -94 91 -94zM228 698h151l-117 -171h-100zM428 698h151l-117 -171
h-99z" />
    <glyph glyph-name="OE" unicode="&#x152;" horiz-adv-x="985" 
d="M637 667h362l-18 -147h-207l-14 -115h186l-18 -146h-186l-14 -112h207l-18 -147h-356l9 75c-63 -61 -127 -88 -209 -88c-180 0 -310 140 -310 334c0 206 147 359 344 359c62 0 114 -15 161 -46c31 -20 43 -33 69 -70zM409 147c110 0 184 74 184 184
c0 112 -72 189 -178 189c-109 0 -191 -85 -191 -199c0 -104 74 -174 185 -174z" />
    <glyph glyph-name="oe" unicode="&#x153;" horiz-adv-x="908" 
d="M872 192h-325c6 -63 33 -90 92 -90c33 0 57 12 71 34h152c-29 -62 -39 -77 -69 -103c-34 -31 -84 -46 -150 -46c-51 0 -91 8 -130 25c-30 13 -41 22 -66 48c-59 -53 -111 -73 -186 -73c-136 0 -226 91 -226 230c0 146 100 243 249 243c74 0 124 -19 176 -67
c57 46 113 67 183 67c66 0 132 -23 170 -59c40 -39 60 -97 60 -175c0 -7 -1 -19 -1 -34zM292 116c61 0 105 51 105 121c0 57 -34 93 -88 93c-60 0 -106 -52 -106 -120c0 -57 35 -94 89 -94zM651 356c-48 0 -79 -25 -88 -71h170c-10 50 -34 71 -82 71z" />
    <glyph glyph-name="Racute" unicode="&#x154;" horiz-adv-x="620" 
d="M523 312c-24 -26 -42 -37 -88 -53l156 -259h-196l-152 265l-32 -265h-169l82 667h217c91 0 147 -18 185 -58c32 -34 51 -89 51 -149s-18 -110 -54 -148zM308 533h-32l-21 -171h30c81 0 118 30 118 93c0 58 -24 78 -95 78zM363 898h165l-132 -171h-113z" />
    <glyph glyph-name="racute" unicode="&#x155;" horiz-adv-x="407" 
d="M87 447h165l-13 -61c51 46 86 61 149 61c7 0 18 -1 32 -2l-18 -152c-26 14 -46 20 -75 20c-68 0 -95 -32 -107 -123l-23 -190h-165zM278 698h165l-132 -171h-113z" />
    <glyph glyph-name="Rcommaaccent" unicode="&#x156;" horiz-adv-x="620" 
d="M523 312c-24 -26 -42 -37 -88 -53l156 -259h-196l-152 265l-32 -265h-169l82 667h217c91 0 147 -18 185 -58c32 -34 51 -89 51 -149s-18 -110 -54 -148zM308 533h-32l-21 -171h30c81 0 118 30 118 93c0 58 -24 78 -95 78zM230 -50l150 -16l-120 -194l-100 12z" />
    <glyph glyph-name="rcommaaccent" unicode="&#x157;" horiz-adv-x="407" 
d="M87 447h165l-13 -61c51 46 86 61 149 61c7 0 18 -1 32 -2l-18 -152c-26 14 -46 20 -75 20c-68 0 -95 -32 -107 -123l-23 -190h-165zM140 -50l150 -16l-120 -184l-100 12z" />
    <glyph glyph-name="Rcaron" unicode="&#x158;" horiz-adv-x="620" 
d="M523 312c-24 -26 -42 -37 -88 -53l156 -259h-196l-152 265l-32 -265h-169l82 667h217c91 0 147 -18 185 -58c32 -34 51 -89 51 -149s-18 -110 -54 -148zM308 533h-32l-21 -171h30c81 0 118 30 118 93c0 58 -24 78 -95 78zM319 900l37 -86l56 86h132l-111 -173h-182
l-59 173h127z" />
    <glyph glyph-name="rcaron" unicode="&#x159;" horiz-adv-x="407" 
d="M87 447h165l-13 -61c51 46 86 61 149 61c7 0 18 -1 32 -2l-18 -152c-26 14 -46 20 -75 20c-68 0 -95 -32 -107 -123l-23 -190h-165zM234 700l37 -86l56 86h132l-111 -173h-182l-59 173h127z" />
    <glyph glyph-name="Sacute" unicode="&#x15a;" horiz-adv-x="529" 
d="M335 680c68 0 129 -19 194 -61l-74 -128c-45 34 -81 49 -117 49c-46 0 -75 -22 -75 -58c0 -32 17 -48 85 -80c110 -52 148 -99 148 -187c0 -134 -106 -228 -255 -228c-80 0 -136 18 -225 73l76 128c60 -41 95 -55 141 -55c53 0 89 27 89 68c0 29 -15 45 -78 76
c-119 60 -154 103 -154 193c0 121 104 210 245 210zM358 898h165l-132 -171h-113z" />
    <glyph glyph-name="sacute" unicode="&#x15b;" horiz-adv-x="470" 
d="M273 462c55 0 105 -14 166 -46l-39 -113c-47 29 -74 38 -109 38c-37 0 -57 -9 -57 -27c0 -11 7 -17 26 -22l54 -14c82 -22 119 -61 119 -125c0 -102 -81 -166 -208 -166c-74 0 -129 18 -206 68l61 108c63 -40 94 -52 139 -52c39 0 61 11 61 31c0 12 -8 19 -25 24l-54 12
c-84 20 -120 60 -120 130c0 92 76 154 192 154zM303 698h165l-132 -171h-113z" />
    <glyph glyph-name="Scircumflex" unicode="&#x15c;" horiz-adv-x="529" 
d="M335 680c68 0 129 -19 194 -61l-74 -128c-45 34 -81 49 -117 49c-46 0 -75 -22 -75 -58c0 -32 17 -48 85 -80c110 -52 148 -99 148 -187c0 -134 -106 -228 -255 -228c-80 0 -136 18 -225 73l76 128c60 -41 95 -55 141 -55c53 0 89 27 89 68c0 29 -15 45 -78 76
c-119 60 -154 103 -154 193c0 121 104 210 245 210zM386 727l-37 86l-56 -86h-132l111 173h182l59 -173h-127z" />
    <glyph glyph-name="scircumflex" unicode="&#x15d;" horiz-adv-x="470" 
d="M273 462c55 0 105 -14 166 -46l-39 -113c-47 29 -74 38 -109 38c-37 0 -57 -9 -57 -27c0 -11 7 -17 26 -22l54 -14c82 -22 119 -61 119 -125c0 -102 -81 -166 -208 -166c-74 0 -129 18 -206 68l61 108c63 -40 94 -52 139 -52c39 0 61 11 61 31c0 12 -8 19 -25 24l-54 12
c-84 20 -120 60 -120 130c0 92 76 154 192 154zM331 527l-37 86l-56 -86h-132l111 173h182l59 -173h-127z" />
    <glyph glyph-name="Scedilla" unicode="&#x15e;" horiz-adv-x="529" 
d="M335 680c68 0 129 -19 194 -61l-74 -128c-45 34 -81 49 -117 49c-46 0 -75 -22 -75 -58c0 -32 17 -48 85 -80c110 -52 148 -99 148 -187c0 -134 -106 -228 -255 -228c-80 0 -136 18 -225 73l76 128c60 -41 95 -55 141 -55c53 0 89 27 89 68c0 29 -15 45 -78 76
c-119 60 -154 103 -154 193c0 121 104 210 245 210zM208 -46l112 -44l-136 -146l-92 40z" />
    <glyph glyph-name="scedilla" unicode="&#x15f;" horiz-adv-x="470" 
d="M273 462c55 0 105 -14 166 -46l-39 -113c-47 29 -74 38 -109 38c-37 0 -57 -9 -57 -27c0 -11 7 -17 26 -22l54 -14c82 -22 119 -61 119 -125c0 -102 -81 -166 -208 -166c-74 0 -129 18 -206 68l61 108c63 -40 94 -52 139 -52c39 0 61 11 61 31c0 12 -8 19 -25 24l-54 12
c-84 20 -120 60 -120 130c0 92 76 154 192 154zM190 -46l106 -44l-136 -146l-84 40z" />
    <glyph glyph-name="Scaron" unicode="&#x160;" horiz-adv-x="529" 
d="M335 680c68 0 129 -19 194 -61l-74 -128c-45 34 -81 49 -117 49c-46 0 -75 -22 -75 -58c0 -32 17 -48 85 -80c110 -52 148 -99 148 -187c0 -134 -106 -228 -255 -228c-80 0 -136 18 -225 73l76 128c60 -41 95 -55 141 -55c53 0 89 27 89 68c0 29 -15 45 -78 76
c-119 60 -154 103 -154 193c0 121 104 210 245 210zM314 900l37 -86l56 86h132l-111 -173h-182l-59 173h127z" />
    <glyph glyph-name="scaron" unicode="&#x161;" horiz-adv-x="470" 
d="M273 462c55 0 105 -14 166 -46l-39 -113c-47 29 -74 38 -109 38c-37 0 -57 -9 -57 -27c0 -11 7 -17 26 -22l54 -14c82 -22 119 -61 119 -125c0 -102 -81 -166 -208 -166c-74 0 -129 18 -206 68l61 108c63 -40 94 -52 139 -52c39 0 61 11 61 31c0 12 -8 19 -25 24l-54 12
c-84 20 -120 60 -120 130c0 92 76 154 192 154zM254 700l37 -86l56 86h132l-111 -173h-182l-59 173h127z" />
    <glyph glyph-name="Tcommaaccent" unicode="&#x162;" horiz-adv-x="465" 
d="M495 520h-140l-65 -520h-168l64 520h-143l18 147h452zM160 -50l150 -16l-120 -194l-100 12z" />
    <glyph glyph-name="tcommaaccent" unicode="&#x163;" horiz-adv-x="333" 
d="M344 320h-88l-40 -320h-164l39 320h-70l15 127h71l17 147h165l-18 -147h88zM100 -50l150 -16l-120 -184l-100 12z" />
    <glyph glyph-name="Tcaron" unicode="&#x164;" horiz-adv-x="465" 
d="M495 520h-140l-65 -520h-168l64 520h-143l18 147h452zM269 900l37 -86l56 86h132l-111 -173h-182l-59 173h127z" />
    <glyph glyph-name="tcaron" unicode="&#x165;" horiz-adv-x="490" 
d="M344 320h-88l-40 -320h-164l39 320h-70l15 127h71l17 147h165l-18 -147h88zM420 700l150 -26l-140 -202l-100 18z" />
    <glyph glyph-name="Utilde" unicode="&#x168;" horiz-adv-x="717" 
d="M532 667h169l-47 -386c-16 -128 -33 -179 -76 -220c-50 -48 -130 -74 -228 -74c-173 0 -278 85 -278 228c0 20 3 51 8 92l44 360h168l-44 -360c-2 -20 -3 -39 -3 -56c0 -70 36 -104 110 -104c42 0 75 11 95 33c21 24 28 47 36 107zM528 873l79 -46
c-11 -21 -31 -51 -52 -69c-28 -25 -57 -31 -77 -31s-48 8 -66 15l-36 14c-19 7 -34 15 -48 15c-27 0 -42 -27 -47 -42l-78 46c11 25 30 52 48 68c22 19 51 30 85 30c24 0 48 -6 68 -14l29 -12c23 -9 38 -18 50 -18c22 0 36 20 45 44z" />
    <glyph glyph-name="utilde" unicode="&#x169;" horiz-adv-x="597" 
d="M399 447h164l-28 -236c-12 -93 -30 -139 -67 -170c-41 -35 -108 -54 -189 -54c-143 0 -224 63 -224 176c0 16 1 36 4 61l28 223h164l-26 -213c-3 -27 -5 -44 -5 -52c0 -38 24 -58 67 -58c52 0 75 25 83 90zM468 671l79 -46c-11 -21 -31 -51 -52 -69
c-28 -25 -57 -31 -77 -31s-48 8 -66 15l-36 14c-19 7 -34 15 -48 15c-27 0 -42 -27 -47 -42l-78 46c11 25 30 52 48 68c22 19 51 30 85 30c24 0 48 -6 68 -14l29 -12c23 -9 38 -18 50 -18c22 0 36 20 45 44z" />
    <glyph glyph-name="Umacron" unicode="&#x16a;" horiz-adv-x="717" 
d="M532 667h169l-47 -386c-16 -128 -33 -179 -76 -220c-50 -48 -130 -74 -228 -74c-173 0 -278 85 -278 228c0 20 3 51 8 92l44 360h168l-44 -360c-2 -20 -3 -39 -3 -56c0 -70 36 -104 110 -104c42 0 75 11 95 33c21 24 28 47 36 107zM219 749l12 98h376l-12 -98h-376z" />
    <glyph glyph-name="umacron" unicode="&#x16b;" horiz-adv-x="597" 
d="M399 447h164l-28 -236c-12 -93 -30 -139 -67 -170c-41 -35 -108 -54 -189 -54c-143 0 -224 63 -224 176c0 16 1 36 4 61l28 223h164l-26 -213c-3 -27 -5 -44 -5 -52c0 -38 24 -58 67 -58c52 0 75 25 83 90zM125 539l12 98h396l-12 -98h-396z" />
    <glyph glyph-name="Ubreve" unicode="&#x16c;" horiz-adv-x="717" 
d="M532 667h169l-47 -386c-16 -128 -33 -179 -76 -220c-50 -48 -130 -74 -228 -74c-173 0 -278 85 -278 228c0 20 3 51 8 92l44 360h168l-44 -360c-2 -20 -3 -39 -3 -56c0 -70 36 -104 110 -104c42 0 75 11 95 33c21 24 28 47 36 107zM256 861c0 5 1 11 1 20h99
c3 -42 24 -62 65 -62c42 0 67 20 81 62h102c-17 -99 -83 -154 -184 -154c-96 0 -164 55 -164 134z" />
    <glyph glyph-name="ubreve" unicode="&#x16d;" horiz-adv-x="597" 
d="M399 447h164l-28 -236c-12 -93 -30 -139 -67 -170c-41 -35 -108 -54 -189 -54c-143 0 -224 63 -224 176c0 16 1 36 4 61l28 223h164l-26 -213c-3 -27 -5 -44 -5 -52c0 -38 24 -58 67 -58c52 0 75 25 83 90zM171 661c0 5 1 11 1 20h99c3 -42 24 -62 65 -62
c42 0 67 20 81 62h102c-17 -99 -83 -154 -184 -154c-96 0 -164 55 -164 134z" />
    <glyph glyph-name="Uring" unicode="&#x16e;" horiz-adv-x="717" 
d="M532 667h169l-47 -386c-16 -128 -33 -179 -76 -220c-50 -48 -130 -74 -228 -74c-173 0 -278 85 -278 228c0 20 3 51 8 92l44 360h168l-44 -360c-2 -20 -3 -39 -3 -56c0 -70 36 -104 110 -104c42 0 75 11 95 33c21 24 28 47 36 107zM427 727c-85 0 -135 36 -135 99
c0 60 52 98 133 98c80 0 130 -38 130 -99c0 -60 -50 -98 -128 -98zM424 862c-31 0 -50 -14 -50 -37c0 -22 19 -37 49 -37c32 0 51 14 51 37s-19 37 -50 37z" />
    <glyph glyph-name="uring" unicode="&#x16f;" horiz-adv-x="597" 
d="M399 447h164l-28 -236c-12 -93 -30 -139 -67 -170c-41 -35 -108 -54 -189 -54c-143 0 -224 63 -224 176c0 16 1 36 4 61l28 223h164l-26 -213c-3 -27 -5 -44 -5 -52c0 -38 24 -58 67 -58c52 0 75 25 83 90zM336 527c-85 0 -135 36 -135 99c0 60 52 98 133 98
c80 0 130 -38 130 -99c0 -60 -50 -98 -128 -98zM333 662c-31 0 -50 -14 -50 -37c0 -22 19 -37 49 -37c32 0 51 14 51 37s-19 37 -50 37z" />
    <glyph glyph-name="Uhungarumlaut" unicode="&#x170;" horiz-adv-x="717" 
d="M532 667h169l-47 -386c-16 -128 -33 -179 -76 -220c-50 -48 -130 -74 -228 -74c-173 0 -278 85 -278 228c0 20 3 51 8 92l44 360h168l-44 -360c-2 -20 -3 -39 -3 -56c0 -70 36 -104 110 -104c42 0 75 11 95 33c21 24 28 47 36 107zM296 898h151l-117 -171h-100zM496 898
h151l-117 -171h-99z" />
    <glyph glyph-name="uhungarumlaut" unicode="&#x171;" horiz-adv-x="597" 
d="M399 447h164l-28 -236c-12 -93 -30 -139 -67 -170c-41 -35 -108 -54 -189 -54c-143 0 -224 63 -224 176c0 16 1 36 4 61l28 223h164l-26 -213c-3 -27 -5 -44 -5 -52c0 -38 24 -58 67 -58c52 0 75 25 83 90zM223 698h151l-117 -171h-100zM423 698h151l-117 -171h-99z" />
    <glyph glyph-name="Uogonek" unicode="&#x172;" horiz-adv-x="717" 
d="M532 667h169l-48 -397c-10 -81 -16 -136 -57 -188c-24 -30 -56 -52 -89 -69c-31 -17 -51 -24 -75 -39c-17 -10 -37 -25 -37 -47c0 -9 3 -19 10 -25c6 -6 16 -9 25 -9c15 0 37 9 49 18l-32 -86c-24 -13 -48 -18 -68 -18c-18 0 -43 3 -62 23c-13 14 -22 34 -22 57
c0 22 7 41 19 58c10 14 27 31 43 43c-7 -1 -15 -1 -22 -1c-71 0 -158 26 -207 77c-34 35 -56 88 -56 151c0 24 6 77 8 92l44 360h168l-43 -350c-2 -18 -5 -45 -5 -61c0 -32 6 -61 25 -80c25 -26 66 -29 86 -29c25 0 67 3 95 33c26 28 32 72 36 107z" />
    <glyph glyph-name="uogonek" unicode="&#x173;" horiz-adv-x="597" 
d="M399 447h164l-28 -236c-8 -70 -17 -112 -55 -153c-26 -28 -53 -42 -83 -56c-24 -11 -48 -23 -65 -38c-8 -7 -20 -21 -20 -40c0 -8 3 -17 9 -22c7 -6 20 -9 30 -9c18 0 37 11 48 18l-32 -88c-24 -11 -47 -13 -63 -13c-29 0 -53 9 -67 22c-13 12 -22 33 -22 57
c0 21 6 38 20 56c12 16 28 31 45 42c-63 0 -122 10 -168 48c-41 34 -57 78 -57 128c0 13 2 48 4 61l28 223h164l-27 -221c-2 -14 -4 -26 -4 -39c0 -20 6 -36 15 -46c15 -16 42 -17 54 -17c19 0 37 3 53 18c22 21 26 53 28 72z" />
    <glyph glyph-name="Ydieresis" unicode="&#x178;" horiz-adv-x="623" 
d="M676 667l-291 -375l-36 -292h-169l37 297l-170 370h187l46 -107c27 -64 29 -68 36 -90c2 -5 4 -13 7 -22c9 17 18 31 33 53l115 166h205zM459 887c43 0 80 -37 80 -80c0 -45 -35 -80 -79 -80c-45 0 -82 36 -82 81c0 43 37 79 81 79zM257 887c45 0 80 -36 80 -80
c0 -45 -35 -80 -79 -80c-46 0 -81 35 -81 81c0 44 35 79 80 79z" />
    <glyph glyph-name="Zacute" unicode="&#x179;" horiz-adv-x="631" 
d="M298 147h299l-18 -147h-577l362 520h-263l18 147h536zM383 898h165l-132 -171h-113z" />
    <glyph glyph-name="zacute" unicode="&#x17a;" horiz-adv-x="559" 
d="M293 127h216l-21 -127h-496l276 320h-195l21 127h472zM333 698h165l-132 -171h-113z" />
    <glyph glyph-name="Zdotaccent" unicode="&#x17b;" horiz-adv-x="631" 
d="M298 147h299l-18 -147h-577l362 520h-263l18 147h536zM281 811c0 51 40 91 91 91s91 -40 91 -91s-40 -91 -91 -91s-91 40 -91 91z" />
    <glyph glyph-name="zdotaccent" unicode="&#x17c;" horiz-adv-x="559" 
d="M293 127h216l-21 -127h-496l276 320h-195l21 127h472zM235 611c0 51 40 91 91 91s91 -40 91 -91s-40 -91 -91 -91s-91 40 -91 91z" />
    <glyph glyph-name="Zcaron" unicode="&#x17d;" horiz-adv-x="631" 
d="M298 147h299l-18 -147h-577l362 520h-263l18 147h536zM354 900l37 -86l56 86h132l-111 -173h-182l-59 173h127z" />
    <glyph glyph-name="zcaron" unicode="&#x17e;" horiz-adv-x="559" 
d="M293 127h216l-21 -127h-496l276 320h-195l21 127h472zM299 700l37 -86l56 86h132l-111 -173h-182l-59 173h127z" />
    <glyph glyph-name="uni018F" unicode="&#x18f;" horiz-adv-x="783" 
d="M263 442l-175 35c34 73 84 120 131 149c70 44 143 54 205 54c74 0 167 -12 242 -84c43 -41 90 -111 90 -227c0 -120 -47 -225 -115 -289c-49 -46 -128 -93 -255 -93c-83 0 -169 20 -238 88c-74 73 -111 190 -90 307h523c-4 34 -20 74 -45 98c-30 28 -78 40 -125 40
c-33 0 -63 -6 -91 -22c-22 -12 -42 -30 -57 -56zM559 258h-335c5 -38 23 -64 43 -82c22 -20 60 -39 120 -39c40 0 82 11 113 33c25 19 48 51 59 88z" />
    <glyph glyph-name="florin" unicode="&#x192;" horiz-adv-x="600" 
d="M181 113l60 238h-76l23 96h78l29 111c12 45 33 95 67 128c44 43 102 54 149 54c32 0 68 -4 107 -25l-36 -139c-24 18 -44 22 -59 22c-25 0 -40 -9 -49 -18c-15 -15 -22 -42 -29 -68l-17 -65h97l-25 -96h-97l-64 -257c-18 -74 -44 -163 -99 -216
c-57 -55 -132 -66 -197 -66c-30 0 -57 2 -87 9l37 146c13 -5 30 -9 52 -9c27 0 55 6 75 22c30 24 46 73 61 133z" />
    <glyph glyph-name="uni01CF" unicode="&#x1cf;" horiz-adv-x="309" 
d="M124 667h169l-82 -667h-169zM189 900l37 -86l56 86h132l-111 -173h-182l-59 173h127z" />
    <glyph glyph-name="uni01D0" unicode="&#x1d0;" horiz-adv-x="285" 
d="M87 447h165l-55 -447h-165zM152 700l37 -86l56 86h132l-111 -173h-182l-59 173h127z" />
    <glyph glyph-name="uni01DD" unicode="&#x1dd;" horiz-adv-x="578" 
d="M36 257h338c2 25 -7 53 -24 69c-18 17 -43 18 -59 18c-15 0 -34 -3 -50 -14c-10 -7 -20 -20 -26 -32l-154 38c15 30 40 63 86 89c48 27 100 35 151 35c53 0 125 -9 180 -62c26 -25 64 -76 64 -166s-37 -145 -67 -176c-59 -60 -131 -69 -188 -69s-127 11 -183 66
c-48 47 -75 121 -68 204zM363 164h-164c1 -19 9 -39 20 -50c16 -16 40 -19 56 -19c30 0 53 9 66 22c11 10 20 27 22 47z" />
    <glyph glyph-name="Gcaron" unicode="&#x1e6;" horiz-adv-x="752" 
d="M389 237l16 134h321c-2 -74 -11 -129 -33 -185c-47 -124 -166 -199 -311 -199c-196 0 -332 134 -332 328c0 211 154 365 365 365c85 0 156 -24 213 -72c42 -36 59 -59 86 -123l-147 -57c-33 73 -83 109 -156 109c-106 0 -187 -94 -187 -219c0 -108 73 -185 175 -185
c73 0 130 41 145 104h-155zM393 900l37 -86l56 86h132l-111 -173h-182l-59 173h127z" />
    <glyph glyph-name="gcaron" unicode="&#x1e7;" horiz-adv-x="608" 
d="M411 447h164l-49 -392c-14 -120 -34 -179 -75 -221c-44 -43 -108 -63 -199 -63c-80 0 -136 17 -176 54c-38 34 -54 68 -65 125h157c6 -30 36 -51 84 -51c62 0 93 30 102 105l5 42c-48 -45 -79 -59 -131 -59c-121 0 -197 86 -197 222c0 147 93 251 225 251
c64 0 106 -21 152 -78zM289 117c58 0 96 47 96 119c0 58 -33 94 -87 94c-58 0 -99 -47 -99 -114c0 -60 36 -99 90 -99zM309 700l37 -86l56 86h132l-111 -173h-182l-59 173h127z" />
    <glyph glyph-name="AEacute" unicode="&#x1fc;" horiz-adv-x="923" 
d="M311 667h417l37 -147h-212l31 -113h203l37 -147h-201l30 -113h206l36 -147h-373l-28 120h-274l-56 -120h-179zM360 421l-78 -168h182l-44 178c-9 37 -13 58 -18 93c-20 -52 -30 -77 -42 -103zM519 898h165l-132 -171h-113z" />
    <glyph glyph-name="aeacute" unicode="&#x1fd;" horiz-adv-x="863" 
d="M827 197h-334v-5c0 -25 9 -51 24 -66s39 -23 61 -23c26 0 60 8 76 40h159c-9 -40 -29 -80 -77 -113c-49 -33 -106 -43 -157 -43c-33 0 -71 2 -108 16c-28 11 -48 26 -64 45c-31 -26 -62 -39 -85 -46c-30 -9 -70 -15 -107 -15c-79 0 -122 25 -145 46c-27 25 -42 55 -42 96
c0 40 12 72 37 97c17 17 59 50 147 50c37 0 84 -7 131 -42c2 10 3 20 3 30c0 27 -7 53 -23 68c-20 19 -54 21 -71 21c-43 0 -83 -9 -141 -33l8 117c74 18 123 23 161 23c49 0 80 -9 93 -13c30 -10 52 -24 71 -45c20 20 40 31 64 41c35 14 62 17 100 17c46 0 103 -7 149 -49
c62 -56 70 -138 70 -199v-15zM246 176c-17 0 -35 -3 -50 -12c-16 -10 -20 -23 -20 -32s3 -22 18 -32c16 -11 40 -15 57 -15c15 0 34 2 51 14c11 8 18 18 18 32c0 11 -6 24 -23 34c-18 10 -37 11 -51 11zM508 290h169c-2 27 -17 43 -28 51c-15 11 -37 15 -54 15
c-19 0 -44 -5 -61 -19c-11 -9 -22 -26 -26 -47zM489 698h165l-132 -171h-113z" />
    <glyph glyph-name="Scommaaccent" unicode="&#x218;" horiz-adv-x="529" 
d="M335 680c68 0 129 -19 194 -61l-74 -128c-45 34 -81 49 -117 49c-46 0 -75 -22 -75 -58c0 -32 17 -48 85 -80c110 -52 148 -99 148 -187c0 -134 -106 -228 -255 -228c-80 0 -136 18 -225 73l76 128c60 -41 95 -55 141 -55c53 0 89 27 89 68c0 29 -15 45 -78 76
c-119 60 -154 103 -154 193c0 121 104 210 245 210zM180 -50l150 -16l-120 -194l-100 12z" />
    <glyph glyph-name="scommaaccent" unicode="&#x219;" horiz-adv-x="470" 
d="M273 462c55 0 105 -14 166 -46l-39 -113c-47 29 -74 38 -109 38c-37 0 -57 -9 -57 -27c0 -11 7 -17 26 -22l54 -14c82 -22 119 -61 119 -125c0 -102 -81 -166 -208 -166c-74 0 -129 18 -206 68l61 108c63 -40 94 -52 139 -52c39 0 61 11 61 31c0 12 -8 19 -25 24l-54 12
c-84 20 -120 60 -120 130c0 92 76 154 192 154zM160 -50l150 -16l-120 -184l-100 12z" />
    <glyph glyph-name="uni021A" unicode="&#x21a;" horiz-adv-x="465" 
d="M495 520h-140l-65 -520h-168l64 520h-143l18 147h452zM160 -50l150 -16l-120 -194l-100 12z" />
    <glyph glyph-name="uni021B" unicode="&#x21b;" horiz-adv-x="333" 
d="M344 320h-88l-40 -320h-164l39 320h-70l15 127h71l17 147h165l-18 -147h88zM100 -50l150 -16l-120 -184l-100 12z" />
    <glyph glyph-name="uni0228" unicode="&#x228;" horiz-adv-x="483" 
d="M124 667h365l-18 -147h-196l-14 -111h190l-18 -146h-190l-14 -116h204l-18 -147h-373zM219 -46l112 -44l-136 -146l-92 40z" />
    <glyph glyph-name="uni0229" unicode="&#x229;" horiz-adv-x="561" 
d="M525 190h-334c0 -16 0 -55 23 -76c8 -8 24 -17 51 -17c14 0 29 3 42 12s19 20 22 30h180c-11 -33 -29 -61 -49 -81c-57 -59 -141 -71 -194 -71c-94 0 -146 36 -171 59c-29 28 -61 78 -61 158c0 86 35 148 73 185c39 38 100 71 191 71c84 0 137 -30 169 -62
c46 -46 60 -112 60 -170c0 -13 -1 -26 -2 -38zM202 283h156c-1 21 -10 41 -23 53c-12 11 -30 18 -52 18c-23 0 -44 -9 -57 -22s-21 -33 -24 -49zM259 -46l106 -44l-136 -146l-84 40z" />
    <glyph glyph-name="uni0237" unicode="&#x237;" horiz-adv-x="276" 
d="M85 447h165l-84 -676h-164z" />
    <glyph glyph-name="uni0259" unicode="&#x259;" horiz-adv-x="578" 
d="M36 257h338c2 25 -7 53 -24 69c-18 17 -43 18 -59 18c-15 0 -34 -3 -50 -14c-10 -7 -20 -20 -26 -32l-154 38c15 30 40 63 86 89c48 27 100 35 151 35c53 0 125 -9 180 -62c26 -25 64 -76 64 -166s-37 -145 -67 -176c-59 -60 -131 -69 -188 -69s-127 11 -183 66
c-48 47 -75 121 -68 204zM363 164h-164c1 -19 9 -39 20 -50c16 -16 40 -19 56 -19c30 0 53 9 66 22c11 10 20 27 22 47z" />
    <glyph glyph-name="afii57929" unicode="&#x2bc;" 
d="M220 700l150 -26l-140 -202l-100 18z" />
    <glyph glyph-name="circumflex" unicode="&#x2c6;" 
d="M336 527l-37 86l-56 -86h-132l111 173h182l59 -173h-127z" />
    <glyph glyph-name="caron" unicode="&#x2c7;" 
d="M259 700l37 -86l56 86h132l-111 -173h-182l-59 173h127z" />
    <glyph glyph-name="uni02C9" unicode="&#x2c9;" 
d="M83 539l12 98h396l-12 -98h-396z" />
    <glyph glyph-name="breve" unicode="&#x2d8;" 
d="M131 661c0 5 1 11 1 20h99c3 -42 24 -62 65 -62c42 0 67 20 81 62h102c-17 -99 -83 -154 -184 -154c-96 0 -164 55 -164 134z" />
    <glyph glyph-name="dotaccent" unicode="&#x2d9;" 
d="M206 611c0 51 40 91 91 91s91 -40 91 -91s-40 -91 -91 -91s-91 40 -91 91z" />
    <glyph glyph-name="ring" unicode="&#x2da;" 
d="M302 527c-85 0 -135 36 -135 99c0 60 52 98 133 98c80 0 130 -38 130 -99c0 -60 -50 -98 -128 -98zM299 662c-31 0 -50 -14 -50 -37c0 -22 19 -37 49 -37c32 0 51 14 51 37s-19 37 -50 37z" />
    <glyph glyph-name="ogonek" unicode="&#x2db;" 
d="M322 -89l-32 -86c-29 -17 -61 -18 -71 -18c-22 0 -41 6 -58 23c-15 15 -23 33 -23 56c0 33 14 56 36 78c15 15 30 26 46 36h73c-17 -12 -25 -21 -38 -34c-8 -9 -20 -20 -20 -39c0 -9 3 -19 10 -25c7 -7 16 -9 25 -9c15 0 29 5 52 18z" />
    <glyph glyph-name="tilde" unicode="&#x2dc;" 
d="M420 671l79 -46c-11 -21 -31 -51 -52 -69c-28 -25 -57 -31 -77 -31s-48 8 -66 15l-36 14c-19 7 -34 15 -48 15c-27 0 -42 -27 -47 -42l-78 46c11 25 30 52 48 68c22 19 51 30 85 30c24 0 48 -6 68 -14l29 -12c23 -9 38 -18 50 -18c22 0 36 20 45 44z" />
    <glyph glyph-name="hungarumlaut" unicode="&#x2dd;" 
d="M188 698h151l-117 -171h-100zM388 698h151l-117 -171h-99z" />
    <glyph glyph-name="acutecomb" unicode="&#x301;" horiz-adv-x="2" 
d="M-273 698h165l-132 -171h-113z" />
    <glyph glyph-name="uni0313" unicode="&#x313;" 
d="M220 700l150 -26l-140 -202l-100 18z" />
    <glyph glyph-name="uni0315" unicode="&#x315;" 
d="M220 700l150 -26l-140 -202l-100 18z" />
    <glyph glyph-name="uni0326" unicode="&#x326;" 
d="M200 -50l150 -16l-120 -184l-100 12z" />
    <glyph glyph-name="uni037E" unicode="&#x37e;" horiz-adv-x="307" 
d="M184 460c58 0 104 -44 104 -100c0 -58 -44 -103 -100 -103s-103 47 -103 102c0 56 45 101 99 101zM115 167h153l-182 -316h-121z" />
    <glyph glyph-name="anoteleia" unicode="&#x387;" horiz-adv-x="232" 
d="M128 457c66 0 118 -51 118 -115c0 -67 -50 -119 -115 -119c-63 0 -117 54 -117 118s51 116 114 116z" />
    <glyph glyph-name="uni0394" unicode="&#x394;" horiz-adv-x="667" 
d="M622 0h-634l245 667h141zM304 508l-130 -390h260z" />
    <glyph glyph-name="uni03A9" unicode="&#x3a9;" horiz-adv-x="667" 
d="M294 0h-271v117h136c-52 33 -76 56 -99 94c-24 42 -37 95 -37 155c0 183 129 317 305 317s305 -134 305 -317c0 -82 -23 -147 -68 -196c-19 -21 -33 -31 -68 -53h136v-117h-270v104c50 28 76 53 98 92c23 40 36 98 36 156c0 125 -71 214 -169 214s-169 -90 -169 -214
c0 -84 23 -153 69 -200c20 -20 32 -30 66 -48v-104z" />
    <glyph glyph-name="uni03BC" unicode="&#x3bc;" horiz-adv-x="593" 
d="M162 -230h-160l83 677h160l-26 -204c-2 -16 -3 -27 -3 -42c0 -27 5 -50 21 -66c8 -8 22 -17 44 -17c20 0 38 7 51 19c25 23 37 65 43 114l24 196h160l-55 -447h-160l7 56c-8 -16 -21 -33 -33 -44c-15 -13 -32 -20 -52 -20c-23 0 -38 9 -47 18c-11 10 -19 27 -23 41z" />
    <glyph glyph-name="pi" unicode="&#x3c0;" horiz-adv-x="683" 
d="M298 0h-160v321h-76v126h607v-126h-76v-321h-160v321h-135v-321z" />
    <glyph glyph-name="afii10023" unicode="&#x401;" horiz-adv-x="487" 
d="M124 667h365l-18 -147h-196l-14 -111h190l-18 -146h-190l-14 -116h204l-18 -147h-373zM341 800c0 47 36 83 83 83s83 -36 83 -83s-36 -83 -83 -83s-83 36 -83 83zM129 800c0 47 36 83 83 83s83 -36 83 -83s-36 -83 -83 -83s-83 36 -83 83z" />
    <glyph glyph-name="afii10051" unicode="&#x402;" horiz-adv-x="736" 
d="M136 0l64 520h-150l18 147h532l-18 -147h-213l-15 -127c43 17 80 23 122 23c87 0 138 -24 168 -50s62 -78 62 -159c0 -77 -34 -133 -71 -164c-56 -47 -136 -50 -177 -50c-29 0 -55 2 -85 8l16 131c18 -4 36 -7 56 -7c19 0 44 1 62 18c12 12 21 32 21 57
c0 28 -12 43 -20 51c-18 16 -45 19 -62 19c-34 0 -74 -7 -110 -23l-31 -247h-169z" />
    <glyph glyph-name="afii10052" unicode="&#x403;" horiz-adv-x="486" 
d="M124 667h392l-18 -147h-223l-64 -520h-169zM343 898h165l-132 -171h-113z" />
    <glyph glyph-name="afii10053" unicode="&#x404;" horiz-adv-x="646" 
d="M567 207l-22 -174c-27 -16 -84 -46 -176 -46c-118 0 -190 48 -226 83c-44 42 -93 116 -93 231c0 100 37 217 116 289c61 56 153 90 255 90c48 0 125 -9 198 -53l-22 -174c-57 54 -126 67 -175 67c-32 0 -73 -6 -110 -30c-38 -25 -55 -58 -63 -83h248l-16 -142h-250
c6 -28 20 -61 56 -87c35 -26 71 -31 109 -31c83 0 134 27 171 60z" />
    <glyph glyph-name="afii10054" unicode="&#x405;" horiz-adv-x="529" 
d="M335 680c68 0 129 -19 194 -61l-74 -128c-45 34 -81 49 -117 49c-46 0 -75 -22 -75 -58c0 -32 17 -48 85 -80c110 -52 148 -99 148 -187c0 -134 -106 -228 -255 -228c-80 0 -136 18 -225 73l76 128c60 -41 95 -55 141 -55c53 0 89 27 89 68c0 29 -15 45 -78 76
c-119 60 -154 103 -154 193c0 121 104 210 245 210z" />
    <glyph glyph-name="afii10055" unicode="&#x406;" horiz-adv-x="309" 
d="M124 667h169l-82 -667h-169z" />
    <glyph glyph-name="afii10056" unicode="&#x407;" horiz-adv-x="350" 
d="M142 667h173l-82 -667h-173zM342 897c19 0 33 -5 45 -16c10 -9 25 -27 25 -58c0 -32 -14 -57 -34 -72c-14 -11 -29 -16 -47 -16c-19 0 -33 5 -45 16c-21 18 -24 38 -24 56c0 29 8 55 33 74c14 11 29 16 47 16zM164 897c19 0 33 -5 45 -16c10 -9 25 -27 25 -58
c0 -32 -14 -57 -34 -72c-14 -11 -29 -16 -47 -16c-19 0 -33 5 -45 16c-21 18 -24 38 -24 56c0 29 8 55 33 74c14 11 29 16 47 16z" />
    <glyph glyph-name="afii10057" unicode="&#x408;" horiz-adv-x="481" 
d="M296 667h169l-57 -459c-7 -58 -17 -117 -68 -168c-47 -47 -99 -53 -146 -53c-50 0 -92 8 -132 37c-28 20 -53 51 -69 82l125 97c3 -15 11 -34 21 -45c10 -12 24 -17 42 -17c12 0 25 3 37 16s19 34 25 79z" />
    <glyph glyph-name="afii10058" unicode="&#x409;" horiz-adv-x="1006" 
d="M444 0l64 520h-168l-30 -241c-10 -80 -34 -167 -89 -222c-59 -60 -125 -64 -180 -64c-25 0 -42 1 -66 7l20 160c9 -3 22 -7 39 -7c26 0 46 9 60 20c31 25 44 73 51 126l45 368h505l-32 -262h94c88 0 141 -24 171 -54c24 -23 48 -62 48 -124c0 -58 -20 -119 -61 -159
c-58 -57 -151 -68 -233 -68h-73h-165zM630 133h57c29 0 65 3 83 15c14 9 28 30 28 66c0 9 -1 32 -18 45c-10 8 -27 13 -73 13h-60z" />
    <glyph glyph-name="afii10059" unicode="&#x40a;" horiz-adv-x="1011" 
d="M447 0l33 271h-236l-34 -271h-168l82 667h169l-31 -249h236l31 249h169l-30 -249h94c88 0 141 -24 171 -54c40 -39 48 -88 48 -126c0 -67 -23 -130 -60 -167c-65 -66 -179 -71 -236 -71h-238zM633 133h57c39 0 64 5 81 16c13 9 32 30 32 73c0 16 -3 39 -25 52
c-11 7 -29 11 -66 11h-60z" />
    <glyph glyph-name="afii10060" unicode="&#x40b;" horiz-adv-x="767" 
d="M697 0h-169l21 165c4 33 6 67 -24 87c-18 12 -51 17 -78 17c-45 0 -94 -14 -108 -18l-31 -251h-169l64 520h-153l18 147h537l-18 -147h-215l-15 -126c54 17 112 22 153 22c25 0 102 -2 153 -35c72 -46 67 -115 60 -172z" />
    <glyph glyph-name="afii10061" unicode="&#x40c;" horiz-adv-x="672" 
d="M124 667h169l-36 -292l220 292h194l-255 -340l228 -327h-203l-143 213c-18 27 -37 62 -50 88l-37 -301h-169zM404 898h165l-132 -171h-113z" />
    <glyph glyph-name="afii10062" unicode="&#x40e;" horiz-adv-x="642" 
d="M45 667h182l126 -299l147 299h195l-382 -667h-183l118 200zM460 898l108 -48c-18 -49 -50 -77 -77 -93c-43 -26 -89 -29 -128 -29c-36 0 -89 2 -133 30c-24 15 -55 43 -72 92l115 48c4 -17 14 -36 28 -47c14 -12 36 -19 65 -19c16 0 40 3 61 19c15 12 27 30 33 47z" />
    <glyph glyph-name="afii10145" unicode="&#x40f;" horiz-adv-x="708" 
d="M42 0l82 667h169l-64 -520h230l64 520h169l-81 -667h-208l-21 -166h-152l21 166h-209z" />
    <glyph glyph-name="afii10017" unicode="&#x410;" horiz-adv-x="695" 
d="M462 112h-238l-51 -112h-188l331 667h190l161 -667h-177zM353 393l-67 -149h144l-28 127c-11 51 -12 57 -15 77c-1 5 -3 13 -4 24c-11 -35 -20 -56 -30 -79z" />
    <glyph glyph-name="afii10018" unicode="&#x411;" horiz-adv-x="605" 
d="M42 0l81 667h433l-18 -147h-264l-15 -118h90c69 0 130 -12 172 -57c36 -38 44 -85 44 -119c0 -68 -25 -124 -60 -158c-58 -57 -150 -68 -233 -68h-230zM227 133h54c23 0 60 3 81 17c26 17 30 45 30 62c0 11 -2 31 -16 44c-16 14 -45 16 -77 16h-55z" />
    <glyph glyph-name="afii10019" unicode="&#x412;" horiz-adv-x="603" 
d="M42 0l82 667h213c86 0 126 -9 158 -34c34 -26 53 -71 53 -121c0 -38 -11 -76 -30 -104c-20 -29 -36 -42 -79 -61c42 -10 58 -17 79 -35c29 -25 45 -64 45 -111c0 -81 -50 -154 -127 -184c-33 -13 -66 -17 -129 -17h-265zM307 534h-31l-16 -132h24c74 0 104 22 104 74
c0 45 -18 58 -81 58zM295 277h-51l-17 -144h46c83 0 115 24 115 81c0 49 -20 63 -93 63z" />
    <glyph glyph-name="afii10020" unicode="&#x413;" horiz-adv-x="486" 
d="M124 667h392l-18 -147h-223l-64 -520h-169z" />
    <glyph glyph-name="afii10021" unicode="&#x414;" horiz-adv-x="749" 
d="M215 667h494l-65 -520h80l-35 -285h-152l18 138h-404l-19 -136h-152l36 284c29 5 61 18 92 48c46 44 60 100 70 178zM358 520l-18 -156c-7 -65 -19 -104 -31 -131c-20 -44 -48 -71 -69 -86h236l44 373h-162z" />
    <glyph glyph-name="afii10022" unicode="&#x415;" horiz-adv-x="483" 
d="M124 667h365l-18 -147h-196l-14 -111h190l-18 -146h-190l-14 -116h204l-18 -147h-373z" />
    <glyph glyph-name="afii10024" unicode="&#x416;" horiz-adv-x="987" 
d="M373 0l36 293l-216 -293h-218l282 346l-180 321h200l142 -290l36 290h169l-36 -290l214 290h200l-257 -335l195 -332h-218l-144 293l-36 -293h-169z" />
    <glyph glyph-name="afii10025" unicode="&#x417;" horiz-adv-x="582" 
d="M156 484l-57 124c29 18 65 37 95 48c46 17 91 24 137 24c92 0 143 -28 172 -57c24 -24 44 -61 44 -113c0 -47 -17 -83 -35 -108c-25 -33 -54 -48 -77 -55l-1 -3c28 -7 52 -21 69 -37c28 -27 38 -60 38 -97c0 -58 -21 -111 -58 -149c-60 -63 -141 -74 -214 -74
c-50 0 -97 7 -151 32c-38 18 -82 48 -113 72l91 122c19 -17 47 -40 71 -54c32 -18 63 -26 99 -26c28 0 56 8 74 24c13 12 21 29 21 50c0 20 -8 38 -31 50c-21 11 -62 13 -85 13h-54l17 134h43c20 0 77 2 104 24c15 12 25 32 25 53c0 19 -9 34 -20 43c-15 12 -43 16 -66 16
c-41 0 -71 -14 -77 -17c-17 -8 -44 -26 -61 -39z" />
    <glyph glyph-name="afii10026" unicode="&#x418;" horiz-adv-x="731" 
d="M124 667h169l-51 -412l309 412h164l-82 -667h-169l51 412l-311 -412h-162z" />
    <glyph glyph-name="afii10027" unicode="&#x419;" horiz-adv-x="731" 
d="M124 667h169l-51 -412l309 412h164l-82 -667h-169l51 412l-311 -412h-162zM536 898l108 -48c-18 -49 -50 -77 -77 -93c-43 -26 -89 -29 -128 -29c-36 0 -89 2 -133 30c-24 15 -55 43 -72 92l115 48c4 -17 14 -36 28 -47c14 -12 36 -19 65 -19c16 0 40 3 61 19
c15 12 27 30 33 47z" />
    <glyph glyph-name="afii10028" unicode="&#x41a;" horiz-adv-x="672" 
d="M124 667h169l-36 -292l220 292h194l-255 -340l228 -327h-203l-143 213c-18 27 -37 62 -50 88l-37 -301h-169z" />
    <glyph glyph-name="afii10029" unicode="&#x41b;" horiz-adv-x="711" 
d="M190 667h505l-82 -667h-169l64 520h-168l-30 -241c-10 -80 -34 -167 -89 -222c-59 -60 -125 -64 -180 -64c-25 0 -42 1 -66 7l20 160c9 -3 22 -7 39 -7c26 0 46 9 60 20c31 25 44 73 51 126z" />
    <glyph glyph-name="afii10030" unicode="&#x41c;" horiz-adv-x="939" 
d="M675 667h175l21 -667h-169l-8 299v21c0 37 2 62 8 111c-16 -43 -29 -73 -47 -110l-164 -321h-89l-57 258c-14 63 -19 97 -28 184c-16 -82 -24 -114 -35 -153l-86 -289h-174l211 667h167l50 -225c13 -56 22 -111 30 -175c11 31 26 68 38 91z" />
    <glyph glyph-name="afii10031" unicode="&#x41d;" horiz-adv-x="724" 
d="M539 667h169l-82 -667h-169l33 273h-245l-34 -273h-169l82 667h169l-30 -247h245z" />
    <glyph glyph-name="afii10032" unicode="&#x41e;" horiz-adv-x="805" 
d="M429 680c139 0 219 -59 257 -96c62 -61 92 -137 92 -230c0 -150 -70 -235 -100 -266c-48 -49 -129 -101 -262 -101c-120 0 -214 42 -274 103c-54 55 -90 136 -90 234c0 102 38 188 95 247c64 66 162 109 282 109zM422 520c-54 0 -107 -20 -141 -54
c-32 -32 -56 -83 -56 -136c0 -47 17 -95 45 -126c27 -30 75 -57 142 -57c65 0 110 21 140 53c29 30 52 78 52 138s-20 100 -46 127c-33 34 -84 55 -136 55z" />
    <glyph glyph-name="afii10033" unicode="&#x41f;" horiz-adv-x="704" 
d="M606 0h-169l68 519h-227l-67 -519h-169l82 667h564z" />
    <glyph glyph-name="afii10034" unicode="&#x420;" horiz-adv-x="577" 
d="M42 0l82 667h223c76 0 144 -10 194 -59s56 -109 56 -153c0 -48 -7 -108 -52 -157c-46 -50 -126 -77 -232 -77h-75l-27 -221h-169zM323 527h-47l-20 -166h53c24 0 68 2 94 28c19 19 21 44 21 59c0 29 -9 47 -19 57c-22 22 -58 22 -82 22z" />
    <glyph glyph-name="afii10035" unicode="&#x421;" horiz-adv-x="607" 
d="M414 680c72 0 131 -16 202 -56l-20 -165c-49 41 -102 61 -163 61c-123 0 -210 -81 -210 -194c0 -107 76 -179 187 -179c52 0 101 13 153 42l-21 -170c-73 -26 -106 -32 -157 -32c-197 0 -335 137 -335 331c0 203 160 362 364 362z" />
    <glyph glyph-name="afii10036" unicode="&#x422;" horiz-adv-x="465" 
d="M495 520h-140l-65 -520h-168l64 520h-143l18 147h452z" />
    <glyph glyph-name="afii10037" unicode="&#x423;" horiz-adv-x="642" 
d="M45 667h182l126 -299l147 299h195l-382 -667h-183l118 200z" />
    <glyph glyph-name="afii10038" unicode="&#x424;" horiz-adv-x="835" 
d="M302 0l11 93h-4c-86 0 -159 30 -204 76c-39 40 -65 100 -65 171c0 87 34 159 82 205c53 50 137 82 257 82l10 97h169l-10 -97c70 -1 157 -28 208 -80c32 -33 64 -88 64 -172c0 -88 -32 -160 -78 -205c-72 -70 -170 -77 -254 -77h-6l-11 -93h-169zM521 493l-33 -266h9
c31 0 71 4 106 35c36 31 47 74 47 116c0 23 -3 58 -31 84c-19 18 -51 31 -94 31h-4zM374 493h-8c-36 0 -82 -6 -117 -42c-27 -28 -39 -70 -39 -106c0 -35 13 -69 33 -88c17 -16 48 -30 89 -30h9z" />
    <glyph glyph-name="afii10039" unicode="&#x425;" horiz-adv-x="687" 
d="M724 667l-263 -326l206 -341h-194l-61 100c-19 32 -40 73 -62 126c-22 -38 -42 -67 -65 -96l-104 -130h-210l291 351l-191 316h196l44 -78c28 -50 39 -73 61 -123c34 53 48 74 67 97l81 104h204z" />
    <glyph glyph-name="afii10040" unicode="&#x426;" horiz-adv-x="738" 
d="M42 0l82 667h169l-64 -520h230l64 520h169l-64 -520h94l-36 -297h-152l18 150h-510z" />
    <glyph glyph-name="afii10041" unicode="&#x427;" horiz-adv-x="652" 
d="M385 0l32 262c-41 -7 -79 -10 -114 -10c-85 0 -138 16 -172 40c-52 37 -61 88 -61 133c0 31 6 60 10 94l18 148h169l-18 -140c-5 -36 -5 -47 -5 -50c0 -62 54 -78 112 -78c24 0 53 2 79 7l32 261h169l-82 -667h-169z" />
    <glyph glyph-name="afii10042" unicode="&#x428;" horiz-adv-x="977" 
d="M42 0l82 667h169l-64 -520h165l64 520h169l-64 -520h165l64 520h169l-82 -667h-837z" />
    <glyph glyph-name="afii10043" unicode="&#x429;" horiz-adv-x="1013" 
d="M42 0l82 667h169l-64 -520h165l64 520h169l-64 -520h165l64 520h169l-64 -520h100l-36 -297h-152l18 150h-785z" />
    <glyph glyph-name="afii10044" unicode="&#x42a;" horiz-adv-x="678" 
d="M116 0l67 520h-140l18 147h306l-32 -262h94c88 0 141 -24 171 -54c24 -23 48 -62 48 -124c0 -58 -20 -119 -61 -159c-58 -57 -151 -68 -233 -68h-238zM302 133h57c29 0 65 3 83 15c14 10 28 31 28 66c0 24 -8 36 -14 42c-12 12 -36 16 -77 16h-60z" />
    <glyph glyph-name="afii10045" unicode="&#x42b;" horiz-adv-x="861" 
d="M594 0l82 667h169l-82 -667h-169zM42 0l82 667h169l-32 -262h87c65 0 127 -12 169 -54c40 -40 48 -88 48 -125c0 -82 -31 -131 -58 -158c-58 -58 -148 -68 -234 -68h-231zM228 133h57c29 0 65 3 83 15c14 10 28 31 28 66c0 24 -8 36 -14 42c-12 12 -36 16 -77 16h-60z
" />
    <glyph glyph-name="afii10046" unicode="&#x42c;" horiz-adv-x="604" 
d="M42 0l82 667h169l-32 -262h94c88 0 141 -24 171 -54c24 -23 48 -62 48 -124c0 -58 -20 -119 -61 -159c-58 -57 -151 -68 -233 -68h-238zM228 133h57c29 0 65 3 83 15c14 10 28 31 28 66c0 24 -8 36 -14 42c-12 12 -36 16 -77 16h-60z" />
    <glyph glyph-name="afii10047" unicode="&#x42d;" horiz-adv-x="625" 
d="M16 52l20 166c20 -18 50 -40 77 -53c34 -16 70 -22 107 -22s79 6 117 30c44 28 60 67 67 92h-253l18 142h246c-9 31 -27 63 -65 87s-79 28 -111 28c-36 0 -66 -5 -102 -20c-34 -15 -60 -34 -72 -43l22 173c66 36 133 48 187 48c91 0 175 -30 233 -87
c45 -44 91 -118 91 -237c0 -127 -49 -215 -103 -270c-74 -76 -160 -99 -256 -99c-71 0 -144 14 -223 65z" />
    <glyph glyph-name="afii10048" unicode="&#x42e;" horiz-adv-x="1095" 
d="M263 424h98c29 109 96 167 134 193c56 38 132 63 222 63c121 0 205 -44 259 -96c62 -61 92 -137 92 -230c0 -150 -70 -235 -100 -266c-48 -49 -130 -101 -260 -101c-83 0 -185 23 -253 81c-42 36 -94 105 -104 209h-106l-34 -277h-169l82 667h169zM711 520
c-53 0 -105 -20 -140 -54c-32 -32 -56 -83 -56 -136c0 -47 17 -95 45 -126c27 -30 75 -57 142 -57c65 0 110 21 140 53c29 30 52 78 52 138s-20 100 -46 127c-33 34 -84 55 -137 55z" />
    <glyph glyph-name="afii10049" unicode="&#x42f;" horiz-adv-x="647" 
d="M14 0l218 255c-40 8 -69 29 -86 49c-16 18 -39 55 -39 117c0 68 25 130 69 174c63 63 133 72 203 72h252l-82 -667h-169l28 227h-17l-171 -227h-206zM424 361l22 172h-50c-23 0 -58 -3 -82 -25c-18 -17 -28 -46 -28 -73c0 -35 18 -52 27 -59c6 -4 24 -15 68 -15h43z" />
    <glyph glyph-name="afii10065" unicode="&#x430;" horiz-adv-x="612" 
d="M414 447h165l-55 -447h-165l12 49c-51 -46 -90 -62 -152 -62c-113 0 -186 82 -186 211c0 151 100 262 235 262c63 0 97 -15 145 -64zM291 116c60 0 104 51 104 121c0 57 -34 93 -88 93c-60 0 -106 -52 -106 -120c0 -57 35 -94 90 -94z" />
    <glyph glyph-name="afii10066" unicode="&#x431;" horiz-adv-x="599" 
d="M183 378h5c23 33 64 70 154 70c97 0 151 -35 181 -66c44 -46 52 -99 52 -140c0 -78 -30 -139 -69 -179c-63 -64 -146 -76 -208 -76c-47 0 -133 7 -193 70c-32 33 -65 90 -65 190c0 60 12 130 27 185c14 52 37 115 88 163c41 39 87 57 134 70c74 20 97 16 131 29
c29 11 41 26 47 48h142c-12 -66 -48 -105 -60 -117c-34 -34 -78 -50 -112 -61c-41 -13 -84 -22 -120 -35c-30 -10 -65 -26 -92 -59c-20 -24 -35 -60 -42 -92zM298 116c28 0 54 7 75 29c22 22 34 56 34 87c0 28 -11 53 -27 68c-15 14 -39 22 -63 22c-29 0 -54 -10 -71 -26
c-20 -19 -35 -52 -35 -92c0 -37 14 -57 24 -66c11 -11 31 -22 63 -22z" />
    <glyph glyph-name="afii10067" unicode="&#x432;" horiz-adv-x="538" 
d="M87 447h263c32 0 76 -3 106 -24c18 -13 41 -37 41 -82c0 -40 -17 -66 -31 -80c-8 -8 -24 -22 -49 -29v-2c36 -4 57 -22 62 -27c21 -19 29 -43 29 -69c0 -36 -13 -69 -36 -92c-41 -40 -101 -42 -133 -42h-146h-161zM230 272h47c15 0 35 2 45 9c9 6 16 19 16 34
c0 17 -9 24 -14 27c-4 2 -13 5 -42 5h-42zM209 100h61c14 0 40 4 50 12c12 9 14 23 14 35c0 10 -2 22 -16 30c-7 4 -18 6 -48 6h-51z" />
    <glyph glyph-name="afii10068" unicode="&#x433;" horiz-adv-x="414" 
d="M32 0l57 447h325l-17 -127h-161l-39 -320h-165z" />
    <glyph glyph-name="afii10069" unicode="&#x434;" horiz-adv-x="620" 
d="M154 447h418l-41 -327h64l-29 -250h-140l16 130h-305l-17 -130h-140l31 250c37 4 62 22 75 35c25 24 38 58 45 112zM371 120l27 207h-108l-8 -69c-1 -8 -6 -50 -20 -82c-12 -27 -27 -43 -46 -56h155z" />
    <glyph glyph-name="afii10070" unicode="&#x435;" horiz-adv-x="561" 
d="M525 190h-334c0 -16 0 -55 23 -76c8 -8 24 -17 51 -17c14 0 29 3 42 12s19 20 22 30h180c-11 -33 -29 -61 -49 -81c-57 -59 -141 -71 -194 -71c-94 0 -146 36 -171 59c-29 28 -61 78 -61 158c0 86 35 148 73 185c39 38 100 71 191 71c84 0 137 -30 169 -62
c46 -46 60 -112 60 -170c0 -13 -1 -26 -2 -38zM202 283h156c-1 21 -10 41 -23 53c-12 11 -30 18 -52 18c-23 0 -44 -9 -57 -22s-21 -33 -24 -49z" />
    <glyph glyph-name="afii10072" unicode="&#x436;" horiz-adv-x="799" 
d="M291 0l24 194l-147 -194h-193l200 239l-128 208h179l97 -187l23 187h160l-23 -187l144 187h187l-186 -219l142 -228h-194l-101 194l-24 -194h-160z" />
    <glyph glyph-name="afii10073" unicode="&#x437;" horiz-adv-x="488" 
d="M91 298l-38 112c29 16 60 28 88 36c43 12 85 16 120 16c33 0 91 -3 133 -28c45 -26 59 -64 59 -100c0 -35 -15 -58 -29 -72c-13 -12 -33 -24 -54 -30v-2c18 -4 38 -12 52 -26c11 -11 27 -32 27 -67c0 -42 -20 -86 -63 -114c-51 -34 -128 -36 -155 -36
c-67 0 -114 14 -137 22c-31 11 -64 27 -92 46l58 110c21 -15 46 -30 67 -38c27 -11 58 -16 83 -16c14 0 34 1 47 7c14 6 22 18 22 28c0 20 -20 25 -27 26c-15 3 -35 4 -50 4h-46l13 104h41c8 0 39 0 56 5c26 7 27 24 27 29c0 14 -11 21 -20 24c-14 6 -29 6 -46 6
c-32 0 -50 -5 -75 -14c-23 -9 -42 -18 -61 -32z" />
    <glyph glyph-name="afii10074" unicode="&#x438;" horiz-adv-x="598" 
d="M87 447h165l-29 -230l197 230h144l-55 -447h-165l29 236l-195 -236h-146z" />
    <glyph glyph-name="afii10075" unicode="&#x439;" horiz-adv-x="598" 
d="M87 447h165l-29 -230l197 230h144l-55 -447h-165l29 236l-195 -236h-146zM423 677l109 -39c-13 -47 -42 -74 -66 -90c-41 -26 -87 -30 -122 -30c-41 0 -91 5 -128 31c-27 19 -51 50 -62 89l115 39c3 -15 11 -35 21 -45c16 -17 38 -18 52 -18c17 0 41 2 58 20
c10 10 19 30 23 43z" />
    <glyph glyph-name="afii10076" unicode="&#x43a;" horiz-adv-x="570" 
d="M86 447h165l-23 -190l147 190h200l-199 -227l172 -220h-201l-70 94c-17 23 -34 44 -58 86l-22 -180h-165z" />
    <glyph glyph-name="afii10077" unicode="&#x43b;" horiz-adv-x="607" 
d="M573 447l-55 -447h-165l40 320h-110l-20 -152c-8 -61 -40 -105 -72 -129c-55 -41 -139 -47 -201 -39l17 133c14 -3 52 -7 75 14c18 16 26 48 29 72l28 228h434z" />
    <glyph glyph-name="afii10078" unicode="&#x43c;" horiz-adv-x="690" 
d="M20 0l138 447h144l49 -177c6 -22 11 -33 18 -71c17 37 25 51 37 74l92 174h144l28 -447h-155l-12 181c-1 19 -3 26 -3 59c-7 -24 -14 -40 -23 -59l-86 -181h-80l-51 190c-4 14 -8 27 -11 51c-5 -25 -10 -38 -15 -55l-59 -186h-155z" />
    <glyph glyph-name="afii10079" unicode="&#x43d;" horiz-adv-x="594" 
d="M32 0l55 447h165l-19 -151h143l19 151h165l-55 -447h-165l21 169h-143l-21 -169h-165z" />
    <glyph glyph-name="afii10080" unicode="&#x43e;" horiz-adv-x="603" 
d="M308 460c99 0 162 -35 197 -70c36 -35 62 -86 62 -159s-26 -128 -65 -168c-34 -35 -95 -76 -199 -76c-90 0 -161 31 -205 75c-32 32 -63 84 -63 160c0 65 23 119 67 162c33 32 96 76 206 76zM294 116c24 0 51 8 71 29c22 22 34 54 34 92c0 42 -17 62 -27 71
c-15 13 -39 22 -62 22c-18 0 -47 -4 -73 -31c-20 -21 -34 -52 -34 -89c0 -35 14 -56 25 -68c17 -17 43 -26 66 -26z" />
    <glyph glyph-name="afii10081" unicode="&#x43f;" horiz-adv-x="584" 
d="M32 0l55 447h463l-55 -447h-165l40 320h-133l-40 -320h-165z" />
    <glyph glyph-name="afii10082" unicode="&#x440;" horiz-adv-x="615" 
d="M85 447h165l-13 -57c58 52 99 70 157 70c113 0 184 -83 184 -216c0 -155 -85 -257 -213 -257c-68 0 -117 27 -161 89l-38 -305h-164zM305 116c61 0 105 51 105 121c0 57 -34 93 -88 93c-61 0 -106 -52 -106 -120c0 -57 35 -94 89 -94z" />
    <glyph glyph-name="afii10083" unicode="&#x441;" horiz-adv-x="423" 
d="M282 460c49 0 92 -10 135 -31l-17 -139c-32 29 -56 40 -91 40c-62 0 -106 -49 -106 -117c0 -59 35 -96 92 -96c30 0 52 8 88 34l-17 -140c-57 -19 -80 -24 -118 -24c-125 0 -213 92 -213 222c0 145 104 251 247 251z" />
    <glyph glyph-name="afii10084" unicode="&#x442;" horiz-adv-x="418" 
d="M97 0l40 320h-122l15 127h408l-16 -127h-122l-39 -320h-164z" />
    <glyph glyph-name="afii10085" unicode="&#x443;" horiz-adv-x="588" 
d="M427 447h188l-418 -676h-185l160 264l-158 412h183l48 -121c18 -45 26 -73 37 -128c15 33 34 68 59 108z" />
    <glyph glyph-name="afii10086" unicode="&#x444;" horiz-adv-x="759" 
d="M404 -229h-164l28 222c-93 2 -145 34 -176 68c-29 31 -56 79 -56 149c0 93 43 148 72 175c67 63 164 74 217 75l26 207h164l-26 -207c45 -2 122 -14 176 -69c43 -43 58 -96 58 -150c0 -88 -38 -142 -65 -170c-61 -62 -154 -78 -226 -78zM461 338l-27 -223
c33 1 71 14 94 36c21 21 34 55 34 93c0 22 -5 47 -25 67c-15 15 -42 29 -76 27zM323 338c-43 0 -75 -19 -93 -37c-20 -20 -34 -52 -34 -87c0 -30 11 -54 25 -69c18 -19 48 -30 75 -30z" />
    <glyph glyph-name="afii10087" unicode="&#x445;" horiz-adv-x="625" 
d="M630 447l-213 -215l179 -232h-204l-43 60c-21 30 -30 44 -44 69c-22 -28 -41 -51 -64 -74l-52 -55h-210l230 236l-162 211h206l33 -52c19 -30 25 -41 35 -63c18 28 23 34 31 43l17 20l46 52h215z" />
    <glyph glyph-name="afii10088" unicode="&#x446;" horiz-adv-x="600" 
d="M32 0l55 447h165l-40 -320h134l40 320h165l-40 -320h74l-31 -257h-140l16 130h-398z" />
    <glyph glyph-name="afii10089" unicode="&#x447;" horiz-adv-x="531" 
d="M277 0l19 154c-31 -8 -60 -11 -90 -11c-55 0 -110 9 -143 42c-40 40 -34 96 -30 129l16 133h159l-14 -107c-3 -21 -6 -46 13 -60c7 -5 19 -10 47 -10c23 0 40 2 57 7l21 170h165l-55 -447h-165z" />
    <glyph glyph-name="afii10090" unicode="&#x448;" horiz-adv-x="852" 
d="M32 0l55 447h165l-40 -320h118l40 320h165l-40 -320h118l40 320h165l-55 -447h-731z" />
    <glyph glyph-name="afii10091" unicode="&#x449;" horiz-adv-x="887" 
d="M87 447h165l-40 -320h118l40 320h165l-40 -320h118l40 320h165l-40 -320h94l-31 -257h-140l16 130h-685z" />
    <glyph glyph-name="afii10092" unicode="&#x44a;" horiz-adv-x="579" 
d="M292 298h90c42 0 98 -4 136 -41c18 -17 36 -46 36 -93c0 -45 -16 -88 -43 -115c-33 -33 -89 -49 -136 -49h-285l40 320h-115l15 127h280zM268 104h54c14 0 35 4 47 14c9 8 15 22 15 37c0 13 -5 23 -12 29c-6 5 -19 10 -58 10h-35z" />
    <glyph glyph-name="afii10093" unicode="&#x44b;" horiz-adv-x="766" 
d="M567 447h165l-55 -447h-165zM234 298h84c42 0 95 -2 134 -40c18 -17 38 -47 38 -96c0 -43 -16 -86 -43 -113c-33 -33 -89 -49 -136 -49h-279l54 447h166zM210 104h49c10 0 37 1 52 14c9 8 15 22 15 38c0 8 -2 22 -15 30c-4 3 -16 8 -55 8h-35z" />
    <glyph glyph-name="afii10094" unicode="&#x44c;" horiz-adv-x="521" 
d="M234 298h90c42 0 98 -4 136 -41c18 -17 36 -46 36 -93c0 -45 -16 -88 -43 -115c-33 -33 -89 -49 -136 -49h-285l54 447h166zM210 104h54c14 0 35 4 47 14c9 8 15 22 15 37c0 13 -5 23 -12 29c-6 5 -19 10 -58 10h-35z" />
    <glyph glyph-name="afii10095" unicode="&#x44d;" horiz-adv-x="493" 
d="M25 28l17 137c16 -15 39 -31 58 -39c29 -13 62 -15 78 -15c20 0 51 1 76 17c13 8 29 23 38 47h-171l12 100h165c-6 15 -18 36 -47 50c-19 9 -45 13 -67 13c-28 0 -52 -5 -76 -16c-23 -10 -39 -22 -50 -31l17 143c55 19 96 26 140 26c47 0 124 -8 181 -65
c23 -23 61 -72 61 -155c0 -70 -25 -140 -72 -186c-58 -56 -132 -67 -193 -67c-53 0 -104 9 -167 41z" />
    <glyph glyph-name="afii10096" unicode="&#x44e;" horiz-adv-x="827" 
d="M233 296h50c19 61 56 97 81 116c53 40 115 48 168 48c100 0 161 -34 197 -70c36 -35 62 -86 62 -159s-26 -128 -65 -168c-60 -62 -137 -76 -199 -76c-87 0 -142 25 -175 50c-57 43 -73 96 -78 132h-56l-21 -169h-165l55 447h165zM518 116c24 0 51 8 71 29
c22 22 34 54 34 92c0 42 -17 62 -27 71c-15 13 -39 22 -62 22c-18 0 -47 -4 -73 -31c-20 -21 -34 -52 -34 -89c0 -35 14 -56 25 -68c17 -17 43 -26 66 -26z" />
    <glyph glyph-name="afii10097" unicode="&#x44f;" horiz-adv-x="544" 
d="M10 0l143 160c-23 5 -47 17 -62 32c-26 26 -31 60 -31 85c0 52 20 95 47 121c47 46 119 49 175 49h228l-55 -447h-158l17 142h-11l-113 -142h-180zM326 240l13 103h-50c-12 0 -37 -1 -54 -18c-9 -9 -15 -23 -15 -38c0 -19 9 -31 17 -36c12 -8 37 -11 49 -11h40z" />
    <glyph glyph-name="afii10071" unicode="&#x451;" horiz-adv-x="561" 
d="M525 190h-334c0 -16 0 -55 23 -76c8 -8 24 -17 51 -17c14 0 29 3 42 12s19 20 22 30h180c-11 -33 -29 -61 -49 -81c-57 -59 -141 -71 -194 -71c-94 0 -146 36 -171 59c-29 28 -61 78 -61 158c0 86 35 148 73 185c39 38 100 71 191 71c84 0 137 -30 169 -62
c46 -46 60 -112 60 -170c0 -13 -1 -26 -2 -38zM202 283h156c-1 21 -10 41 -23 53c-12 11 -30 18 -52 18c-23 0 -44 -9 -57 -22s-21 -33 -24 -49zM113 614c0 47 37 84 84 84s84 -37 84 -84s-37 -84 -84 -84s-84 37 -84 84zM325 614c0 47 37 84 84 84s84 -37 84 -84
s-37 -84 -84 -84s-84 37 -84 84z" />
    <glyph glyph-name="afii10099" unicode="&#x452;" horiz-adv-x="593" 
d="M37 0l61 493h-82l13 110h82l16 126h165l-16 -126h167l-13 -110h-167l-16 -126c61 44 108 53 148 53c36 0 80 -7 111 -45c23 -28 33 -70 33 -113c0 -20 -3 -53 -6 -76l-24 -192c-6 -46 -16 -131 -65 -179c-24 -23 -65 -45 -135 -45c-29 0 -61 5 -89 11l16 138
c7 -2 18 -3 30 -3c17 0 36 3 50 16c18 17 31 54 31 82l17 143c3 23 5 39 5 54c0 30 -8 45 -12 51c-13 19 -33 21 -48 21c-16 0 -38 -2 -55 -20c-8 -8 -23 -28 -31 -91l-21 -172h-165z" />
    <glyph glyph-name="afii10100" unicode="&#x453;" horiz-adv-x="414" 
d="M32 0l57 447h325l-17 -127h-161l-39 -320h-165zM288 698h165l-132 -171h-113z" />
    <glyph glyph-name="afii10101" unicode="&#x454;" horiz-adv-x="475" 
d="M422 153l-16 -134c-48 -24 -97 -32 -143 -32c-60 0 -120 12 -170 63c-27 27 -63 77 -63 157c0 74 29 141 75 185c60 57 135 68 192 68c48 0 97 -8 158 -39l-17 -142c-14 15 -33 30 -51 40c-22 12 -45 17 -70 17c-21 0 -46 -4 -66 -15c-16 -8 -34 -23 -45 -49h167l-12 -96
h-167c5 -16 14 -34 37 -48c26 -15 55 -17 75 -17c24 0 45 4 68 14c18 7 34 17 48 28z" />
    <glyph glyph-name="afii10102" unicode="&#x455;" horiz-adv-x="470" 
d="M273 462c55 0 105 -14 166 -46l-39 -113c-47 29 -74 38 -109 38c-37 0 -57 -9 -57 -27c0 -11 7 -17 26 -22l54 -14c82 -22 119 -61 119 -125c0 -102 -81 -166 -208 -166c-74 0 -129 18 -206 68l61 108c63 -40 94 -52 139 -52c39 0 61 11 61 31c0 12 -8 19 -25 24l-54 12
c-84 20 -120 60 -120 130c0 92 76 154 192 154z" />
    <glyph glyph-name="afii10103" unicode="&#x456;" horiz-adv-x="271" 
d="M87 447h165l-55 -447h-165zM95 633c0 50 40 90 90 90s90 -40 90 -90s-40 -90 -90 -90s-90 40 -90 90z" />
    <glyph glyph-name="afii10104" unicode="&#x457;" horiz-adv-x="350" 
d="M123 447h158l-55 -447h-158zM320 722c19 0 33 -5 45 -16c10 -9 25 -27 25 -58c0 -32 -14 -57 -34 -72c-14 -11 -29 -16 -47 -16c-19 0 -33 5 -45 16c-21 18 -24 38 -24 56c0 29 8 55 33 74c14 11 29 16 47 16zM142 722c19 0 33 -5 45 -16c10 -9 25 -27 25 -58
c0 -32 -14 -57 -34 -72c-14 -11 -29 -16 -47 -16c-19 0 -33 5 -45 16c-21 18 -24 38 -24 56c0 29 8 55 33 74c14 11 29 16 47 16z" />
    <glyph glyph-name="afii10105" unicode="&#x458;" horiz-adv-x="276" 
d="M85 447h165l-84 -676h-164zM95 633c0 50 40 90 90 90s90 -40 90 -90s-40 -90 -90 -90s-90 40 -90 90z" />
    <glyph glyph-name="afii10106" unicode="&#x459;" horiz-adv-x="842" 
d="M555 298h90c42 0 98 -4 136 -41c18 -17 36 -46 36 -93c0 -45 -16 -88 -43 -115c-33 -33 -89 -49 -136 -49h-285l39 320h-109l-20 -152c-8 -61 -40 -105 -72 -129c-55 -41 -139 -47 -201 -39l17 133c14 -3 52 -7 75 14c18 16 26 48 29 72l28 228h434zM531 104h54
c14 0 35 4 47 14c9 8 15 22 15 37c0 13 -5 23 -12 29c-6 5 -19 10 -58 10h-35z" />
    <glyph glyph-name="afii10107" unicode="&#x45a;" horiz-adv-x="830" 
d="M543 298h90c42 0 98 -4 136 -41c18 -17 36 -46 36 -93c0 -45 -16 -88 -43 -115c-33 -33 -89 -49 -136 -49h-285l23 188h-144l-23 -188h-165l55 447h165l-19 -149h144l18 149h166zM519 104h54c15 0 35 4 44 11c10 7 17 21 17 35c0 16 -7 25 -11 28c-6 5 -19 10 -58 10h-36
z" />
    <glyph glyph-name="afii10108" unicode="&#x45b;" horiz-adv-x="593" 
d="M37 0l61 493h-82l13 110h82l16 126h165l-16 -126h167l-13 -110h-167l-16 -126c61 44 108 53 148 53c36 0 80 -7 111 -45c23 -28 33 -70 33 -113c0 -20 -3 -53 -6 -76l-23 -186h-165l19 157c3 23 5 40 5 54c0 30 -8 45 -12 51c-13 19 -33 21 -48 21c-16 0 -38 -2 -55 -20
c-8 -8 -23 -28 -31 -91l-21 -172h-165z" />
    <glyph glyph-name="afii10109" unicode="&#x45c;" horiz-adv-x="570" 
d="M86 447h165l-23 -190l147 190h200l-199 -227l172 -220h-201l-70 94c-17 23 -34 44 -58 86l-22 -180h-165zM348 698h165l-132 -171h-113z" />
    <glyph glyph-name="afii10110" unicode="&#x45e;" horiz-adv-x="588" 
d="M427 447h188l-418 -676h-185l160 264l-158 412h183l48 -121c18 -45 26 -73 37 -128c15 33 34 68 59 108zM399 677l109 -39c-13 -47 -42 -74 -66 -90c-41 -26 -87 -30 -122 -30c-41 0 -91 5 -128 31c-27 19 -51 50 -62 89l115 39c3 -15 11 -35 21 -45
c16 -17 38 -18 52 -18c17 0 41 2 58 20c10 10 19 30 23 43z" />
    <glyph glyph-name="afii10193" unicode="&#x45f;" horiz-adv-x="585" 
d="M32 0l55 447h165l-40 -320h134l40 320h165l-56 -447h-162l-18 -140h-140l19 140h-162z" />
    <glyph glyph-name="afii10146" unicode="&#x462;" horiz-adv-x="677" 
d="M115 0l61 495h-133l14 115h133l14 114h169l-14 -114h191l-14 -115h-191l-11 -90h94c88 0 141 -24 171 -54c23 -22 48 -61 48 -123c0 -59 -20 -120 -61 -160c-58 -57 -151 -68 -233 -68h-238zM301 133h57c29 0 65 3 83 15c11 7 28 25 28 64c0 10 -1 33 -18 47
c-10 8 -27 13 -73 13h-60z" />
    <glyph glyph-name="afii10194" unicode="&#x463;" horiz-adv-x="573" 
d="M293 353l-7 -59h90c79 0 117 -23 136 -41c17 -16 36 -46 36 -93c0 -40 -16 -84 -43 -111c-33 -33 -89 -49 -136 -49h-285l42 353h-111l12 94h111l35 282h166l-35 -282h168l-12 -94h-167zM262 104h54c14 0 35 4 47 14c9 8 15 22 15 37c0 13 -5 23 -12 29
c-6 5 -19 10 -58 10h-35z" />
    <glyph glyph-name="afii10147" unicode="&#x472;" horiz-adv-x="805" 
d="M429 680c139 0 219 -59 257 -96c62 -61 92 -137 92 -230c0 -150 -70 -235 -100 -266c-48 -49 -129 -101 -262 -101c-120 0 -214 42 -274 103c-54 55 -90 136 -90 234c0 102 38 188 95 247c64 66 162 109 282 109zM241 405h353c-8 24 -25 58 -66 85c-29 19 -66 30 -107 30
c-38 0 -82 -10 -116 -34c-25 -17 -49 -46 -64 -81zM596 279h-364c9 -43 32 -73 53 -90c35 -30 87 -42 136 -42c53 0 91 19 120 43c37 32 50 69 55 89z" />
    <glyph glyph-name="afii10195" unicode="&#x473;" horiz-adv-x="603" 
d="M308 460c99 0 162 -35 197 -70c36 -35 62 -86 62 -159s-26 -128 -65 -168c-34 -35 -95 -76 -199 -76c-90 0 -161 31 -205 75c-32 32 -63 84 -63 160c0 65 23 119 67 162c33 32 96 76 206 76zM215 266h181c-6 25 -20 39 -29 46c-11 9 -30 18 -57 18c-29 0 -48 -9 -59 -17
c-12 -9 -27 -24 -36 -47zM394 195h-190c3 -23 13 -42 26 -55c21 -21 47 -24 66 -24c26 0 44 8 61 22c12 10 28 28 37 57z" />
    <glyph glyph-name="afii10148" unicode="&#x474;" horiz-adv-x="675" 
d="M539 667h190l-358 -667h-143l-174 667h180l76 -304c13 -51 16 -68 21 -122c11 35 22 61 38 91z" />
    <glyph glyph-name="afii10196" unicode="&#x475;" horiz-adv-x="583" 
d="M427 447h183l-302 -447h-112l-174 447h171l51 -136c10 -26 18 -56 32 -111c24 48 43 82 65 116z" />
    <glyph glyph-name="afii10050" unicode="&#x490;" horiz-adv-x="506" 
d="M42 0l82 667h249l16 133h147l-34 -280h-227l-64 -520h-169z" />
    <glyph glyph-name="afii10098" unicode="&#x491;" horiz-adv-x="450" 
d="M87 447h216l17 140h145l-33 -267h-196l-39 -320h-165z" />
    <glyph glyph-name="uni0492" unicode="&#x492;" horiz-adv-x="543" 
d="M568 667l-18 -147h-217l-16 -133h164l-16 -130h-164l-32 -257h-169l32 257h-100l15 130h101l34 280h386z" />
    <glyph glyph-name="uni0493" unicode="&#x493;" horiz-adv-x="462" 
d="M235 0h-165l19 151h-79l12 100h79l26 196h330l-17 -127h-166l-8 -69h103l-12 -100h-103z" />
    <glyph glyph-name="uni0494" unicode="&#x494;" horiz-adv-x="642" 
d="M510 667l-18 -147h-217l-15 -127c43 17 80 23 122 23c87 0 138 -24 168 -50s62 -78 62 -159c0 -77 -34 -133 -71 -164c-56 -47 -136 -50 -177 -50c-29 0 -55 2 -85 8l16 131c18 -4 36 -7 56 -7c19 0 44 1 62 18c12 12 21 32 21 57c0 28 -12 43 -20 51
c-18 16 -45 19 -62 19c-34 0 -74 -7 -110 -23l-31 -247h-169l82 667h386z" />
    <glyph glyph-name="uni0495" unicode="&#x495;" horiz-adv-x="505" 
d="M32 0l55 447h332l-17 -127h-166l-10 -84h20c64 0 129 -13 172 -55c44 -42 51 -93 51 -137c0 -63 -15 -125 -69 -177c-59 -57 -142 -73 -209 -75l14 118c26 1 49 11 65 24c23 19 39 54 39 99c0 38 -14 58 -25 68c-20 17 -54 18 -65 18h-7l-15 -119h-165z" />
    <glyph glyph-name="uni0496" unicode="&#x496;" horiz-adv-x="987" 
d="M373 0l36 293l-216 -293h-218l282 346l-180 321h200l142 -290l36 290h169l-36 -290l214 290h200l-257 -335l129 -185h104l-36 -297h-152l18 150h-56l-174 293l-36 -293h-169z" />
    <glyph glyph-name="uni0497" unicode="&#x497;" horiz-adv-x="804" 
d="M291 0l24 194l-147 -194h-193l200 239l-128 208h179l97 -187l23 187h160l-23 -187l144 187h187l-186 -219l69 -101h95l-31 -257h-140l16 130h-39l-123 194l-24 -194h-160z" />
    <glyph glyph-name="uni0498" unicode="&#x498;" horiz-adv-x="582" 
d="M156 484l-57 124c29 18 65 37 95 48c46 17 91 24 139 24c90 0 141 -27 170 -57c24 -24 44 -61 44 -113c0 -47 -17 -83 -35 -108c-25 -33 -54 -48 -77 -55l-1 -3c28 -7 52 -21 69 -37c29 -28 38 -60 38 -97c0 -69 -28 -117 -58 -149c-29 -30 -77 -63 -146 -71l-19 -156
h-152l20 162c-37 8 -110 30 -181 95l91 122c19 -17 47 -40 71 -54c32 -18 63 -26 99 -26c28 0 56 8 74 24c13 12 21 29 21 50c0 20 -8 38 -31 50c-21 11 -62 13 -85 13h-54l17 134h43c20 0 77 2 104 24c15 12 25 32 25 53c0 19 -9 34 -20 43c-15 12 -43 16 -61 16
c-25 0 -60 -8 -81 -17c-18 -8 -45 -26 -62 -39z" />
    <glyph glyph-name="uni0499" unicode="&#x499;" horiz-adv-x="488" 
d="M91 298l-38 112c29 16 60 28 88 36c43 12 85 16 120 16c33 0 91 -3 133 -28c45 -26 59 -64 59 -100c0 -35 -15 -58 -29 -72c-13 -12 -33 -24 -54 -32c18 -4 38 -12 52 -26c11 -11 27 -32 27 -67c0 -34 -13 -80 -63 -114c-24 -17 -59 -30 -100 -32l-17 -131h-140l19 136
c-66 10 -115 37 -146 59l58 110c21 -15 46 -30 67 -38c27 -11 58 -16 83 -16c14 0 34 1 47 7c14 6 22 18 22 28c0 20 -20 25 -27 26c-15 3 -35 4 -50 4h-46l13 104h41c8 0 39 0 56 5c26 7 27 24 27 29c0 14 -11 21 -20 24c-14 6 -29 6 -46 6c-32 0 -50 -5 -75 -14
c-23 -9 -42 -18 -61 -32z" />
    <glyph glyph-name="uni049A" unicode="&#x49a;" horiz-adv-x="672" 
d="M124 667h169l-36 -292l220 292h194l-256 -336l133 -184h104l-36 -297h-152l18 150h-33l-138 196c-29 41 -46 65 -63 105l-37 -301h-169z" />
    <glyph glyph-name="uni049B" unicode="&#x49b;" horiz-adv-x="597" 
d="M430 0h-64l-72 94c-20 26 -38 50 -58 86l-22 -180h-165l54 447h165l-23 -190l147 190h200l-199 -227l89 -93h103l-32 -257h-140z" />
    <glyph glyph-name="uni049C" unicode="&#x49c;" horiz-adv-x="795" 
d="M124 667h169l-33 -265h50l18 141h111l-18 -141l190 265h194l-236 -318l199 -349h-202l-99 177c-17 30 -42 78 -58 122l-17 -140h-111l17 140h-50l-37 -299h-169z" />
    <glyph glyph-name="uni049D" unicode="&#x49d;" horiz-adv-x="677" 
d="M32 0l56 447h165l-22 -169h37l12 98h98l-13 -108l134 179h183l-183 -218l137 -229h-181l-59 110c-19 36 -33 67 -40 86l-14 -118h-98l13 108h-37l-23 -186h-165z" />
    <glyph glyph-name="uni04A0" unicode="&#x4a0;" horiz-adv-x="774" 
d="M144 0l60 520h-161l18 147h334l-36 -292l220 292h194l-255 -340l228 -327h-203l-143 213c-18 27 -37 62 -50 88l-37 -301h-169z" />
    <glyph glyph-name="uni04A1" unicode="&#x4a1;" horiz-adv-x="646" 
d="M103 0l38 320h-126l16 127h291l-23 -190l147 190h200l-199 -227l172 -220h-201l-70 94c-17 23 -34 44 -58 86l-22 -180h-165z" />
    <glyph glyph-name="uni04A2" unicode="&#x4a2;" horiz-adv-x="754" 
d="M539 667h169l-64 -520h94l-36 -297h-152l18 150h-111l35 277h-247l-34 -277h-169l82 667h169l-30 -243h247z" />
    <glyph glyph-name="uni04A3" unicode="&#x4a3;" horiz-adv-x="609" 
d="M32 0l55 447h165l-19 -151h143l19 151h165l-40 -320h74l-32 -257h-140l17 130h-99l21 169h-143l-21 -169h-165z" />
    <glyph glyph-name="uni04A4" unicode="&#x4a4;" horiz-adv-x="861" 
d="M510 424l29 243h352l-18 -147h-183l-64 -520h-169l35 277h-247l-34 -277h-169l82 667h169l-30 -243h247z" />
    <glyph glyph-name="uni04A5" unicode="&#x4a5;" horiz-adv-x="686" 
d="M32 0l55 447h165l-19 -151h143l19 151h301l-17 -127h-137l-37 -320h-165l21 169h-143l-21 -169h-165z" />
    <glyph glyph-name="uni04AA" unicode="&#x4aa;" horiz-adv-x="607" 
d="M563 189l-21 -170c-22 -9 -44 -16 -66 -20l-21 -165h-152l20 158c-77 10 -136 45 -180 88c-70 69 -93 154 -93 234c0 129 57 212 105 260c53 53 138 106 265 106c49 0 117 -9 196 -56l-20 -165c-31 26 -86 61 -162 61c-64 0 -120 -23 -158 -61c-23 -24 -53 -67 -53 -133
c0 -59 23 -98 46 -123c20 -21 63 -56 141 -56c67 0 124 25 153 42z" />
    <glyph glyph-name="uni04AB" unicode="&#x4ab;" horiz-adv-x="423" 
d="M383 151l-17 -140c-12 -6 -24 -9 -36 -11l-18 -140h-140l19 136c-40 7 -69 24 -96 53c-46 49 -60 102 -60 162c0 74 24 131 71 178c49 49 108 71 176 71c39 0 88 -7 135 -31l-17 -139c-37 38 -74 40 -91 40c-30 0 -53 -11 -72 -30c-17 -17 -34 -45 -34 -87
c0 -36 13 -58 26 -71c19 -20 43 -25 66 -25c35 0 64 14 88 34z" />
    <glyph glyph-name="uni04AE" unicode="&#x4ae;" horiz-adv-x="623" 
d="M676 667l-291 -375l-36 -292h-169l37 297l-170 370h187l46 -107c27 -64 29 -68 36 -90c2 -5 4 -13 7 -22c9 17 18 31 33 53l115 166h205z" />
    <glyph glyph-name="uni04AF" unicode="&#x4af;" horiz-adv-x="567" 
d="M20 447h182l44 -146c10 -35 19 -61 28 -111h2c6 17 22 59 47 105l81 152h190l-253 -426l-30 -250h-165l30 250z" />
    <glyph glyph-name="uni04B0" unicode="&#x4b0;" horiz-adv-x="633" 
d="M686 667l-290 -365l-3 -19h170l-15 -124h-170l-20 -159h-168l20 159h-170l15 124h170l3 24l-171 360h187l64 -150c16 -37 22 -57 25 -69c9 18 17 29 33 53l115 166h205z" />
    <glyph glyph-name="uni04B1" unicode="&#x4b1;" horiz-adv-x="567" 
d="M20 447h182l44 -146c10 -35 19 -61 28 -111h2c6 17 22 59 47 105l81 152h190l-252 -410l-3 -22h138l-13 -100h-137l-17 -144h-165l18 144h-137l13 100h136l2 22z" />
    <glyph glyph-name="uni04B2" unicode="&#x4b2;" horiz-adv-x="699" 
d="M724 667l-263 -326l133 -194h102l-36 -297h-152l18 150h-40l-70 96c-10 14 -32 52 -40 68c-9 17 -19 44 -26 62c-11 -20 -20 -32 -30 -48c-14 -20 -19 -28 -35 -48l-104 -130h-210l291 351l-191 316h196l44 -78c8 -14 25 -46 33 -62c7 -14 24 -51 28 -61c5 8 23 36 31 48
c9 13 20 28 36 49l81 104h204z" />
    <glyph glyph-name="uni04B3" unicode="&#x4b3;" horiz-adv-x="625" 
d="M630 447l-213 -215l90 -105h90l-32 -257h-140l17 130h-38l-48 55c-23 27 -38 48 -51 74c-20 -30 -35 -43 -64 -74l-52 -55h-210l230 236l-162 211h206l31 -49c11 -18 22 -34 37 -66c10 20 19 30 48 63l46 52h215z" />
    <glyph glyph-name="uni04B6" unicode="&#x4b6;" horiz-adv-x="685" 
d="M499 0h-111l32 262c-29 -4 -73 -10 -126 -10c-84 0 -136 15 -169 39c-60 44 -59 109 -51 169l27 207h169l-21 -178c-2 -21 -7 -57 20 -76c7 -5 25 -14 80 -14c21 0 52 1 89 7l32 261h169l-64 -520h94l-36 -297h-152z" />
    <glyph glyph-name="uni04B7" unicode="&#x4b7;" horiz-adv-x="547" 
d="M377 0h-100l19 154c-31 -8 -60 -11 -90 -11c-55 0 -110 9 -143 42c-40 40 -34 96 -30 129l16 133h159l-14 -107c-3 -21 -6 -46 13 -60c7 -5 19 -10 47 -10c23 0 40 2 57 7l21 170h165l-39 -320h74l-32 -257h-140z" />
    <glyph glyph-name="uni04B8" unicode="&#x4b8;" horiz-adv-x="701" 
d="M434 0l33 269c-19 -5 -40 -8 -63 -8l-15 -120h-112l14 113c-61 0 -133 11 -177 55c-46 46 -48 107 -41 163l24 194h169l-20 -165c-4 -36 -6 -73 17 -91c12 -9 31 -13 46 -12l18 145h112l-18 -146c22 0 43 3 62 7l33 263h169l-82 -667h-169z" />
    <glyph glyph-name="uni04B9" unicode="&#x4b9;" horiz-adv-x="578" 
d="M324 0l20 164c-14 -4 -28 -7 -42 -7l-9 -79h-91l10 75h-5c-61 0 -112 6 -146 41c-26 26 -31 59 -31 86c0 16 2 32 5 55l13 112h150l-15 -123c-2 -17 -3 -40 11 -52c7 -6 20 -10 31 -9l14 113h90l-14 -115c14 0 28 2 43 8l21 178h165l-55 -447h-165z" />
    <glyph glyph-name="uni04BA" unicode="&#x4ba;" horiz-adv-x="670" 
d="M293 667l-34 -273c16 5 75 22 154 22c25 0 101 -2 153 -35c72 -46 67 -115 60 -172l-26 -209h-169l21 165c4 33 6 67 -24 87c-18 12 -51 17 -78 17c-45 0 -94 -14 -108 -18l-31 -251h-169l82 667h169z" />
    <glyph glyph-name="uni04BB" unicode="&#x4bb;" horiz-adv-x="593" 
d="M122 729h165l-40 -322c56 39 94 53 147 53c94 0 145 -56 145 -158c0 -19 -2 -43 -6 -74l-28 -228h-165l22 179c6 45 7 56 7 73c0 48 -19 71 -60 71c-53 0 -76 -29 -86 -111l-26 -212h-165z" />
    <glyph glyph-name="uni04C0" unicode="&#x4c0;" horiz-adv-x="309" 
d="M124 667h169l-82 -667h-169z" />
    <glyph glyph-name="uni04C1" unicode="&#x4c1;" horiz-adv-x="987" 
d="M373 0l36 293l-216 -293h-218l282 346l-180 321h200l142 -290l36 290h169l-36 -290l214 290h200l-257 -335l195 -332h-218l-144 293l-36 -293h-169zM660 898l108 -48c-18 -49 -50 -77 -77 -93c-43 -26 -89 -29 -128 -29c-36 0 -89 2 -133 30c-24 15 -55 43 -72 92l115 48
c4 -17 14 -36 28 -47c14 -12 36 -19 65 -19c16 0 40 3 61 19c15 12 27 30 33 47z" />
    <glyph glyph-name="uni04C2" unicode="&#x4c2;" horiz-adv-x="799" 
d="M291 0l24 194l-147 -194h-193l200 239l-128 208h179l97 -187l23 187h160l-23 -187l144 187h187l-186 -219l142 -228h-194l-101 194l-24 -194h-160zM533 677l109 -39c-13 -47 -42 -74 -66 -90c-41 -26 -87 -30 -122 -30c-41 0 -91 5 -128 31c-27 19 -51 50 -62 89l115 39
c3 -15 11 -35 21 -45c16 -17 38 -18 52 -18c17 0 41 2 58 20c10 10 19 30 23 43z" />
    <glyph glyph-name="uni04C3" unicode="&#x4c3;" horiz-adv-x="661" 
d="M124 667h169l-37 -287l213 287h184l-205 -271c48 -5 88 -26 113 -52c35 -35 45 -76 45 -120c0 -89 -35 -142 -65 -170c-58 -55 -143 -65 -240 -54l16 138c11 -7 21 -9 35 -9c19 0 38 5 50 15c13 11 24 31 24 55c0 27 -13 44 -28 54c-18 12 -48 17 -69 17
c-26 0 -62 -7 -87 -16l-31 -254h-169z" />
    <glyph glyph-name="uni04C4" unicode="&#x4c4;" horiz-adv-x="524" 
d="M86 447h165l-23 -190l147 190h187l-194 -226c35 -11 64 -32 83 -56c30 -37 37 -79 37 -121c0 -63 -15 -125 -69 -177c-59 -57 -142 -73 -209 -75l14 118c26 1 49 11 65 24c27 23 39 62 39 97c0 40 -17 62 -29 73c-18 16 -47 27 -77 27h-9l-16 -131h-165z" />
    <glyph glyph-name="uni04C7" unicode="&#x4c7;" horiz-adv-x="724" 
d="M539 667h169l-84 -691c-5 -40 -14 -119 -56 -161s-103 -45 -147 -45c-35 0 -58 3 -85 10l14 114c12 -5 21 -6 34 -6c16 0 34 1 47 14c12 11 18 32 22 62l39 313h-247l-34 -277h-169l82 667h169l-30 -243h247z" />
    <glyph glyph-name="uni04C8" unicode="&#x4c8;" horiz-adv-x="559" 
d="M32 0l55 447h165l-19 -151h143l19 151h165l-59 -483c-5 -44 -16 -111 -56 -150c-41 -41 -102 -44 -142 -44c-33 0 -56 2 -83 9l14 116c11 -6 19 -7 33 -7c13 0 35 1 49 16c15 15 18 41 20 60l25 205h-143l-21 -169h-165z" />
    <glyph glyph-name="uni04D0" unicode="&#x4d0;" horiz-adv-x="695" 
d="M462 112h-238l-51 -112h-188l331 667h190l161 -667h-177zM353 393l-67 -149h144l-28 127c-11 51 -12 57 -15 77c-1 5 -3 13 -4 24c-11 -35 -20 -56 -30 -79zM510 898l108 -48c-18 -49 -50 -77 -77 -93c-43 -26 -89 -29 -128 -29c-36 0 -89 2 -133 30
c-24 15 -55 43 -72 92l115 48c4 -17 14 -36 28 -47c14 -12 36 -19 65 -19c16 0 40 3 61 19c15 12 27 30 33 47z" />
    <glyph glyph-name="uni04D1" unicode="&#x4d1;" horiz-adv-x="612" 
d="M414 447h165l-55 -447h-165l12 49c-51 -46 -90 -62 -152 -62c-113 0 -186 82 -186 211c0 151 100 262 235 262c63 0 97 -15 145 -64zM291 116c60 0 104 51 104 121c0 57 -34 93 -88 93c-60 0 -106 -52 -106 -120c0 -57 35 -94 90 -94zM389 677l109 -39
c-13 -47 -42 -74 -66 -90c-41 -26 -87 -30 -122 -30c-41 0 -91 5 -128 31c-27 19 -51 50 -62 89l115 39c3 -15 11 -35 21 -45c16 -17 38 -18 52 -18c17 0 41 2 58 20c10 10 19 30 23 43z" />
    <glyph glyph-name="uni04D2" unicode="&#x4d2;" horiz-adv-x="695" 
d="M462 112h-238l-51 -112h-188l331 667h190l161 -667h-177zM353 393l-67 -149h144l-28 127c-11 51 -12 57 -15 77c-1 5 -3 13 -4 24c-11 -35 -20 -56 -30 -79zM508 887c43 0 80 -37 80 -80c0 -45 -35 -80 -79 -80c-45 0 -82 36 -82 81c0 43 37 79 81 79zM306 887
c45 0 80 -36 80 -80c0 -45 -35 -80 -79 -80c-46 0 -81 35 -81 81c0 44 35 79 80 79z" />
    <glyph glyph-name="uni04D3" unicode="&#x4d3;" horiz-adv-x="612" 
d="M414 447h165l-55 -447h-165l12 49c-51 -46 -90 -62 -152 -62c-113 0 -186 82 -186 211c0 151 100 262 235 262c63 0 97 -15 145 -64zM291 116c60 0 104 51 104 121c0 57 -34 93 -88 93c-60 0 -106 -52 -106 -120c0 -57 35 -94 90 -94zM418 687c43 0 80 -37 80 -80
c0 -45 -35 -80 -79 -80c-45 0 -82 36 -82 81c0 43 37 79 81 79zM216 687c45 0 80 -36 80 -80c0 -45 -35 -80 -79 -80c-46 0 -81 35 -81 81c0 44 35 79 80 79z" />
    <glyph glyph-name="uni04D4" unicode="&#x4d4;" horiz-adv-x="923" 
d="M311 667h417l37 -147h-212l31 -113h203l37 -147h-201l30 -113h206l36 -147h-373l-28 120h-274l-56 -120h-179zM360 421l-78 -168h182l-44 178c-9 37 -13 58 -18 93c-20 -52 -30 -77 -42 -103z" />
    <glyph glyph-name="uni04D5" unicode="&#x4d5;" horiz-adv-x="863" 
d="M827 197h-334v-5c0 -25 9 -51 24 -66s39 -23 61 -23c26 0 60 8 76 40h159c-9 -40 -29 -80 -77 -113c-49 -33 -106 -43 -157 -43c-33 0 -71 2 -108 16c-28 11 -48 26 -64 45c-31 -26 -62 -39 -85 -46c-30 -9 -70 -15 -107 -15c-79 0 -122 25 -145 46c-27 25 -42 55 -42 96
c0 40 12 72 37 97c17 17 59 50 147 50c37 0 84 -7 131 -42c2 10 3 20 3 30c0 27 -7 53 -23 68c-20 19 -54 21 -71 21c-43 0 -83 -9 -141 -33l8 117c74 18 123 23 161 23c49 0 80 -9 93 -13c30 -10 52 -24 71 -45c20 20 40 31 64 41c35 14 62 17 100 17c46 0 103 -7 149 -49
c62 -56 70 -138 70 -199v-15zM246 176c-17 0 -35 -3 -50 -12c-16 -10 -20 -23 -20 -32s3 -22 18 -32c16 -11 40 -15 57 -15c15 0 34 2 51 14c11 8 18 18 18 32c0 11 -6 24 -23 34c-18 10 -37 11 -51 11zM508 290h169c-2 27 -17 43 -28 51c-15 11 -37 15 -54 15
c-19 0 -44 -5 -61 -19c-11 -9 -22 -26 -26 -47z" />
    <glyph glyph-name="uni04D6" unicode="&#x4d6;" horiz-adv-x="483" 
d="M124 667h365l-18 -147h-196l-14 -111h190l-18 -146h-190l-14 -116h204l-18 -147h-373zM411 898l108 -48c-18 -49 -50 -77 -77 -93c-43 -26 -89 -29 -128 -29c-36 0 -89 2 -133 30c-24 15 -55 43 -72 92l115 48c4 -17 14 -36 28 -47c14 -12 36 -19 65 -19c16 0 40 3 61 19
c15 12 27 30 33 47z" />
    <glyph glyph-name="uni04D7" unicode="&#x4d7;" horiz-adv-x="561" 
d="M525 190h-334c0 -16 0 -55 23 -76c8 -8 24 -17 51 -17c14 0 29 3 42 12s19 20 22 30h180c-11 -33 -29 -61 -49 -81c-57 -59 -141 -71 -194 -71c-94 0 -146 36 -171 59c-29 28 -61 78 -61 158c0 86 35 148 73 185c39 38 100 71 191 71c84 0 137 -30 169 -62
c46 -46 60 -112 60 -170c0 -13 -1 -26 -2 -38zM202 283h156c-1 21 -10 41 -23 53c-12 11 -30 18 -52 18c-23 0 -44 -9 -57 -22s-21 -33 -24 -49zM389 677l109 -39c-13 -47 -42 -74 -66 -90c-41 -26 -87 -30 -122 -30c-41 0 -91 5 -128 31c-27 19 -51 50 -62 89l115 39
c3 -15 11 -35 21 -45c16 -17 38 -18 52 -18c17 0 41 2 58 20c10 10 19 30 23 43z" />
    <glyph glyph-name="uni04D8" unicode="&#x4d8;" horiz-adv-x="783" 
d="M263 442l-175 35c34 73 84 120 131 149c70 44 143 54 205 54c74 0 167 -12 242 -84c43 -41 90 -111 90 -227c0 -120 -47 -225 -115 -289c-49 -46 -128 -93 -255 -93c-83 0 -169 20 -238 88c-74 73 -111 190 -90 307h523c-4 34 -20 74 -45 98c-30 28 -78 40 -125 40
c-33 0 -63 -6 -91 -22c-22 -12 -42 -30 -57 -56zM559 258h-335c5 -38 23 -64 43 -82c22 -20 60 -39 120 -39c40 0 82 11 113 33c25 19 48 51 59 88z" />
    <glyph glyph-name="afii10846" unicode="&#x4d9;" horiz-adv-x="578" 
d="M36 257h338c2 25 -7 53 -24 69c-18 17 -43 18 -59 18c-15 0 -34 -3 -50 -14c-10 -7 -20 -20 -26 -32l-154 38c15 30 40 63 86 89c48 27 100 35 151 35c53 0 125 -9 180 -62c26 -25 64 -76 64 -166s-37 -145 -67 -176c-59 -60 -131 -69 -188 -69s-127 11 -183 66
c-48 47 -75 121 -68 204zM363 164h-164c1 -19 9 -39 20 -50c16 -16 40 -19 56 -19c30 0 53 9 66 22c11 10 20 27 22 47z" />
    <glyph glyph-name="uni04DA" unicode="&#x4da;" horiz-adv-x="783" 
d="M263 442l-175 35c34 73 84 120 131 149c70 44 143 54 205 54c74 0 167 -12 242 -84c43 -41 90 -111 90 -227c0 -120 -47 -225 -115 -289c-49 -46 -128 -93 -255 -93c-83 0 -169 20 -238 88c-74 73 -111 190 -90 307h523c-4 34 -20 74 -45 98c-30 28 -78 40 -125 40
c-33 0 -63 -6 -91 -22c-22 -12 -42 -30 -57 -56zM559 258h-335c5 -38 23 -64 43 -82c22 -20 60 -39 120 -39c40 0 82 11 113 33c25 19 48 51 59 88zM539 887c43 0 80 -37 80 -80c0 -45 -35 -80 -79 -80c-45 0 -82 36 -82 81c0 43 37 79 81 79zM337 887c45 0 80 -36 80 -80
c0 -45 -35 -80 -79 -80c-46 0 -81 35 -81 81c0 44 35 79 80 79z" />
    <glyph glyph-name="uni04DB" unicode="&#x4db;" horiz-adv-x="578" 
d="M36 257h338c2 25 -7 53 -24 69c-18 17 -43 18 -59 18c-15 0 -34 -3 -50 -14c-10 -7 -20 -20 -26 -32l-154 38c15 30 40 63 86 89c48 27 100 35 151 35c53 0 125 -9 180 -62c26 -25 64 -76 64 -166s-37 -145 -67 -176c-59 -60 -131 -69 -188 -69s-127 11 -183 66
c-48 47 -75 121 -68 204zM363 164h-164c1 -19 9 -39 20 -50c16 -16 40 -19 56 -19c30 0 53 9 66 22c11 10 20 27 22 47zM403 687c43 0 80 -37 80 -80c0 -45 -35 -80 -79 -80c-45 0 -82 36 -82 81c0 43 37 79 81 79zM201 687c45 0 80 -36 80 -80c0 -45 -35 -80 -79 -80
c-46 0 -81 35 -81 81c0 44 35 79 80 79z" />
    <glyph glyph-name="uni04DC" unicode="&#x4dc;" horiz-adv-x="987" 
d="M373 0l36 293l-216 -293h-218l282 346l-180 321h200l142 -290l36 290h169l-36 -290l214 290h200l-257 -335l195 -332h-218l-144 293l-36 -293h-169zM648 887c43 0 80 -37 80 -80c0 -45 -35 -80 -79 -80c-45 0 -82 36 -82 81c0 43 37 79 81 79zM446 887
c45 0 80 -36 80 -80c0 -45 -35 -80 -79 -80c-46 0 -81 35 -81 81c0 44 35 79 80 79z" />
    <glyph glyph-name="uni04DD" unicode="&#x4dd;" horiz-adv-x="799" 
d="M291 0l24 194l-147 -194h-193l200 239l-128 208h179l97 -187l23 187h160l-23 -187l144 187h187l-186 -219l142 -228h-194l-101 194l-24 -194h-160zM532 687c43 0 80 -37 80 -80c0 -45 -35 -80 -79 -80c-45 0 -82 36 -82 81c0 43 37 79 81 79zM330 687c45 0 80 -36 80 -80
c0 -45 -35 -80 -79 -80c-46 0 -81 35 -81 81c0 44 35 79 80 79z" />
    <glyph glyph-name="uni04DE" unicode="&#x4de;" horiz-adv-x="582" 
d="M156 484l-57 124c29 18 65 37 95 48c46 17 91 24 137 24c92 0 143 -28 172 -57c24 -24 44 -61 44 -113c0 -47 -17 -83 -35 -108c-25 -33 -54 -48 -77 -55l-1 -3c28 -7 52 -21 69 -37c28 -27 38 -60 38 -97c0 -58 -21 -111 -58 -149c-60 -63 -141 -74 -214 -74
c-50 0 -97 7 -151 32c-38 18 -82 48 -113 72l91 122c19 -17 47 -40 71 -54c32 -18 63 -26 99 -26c28 0 56 8 74 24c13 12 21 29 21 50c0 20 -8 38 -31 50c-21 11 -62 13 -85 13h-54l17 134h43c20 0 77 2 104 24c15 12 25 32 25 53c0 19 -9 34 -20 43c-15 12 -43 16 -66 16
c-41 0 -71 -14 -77 -17c-17 -8 -44 -26 -61 -39zM437 887c43 0 80 -37 80 -80c0 -45 -35 -80 -79 -80c-45 0 -82 36 -82 81c0 43 37 79 81 79zM235 887c45 0 80 -36 80 -80c0 -45 -35 -80 -79 -80c-46 0 -81 35 -81 81c0 44 35 79 80 79z" />
    <glyph glyph-name="uni04DF" unicode="&#x4df;" horiz-adv-x="488" 
d="M91 298l-38 112c29 16 60 28 88 36c43 12 85 16 120 16c33 0 91 -3 133 -28c45 -26 59 -64 59 -100c0 -35 -15 -58 -29 -72c-13 -12 -33 -24 -54 -30v-2c18 -4 38 -12 52 -26c11 -11 27 -32 27 -67c0 -42 -20 -86 -63 -114c-51 -34 -128 -36 -155 -36
c-67 0 -114 14 -137 22c-31 11 -64 27 -92 46l58 110c21 -15 46 -30 67 -38c27 -11 58 -16 83 -16c14 0 34 1 47 7c14 6 22 18 22 28c0 20 -20 25 -27 26c-15 3 -35 4 -50 4h-46l13 104h41c8 0 39 0 56 5c26 7 27 24 27 29c0 14 -11 21 -20 24c-14 6 -29 6 -46 6
c-32 0 -50 -5 -75 -14c-23 -9 -42 -18 -61 -32zM363 687c43 0 80 -37 80 -80c0 -45 -35 -80 -79 -80c-45 0 -82 36 -82 81c0 43 37 79 81 79zM161 687c45 0 80 -36 80 -80c0 -45 -35 -80 -79 -80c-46 0 -81 35 -81 81c0 44 35 79 80 79z" />
    <glyph glyph-name="uni04E2" unicode="&#x4e2;" horiz-adv-x="731" 
d="M124 667h169l-51 -412l309 412h164l-82 -667h-169l51 412l-311 -412h-162zM229 749l12 98h376l-12 -98h-376z" />
    <glyph glyph-name="uni04E3" unicode="&#x4e3;" horiz-adv-x="598" 
d="M87 447h165l-29 -230l197 230h144l-55 -447h-165l29 236l-195 -236h-146zM126 539l12 98h396l-12 -98h-396z" />
    <glyph glyph-name="uni04E4" unicode="&#x4e4;" horiz-adv-x="731" 
d="M124 667h169l-51 -412l309 412h164l-82 -667h-169l51 412l-311 -412h-162zM528 887c43 0 80 -37 80 -80c0 -45 -35 -80 -79 -80c-45 0 -82 36 -82 81c0 43 37 79 81 79zM326 887c45 0 80 -36 80 -80c0 -45 -35 -80 -79 -80c-46 0 -81 35 -81 81c0 44 35 79 80 79z" />
    <glyph glyph-name="uni04E5" unicode="&#x4e5;" horiz-adv-x="598" 
d="M87 447h165l-29 -230l197 230h144l-55 -447h-165l29 236l-195 -236h-146zM438 687c43 0 80 -37 80 -80c0 -45 -35 -80 -79 -80c-45 0 -82 36 -82 81c0 43 37 79 81 79zM236 687c45 0 80 -36 80 -80c0 -45 -35 -80 -79 -80c-46 0 -81 35 -81 81c0 44 35 79 80 79z" />
    <glyph glyph-name="uni04E6" unicode="&#x4e6;" horiz-adv-x="805" 
d="M429 680c139 0 219 -59 257 -96c62 -61 92 -137 92 -230c0 -150 -70 -235 -100 -266c-48 -49 -129 -101 -262 -101c-120 0 -214 42 -274 103c-54 55 -90 136 -90 234c0 102 38 188 95 247c64 66 162 109 282 109zM422 520c-54 0 -107 -20 -141 -54
c-32 -32 -56 -83 -56 -136c0 -47 17 -95 45 -126c27 -30 75 -57 142 -57c65 0 110 21 140 53c29 30 52 78 52 138s-20 100 -46 127c-33 34 -84 55 -136 55zM528 887c43 0 80 -37 80 -80c0 -45 -35 -80 -79 -80c-45 0 -82 36 -82 81c0 43 37 79 81 79zM326 887
c45 0 80 -36 80 -80c0 -45 -35 -80 -79 -80c-46 0 -81 35 -81 81c0 44 35 79 80 79z" />
    <glyph glyph-name="uni04E7" unicode="&#x4e7;" horiz-adv-x="603" 
d="M308 460c99 0 162 -35 197 -70c36 -35 62 -86 62 -159s-26 -128 -65 -168c-34 -35 -95 -76 -199 -76c-90 0 -161 31 -205 75c-32 32 -63 84 -63 160c0 65 23 119 67 162c33 32 96 76 206 76zM294 116c24 0 51 8 71 29c22 22 34 54 34 92c0 42 -17 62 -27 71
c-15 13 -39 22 -62 22c-18 0 -47 -4 -73 -31c-20 -21 -34 -52 -34 -89c0 -35 14 -56 25 -68c17 -17 43 -26 66 -26zM428 687c43 0 80 -37 80 -80c0 -45 -35 -80 -79 -80c-45 0 -82 36 -82 81c0 43 37 79 81 79zM226 687c45 0 80 -36 80 -80c0 -45 -35 -80 -79 -80
c-46 0 -81 35 -81 81c0 44 35 79 80 79z" />
    <glyph glyph-name="uni04E8" unicode="&#x4e8;" horiz-adv-x="805" 
d="M429 680c139 0 219 -59 257 -96c62 -61 92 -137 92 -230c0 -150 -70 -235 -100 -266c-48 -49 -129 -101 -262 -101c-120 0 -214 42 -274 103c-54 55 -90 136 -90 234c0 102 38 188 95 247c64 66 162 109 282 109zM241 405h353c-8 24 -25 58 -66 85c-29 19 -66 30 -107 30
c-38 0 -82 -10 -116 -34c-25 -17 -49 -46 -64 -81zM596 279h-364c9 -43 32 -73 53 -90c35 -30 87 -42 136 -42c53 0 91 19 120 43c37 32 50 69 55 89z" />
    <glyph glyph-name="uni04E9" unicode="&#x4e9;" horiz-adv-x="603" 
d="M308 460c99 0 162 -35 197 -70c36 -35 62 -86 62 -159s-26 -128 -65 -168c-34 -35 -95 -76 -199 -76c-90 0 -161 31 -205 75c-32 32 -63 84 -63 160c0 65 23 119 67 162c33 32 96 76 206 76zM215 266h181c-6 25 -20 39 -29 46c-11 9 -30 18 -57 18c-29 0 -48 -9 -59 -17
c-12 -9 -27 -24 -36 -47zM394 195h-190c3 -23 13 -42 26 -55c21 -21 47 -24 66 -24c26 0 44 8 61 22c12 10 28 28 37 57z" />
    <glyph glyph-name="uni04EA" unicode="&#x4ea;" horiz-adv-x="805" 
d="M429 680c139 0 219 -59 257 -96c62 -61 92 -137 92 -230c0 -150 -70 -235 -100 -266c-48 -49 -129 -101 -262 -101c-120 0 -214 42 -274 103c-54 55 -90 136 -90 234c0 102 38 188 95 247c64 66 162 109 282 109zM241 405h353c-8 24 -25 58 -66 85c-29 19 -66 30 -107 30
c-38 0 -82 -10 -116 -34c-25 -17 -49 -46 -64 -81zM596 279h-364c9 -43 32 -73 53 -90c35 -30 87 -42 136 -42c53 0 91 19 120 43c37 32 50 69 55 89zM528 887c43 0 80 -37 80 -80c0 -45 -35 -80 -79 -80c-45 0 -82 36 -82 81c0 43 37 79 81 79zM326 887c45 0 80 -36 80 -80
c0 -45 -35 -80 -79 -80c-46 0 -81 35 -81 81c0 44 35 79 80 79z" />
    <glyph glyph-name="uni04EB" unicode="&#x4eb;" horiz-adv-x="603" 
d="M308 460c99 0 162 -35 197 -70c36 -35 62 -86 62 -159s-26 -128 -65 -168c-34 -35 -95 -76 -199 -76c-90 0 -161 31 -205 75c-32 32 -63 84 -63 160c0 65 23 119 67 162c33 32 96 76 206 76zM215 266h181c-6 25 -20 39 -29 46c-11 9 -30 18 -57 18c-29 0 -48 -9 -59 -17
c-12 -9 -27 -24 -36 -47zM394 195h-190c3 -23 13 -42 26 -55c21 -21 47 -24 66 -24c26 0 44 8 61 22c12 10 28 28 37 57zM428 687c43 0 80 -37 80 -80c0 -45 -35 -80 -79 -80c-45 0 -82 36 -82 81c0 43 37 79 81 79zM226 687c45 0 80 -36 80 -80c0 -45 -35 -80 -79 -80
c-46 0 -81 35 -81 81c0 44 35 79 80 79z" />
    <glyph glyph-name="uni04EE" unicode="&#x4ee;" horiz-adv-x="642" 
d="M45 667h182l126 -299l147 299h195l-382 -667h-183l118 200zM164 749l12 98h376l-12 -98h-376z" />
    <glyph glyph-name="uni04EF" unicode="&#x4ef;" horiz-adv-x="588" 
d="M427 447h188l-418 -676h-185l160 264l-158 412h183l48 -121c18 -45 26 -73 37 -128c15 33 34 68 59 108zM118 539l12 98h396l-12 -98h-396z" />
    <glyph glyph-name="uni04F0" unicode="&#x4f0;" horiz-adv-x="642" 
d="M45 667h182l126 -299l147 299h195l-382 -667h-183l118 200zM462 887c43 0 80 -37 80 -80c0 -45 -35 -80 -79 -80c-45 0 -82 36 -82 81c0 43 37 79 81 79zM260 887c45 0 80 -36 80 -80c0 -45 -35 -80 -79 -80c-46 0 -81 35 -81 81c0 44 35 79 80 79z" />
    <glyph glyph-name="uni04F1" unicode="&#x4f1;" horiz-adv-x="588" 
d="M427 447h188l-418 -676h-185l160 264l-158 412h183l48 -121c18 -45 26 -73 37 -128c15 33 34 68 59 108zM428 687c43 0 80 -37 80 -80c0 -45 -35 -80 -79 -80c-45 0 -82 36 -82 81c0 43 37 79 81 79zM226 687c45 0 80 -36 80 -80c0 -45 -35 -80 -79 -80
c-46 0 -81 35 -81 81c0 44 35 79 80 79z" />
    <glyph glyph-name="uni04F2" unicode="&#x4f2;" horiz-adv-x="642" 
d="M45 667h182l126 -299l147 299h195l-382 -667h-183l118 200zM253 898h151l-117 -171h-100zM453 898h151l-117 -171h-99z" />
    <glyph glyph-name="uni04F3" unicode="&#x4f3;" horiz-adv-x="588" 
d="M427 447h188l-418 -676h-185l160 264l-158 412h183l48 -121c18 -45 26 -73 37 -128c15 33 34 68 59 108zM228 698h151l-117 -171h-100zM428 698h151l-117 -171h-99z" />
    <glyph glyph-name="uni04F4" unicode="&#x4f4;" horiz-adv-x="652" 
d="M385 0l32 262c-41 -7 -79 -10 -114 -10c-85 0 -138 16 -172 40c-52 37 -61 88 -61 133c0 31 6 60 10 94l18 148h169l-18 -140c-5 -36 -5 -47 -5 -50c0 -62 54 -78 112 -78c24 0 53 2 79 7l32 261h169l-82 -667h-169zM482 887c43 0 80 -37 80 -80c0 -45 -35 -80 -79 -80
c-45 0 -82 36 -82 81c0 43 37 79 81 79zM280 887c45 0 80 -36 80 -80c0 -45 -35 -80 -79 -80c-46 0 -81 35 -81 81c0 44 35 79 80 79z" />
    <glyph glyph-name="uni04F5" unicode="&#x4f5;" horiz-adv-x="531" 
d="M277 0l19 154c-31 -8 -60 -11 -90 -11c-55 0 -110 9 -143 42c-40 40 -34 96 -30 129l16 133h159l-14 -107c-3 -21 -6 -46 13 -60c7 -5 19 -10 47 -10c23 0 40 2 57 7l21 170h165l-55 -447h-165zM388 687c43 0 80 -37 80 -80c0 -45 -35 -80 -79 -80c-45 0 -82 36 -82 81
c0 43 37 79 81 79zM186 687c45 0 80 -36 80 -80c0 -45 -35 -80 -79 -80c-46 0 -81 35 -81 81c0 44 35 79 80 79z" />
    <glyph glyph-name="uni04F8" unicode="&#x4f8;" horiz-adv-x="861" 
d="M594 0l82 667h169l-82 -667h-169zM42 0l82 667h169l-32 -262h87c65 0 127 -12 169 -54c40 -40 48 -88 48 -125c0 -82 -31 -131 -58 -158c-58 -58 -148 -68 -234 -68h-231zM228 133h57c29 0 65 3 83 15c14 10 28 31 28 66c0 24 -8 36 -14 42c-12 12 -36 16 -77 16h-60z
M598 887c43 0 80 -37 80 -80c0 -45 -35 -80 -79 -80c-45 0 -82 36 -82 81c0 43 37 79 81 79zM396 887c45 0 80 -36 80 -80c0 -45 -35 -80 -79 -80c-46 0 -81 35 -81 81c0 44 35 79 80 79z" />
    <glyph glyph-name="uni04F9" unicode="&#x4f9;" horiz-adv-x="766" 
d="M567 447h165l-55 -447h-165zM234 298h84c42 0 95 -2 134 -40c18 -17 38 -47 38 -96c0 -43 -16 -86 -43 -113c-33 -33 -89 -49 -136 -49h-279l54 447h166zM210 104h49c10 0 37 1 52 14c9 8 15 22 15 38c0 8 -2 22 -15 30c-4 3 -16 8 -55 8h-35zM513 687
c43 0 80 -37 80 -80c0 -45 -35 -80 -79 -80c-45 0 -82 36 -82 81c0 43 37 79 81 79zM311 687c45 0 80 -36 80 -80c0 -45 -35 -80 -79 -80c-46 0 -81 35 -81 81c0 44 35 79 80 79z" />
    <glyph glyph-name="uni2010" unicode="&#x2010;" horiz-adv-x="353" 
d="M45 202l16 133h253l-16 -133h-253z" />
    <glyph glyph-name="uni2011" unicode="&#x2011;" horiz-adv-x="353" 
d="M45 202l16 133h253l-16 -133h-253z" />
    <glyph glyph-name="figuredash" unicode="&#x2012;" horiz-adv-x="574" 
d="M64 275l17 132h434l-17 -132h-434z" />
    <glyph glyph-name="endash" unicode="&#x2013;" horiz-adv-x="574" 
d="M64 199l17 132h434l-17 -132h-434z" />
    <glyph glyph-name="emdash" unicode="&#x2014;" horiz-adv-x="907" 
d="M64 199l17 132h767l-17 -132h-767z" />
    <glyph glyph-name="afii00208" unicode="&#x2015;" horiz-adv-x="907" 
d="M64 199l17 132h767l-17 -132h-767z" />
    <glyph glyph-name="quoteleft" unicode="&#x2018;" horiz-adv-x="312" 
d="M198 383h-137l163 284h110z" />
    <glyph glyph-name="quoteright" unicode="&#x2019;" horiz-adv-x="312" 
d="M196 667h138l-164 -284h-109z" />
    <glyph glyph-name="quotesinglbase" unicode="&#x201a;" horiz-adv-x="342" 
d="M139 167h153l-182 -316h-122z" />
    <glyph glyph-name="quotedblleft" unicode="&#x201c;" horiz-adv-x="525" 
d="M412 383h-138l164 284h109zM198 383h-137l163 284h110z" />
    <glyph glyph-name="quotedblright" unicode="&#x201d;" horiz-adv-x="530" 
d="M414 667h138l-168 -294h-110zM201 667h138l-168 -294h-110z" />
    <glyph glyph-name="quotedblbase" unicode="&#x201e;" horiz-adv-x="539" 
d="M351 167h138l-179 -316h-109zM138 167h138l-179 -316h-109z" />
    <glyph glyph-name="dagger" unicode="&#x2020;" horiz-adv-x="615" 
d="M274 531l25 198h147l-25 -198h157l-15 -127h-157l-73 -592h-147l73 592h-156l15 127h156z" />
    <glyph glyph-name="daggerdbl" unicode="&#x2021;" horiz-adv-x="617" 
d="M278 531l25 198h147l-25 -198h155l-15 -127h-155l-27 -216h155l-16 -127h-155l-30 -249h-147l30 249h-156l16 127h156l27 216h-156l15 127h156z" />
    <glyph glyph-name="bullet" unicode="&#x2022;" horiz-adv-x="1000" 
d="M376 340c0 77 61 140 137 140s139 -63 139 -140s-63 -140 -139 -140s-137 63 -137 140z" />
    <glyph glyph-name="ellipsis" unicode="&#x2026;" horiz-adv-x="895" 
d="M130 190c58 0 104 -44 104 -100c0 -58 -44 -103 -100 -103s-103 47 -103 102c0 56 45 101 99 101zM429 190c57 0 103 -44 103 -100c0 -58 -44 -103 -100 -103s-102 47 -102 102c0 56 44 101 99 101zM727 190c58 0 103 -44 103 -100c0 -58 -44 -103 -100 -103
c-55 0 -102 47 -102 102c0 56 45 101 99 101z" />
    <glyph glyph-name="perthousand" unicode="&#x2030;" horiz-adv-x="1289" 
d="M646 667h88l-469 -667h-88zM649 -8c-41 0 -87 8 -124 44c-26 26 -45 64 -45 106c0 41 17 91 54 127c40 38 87 50 136 50c67 0 106 -22 129 -45c22 -21 41 -56 41 -102c0 -57 -23 -97 -49 -124c-37 -38 -84 -56 -142 -56zM667 231c-21 0 -41 -8 -55 -22
c-16 -15 -24 -37 -24 -60c0 -22 9 -39 19 -49c12 -12 30 -19 49 -19c18 0 39 8 53 22s23 35 23 60c0 23 -9 40 -19 50c-11 11 -29 18 -46 18zM247 586c-21 0 -41 -8 -55 -22c-16 -15 -24 -37 -24 -60c0 -22 9 -39 19 -49c12 -12 30 -19 49 -19c18 0 39 8 53 22s23 35 23 60
c0 23 -9 40 -19 50c-11 11 -29 18 -46 18zM229 347c-41 0 -87 8 -124 44c-26 26 -45 64 -45 106c0 41 17 91 54 127c40 38 87 50 136 50c67 0 106 -22 129 -45c22 -21 41 -56 41 -102c0 -57 -23 -97 -49 -124c-37 -38 -84 -56 -142 -56zM1081 231c-21 0 -41 -8 -55 -22
c-16 -15 -24 -37 -24 -60c0 -22 9 -39 19 -49c12 -12 30 -19 49 -19c18 0 39 8 53 22s23 35 23 60c0 23 -9 40 -19 50c-11 11 -29 18 -46 18zM1063 -8c-41 0 -87 8 -124 44c-26 26 -45 64 -45 106c0 41 17 91 54 127c40 38 87 50 136 50c67 0 106 -22 129 -45
c22 -21 41 -56 41 -102c0 -57 -23 -97 -49 -124c-37 -38 -84 -56 -142 -56z" />
    <glyph glyph-name="guilsinglleft" unicode="&#x2039;" horiz-adv-x="333" 
d="M297 379l-127 -160l90 -152l-97 -57l-125 218l179 217z" />
    <glyph glyph-name="guilsinglright" unicode="&#x203a;" horiz-adv-x="336" 
d="M41 78l133 154l-92 156l96 57l125 -217l-179 -218z" />
    <glyph glyph-name="fraction" unicode="&#x2044;" horiz-adv-x="261" 
d="M321 667h90l-471 -667h-90z" />
    <glyph glyph-name="Euro" unicode="&#x20ac;" horiz-adv-x="600" 
d="M547 190l-20 -167c-56 -29 -121 -38 -167 -38c-72 0 -150 17 -206 62c-30 24 -80 76 -90 168h-78l47 90h30c1 18 3 35 7 50h-66l47 90h43c31 91 88 144 127 171c62 43 142 65 226 65c105 0 162 -31 185 -44l-76 -146c-55 34 -109 38 -136 38c-39 0 -71 -9 -95 -22
c-28 -16 -46 -36 -57 -62h268l-47 -90h-250c-4 -17 -6 -34 -6 -50h229l-47 -90h-171c7 -23 22 -43 49 -58c16 -9 44 -20 93 -20c85 0 135 32 161 53z" />
    <glyph glyph-name="uni20B4" unicode="&#x20b4;" horiz-adv-x="600" 
d="M184 498l-51 127c83 42 163 57 249 57c45 0 100 -4 138 -33c19 -15 45 -45 45 -95c0 -56 -28 -88 -42 -102h69l-11 -97h-151l-74 -63h217l-12 -97h-290c-16 -12 -19 -29 -19 -38c0 -12 4 -21 14 -29c14 -11 34 -12 53 -12c46 0 93 5 162 37l54 -118
c-81 -38 -178 -56 -259 -56c-47 0 -120 4 -162 33c-18 13 -49 41 -49 94c0 23 5 58 33 89h-60l12 97h130l74 63h-196l11 97h279c10 8 22 20 22 45c0 10 -2 24 -15 34c-15 12 -41 12 -48 12c-42 0 -87 -18 -123 -45z" />
    <glyph glyph-name="uni20B6" unicode="&#x20b6;" horiz-adv-x="600" 
d="M163 667h214c65 0 137 -8 186 -57c45 -45 51 -101 51 -145c0 -41 -6 -96 -50 -143c-52 -56 -135 -72 -221 -72h-62l-8 -63h180l-12 -97h-180l-11 -90h-169l11 90h-82l12 97h82l8 63h-82l13 110h82zM352 527h-37l-20 -166h43c21 0 60 2 83 28c16 19 19 45 19 59
c0 16 -1 40 -17 57c-20 23 -48 22 -71 22z" />
    <glyph glyph-name="uni20B7" unicode="&#x20b7;" horiz-adv-x="600" 
d="M163 667h214c65 0 137 -8 186 -57c45 -45 51 -101 51 -145c0 -41 -6 -96 -50 -143c-52 -56 -135 -72 -221 -72h-62l-8 -63h180l-12 -97h-180l-11 -90h-169l11 90h-82l12 97h82l8 63h-82l13 110h82zM352 527h-37l-20 -166h43c21 0 60 2 83 28c16 19 19 45 19 59
c0 16 -1 40 -17 57c-20 23 -48 22 -71 22z" />
    <glyph glyph-name="uni20B8" unicode="&#x20b8;" horiz-adv-x="600" 
d="M163 667h214c65 0 137 -8 186 -57c45 -45 51 -101 51 -145c0 -41 -6 -96 -50 -143c-52 -56 -135 -72 -221 -72h-62l-8 -63h180l-12 -97h-180l-11 -90h-169l11 90h-82l12 97h82l8 63h-82l13 110h82zM352 527h-37l-20 -166h43c21 0 60 2 83 28c16 19 19 45 19 59
c0 16 -1 40 -17 57c-20 23 -48 22 -71 22z" />
    <glyph glyph-name="uni20B9" unicode="&#x20b9;" horiz-adv-x="600" 
d="M163 667h214c65 0 137 -8 186 -57c45 -45 51 -101 51 -145c0 -41 -6 -96 -50 -143c-52 -56 -135 -72 -221 -72h-62l-8 -63h180l-12 -97h-180l-11 -90h-169l11 90h-82l12 97h82l8 63h-82l13 110h82zM352 527h-37l-20 -166h43c21 0 60 2 83 28c16 19 19 45 19 59
c0 16 -1 40 -17 57c-20 23 -48 22 -71 22z" />
    <glyph glyph-name="uni20BA" unicode="&#x20ba;" horiz-adv-x="600" 
d="M163 667h214c65 0 137 -8 186 -57c45 -45 51 -101 51 -145c0 -41 -6 -96 -50 -143c-52 -56 -135 -72 -221 -72h-62l-8 -63h180l-12 -97h-180l-11 -90h-169l11 90h-82l12 97h82l8 63h-82l13 110h82zM352 527h-37l-20 -166h43c21 0 60 2 83 28c16 19 19 45 19 59
c0 16 -1 40 -17 57c-20 23 -48 22 -71 22z" />
    <glyph glyph-name="uni20BB" unicode="&#x20bb;" horiz-adv-x="600" 
d="M163 667h214c65 0 137 -8 186 -57c45 -45 51 -101 51 -145c0 -41 -6 -96 -50 -143c-52 -56 -135 -72 -221 -72h-62l-8 -63h180l-12 -97h-180l-11 -90h-169l11 90h-82l12 97h82l8 63h-82l13 110h82zM352 527h-37l-20 -166h43c21 0 60 2 83 28c16 19 19 45 19 59
c0 16 -1 40 -17 57c-20 23 -48 22 -71 22z" />
    <glyph glyph-name="uni20BC" unicode="&#x20bc;" horiz-adv-x="600" 
d="M163 667h214c65 0 137 -8 186 -57c45 -45 51 -101 51 -145c0 -41 -6 -96 -50 -143c-52 -56 -135 -72 -221 -72h-62l-8 -63h180l-12 -97h-180l-11 -90h-169l11 90h-82l12 97h82l8 63h-82l13 110h82zM352 527h-37l-20 -166h43c21 0 60 2 83 28c16 19 19 45 19 59
c0 16 -1 40 -17 57c-20 23 -48 22 -71 22z" />
    <glyph glyph-name="uni20BD" unicode="&#x20bd;" horiz-adv-x="600" 
d="M163 667h214c65 0 137 -8 186 -57c45 -45 51 -101 51 -145c0 -41 -6 -96 -50 -143c-52 -56 -135 -72 -221 -72h-62l-8 -63h180l-12 -97h-180l-11 -90h-169l11 90h-82l12 97h82l8 63h-82l13 110h82zM352 527h-37l-20 -166h43c21 0 60 2 83 28c16 19 19 45 19 59
c0 16 -1 40 -17 57c-20 23 -48 22 -71 22z" />
    <glyph glyph-name="uni20BE" unicode="&#x20be;" horiz-adv-x="600" 
d="M163 667h214c65 0 137 -8 186 -57c45 -45 51 -101 51 -145c0 -41 -6 -96 -50 -143c-52 -56 -135 -72 -221 -72h-62l-8 -63h180l-12 -97h-180l-11 -90h-169l11 90h-82l12 97h82l8 63h-82l13 110h82zM352 527h-37l-20 -166h43c21 0 60 2 83 28c16 19 19 45 19 59
c0 16 -1 40 -17 57c-20 23 -48 22 -71 22z" />
    <glyph glyph-name="uni20BF" unicode="&#x20bf;" horiz-adv-x="600" 
d="M163 667h214c65 0 137 -8 186 -57c45 -45 51 -101 51 -145c0 -41 -6 -96 -50 -143c-52 -56 -135 -72 -221 -72h-62l-8 -63h180l-12 -97h-180l-11 -90h-169l11 90h-82l12 97h82l8 63h-82l13 110h82zM352 527h-37l-20 -166h43c21 0 60 2 83 28c16 19 19 45 19 59
c0 16 -1 40 -17 57c-20 23 -48 22 -71 22z" />
    <glyph glyph-name="uni20C0" unicode="&#x20c0;" horiz-adv-x="600" 
d="M163 667h214c65 0 137 -8 186 -57c45 -45 51 -101 51 -145c0 -41 -6 -96 -50 -143c-52 -56 -135 -72 -221 -72h-62l-8 -63h180l-12 -97h-180l-11 -90h-169l11 90h-82l12 97h82l8 63h-82l13 110h82zM352 527h-37l-20 -166h43c21 0 60 2 83 28c16 19 19 45 19 59
c0 16 -1 40 -17 57c-20 23 -48 22 -71 22z" />
    <glyph glyph-name="uni20C1" unicode="&#x20c1;" horiz-adv-x="600" 
d="M163 667h214c65 0 137 -8 186 -57c45 -45 51 -101 51 -145c0 -41 -6 -96 -50 -143c-52 -56 -135 -72 -221 -72h-62l-8 -63h180l-12 -97h-180l-11 -90h-169l11 90h-82l12 97h82l8 63h-82l13 110h82zM352 527h-37l-20 -166h43c21 0 60 2 83 28c16 19 19 45 19 59
c0 16 -1 40 -17 57c-20 23 -48 22 -71 22z" />
    <glyph glyph-name="uni20C2" unicode="&#x20c2;" horiz-adv-x="600" 
d="M163 667h214c65 0 137 -8 186 -57c45 -45 51 -101 51 -145c0 -41 -6 -96 -50 -143c-52 -56 -135 -72 -221 -72h-62l-8 -63h180l-12 -97h-180l-11 -90h-169l11 90h-82l12 97h82l8 63h-82l13 110h82zM352 527h-37l-20 -166h43c21 0 60 2 83 28c16 19 19 45 19 59
c0 16 -1 40 -17 57c-20 23 -48 22 -71 22z" />
    <glyph glyph-name="uni20C3" unicode="&#x20c3;" horiz-adv-x="600" 
d="M163 667h214c65 0 137 -8 186 -57c45 -45 51 -101 51 -145c0 -41 -6 -96 -50 -143c-52 -56 -135 -72 -221 -72h-62l-8 -63h180l-12 -97h-180l-11 -90h-169l11 90h-82l12 97h82l8 63h-82l13 110h82zM352 527h-37l-20 -166h43c21 0 60 2 83 28c16 19 19 45 19 59
c0 16 -1 40 -17 57c-20 23 -48 22 -71 22z" />
    <glyph glyph-name="uni20C4" unicode="&#x20c4;" horiz-adv-x="600" 
d="M163 667h214c65 0 137 -8 186 -57c45 -45 51 -101 51 -145c0 -41 -6 -96 -50 -143c-52 -56 -135 -72 -221 -72h-62l-8 -63h180l-12 -97h-180l-11 -90h-169l11 90h-82l12 97h82l8 63h-82l13 110h82zM352 527h-37l-20 -166h43c21 0 60 2 83 28c16 19 19 45 19 59
c0 16 -1 40 -17 57c-20 23 -48 22 -71 22z" />
    <glyph glyph-name="uni20C5" unicode="&#x20c5;" horiz-adv-x="600" 
d="M163 667h214c65 0 137 -8 186 -57c45 -45 51 -101 51 -145c0 -41 -6 -96 -50 -143c-52 -56 -135 -72 -221 -72h-62l-8 -63h180l-12 -97h-180l-11 -90h-169l11 90h-82l12 97h82l8 63h-82l13 110h82zM352 527h-37l-20 -166h43c21 0 60 2 83 28c16 19 19 45 19 59
c0 16 -1 40 -17 57c-20 23 -48 22 -71 22z" />
    <glyph glyph-name="uni20C6" unicode="&#x20c6;" horiz-adv-x="600" 
d="M163 667h214c65 0 137 -8 186 -57c45 -45 51 -101 51 -145c0 -41 -6 -96 -50 -143c-52 -56 -135 -72 -221 -72h-62l-8 -63h180l-12 -97h-180l-11 -90h-169l11 90h-82l12 97h82l8 63h-82l13 110h82zM352 527h-37l-20 -166h43c21 0 60 2 83 28c16 19 19 45 19 59
c0 16 -1 40 -17 57c-20 23 -48 22 -71 22z" />
    <glyph glyph-name="uni20C7" unicode="&#x20c7;" horiz-adv-x="600" 
d="M163 667h214c65 0 137 -8 186 -57c45 -45 51 -101 51 -145c0 -41 -6 -96 -50 -143c-52 -56 -135 -72 -221 -72h-62l-8 -63h180l-12 -97h-180l-11 -90h-169l11 90h-82l12 97h82l8 63h-82l13 110h82zM352 527h-37l-20 -166h43c21 0 60 2 83 28c16 19 19 45 19 59
c0 16 -1 40 -17 57c-20 23 -48 22 -71 22z" />
    <glyph glyph-name="uni20C8" unicode="&#x20c8;" horiz-adv-x="600" 
d="M163 667h214c65 0 137 -8 186 -57c45 -45 51 -101 51 -145c0 -41 -6 -96 -50 -143c-52 -56 -135 -72 -221 -72h-62l-8 -63h180l-12 -97h-180l-11 -90h-169l11 90h-82l12 97h82l8 63h-82l13 110h82zM352 527h-37l-20 -166h43c21 0 60 2 83 28c16 19 19 45 19 59
c0 16 -1 40 -17 57c-20 23 -48 22 -71 22z" />
    <glyph glyph-name="uni20C9" unicode="&#x20c9;" horiz-adv-x="600" 
d="M163 667h214c65 0 137 -8 186 -57c45 -45 51 -101 51 -145c0 -41 -6 -96 -50 -143c-52 -56 -135 -72 -221 -72h-62l-8 -63h180l-12 -97h-180l-11 -90h-169l11 90h-82l12 97h82l8 63h-82l13 110h82zM352 527h-37l-20 -166h43c21 0 60 2 83 28c16 19 19 45 19 59
c0 16 -1 40 -17 57c-20 23 -48 22 -71 22z" />
    <glyph glyph-name="uni20CA" unicode="&#x20ca;" horiz-adv-x="600" 
d="M163 667h214c65 0 137 -8 186 -57c45 -45 51 -101 51 -145c0 -41 -6 -96 -50 -143c-52 -56 -135 -72 -221 -72h-62l-8 -63h180l-12 -97h-180l-11 -90h-169l11 90h-82l12 97h82l8 63h-82l13 110h82zM352 527h-37l-20 -166h43c21 0 60 2 83 28c16 19 19 45 19 59
c0 16 -1 40 -17 57c-20 23 -48 22 -71 22z" />
    <glyph glyph-name="uni20CB" unicode="&#x20cb;" horiz-adv-x="600" 
d="M163 667h214c65 0 137 -8 186 -57c45 -45 51 -101 51 -145c0 -41 -6 -96 -50 -143c-52 -56 -135 -72 -221 -72h-62l-8 -63h180l-12 -97h-180l-11 -90h-169l11 90h-82l12 97h82l8 63h-82l13 110h82zM352 527h-37l-20 -166h43c21 0 60 2 83 28c16 19 19 45 19 59
c0 16 -1 40 -17 57c-20 23 -48 22 -71 22z" />
    <glyph glyph-name="uni20CC" unicode="&#x20cc;" horiz-adv-x="600" 
d="M163 667h214c65 0 137 -8 186 -57c45 -45 51 -101 51 -145c0 -41 -6 -96 -50 -143c-52 -56 -135 -72 -221 -72h-62l-8 -63h180l-12 -97h-180l-11 -90h-169l11 90h-82l12 97h82l8 63h-82l13 110h82zM352 527h-37l-20 -166h43c21 0 60 2 83 28c16 19 19 45 19 59
c0 16 -1 40 -17 57c-20 23 -48 22 -71 22z" />
    <glyph glyph-name="uni20CD" unicode="&#x20cd;" horiz-adv-x="600" 
d="M163 667h214c65 0 137 -8 186 -57c45 -45 51 -101 51 -145c0 -41 -6 -96 -50 -143c-52 -56 -135 -72 -221 -72h-62l-8 -63h180l-12 -97h-180l-11 -90h-169l11 90h-82l12 97h82l8 63h-82l13 110h82zM352 527h-37l-20 -166h43c21 0 60 2 83 28c16 19 19 45 19 59
c0 16 -1 40 -17 57c-20 23 -48 22 -71 22z" />
    <glyph glyph-name="uni20CE" unicode="&#x20ce;" horiz-adv-x="600" 
d="M163 667h214c65 0 137 -8 186 -57c45 -45 51 -101 51 -145c0 -41 -6 -96 -50 -143c-52 -56 -135 -72 -221 -72h-62l-8 -63h180l-12 -97h-180l-11 -90h-169l11 90h-82l12 97h82l8 63h-82l13 110h82zM352 527h-37l-20 -166h43c21 0 60 2 83 28c16 19 19 45 19 59
c0 16 -1 40 -17 57c-20 23 -48 22 -71 22z" />
    <glyph glyph-name="uni20CF" unicode="&#x20cf;" horiz-adv-x="600" 
d="M163 667h214c65 0 137 -8 186 -57c45 -45 51 -101 51 -145c0 -41 -6 -96 -50 -143c-52 -56 -135 -72 -221 -72h-62l-8 -63h180l-12 -97h-180l-11 -90h-169l11 90h-82l12 97h82l8 63h-82l13 110h82zM352 527h-37l-20 -166h43c21 0 60 2 83 28c16 19 19 45 19 59
c0 16 -1 40 -17 57c-20 23 -48 22 -71 22z" />
    <glyph glyph-name="afii61352" unicode="&#x2116;" horiz-adv-x="1177" 
d="M613 667h169l-82 -667h-185l-177 299c-31 52 -55 96 -82 165c0 -48 -1 -110 -7 -156l-38 -308h-169l82 667h182l190 -322c19 -33 55 -104 68 -130c1 35 4 83 8 114zM1010 667c63 0 110 -23 138 -52c29 -30 39 -64 39 -99c0 -50 -20 -87 -45 -113
c-28 -29 -71 -52 -136 -52c-75 0 -118 30 -142 54c-28 28 -41 61 -41 100c0 42 17 82 43 108c33 34 87 54 144 54zM808 287h353l-12 -95h-353zM1003 440c25 0 40 9 50 19c13 14 20 34 20 53c0 16 -4 34 -14 45c-11 12 -31 19 -52 19c-14 0 -32 -3 -48 -18
c-10 -10 -22 -27 -22 -55c0 -12 2 -29 15 -43c10 -11 26 -20 51 -20z" />
    <glyph glyph-name="uni2117" unicode="&#x2117;" horiz-adv-x="771" 
d="M272 529h148c31 0 78 -4 111 -36c29 -29 33 -67 33 -90c0 -44 -16 -74 -33 -91c-16 -16 -48 -36 -110 -36h-32v-126h-117v379zM389 441v-77h7c12 0 30 2 39 9c7 5 14 15 14 30c0 10 -3 21 -15 29c-11 8 -26 9 -38 9h-7zM751 333c0 -89 -37 -181 -102 -246
c-67 -67 -164 -102 -251 -102c-86 0 -182 35 -250 102c-65 65 -102 157 -102 246c0 90 37 183 102 247c68 67 164 102 250 102c87 0 184 -35 251 -102c65 -64 102 -157 102 -247zM398 619c-95 0 -159 -43 -198 -82c-49 -49 -84 -118 -84 -204s35 -155 84 -204
c39 -39 103 -82 198 -82c96 0 160 43 199 82c49 49 84 118 84 204s-35 155 -84 204c-39 39 -103 82 -199 82z" />
    <glyph glyph-name="trademark" unicode="&#x2122;" horiz-adv-x="842" 
d="M328 573h-84l-36 -286h-114l35 286h-86l12 94h284zM705 667h115l17 -380h-115l-7 203l-109 -203h-63l-37 146c-6 25 -8 35 -13 64c-5 -22 -7 -30 -12 -46l-51 -164h-118l126 380h111l32 -128c5 -20 9 -36 16 -74z" />
    <glyph glyph-name="Omega" unicode="&#x2126;" horiz-adv-x="667" 
d="M294 0h-271v117h136c-52 33 -76 56 -99 94c-24 42 -37 95 -37 155c0 183 129 317 305 317s305 -134 305 -317c0 -82 -23 -147 -68 -196c-19 -21 -33 -31 -68 -53h136v-117h-270v104c50 28 76 53 98 92c23 40 36 98 36 156c0 125 -71 214 -169 214s-169 -90 -169 -214
c0 -84 23 -153 69 -200c20 -20 32 -30 66 -48v-104z" />
    <glyph glyph-name="partialdiff" unicode="&#x2202;" horiz-adv-x="564" 
d="M88 567l17 110c103 -7 225 -41 308 -119c94 -88 115 -209 115 -283c0 -85 -26 -165 -76 -218c-49 -52 -108 -69 -175 -69s-123 17 -172 64c-50 49 -70 111 -70 169c0 78 34 129 67 161c40 39 87 57 145 57c52 0 89 -14 123 -40c-27 63 -70 100 -106 120
c-46 26 -115 44 -176 48zM282 110c25 0 48 8 68 27c19 19 34 49 34 82c0 34 -15 65 -35 82c-18 16 -44 24 -71 24c-26 0 -50 -7 -70 -25c-23 -21 -35 -51 -35 -81c0 -28 11 -58 32 -79c15 -15 39 -30 77 -30z" />
    <glyph glyph-name="Delta" unicode="&#x2206;" horiz-adv-x="667" 
d="M622 0h-634l245 667h141zM304 508l-130 -390h260z" />
    <glyph glyph-name="product" unicode="&#x220f;" horiz-adv-x="733" 
d="M43 630v120h653v-120h-82v-760h82v-120h-293v120h73v760h-212v-760h71v-120h-292v120h83v760h-83z" />
    <glyph glyph-name="summation" unicode="&#x2211;" horiz-adv-x="666" 
d="M23 750h599v-247h-117l-13 127h-315l250 -363l-250 -397h324l8 130h122v-250h-608v130l243 387l-243 353v130z" />
    <glyph glyph-name="minus" unicode="&#x2212;" 
d="M47 280v120h433v-120h-433z" />
    <glyph glyph-name="uni2215" unicode="&#x2215;" horiz-adv-x="729" 
d="M-60 -188l628 917h131l-629 -917h-130z" />
    <glyph glyph-name="uni2219" unicode="&#x2219;" horiz-adv-x="232" 
d="M128 457c66 0 118 -51 118 -115c0 -67 -50 -119 -115 -119c-63 0 -117 54 -117 118s51 116 114 116z" />
    <glyph glyph-name="radical" unicode="&#x221a;" horiz-adv-x="667" 
d="M415 827h291v-117h-178l-165 -710h-173l-56 271h-95v116h202l18 -84c1 -3 2 -8 3 -15c3 -24 5 -43 6 -58c3 -29 4 -42 4 -73h11c2 30 3 42 7 73c8 69 24 165 36 217z" />
    <glyph glyph-name="infinity" unicode="&#x221e;" horiz-adv-x="667" 
d="M502 176c-57 0 -104 25 -152 79c-51 -55 -98 -79 -156 -79c-96 0 -164 68 -164 163s68 163 163 163c56 0 98 -22 151 -78c47 52 98 78 156 78c96 0 164 -67 164 -162c0 -96 -68 -164 -162 -164zM480 386c-24 0 -45 -15 -69 -47c25 -33 44 -46 69 -46c28 0 50 20 50 47
c0 25 -23 46 -50 46zM215 293c24 0 44 14 68 46c-25 33 -44 46 -69 46c-28 0 -50 -20 -50 -46s23 -46 51 -46z" />
    <glyph glyph-name="integral" unicode="&#x222b;" 
d="M143 -250c-30 0 -53 3 -94 10l24 116c29 -9 37 -10 55 -10c41 0 58 21 58 71v18v44v476c0 152 4 176 36 216s78 59 143 59c28 0 46 -2 91 -10l-23 -116c-30 9 -38 10 -56 10c-40 0 -58 -21 -58 -71v-62v-67v-409c0 -151 -4 -176 -36 -216s-77 -59 -140 -59z" />
    <glyph glyph-name="approxequal" unicode="&#x2248;" 
d="M164 401c-33 0 -48 -12 -73 -61l-71 47c19 48 30 68 49 91c25 31 60 48 103 48c23 0 52 -8 103 -26c60 -22 65 -24 86 -24c33 0 48 12 72 52l73 -43c-34 -73 -54 -97 -94 -118c-21 -11 -42 -16 -65 -16c-21 0 -40 5 -102 28c-55 19 -65 22 -81 22zM164 198
c-33 0 -48 -13 -73 -61l-71 46c19 49 30 69 49 92c25 31 60 48 103 48c23 0 52 -8 103 -26c60 -22 65 -24 86 -24c33 0 48 12 72 51l73 -42c-34 -73 -54 -97 -94 -118c-21 -11 -42 -16 -65 -16c-21 0 -40 5 -102 27c-55 20 -65 23 -81 23z" />
    <glyph glyph-name="notequal" unicode="&#x2260;" 
d="M45 471h228l55 108h102l-54 -108h102v-116h-155l-33 -67h188v-117h-241l-49 -95h-102l47 95h-88v117h141l34 67h-175v116z" />
    <glyph glyph-name="lessequal" unicode="&#x2264;" 
d="M34 462l433 207v-121l-296 -141l295 -141l1 -121l-433 208v109zM34 117h433v-117h-433v117z" />
    <glyph glyph-name="greaterequal" unicode="&#x2265;" 
d="M480 353l-434 -208v121l297 141l-296 141l-1 121l434 -207v-109zM480 0h-434v117h434v-117z" />
    <glyph glyph-name="dotmath" unicode="&#x22c5;" horiz-adv-x="232" 
d="M128 457c66 0 118 -51 118 -115c0 -67 -50 -119 -115 -119c-63 0 -117 54 -117 118s51 116 114 116z" />
    <glyph glyph-name="lozenge" unicode="&#x25ca;" horiz-adv-x="819" 
d="M87 334l259 359l260 -359l-260 -360zM454 334l-108 148l-107 -148l107 -148z" />
    <glyph glyph-name="openbullet" unicode="&#x25e6;" 
d="M284 356c-85 0 -154 69 -154 153c0 83 69 151 154 151c86 0 155 -68 155 -151c0 -84 -69 -153 -155 -153zM284 584c-42 0 -76 -34 -76 -75c0 -42 34 -76 76 -76c43 0 77 34 77 75c0 42 -34 76 -77 76z" />
    <glyph glyph-name="uniF400" unicode="&#xf400;" horiz-adv-x="2" 
d="M-273 698h165l-132 -171h-113z" />
    <glyph glyph-name="uniF401" unicode="&#xf401;" horiz-adv-x="2" 
d="M-273 898h165l-132 -171h-113z" />
    <glyph glyph-name="uniF406" unicode="&#xf406;" 
d="M131 861c0 5 1 11 1 20h99c3 -42 24 -62 65 -62c42 0 67 20 81 62h102c-17 -99 -83 -154 -184 -154c-96 0 -164 55 -164 134z" />
    <glyph glyph-name="uniF407" unicode="&#xf407;" 
d="M208 -46l112 -44l-136 -146l-92 40z" />
    <glyph glyph-name="uniF408" unicode="&#xf408;" 
d="M336 727l-37 86l-56 -86h-132l111 173h182l59 -173h-127z" />
    <glyph glyph-name="uniF409" unicode="&#xf409;" 
d="M200 -50l150 -16l-120 -194l-100 12z" />
    <glyph glyph-name="uniF40A" unicode="&#xf40a;" 
d="M220 680l150 -26l-140 -202l-100 18z" />
    <glyph glyph-name="uniF40B" unicode="&#xf40b;" 
d="M206 811c0 51 40 91 91 91s91 -40 91 -91s-40 -91 -91 -91s-91 40 -91 91z" />
    <glyph glyph-name="uniF40C" unicode="&#xf40c;" 
d="M302 727c-85 0 -135 36 -135 99c0 60 52 98 133 98c80 0 130 -38 130 -99c0 -60 -50 -98 -128 -98zM299 862c-31 0 -50 -14 -50 -37c0 -22 19 -37 49 -37c32 0 51 14 51 37s-19 37 -50 37z" />
    <glyph glyph-name="uniF40D" unicode="&#xf40d;" 
d="M420 873l79 -46c-11 -21 -31 -51 -52 -69c-28 -25 -57 -31 -77 -31s-48 8 -66 15l-36 14c-19 7 -34 15 -48 15c-27 0 -42 -27 -47 -42l-78 46c11 25 30 52 48 68c22 19 51 30 85 30c24 0 48 -6 68 -14l29 -12c23 -9 38 -18 50 -18c22 0 36 20 45 44z" />
    <glyph glyph-name="uniF40E" unicode="&#xf40e;" 
d="M322 -89l-32 -86c-29 -17 -61 -18 -71 -18c-22 0 -41 6 -58 23c-15 15 -23 33 -23 56c0 33 14 56 36 78c15 15 30 26 46 36h73c-17 -12 -25 -21 -38 -34c-8 -9 -20 -20 -20 -39c0 -9 3 -19 10 -25c7 -7 16 -9 25 -9c15 0 29 5 52 18z" />
    <glyph glyph-name="uniF43E" unicode="&#xf43e;" horiz-adv-x="465" 
d="M495 520h-140l-65 -520h-168l64 520h-143l18 147h452zM188 -46l112 -44l-136 -146l-92 40z" />
    <glyph glyph-name="uniF43F" unicode="&#xf43f;" horiz-adv-x="333" 
d="M344 320h-88l-40 -320h-164l39 320h-70l15 127h71l17 147h165l-18 -147h88zM121 -46l106 -44l-136 -146l-84 40z" />
    <glyph glyph-name="uniF47E" unicode="&#xf47e;" horiz-adv-x="717" 
d="M532 667h169l-47 -386c-16 -128 -33 -179 -76 -220c-50 -48 -130 -74 -228 -74c-173 0 -278 85 -278 228c0 20 3 51 8 92l44 360h168l-44 -360c-2 -20 -3 -39 -3 -56c0 -70 36 -104 110 -104c42 0 75 11 95 33c21 24 28 47 36 107zM331 811c0 51 40 91 91 91
s91 -40 91 -91s-40 -91 -91 -91s-91 40 -91 91z" />
    <glyph glyph-name="uniF47F" unicode="&#xf47f;" horiz-adv-x="597" 
d="M399 447h164l-28 -236c-12 -93 -30 -139 -67 -170c-41 -35 -108 -54 -189 -54c-143 0 -224 63 -224 176c0 16 1 36 4 61l28 223h164l-26 -213c-3 -27 -5 -44 -5 -52c0 -38 24 -58 67 -58c52 0 75 25 83 90zM241 611c0 51 40 91 91 91s91 -40 91 -91s-40 -91 -91 -91
s-91 40 -91 91z" />
    <glyph glyph-name="uniF481" unicode="&#xf481;" horiz-adv-x="695" 
d="M462 112h-238l-51 -112h-188l331 667h190l161 -667h-177zM353 393l-67 -149h144l-28 127c-11 51 -12 57 -15 77c-1 5 -3 13 -4 24c-11 -35 -20 -56 -30 -79zM320 -46l112 -44l-136 -146l-92 40z" />
    <glyph glyph-name="uniF482" unicode="&#xf482;" horiz-adv-x="612" 
d="M414 447h165l-55 -447h-165l12 49c-51 -46 -90 -62 -152 -62c-113 0 -186 82 -186 211c0 151 100 262 235 262c63 0 97 -15 145 -64zM291 116c60 0 104 51 104 121c0 57 -34 93 -88 93c-60 0 -106 -52 -106 -120c0 -57 35 -94 90 -94zM243 -46l106 -44l-136 -146l-84 40z
" />
    <glyph glyph-name="uniF483" unicode="&#xf483;" horiz-adv-x="631" 
d="M298 147h299l-18 -147h-577l362 520h-263l18 147h536zM387 727c-85 0 -135 36 -135 99c0 60 52 98 133 98c80 0 130 -38 130 -99c0 -60 -50 -98 -128 -98zM384 862c-31 0 -50 -14 -50 -37c0 -22 19 -37 49 -37c32 0 51 14 51 37s-19 37 -50 37z" />
    <glyph glyph-name="uniF484" unicode="&#xf484;" horiz-adv-x="559" 
d="M293 127h216l-21 -127h-496l276 320h-195l21 127h472zM331 527c-85 0 -135 36 -135 99c0 60 52 98 133 98c80 0 130 -38 130 -99c0 -60 -50 -98 -128 -98zM328 662c-31 0 -50 -14 -50 -37c0 -22 19 -37 49 -37c32 0 51 14 51 37s-19 37 -50 37z" />
    <glyph glyph-name="uniF485" unicode="&#xf485;" horiz-adv-x="1028" 
d="M834 680c68 0 129 -19 194 -61l-74 -128c-45 34 -81 49 -117 49c-46 0 -75 -22 -75 -58c0 -32 17 -48 85 -80c110 -52 148 -99 148 -187c0 -134 -106 -228 -255 -228c-80 0 -136 18 -225 73l76 128c60 -41 95 -55 141 -55c53 0 89 27 89 68c0 29 -15 45 -78 76
c-119 60 -154 103 -154 193c0 121 104 210 245 210zM335 680c68 0 129 -19 194 -61l-74 -128c-45 34 -81 49 -117 49c-46 0 -75 -22 -75 -58c0 -32 17 -48 85 -80c110 -52 148 -99 148 -187c0 -134 -106 -228 -255 -228c-80 0 -136 18 -225 73l76 128c60 -41 95 -55 141 -55
c53 0 89 27 89 68c0 29 -15 45 -78 76c-119 60 -154 103 -154 193c0 121 104 210 245 210z" />
    <glyph glyph-name="uniF4C4" unicode="&#xf4c4;" horiz-adv-x="465" 
d="M495 520h-140l-65 -520h-168l64 520h-143l18 147h452zM188 -46l112 -44l-136 -146l-92 40z" />
    <glyph glyph-name="uniF4C5" unicode="&#xf4c5;" horiz-adv-x="418" 
d="M97 0l40 320h-122l15 127h408l-16 -127h-122l-39 -320h-164zM161 -46l106 -44l-136 -146l-84 40z" />
    <glyph glyph-name="uniF4C6" unicode="&#xf4c6;" horiz-adv-x="655" 
d="M639 667l-89 -716c-5 -40 -14 -95 -53 -136c-41 -43 -103 -45 -147 -45c-35 0 -58 3 -85 10l14 114c12 -5 21 -6 34 -6c16 0 34 1 47 14c12 11 18 32 22 62l38 298c-29 -4 -73 -10 -126 -10c-84 0 -136 15 -169 39c-43 32 -55 75 -55 119c0 17 4 46 6 63l25 194h169
l-21 -178c-1 -7 -2 -16 -2 -25c0 -18 4 -38 22 -51c7 -5 25 -14 80 -14c21 0 52 1 89 7l32 261h169z" />
    <glyph glyph-name="uniF4C7" unicode="&#xf4c7;" horiz-adv-x="531" 
d="M497 447l-59 -483c-5 -44 -16 -111 -56 -150c-41 -41 -102 -44 -140 -44c-32 0 -56 2 -85 9l14 116c11 -6 19 -7 33 -7c13 0 35 1 49 16c15 15 18 41 20 60l23 190c-31 -8 -60 -11 -90 -11c-55 0 -110 9 -143 42c-27 27 -33 61 -33 90c0 15 2 28 3 39l16 133h159
l-14 -107c-1 -8 -2 -16 -2 -24c0 -14 3 -27 15 -36c7 -5 19 -10 47 -10c23 0 40 2 57 7l21 170h165z" />
    <glyph glyph-name="uniF4C8" unicode="&#xf4c8;" horiz-adv-x="607" 
d="M414 680c72 0 131 -16 202 -56l-20 -165c-49 41 -102 61 -163 61c-123 0 -210 -81 -210 -194c0 -107 76 -179 187 -179c52 0 101 13 153 42l-21 -170c-73 -26 -106 -32 -157 -32c-197 0 -335 137 -335 331c0 203 160 362 364 362zM328 -46l112 -44l-136 -146l-92 40z" />
    <glyph glyph-name="uniF4C9" unicode="&#xf4c9;" horiz-adv-x="423" 
d="M282 460c49 0 92 -10 135 -31l-17 -139c-32 29 -56 40 -91 40c-62 0 -106 -49 -106 -117c0 -59 35 -96 92 -96c30 0 52 8 88 34l-17 -140c-57 -19 -80 -24 -118 -24c-125 0 -213 92 -213 222c0 145 104 251 247 251zM180 -46l106 -44l-136 -146l-84 40z" />
    <glyph glyph-name="uniF4CC" unicode="&#xf4cc;" horiz-adv-x="642" 
d="M45 667h182l126 -299l147 299h195l-382 -667h-183l118 200zM383 898h165l-132 -171h-113z" />
    <glyph glyph-name="uniF4CD" unicode="&#xf4cd;" horiz-adv-x="588" 
d="M427 447h188l-418 -676h-185l160 264l-158 412h183l48 -121c18 -45 26 -73 37 -128c15 33 34 68 59 108zM358 698h165l-132 -171h-113z" />
    <glyph glyph-name="uniF639" unicode="&#xf639;" horiz-adv-x="638" 
d="M345 682c154 0 255 -107 262 -277c1 -6 1 -12 1 -18c0 -107 -31 -213 -84 -288c-56 -78 -126 -114 -223 -114c-167 0 -271 117 -271 305c0 230 130 392 315 392zM298 131c83 0 139 105 139 258c0 92 -33 146 -90 146c-83 0 -147 -105 -147 -243c0 -99 37 -161 98 -161z
" />
    <glyph glyph-name="uniF63A" unicode="&#xf63a;" horiz-adv-x="609" 
d="M344 147h206l-19 -147h-509c92 84 125 116 183 177c39 40 75 80 108 120c64 77 90 124 90 163c0 45 -31 75 -76 75c-58 0 -81 -33 -87 -110h-172c7 83 25 134 67 179c46 49 119 78 199 78c149 0 242 -84 242 -217c0 -58 -19 -114 -55 -158c-15 -19 -33 -38 -54 -58
c-38 -36 -61 -55 -123 -102z" />
    <glyph glyph-name="uniF63B" unicode="&#xf63b;" horiz-adv-x="597" 
d="M288 -15c-169 0 -264 86 -266 242h174v-14c0 -54 34 -86 92 -86c57 0 93 32 93 82c0 47 -34 77 -87 77c-4 0 -11 0 -21 -1l16 126c15 -2 23 -3 30 -3c47 0 79 29 79 72c0 38 -29 65 -70 65c-45 0 -68 -23 -76 -81h-173c10 70 39 133 82 168c42 34 94 50 165 50
c148 0 238 -73 238 -194c0 -68 -24 -108 -87 -142c55 -30 77 -70 77 -138c0 -132 -108 -223 -266 -223z" />
    <glyph glyph-name="uniF63C" unicode="&#xf63c;" horiz-adv-x="594" 
d="M547 125h-67l-16 -125h-154l15 125h-316l9 135l327 407h201l-50 -408h67zM182 259h160l12 99c6 52 16 111 26 160c-20 -30 -46 -66 -60 -84z" />
    <glyph glyph-name="uniF63D" unicode="&#xf63d;" horiz-adv-x="606" 
d="M213 667h360l-18 -147h-234l-27 -82c26 3 37 3 52 3c141 0 223 -74 223 -200c0 -148 -125 -256 -298 -256c-65 0 -117 10 -174 34c-22 9 -34 16 -77 38l48 153c42 -36 72 -52 120 -67c26 -7 56 -12 78 -12c77 0 130 43 130 105c0 64 -51 99 -142 99
c-53 0 -91 -8 -158 -32z" />
    <glyph glyph-name="uniF63E" unicode="&#xf63e;" horiz-adv-x="598" 
d="M528 667l-209 -234c21 3 31 4 45 4c123 0 207 -85 207 -209c0 -142 -117 -243 -282 -243c-156 0 -269 96 -269 227c0 27 5 56 15 81c21 54 48 95 115 170l179 204h199zM398 224v4c-2 55 -43 92 -102 92c-63 0 -109 -43 -109 -101c0 -56 45 -98 105 -98
c62 0 106 43 106 103z" />
    <glyph glyph-name="uniF63F" unicode="&#xf63f;" horiz-adv-x="595" 
d="M76 667h512l-369 -667h-185l204 367c24 44 63 109 92 153h-272z" />
    <glyph glyph-name="uniF640" unicode="&#xf640;" horiz-adv-x="587" 
d="M548 506c0 -75 -33 -114 -124 -146c68 -25 97 -50 116 -96c10 -24 14 -49 14 -75c0 -124 -103 -204 -262 -204c-164 0 -266 75 -266 198c0 56 23 106 63 137c23 18 41 26 89 40c-60 34 -86 76 -86 138c0 106 100 184 236 184c137 0 220 -67 220 -176zM319 432
c41 0 72 29 72 68c0 40 -28 66 -69 66c-42 0 -74 -30 -74 -69c0 -38 30 -65 71 -65zM381 205v5c-4 41 -40 68 -90 68c-53 0 -92 -32 -92 -76s39 -76 92 -76c52 0 90 33 90 79z" />
    <glyph glyph-name="uniF641" unicode="&#xf641;" horiz-adv-x="599" 
d="M70 0l211 234c-19 -4 -27 -6 -39 -6c-123 0 -215 92 -215 214c0 141 118 240 285 240c158 0 267 -93 267 -227c0 -71 -34 -143 -103 -221l-207 -234h-199zM412 451v6c-4 52 -45 88 -101 88c-62 0 -110 -45 -110 -103c0 -54 44 -95 103 -95c62 0 108 43 108 104z" />
    <glyph glyph-name="uniF6BA" unicode="&#xf6ba;" horiz-adv-x="353" 
d="M45 274l16 133h253l-16 -133h-253z" />
    <glyph glyph-name="uniF6BB" unicode="&#xf6bb;" horiz-adv-x="574" 
d="M64 275l17 132h434l-17 -132h-434z" />
    <glyph glyph-name="uniF6BC" unicode="&#xf6bc;" horiz-adv-x="907" 
d="M64 275l17 132h767l-17 -132h-767z" />
    <glyph glyph-name="uniF6C3" unicode="&#xf6c3;" 
d="M200 -50l150 -16l-120 -184l-100 12z" />
    <glyph glyph-name="uniF6C9" unicode="&#xf6c9;" 
d="M308 898h165l-132 -171h-113z" />
    <glyph glyph-name="uniF6CA" unicode="&#xf6ca;" 
d="M259 900l37 -86l56 86h132l-111 -173h-182l-59 173h127z" />
    <glyph glyph-name="uniF6CB" unicode="&#xf6cb;" 
d="M398 887c43 0 80 -37 80 -80c0 -45 -35 -80 -79 -80c-45 0 -82 36 -82 81c0 43 37 79 81 79zM196 887c45 0 80 -36 80 -80c0 -45 -35 -80 -79 -80c-46 0 -81 35 -81 81c0 44 35 79 80 79z" />
    <glyph glyph-name="uniF6CE" unicode="&#xf6ce;" 
d="M232 727l-89 171h164l38 -171h-113z" />
    <glyph glyph-name="uniF6CF" unicode="&#xf6cf;" 
d="M188 898h151l-117 -171h-100zM388 898h151l-117 -171h-99z" />
    <glyph glyph-name="uniF6D0" unicode="&#xf6d0;" 
d="M94 749l12 98h376l-12 -98h-376z" />
    <glyph glyph-name="uniF6D1" unicode="&#xf6d1;" 
d="M360 898l108 -48c-18 -49 -50 -77 -77 -93c-43 -26 -89 -29 -128 -29c-36 0 -89 2 -133 30c-24 15 -55 43 -72 92l115 48c4 -17 14 -36 28 -47c14 -12 36 -19 65 -19c16 0 40 3 61 19c15 12 27 30 33 47z" />
    <glyph glyph-name="uniF6D4" unicode="&#xf6d4;" 
d="M329 677l109 -39c-13 -47 -42 -74 -66 -90c-41 -26 -87 -30 -122 -30c-41 0 -91 5 -128 31c-27 19 -51 50 -62 89l115 39c3 -15 11 -35 21 -45c16 -17 38 -18 52 -18c17 0 41 2 58 20c10 10 19 30 23 43z" />
    <glyph glyph-name="uniF6DC" unicode="&#xf6dc;" horiz-adv-x="336" 
d="M49 667h264l-83 -667h-168l64 520h-95z" />
    <glyph glyph-name="uniF6DE" unicode="&#xf6de;" horiz-adv-x="680" 
d="M48 199l13 132h575l-13 -132h-575z" />
    <glyph glyph-name="uniF8FF" unicode="&#xf8ff;" horiz-adv-x="667" 
d="M332 518c2 97 57 161 148 173v-10c0 -87 -69 -163 -148 -163zM479 528c61 0 109 -24 144 -71c-58 -45 -80 -84 -80 -140c0 -66 37 -122 99 -148c-50 -124 -112 -196 -169 -196c-13 0 -27 3 -40 9l-41 17c-5 2 -16 4 -33 4c-20 0 -45 -3 -51 -5l-43 -18
c-14 -5 -27 -8 -38 -8c-36 0 -75 29 -111 82c-53 78 -84 172 -84 252c0 130 77 220 187 220c24 0 45 -5 77 -18c22 -8 38 -12 48 -12s25 3 43 10c55 20 62 22 92 22z" />
    <glyph glyph-name="uni20B6.fitted" horiz-adv-x="637" 
d="M172 667h214c65 0 137 -8 186 -57c45 -45 51 -101 51 -145c0 -41 -6 -96 -50 -143c-52 -56 -135 -72 -221 -72h-62l-8 -63h180l-12 -97h-180l-11 -90h-169l11 90h-82l12 97h82l8 63h-82l13 110h82zM361 527h-37l-20 -166h43c21 0 60 2 83 28c16 19 19 45 19 59
c0 16 -1 40 -17 57c-20 23 -48 22 -71 22z" />
    <glyph glyph-name="uni20B4.fitted" horiz-adv-x="598" 
d="M167 498l-51 127c83 42 163 57 249 57c45 0 100 -4 138 -33c19 -15 45 -45 45 -95c0 -56 -28 -88 -42 -102h69l-11 -97h-151l-74 -63h217l-12 -97h-290c-16 -12 -19 -29 -19 -38c0 -12 4 -21 14 -29c14 -11 34 -12 53 -12c46 0 93 5 162 37l54 -118
c-81 -38 -178 -56 -259 -56c-47 0 -120 4 -162 33c-18 13 -49 41 -49 94c0 23 5 58 33 89h-60l12 97h130l74 63h-196l11 97h279c10 8 22 20 22 45c0 10 -2 24 -15 34c-15 12 -41 12 -48 12c-42 0 -87 -18 -123 -45z" />
    <glyph glyph-name="numbersign.fitted" horiz-adv-x="671" 
d="M500 299h101l-32 -117h-102l-51 -182h-134l52 182h-84l-52 -182h-132l52 182h-102l33 117h101l23 83h-100l32 116h101l48 169h131l-47 -169h84l48 169h133l-48 -169h100l-32 -116h-100zM366 299l24 83h-85l-23 -83h84z" />
    <glyph glyph-name="hyphenminus" horiz-adv-x="353" 
d="M45 202l16 133h253l-16 -133h-253z" />
    <glyph glyph-name="cent.fitted" horiz-adv-x="424" 
d="M353 125c-38 -15 -66 -22 -100 -24l-11 -91h-94l12 104c-86 28 -143 113 -143 211c0 129 78 229 208 250l9 85h94l-10 -84c41 -7 53 -11 87 -28l-17 -141c-33 26 -58 35 -92 35c-63 0 -109 -47 -109 -113c0 -54 38 -92 91 -92c32 0 58 8 92 29z" />
    <glyph glyph-name="Euro.fitted" horiz-adv-x="693" 
d="M580 190l-20 -167c-56 -29 -121 -38 -167 -38c-72 0 -150 17 -206 62c-30 24 -80 76 -90 168h-78l47 90h30c1 18 3 35 7 50h-66l47 90h43c31 91 88 144 127 171c62 43 142 65 226 65c105 0 162 -31 185 -44l-76 -146c-55 34 -109 38 -136 38c-39 0 -71 -9 -95 -22
c-28 -16 -46 -36 -57 -62h268l-47 -90h-250c-4 -17 -6 -34 -6 -50h229l-47 -90h-171c7 -23 22 -43 49 -58c16 -9 44 -20 93 -20c85 0 135 32 161 53z" />
    <glyph glyph-name="florin.fitted" horiz-adv-x="680" 
d="M234 113l60 238h-76l23 96h78l29 111c12 45 33 95 67 128c44 43 102 54 149 54c32 0 68 -4 107 -25l-36 -139c-24 18 -44 22 -59 22c-25 0 -40 -9 -49 -18c-15 -15 -22 -42 -29 -68l-17 -65h97l-25 -96h-97l-64 -257c-18 -74 -44 -163 -99 -216
c-57 -55 -132 -66 -197 -66c-30 0 -57 2 -87 9l37 146c13 -5 30 -9 52 -9c27 0 55 6 75 22c30 24 46 73 61 133z" />
    <glyph glyph-name="dollar.fitted" horiz-adv-x="538" 
d="M488 214c0 -114 -76 -197 -203 -219l-13 -107h-100l13 105c-59 8 -102 26 -172 70l75 126c59 -39 95 -53 138 -53c54 0 90 26 90 65c0 30 -15 44 -77 76c-80 41 -106 61 -128 95c-16 25 -25 59 -25 96c0 103 67 178 183 203l12 104h100l-12 -101c63 -9 90 -20 152 -58
l-73 -127c-45 34 -81 49 -117 49c-46 0 -73 -22 -73 -57c0 -33 17 -49 84 -79c108 -50 146 -99 146 -188z" />
    <glyph glyph-name="dotlessi1" horiz-adv-x="285" 
d="M87 447h165l-55 -447h-165z" />
    </font>
</defs>
</svg>
