<svg xmlns="http://www.w3.org/2000/svg" xmlns:xlink="http://www.w3.org/1999/xlink" version="1.1" x="0px" y="0px" viewBox="0 0 360 360" xml:space="preserve" class="style0"><style>.style0{enable-background:	new 0 0 360 360;}.style1{fill-rule:	evenodd;clip-rule:	evenodd;}</style><g><path d="M180.693 1.114c-13.362-0.056-26.727 1.441-39.736 4.5 c-12.593 2.957-24.839 7.368-36.426 13.115c-11.407 5.658-22.17 12.604-32.03 20.658c-9.82 8.021-18.741 17.135-26.548 27.1 c-7.851 10.045-14.569 20.97-19.979 32.512c-5.506 11.748-9.65 24.129-12.324 36.823c-2.767 13.137-3.957 26.598-3.584 40 c0.369 13.3 2.3 26.5 5.7 39.34c3.343 12.5 8.1 24.5 14.2 35.886c5.999 11.2 13.3 21.7 21.6 31.3 c8.316 9.6 17.7 18.2 27.9 25.719c10.296 7.6 21.4 13.9 33.2 19.007c11.958 5.2 24.5 8.9 37.3 11.2 c13.265 2.4 26.8 3.1 40.3 2.331c13.196-0.786 26.295-3.108 38.949-6.929c12.314-3.719 24.195-8.851 35.346-15.258 c11.017-6.329 21.318-13.897 30.657-22.509c9.325-8.6 17.688-18.238 24.881-28.684c7.255-10.535 13.315-21.888 18.019-33.782 c4.808-12.156 8.191-24.868 10.071-37.802c1.941-13.353 2.292-26.939 1.059-40.375c-1.202-13.097-3.927-26.049-8.124-38.515 c-4.093-12.158-9.579-23.844-16.309-34.767c-6.659-10.808-14.53-20.866-23.417-29.934c-8.883-9.064-18.778-17.137-29.448-24.014 c-10.775-6.945-22.337-12.666-34.401-17.008C225.226 6.7 212.4 3.7 199.3 2.2C193.127 1.5 186.9 1.1 180.7 1.1 C86.806 0.7 274.6 1.5 180.7 1.114z M216.38 160.863c-1.556 5.642-2.476 11.48-3.424 17.2 c-0.944 5.744-1.786 11.503-2.641 17.26c-0.39 2.625-0.604 5.581-2.173 7.811c-1.972 2.802-6.214 3.212-9.224 2.2 c-3.417-1.192-4.066-4.732-4.337-7.929c-0.139-1.647-0.274-3.295-0.411-4.943c-0.085-1.027-0.171-2.055-0.256-3.082 c-0.065-0.78-0.268-1.659-0.173-2.437c0.768-6.255 1.545-12.556 2.769-18.736c1.213-6.122 2.965-12.116 4.178-18.24 c1.189-6.008 2.178-12.347 1.149-18.456c-0.534-3.169-1.539-6.325-3.454-8.945c3.746-0.896 7.819-0.947 11.598-0.212 c2.407 0.5 4.8 1.4 6.7 2.962c3.438 2.9 4.5 7.4 4.5 11.728C221.268 145.2 218.5 153.1 216.4 160.9 C213.865 170 220 147.7 216.4 160.863z M194.738 104.851c0.077-3.757 0.94-7.818 3.297-10.839 c2.081-2.667 5.153-3.88 8.497-3.739c2.984 0.1 5.6 1.8 7.2 4.292c1.725 2.8 2.2 6.2 2.2 9.4 c-0.02 6.163-2.204 14.085-9.247 15.304c-3.371 0.583-6.846-0.425-9.027-3.128c-2.448-3.035-3.069-7.231-2.952-11.017 C194.731 105 194.7 104.9 194.7 104.851C194.793 102.1 194.6 108.1 194.7 104.851z M179.068 81.7 c2.8-0.012 5.5 1 7.5 2.919c2.127 2.1 3.3 4.9 4 7.759c0.753 3.3 0.8 6.9 0.4 10.3 c-0.426 2.993-1.37 6.027-3.242 8.445c-3.492 4.508-10.436 5.526-15.074 2.136c-5.114-3.738-6.037-11.215-5.604-17.059 c0.267-3.603 1.173-7.371 3.408-10.287C172.505 83.1 175.6 81.7 179.1 81.65z M179.195 118 c6.153 0 12.8 1.5 16.4 6.96c4.138 6.2 3.3 14.7 2 21.621c-1.239 7.105-3.474 13.983-4.774 21.1 c-1.141 6.226-1.975 12.509-2.768 18.786c-0.696 5.505-1.324 11.018-1.96 16.53c-0.293 2.536-0.487 5.194-1.648 7.5 c-1.054 2.104-2.914 3.241-5.174 3.709c-2.341 0.484-4.979 0.254-7.083-0.979c-2.23-1.306-3.13-3.836-3.593-6.247 c-0.425-2.21-0.61-4.484-0.871-6.718c-0.323-2.76-0.645-5.52-0.977-8.279c-0.776-6.444-1.589-12.887-2.606-19.298 c-1.029-6.482-2.61-12.792-4.136-19.171c-0.946-3.955-1.762-7.957-2.158-12.008c-0.368-3.768-0.404-7.662 0.527-11.356 c0.723-2.868 2.1-5.594 4.285-7.624c2.167-2.012 4.945-3.214 7.808-3.849C174.731 118.2 177 118 179.2 117.985z M150.876 90.391c1.604-0.409 3.619-0.093 5.2 0.469c1.45 0.5 2.7 1.4 3.8 2.578c2.533 2.8 3.4 6.7 3.7 10.3 c0.305 3.854-0.132 8.318-2.329 11.613c-1.867 2.8-4.947 4.201-8.288 4.025c-7.408-0.39-10.288-7.931-10.512-14.342 c-0.204-5.854 1.453-13.54 8.304-14.657C150.755 90.4 150.8 90.4 150.9 90.391C151.379 90.3 144.8 91.3 150.9 90.391z M150.876 122.015c2.93-0.415 6.191-0.126 9.1 0.561c-1.828 2.519-2.873 5.472-3.382 8.524c-0.505 3.025-0.666 6.24-0.367 9.3 c0.31 3.2 0.7 6.3 1.4 9.463c0.646 3 1.5 6 2.1 9.071c0.696 3 1.5 6 2.1 9.1 c0.628 3.1 1.1 6.3 1.5 9.505c0.392 3.1 0.9 6.2 1.3 9.32c0.079 0.664-0.059 1.357-0.115 2 c-0.094 1.12-0.188 2.24-0.282 3.36c-0.14 1.673-0.278 3.347-0.42 5.02c-0.265 3.144-0.882 6.756-4.195 8 c-2.984 1.135-7.21 0.749-9.272-1.95c-1.657-2.169-1.854-5.105-2.243-7.715c-0.849-5.707-1.68-11.416-2.612-17.11 c-0.951-5.816-1.88-11.696-3.422-17.392c-1.256-4.64-2.691-9.231-3.684-13.939c-0.99-4.694-1.731-9.721-0.76-14.481 c0.908-4.453 3.657-7.964 7.97-9.555C147.247 122.5 149.1 122.2 150.9 122 C151.756 121.9 129.7 123.8 150.9 122.015z M292.645 167.967c-0.691 7.274-3.619 14.197-7.346 20.4 c-3.726 6.217-8.318 11.902-13.435 17.028c-9.995 10.013-21.91 17.998-34.371 24.614c-15.443 8.199-31.986 14.567-48.813 19.3 c-17.291 4.842-35.204 7.801-53.194 7.734c-13.589-0.05-27.838-1.696-40.256-7.553c-4.764-2.247-9.275-5.197-12.85-9.097 c-3.792-4.138-6.024-9.088-7.115-14.569c-1.044-5.243-0.886-10.68 0.487-15.848c1.488-5.605 4.288-10.783 7.749-15.411 c7.482-10.004 17.819-17.706 28.446-24.092c8.462-5.085 17.381-9.424 26.532-13.122c-12.656 7.842-24.851 17.827-32.73 30.6 c-5.412 8.8-8.837 19.855-4.523 29.813c4.765 11 16.5 16.4 27.6 18.713c7.521 1.6 15.2 1.9 22.9 1.7 c9.255-0.228 18.454-1.531 27.516-3.38c9.058-1.77 17.991-4.281 26.719-7.267c8.098-2.771 15.978-6.236 23.502-10.312 c12.635-6.844 24.492-15.553 33.967-26.413c7.709-8.836 15.121-20.416 13.679-32.688c-1.206-10.264-8.93-17.763-17.912-22.016 c-8.961-4.243-19.08-5.789-28.924-5.916c13.836-1.405 28.609-0.606 41.5 5.157c9.565 4.3 17.9 11.8 20.4 22.3 c0.406 1.7 0.6 3.4 0.6 5.202C292.645 164.6 292.6 166.3 292.6 167.967z" class="style1"/></g><g></g></svg>