<?xml version="1.0" encoding="utf-8"?>
<!-- Generator: Adobe Illustrator 18.0.0, SVG Export Plug-In . SVG Version: 6.00 Build 0)  -->
<!DOCTYPE svg PUBLIC "-//W3C//DTD SVG 1.1//EN" "http://www.w3.org/Graphics/SVG/1.1/DTD/svg11.dtd">
<svg version="1.1" id="Layer_1" xmlns="http://www.w3.org/2000/svg" xmlns:xlink="http://www.w3.org/1999/xlink" x="0px" y="0px"
	 viewBox="0 0 1920 1080" enable-background="new 0 0 1920 1080" xml:space="preserve">
<g id="Layer_1_1_">
</g>
<path d="M960,1050.9c-298.7,0-540.8-228.7-540.8-510.9S661.3,29.1,960,29.1s540.8,228.7,540.8,510.9S1258.7,1050.9,960,1050.9z
	 M1355.2,431c-3.8-14.6-11.9-25.6-28.7-34.3c-119.5-65.2-282.9-97.4-445.5-97.4c-97.8,0-180.5,10.4-257.7,31.6
	c-17.3,4.7-30.4,17.3-35.5,35.2c-0.2,1.3-0.5,2.6-0.7,4c-0.5,2.3-0.5,5-0.7,7.5c0.8,26.5,22.4,47.4,50.7,47.4
	c9.9,0,19.9-3.7,27.7-5.6c68.2-17.5,142.7-24.5,216.1-24.5c146.9,0,298.8,30.6,396.7,86c10.3,5.3,16.9,7.9,27.9,7.9
	c27.3,0,51-20,51-47.9C1356.5,437.1,1355.7,434.2,1355.2,431z M1280.5,605.8c0-1.2-0.3-2.2-0.4-3.4c-3.4-17.9-9.7-24.9-23.8-33.1
	c-100.5-57.2-238-94.4-388.1-94.4c-78.3,0-149.8,10.6-210.8,27.5c-20.9,5.4-31.4,18.8-34,35.1c-0.1,1.5-0.6,2.7-0.6,4.3
	c0,22.1,19,40.1,42.3,40.1c9.9,0,15.7-2.9,26.3-5.7c48.9-12.3,108-21.3,176.5-21.3c133.5,0,255.5,32.8,343.4,82.1
	c8,4.4,15.4,8.8,27.1,8.8C1261.8,645.8,1280.5,628,1280.5,605.8z M679.4,728c6.7,0,17.8-3.2,26.7-5.1
	c54.5-10.7,112.7-17.7,170.6-17.7c103.7,0,201.5,23.5,279.8,68.3c8.2,4.7,14.2,7.6,22.9,7.6c17.8,0,33.6-13.5,33.6-31.9
	c0-2.6-0.5-4.6-0.8-6.9c-2.4-8.7-7.1-15.7-17.2-21.6c-86.6-49.9-193.6-79-317.7-79c-78.9,0-146.7,10.8-201.7,22.1
	c-14,2.4-25,11-29.2,24.7c-0.4,2.4-1.2,4.5-1.2,7.3C645.2,712.5,658.9,728,679.4,728z"/>
</svg>
