<svg xmlns="http://www.w3.org/2000/svg" version="1.1" x="0" y="0" viewBox="0 0 360 360" xml:space="preserve"><g id="twitter"><path d="M180.69 10C86.81 9.61 10.39 85.4 10 179.29c-0.38 93.89 75.42 170.32 169.31 170.71 93.89 0.4 170.31-75.4 170.69-169.28C350.38 86.83 274.58 10.4 180.69 10zM244.13 148.02c0.06 1.38 0.1 2.77 0.1 4.16 0 42.51-33.28 91.54-94.14 91.54 -18.69 0-36.08-5.33-50.72-14.45 2.59 0.3 5.22 0.45 7.9 0.45 15.5 0 29.77-5.14 41.09-13.77 -14.48-0.26-26.7-9.56-30.91-22.35 2.02 0.38 4.09 0.58 6.23 0.58 3.02 0 3.02-0.39 5.8-1.13C114.33 190.09 100 177.09 100 161.5c0-0.14 0-0.27 0-0.41 10 2.41 12.48 3.86 17.91 4.03 -8.88-5.77-13.26-15.62-13.26-26.78 0-5.9 2.36-11.42 5.21-16.17 16.32 19.47 41.07 32.27 68.56 33.62 -0.56-2.35-0.67-4.81-0.67-7.33 0-17.77 14.91-32.17 33.18-32.17 9.52 0 18.16 3.91 24.2 10.16 7.54-1.44 14.64-4.12 21.03-7.81 -2.47 7.51-7.7 13.82-14.54 17.8 6.69-0.78 13.08-2.51 19.01-5.07C256.2 137.82 250.59 143.48 244.13 148.02z"/></g><g id="Layer_1"/></svg>