<?xml version="1.0" encoding="iso-8859-1"?>
<!-- Generator: Adobe Illustrator 18.0.0, SVG Export Plug-In . SVG Version: 6.00 Build 0)  -->
<!DOCTYPE svg PUBLIC "-//W3C//DTD SVG 1.1//EN" "http://www.w3.org/Graphics/SVG/1.1/DTD/svg11.dtd">
<svg version="1.1" xmlns="http://www.w3.org/2000/svg" xmlns:xlink="http://www.w3.org/1999/xlink" x="0px" y="0px"
	 viewBox="0 0 360 360" style="enable-background:new 0 0 360 360;" xml:space="preserve">
<g id="wkontakte">
	<path id="wkontakte_1_" style="fill-rule:evenodd;clip-rule:evenodd;" d="M180.694,10.002
		C86.807,9.607,10.385,85.397,10.001,179.286c-0.383,93.886,75.418,170.318,169.305,170.713
		c93.888,0.396,170.309-75.396,170.692-169.282C350.382,86.828,274.582,10.397,180.694,10.002z M259.92,202.466
		c16.32,15.34,19.702,22.808,20.256,23.736c6.757,11.344-7.493,12.237-7.493,12.237l-27.242,0.386c0,0-5.855,1.171-13.558-4.186
		c-10.187-7.083-19.799-25.503-27.287-23.097c-7.591,2.441-7.353,19.008-7.353,19.008s0.054-0.679-1.675,1.205
		c-1.882,2.053-5.565-1.755-5.565-1.755H177.81c0,0-26.901,5.858-50.596-19.127c-25.839-27.247-48.658-79.209-48.658-79.209
		s-1.314-2.489,0.115-4.204c1.608-1.925,5.983-1.524,5.983-1.524l29.146,0.072c0,0,2.748,0.596,4.713,2.057
		c1.62,1.206,2.527,3.527,2.527,3.527s4.713,12.102,10.95,23.016c12.177,21.311,17.848,25.989,21.982,23.705
		c6.024-3.327,4.217-30.114,4.217-30.114s0.111-9.723-3.033-14.056c-2.433-3.351-7.024-4.331-9.053-4.606
		c-1.64-0.22,1.051-4.075,4.543-5.808c5.244-2.601,14.506-2.748,25.451-2.634c8.527,0.086,10.982,0.627,14.315,1.441
		c10.048,2.457,6.639,11.949,6.639,34.711c0,7.289-1.299,17.542,3.896,20.941c2.232,1.462,7.694,0.22,21.352-23.268
		c6.473-11.136,11.329-24.222,11.329-24.222s1.058-2.334,2.707-3.334c1.686-1.021,3.961-0.706,3.961-0.706l30.673-0.194
		c0,0,9.217-1.113,10.707,3.098c1.566,4.425-3.444,14.753-15.974,31.668C245.127,189.006,242.838,186.407,259.92,202.466z"/>
</g>
<g id="Layer_1">
</g>
</svg>
