<svg xmlns="http://www.w3.org/2000/svg" version="1.1" x="0" y="0" viewBox="0 0 26.6 18.8" xml:space="preserve"><path d="M26.3 4.1c0 0-0.3-1.8-1.1-2.7 -1-1.1-2.1-1.1-2.7-1.1C18.9 0 13.3 0 13.3 0h0c0 0-5.6 0-9.3 0.3C3.5 0.3 2.3 0.3 1.3 1.4 0.5 2.2 0.3 4.1 0.3 4.1S0 6.2 0 8.4v2c0 2.2 0.3 4.3 0.3 4.3s0.3 1.8 1.1 2.7c1 1.1 2.3 1 2.9 1.1 2.1 0.2 9 0.3 9 0.3s5.6 0 9.3-0.3c0.5-0.1 1.7-0.1 2.7-1.1 0.8-0.8 1.1-2.7 1.1-2.7s0.3-2.2 0.3-4.3V8.4C26.6 6.2 26.3 4.1 26.3 4.1zM10.5 13.1V5.6l7.1 3.7L10.5 13.1z" fill="#FFF"/></svg>