<svg xmlns="http://www.w3.org/2000/svg" xmlns:xlink="http://www.w3.org/1999/xlink" version="1.1" x="0" y="0" viewBox="0 0 360 360" xml:space="preserve" enable-background="new 0 0 360 360"><path d="M163 246.78c-3 3.27-4.7 4.89-6.8 4.89 -1.4 0-2.52-0.82-2.78-2.44 -0.1-0.34-0.42-1.62-0.42-4.06V200h-10v48.31c0 4.08 0.34 6.83 0.92 8.57 1.05 2.92 3.54 4.29 6.93 4.29 3.86 0 7.16-2.32 12.16-7.08V260h10v-60h-10V246.78zM203.04 199.39c-3.86 0-7.04 2.1-11.04 6.26V181h-10v79h10v-5.22c4 4.33 7.31 6.39 11.04 6.39 4.19 0 7.25-2.19 8.65-6.48 0.7-2.44 1.31-6.29 1.31-11.62v-27.06c0-5.45-0.61-7.78-1.31-10.1C210.29 201.58 207.22 199.39 203.04 199.39zM202 243.89c0 5.21-1.64 7.78-4.67 7.78 -1.73 0-3.33-0.82-5.33-2.57v-39.25c2-1.72 3.61-1.05 5.33-1.05 3.03 0 4.67 1.18 4.67 6.38V243.89z" style="clip-rule:evenodd;fill-rule:evenodd"/><polygon points="106 192 118 192 118 260 130 260 130 192 143 192 143 181 106 181 " style="clip-rule:evenodd;fill-rule:evenodd"/><path d="M177.5 149.92c3.42 0 5.5-2.69 5.5-8.09v-24.52c0-5.39-2.08-8.08-5.5-8.08 -3.42 0-5.5 2.69-5.5 8.08v24.52C172 147.22 174.08 149.92 177.5 149.92zM237.05 198.65c-5.36 0-9.66 1.97-12.69 5.92 -2.23 2.92-3.36 5.93-3.36 12.1v24.3c0 6.13 1.26 10.68 3.49 13.56 3.03 3.94 7.27 5.91 12.77 5.91 5.48 0 9.82-2.07 12.73-6.25 1.27-1.85 2.27-3.95 2.62-6.26 0.09-1.05 0.39-3.37 0.39-6.73V240h-11.03c0 4-0.13 6.34-0.22 6.91 -0.6 2.8-1.96 4.11-4.54 4.11 -3.6 0-5.2-2.75-5.2-8.09V233h21v-16.34c0-6.16-1.21-9.18-3.4-12.09C246.66 200.61 242.32 198.65 237.05 198.65zM242 224h-10v-5.71c0-5.33 1.51-6.52 5.01-6.52 3.48 0 4.99 1.18 4.99 6.52V224zM348.68 158.53C339.42 82.77 278.52 21.36 202.79 11.49 91.62-2.99-2.29 90.17 11.32 201.46c9.26 75.77 70.16 137.18 145.9 147.05C268.38 363 362.3 269.82 348.68 158.53zM202 100h10v43.34c0 2.47 0.22 3.76 0.35 4.11 0.24 1.63 1.3 2.47 2.73 2.47 2.12 0 3.93-1.64 6.93-4.94V100h10v55h-10v-4.88c-4 4.82-8.37 5.67-12.25 5.67 -3.41 0-5.76-1.38-6.82-4.33 -0.59-1.77-0.93-0.83-0.93-4.95V100zM162 119.43c0-6.23 0.96-10.78 3.21-13.73 2.93-3.99 7.01-5.97 12.29-5.97 5.32 0 9.36 1.99 12.3 5.97 2.22 2.95 3.2 7.5 3.2 13.73v20.41c0 6.2-1.01 7.07-3.23 9.99 -2.93 3.97-7.04 5.97-12.35 5.97 -5.28 0-9.29-0.5-12.22-4.48 -2.26-2.92-3.2-5.28-3.2-11.48V119.43zM133.4 80l8.35 30.72L149.78 80h11.9L148 127.03V155h-12v-27.97c-1-5.61-3.54-14.08-7.31-24.99C126.2 94.79 123.5 88 121.02 80H133.4zM263.73 260.12c-2.12 9.2-9.68 15.98-18.77 16.99 -21.55 2.39-43.35 2.41-65.06 2.39 -21.71 0.02-43.52 0-65.06-2.39 -9.1-1.01-16.65-7.79-18.77-16.99 -3.03-13.1-3.03-27.39-3.03-40.88 0-13.49 0.03-21.45 3.06-34.56 2.12-9.19 9.68-15.97 18.77-16.98 21.54-2.4 43.35-2.41 65.06-2.4 21.71-0.01 43.51 0 65.06 2.4 9.1 1.01 16.65 6.3 18.78 15.49 3.02 13.11 3.01 18.46 3.01 31.96C266.77 228.64 266.76 247.03 263.73 260.12z" style="clip-rule:evenodd;fill-rule:evenodd"/></svg>